<svg xmlns="http://www.w3.org/2000/svg" viewBox="0 0 24 24" class="pdsicon"><path fill-rule="evenodd" d="M8 9a7 7 0 1 1 6.06 6.937 14 14 0 0 0-.514-.062l-.01.008a9 9 0 0 0-.25.245l-1.579 1.58A1 1 0 0 1 11 18h-1v1a1 1 0 0 1-1 1H8v1a1 1 0 0 1-1 1H4.568c-.252 0-.498 0-.706-.017a2 2 0 0 1-.77-.201 2 2 0 0 1-.874-.874 2 2 0 0 1-.201-.77C2 19.93 2 19.684 2 19.432v-1.82c0-.19-.001-.43.055-.665a2 2 0 0 1 .24-.578c.126-.206.296-.375.43-.509l.036-.036 5.111-5.11c.126-.126.196-.197.245-.25l.008-.01-.003-.045c-.01-.103-.03-.244-.06-.469A7 7 0 0 1 8 9m0 9v-1a1 1 0 0 1 1-1h1.586l1.286-1.286.052-.053c.18-.18.398-.4.646-.539a1.8 1.8 0 0 1 .693-.234c.193-.027.382-.014.52 0 .145.014.324.038.525.065l.018.002q.33.045.674.045a5 5 0 1 0-4.955-4.326l.002.018c.027.201.051.38.065.524.014.14.027.328 0 .521-.038.265-.104.46-.234.693-.14.248-.359.466-.54.646l-.052.052-5.11 5.11a6 6 0 0 0-.171.175l-.002.002v.004a6 6 0 0 0-.003.244V19.4a8 8 0 0 0 .011.588l.014.002c.116.01.278.01.575.01H6v-1a1 1 0 0 1 1-1zm6-11a1 1 0 0 1 1-1c.766 0 1.536.293 2.121.879.586.585.879 1.355.879 2.12A1 1 0 1 1 16 9a1 1 0 0 0-.293-.707A1 1 0 0 0 15 8a1 1 0 0 1-1-1"/></svg>