<svg xmlns="http://www.w3.org/2000/svg" viewBox="0 0 16 16" class="pdsicon"><path fill-rule="evenodd" d="m14.193 2.75 1.571-1.572c.315-.314.315-.733 0-.942-.314-.315-.733-.315-.942 0L12.727 2.33l-2.095 2.095-2.933 2.828c-1.886-1.467-4.609-1.257-6.285.419-1.885 1.885-1.885 5.027 0 6.913 1.886 1.885 5.028 1.885 6.913 0a4.817 4.817 0 0 0 .42-6.39l2.409-2.409 1.57 1.571c.315.315.734.315.943 0l2.095-2.095c.315-.314.315-.733 0-.942l-1.57-1.571ZM7.28 13.643a3.477 3.477 0 0 1-4.923 0 3.477 3.477 0 0 1 0-4.923 3.477 3.477 0 0 1 4.923 0 3.477 3.477 0 0 1 0 4.923Zm5.97-7.646-1.152-1.152 1.152-1.153 1.153 1.153-1.153 1.152Z"/></svg>