<svg xmlns="http://www.w3.org/2000/svg" viewBox="0 0 24 24" class="pdsicon"><path fill-rule="evenodd" d="M19 1a1 1 0 0 1 1 1v2h2a1 1 0 1 1 0 2h-2v2a1 1 0 1 1-2 0V6h-2a1 1 0 1 1 0-2h2V2a1 1 0 0 1 1-1M7.759 2H12.5a1 1 0 1 1 0 2H7.8c-.857 0-1.439 0-1.889.038-.438.035-.663.1-.819.18a2 2 0 0 0-.874.874c-.08.156-.145.38-.18.819C4 6.361 4 6.943 4 7.8v8.4c0 .857 0 1.439.038 1.889.035.438.1.663.18.819a2 2 0 0 0 .801.835c.087-.135.179-.238.24-.304a10 10 0 0 1 .571-.545l8.508-7.735c.161-.146.32-.291.466-.405a2 2 0 0 1 .62-.342c.36-.118.747-.13 1.114-.036.261.067.47.188.64.304.152.104.32.238.49.374l2.82 2.256.065.051c.314.251.59.472.807.748a3 3 0 0 1 .56 1.167c.08.341.08.695.08 1.097v.765c0 .795 0 1.386-.136 1.897a4 4 0 0 1-2.829 2.829c-.511.137-1.102.136-1.897.136H7.03c-.255 0-.504 0-.712-.014a12 12 0 0 1-.57-.03c-.563-.046-1.08-.145-1.565-.392a4 4 0 0 1-1.748-1.748c-.247-.485-.346-1.002-.392-1.564C2 17.71 2 17.046 2 16.242V7.758c0-.805 0-1.47.044-2.01.046-.563.145-1.08.392-1.565a4 4 0 0 1 1.748-1.748c.485-.247 1.002-.346 1.564-.392C6.29 2 6.954 2 7.758 2M19.59 19.213q.15-.196.249-.426c.058-.137.107-.333.133-.711.027-.388.028-.886.028-1.62 0-.532-.006-.637-.026-.723a1 1 0 0 0-.187-.39c-.055-.069-.133-.14-.549-.472l-2.797-2.238a8 8 0 0 0-.4-.307l-.007.006a8 8 0 0 0-.371.326L7.587 20h8.869c.734 0 1.232 0 1.62-.028.378-.026.574-.075.71-.133a2 2 0 0 0 .804-.626M8.5 7.5a1 1 0 1 0 0 2 1 1 0 0 0 0-2m-3 1a3 3 0 1 1 6 0 3 3 0 0 1-6 0"/></svg>