<svg xmlns="http://www.w3.org/2000/svg" viewBox="0 0 16 16" class="pdsicon"><g clip-path="url(#a)"><path fill-rule="evenodd" d="M13.3.7H2.7c-1.1 0-2 .9-2 2v10.7c0 1.1.9 2 2 2h10.7c1.1 0 2-.9 2-2V2.7c-.1-1.1-1-2-2.1-2Zm.7 12.6c0 .4-.3.7-.7.7H2.7c-.4 0-.7-.3-.7-.7V2.7c0-.4.3-.7.7-.7h10.7c.3 0 .6.3.6.7v10.6Zm-2.7-4H10v3.3h1.3V9.3Zm0-6v1.5c.8.3 1.4 1 1.4 1.9 0 1.1-.9 2-2 2s-2-.9-2-2c0-.9.5-1.6 1.3-1.9V3.3h1.3ZM10 6.7c0 .3.3.6.7.6.3 0 .6-.3.7-.6 0-.4-.3-.7-.7-.7-.4 0-.7.3-.7.7ZM6 3.3H4.7v3.3H6V3.3Zm-2.7 6c0-1.1.9-2 2-2s2 .9 2 2c0 .9-.5 1.6-1.3 1.9v1.5H4.6v-1.5c-.7-.3-1.3-1-1.3-1.9Zm1.4 0c0 .4.3.7.6.7.4 0 .7-.3.7-.7 0-.3-.4-.6-.7-.6-.3 0-.6.3-.6.6Z"/></g><defs><clipPath id="a"><path d="M0 0h16v16H0z"/></clipPath></defs></svg>