<svg xmlns="http://www.w3.org/2000/svg" viewBox="0 0 16 16" class="pdsicon"><path fill-rule="evenodd" d="M12 4c-.1 0-.3-.1-.4-.1-.1-.1-.1-.2-.1-.4 0-.3-.1-.5-.3-.7s-.4-.3-.7-.3c-.1 0-.3-.1-.4-.1 0-.1-.1-.3-.1-.4s.1-.3.1-.4c.1-.1.2-.1.4-.1.3 0 .5-.1.7-.3s.3-.4.3-.7c0-.1.1-.3.1-.4.1 0 .3-.1.4-.1s.3.1.4.1c.1.1.1.2.1.4 0 .3.1.5.3.7s.4.3.7.3c.1 0 .3.1.4.1 0 .1.1.3.1.4s-.1.3-.1.4c-.1.1-.2.1-.4.1-.3 0-.5.1-.7.3s-.3.4-.3.7c0 .1-.1.3-.1.4-.1 0-.3.1-.4.1m-6.8.4c.1.1.2.1.3.1s.2 0 .3-.1.1-.2.1-.3c0-.2.1-.4.2-.5s.3-.2.5-.2c.1 0 .2 0 .3-.1S7 3.1 7 3s0-.2-.1-.3c-.1 0-.2-.1-.3-.1-.2 0-.4-.1-.5-.2s-.2-.3-.2-.5c0-.1 0-.2-.1-.3s-.2-.1-.3-.1-.2 0-.3.1c0 .1-.1.2-.1.3 0 .2-.1.4-.2.5s-.3.2-.5.2c-.1 0-.2 0-.3.1S4 2.9 4 3s0 .2.1.3.2.1.3.1c.2 0 .4.1.5.2s.2.3.2.5c0 .1.1.2.1.3M2 14.1l2.4-.5c.1 0 .2-.1.2-.1l5.7-5.7c.2-.2.2-.5 0-.7l-1.8-2c-.2-.1-.5-.1-.7 0l-5.7 5.7c-.1.1-.1.2-.1.3l-.5 2.4c0 .2 0 .3.1.4s.2.2.4.2m6.2-8 1.2 1.2-.7.8-1.3-1.2zm-5.3 5.4 3.9-3.9L8 8.8l-3.9 3.9-1.5.3zM11 15H1.5c-.3 0-.5.3-.5.5 0 .3.2.5.5.5H11c.3 0 .5-.2.5-.5 0-.2-.2-.5-.5-.5m1.9-3.6c.1.1.2.1.3.1s.2 0 .3-.1.1-.2.1-.3c0-.2.1-.5.3-.6s.4-.3.6-.3c.1 0 .2 0 .3-.1.2-.1.2-.2.2-.3s0-.2-.1-.3-.2-.1-.3-.1c-.2 0-.5-.1-.6-.3q-.3-.3-.3-.6c0-.1 0-.2-.1-.3-.1-.2-.2-.2-.4-.2s-.2 0-.3.1-.1.2-.1.3c0 .2-.1.5-.3.6q-.3.3-.6.3c-.1 0-.2 0-.3.1s-.1.2-.1.3 0 .2.1.3.2.1.3.1c.2 0 .5.1.6.3s.3.4.3.6.1.3.1.4"/></svg>