<svg xmlns="http://www.w3.org/2000/svg" viewBox="0 0 24 24" class="pdsicon"><path d="M10 15a1 1 0 0 1 1 1v4a3 3 0 0 1-3 3H6a3 3 0 0 1-3-3v-4a1 1 0 0 1 2 0v4a1 1 0 0 0 1 1h2a1 1 0 0 0 1-1v-4a1 1 0 0 1 1-1m10 0a1 1 0 0 1 1 1v1a3 3 0 0 1-3 3h-2a3 3 0 0 1-3-3v-1a1 1 0 0 1 2 0v1a1 1 0 0 0 1 1h2a1 1 0 0 0 1-1v-1a1 1 0 0 1 1-1m2-4a1 1 0 0 1 0 2H2a1 1 0 1 1 0-2zM8 1a3 3 0 0 1 3 3v4a1 1 0 0 1-2 0V4a1 1 0 0 0-1-1H6a1 1 0 0 0-1 1v4a1 1 0 0 1-2 0V4a3 3 0 0 1 3-3zm10 3a3 3 0 0 1 3 3v1a1 1 0 0 1-2 0V7a1 1 0 0 0-1-1h-2c-.548 0-1 .452-1 1v1a1 1 0 0 1-2 0V7c0-1.652 1.348-3 3-3z"/></svg>