<svg xmlns="http://www.w3.org/2000/svg" viewBox="0 0 24 24" class="pdsicon"><path fill-rule="evenodd" d="M6 1a3 3 0 0 0-3 3v4a1 1 0 0 0 2 0V4a1 1 0 0 1 1-1h2a1 1 0 0 1 1 1v4a1 1 0 0 0 2 0V4a3 3 0 0 0-3-3zM1 12a1 1 0 0 1 1-1h20a1 1 0 0 1 0 2H2a1 1 0 0 1-1-1m3 3a1 1 0 0 1 1 1v4a1 1 0 0 0 1 1h2a1 1 0 0 0 1-1v-4a1 1 0 1 1 2 0v4a3 3 0 0 1-3 3H6a3 3 0 0 1-3-3v-4a1 1 0 0 1 1-1m10 0a1 1 0 0 1 1 1v1a1 1 0 0 0 1 1h2a1 1 0 0 0 1-1v-1a1 1 0 1 1 2 0v1a3 3 0 0 1-3 3h-2a3 3 0 0 1-3-3v-1a1 1 0 0 1 1-1m1-8c0-.548.452-1 1-1h2a1 1 0 0 1 1 1v1a1 1 0 1 0 2 0V7a3 3 0 0 0-3-3h-2c-1.652 0-3 1.348-3 3v1a1 1 0 1 0 2 0z"/></svg>