<svg xmlns="http://www.w3.org/2000/svg" viewBox="0 0 24 24" class="pdsicon"><path fill-rule="evenodd" d="M12 1a1 1 0 0 1 1 1v20a1 1 0 1 1-2 0V2a1 1 0 0 1 1-1M4 5c-.548 0-1 .452-1 1v2a1 1 0 0 0 1 1h4a1 1 0 0 1 0 2H4a3 3 0 0 1-3-3V6c0-1.652 1.347-3 3-3h4a1 1 0 0 1 0 2zm12-2a1 1 0 1 0 0 2h4a1 1 0 0 1 1 1v2a1 1 0 0 1-1 1h-4a1 1 0 1 0 0 2h4a3 3 0 0 0 3-3V6a3 3 0 0 0-3-3zM7 15c-.548 0-1 .452-1 1v2a1 1 0 0 0 1 1h1a1 1 0 0 1 0 2H7a3 3 0 0 1-3-3v-2c0-1.652 1.347-3 3-3h1a1 1 0 0 1 0 2zm9-2a1 1 0 0 0 0 2h1a1 1 0 0 1 1 1v2a1 1 0 0 1-1 1h-1a1 1 0 0 0 0 2h1a3 3 0 0 0 3-3v-2a3 3 0 0 0-3-3z"/></svg>