<svg xmlns="http://www.w3.org/2000/svg" viewBox="0 0 16 16" class="pdsicon"><path fill-rule="evenodd" d="M10.585 0c.2.8-.2 1.6-.6 2.2-.5.6-1.3 1-2.1 1-.1-.8.2-1.6.7-2.1.5-.6 1.3-1.1 2-1.1Zm-7.9 13.8c.7 1 1.6 2.2 3 2.2.435 0 .765-.105 1.066-.201.114-.037.224-.072.334-.099.3-.2.6-.3 1.1-.3.37 0 .63.11.862.207.082.034.16.067.238.093.056.019.115.04.178.064.278.104.634.236 1.122.236 1.3 0 2.2-1.1 3-2.3.5-.7.7-1 1-1.8l.3-.7-.7-.3c-.9-.3-1.5-1.1-1.6-2.1-.1-.9.4-1.8 1.2-2.3l.7-.4-.5-.6c-.8-1.1-2-1.7-3.2-1.7-.8 0-1.3.2-1.8.4a7.474 7.474 0 0 0-.327.091c-.209.062-.367.109-.573.109-.238 0-.475-.063-.762-.138a18.62 18.62 0 0 0-.238-.062c-.5-.2-1-.4-1.7-.4-1.3 0-2.7.8-3.5 2.1-1.3 2-.9 5.2.8 7.9Zm.3-7.1c.6-.9 1.5-1.5 2.4-1.5.5 0 .9.1 1.3.3.11.027.22.063.334.099.3.096.63.201 1.066.201.6 0 1-.1 1.2-.3.4-.2.8-.3 1.4-.3.6 0 1.2.3 1.7.7-.8.7-1.3 1.8-1.2 3 .1 1.3.8 2.4 1.8 3a4.215 4.215 0 0 0-.214.371c-.1.188-.208.391-.386.629a9.05 9.05 0 0 0-.14.195c-.366.518-1.063 1.505-1.76 1.505-.206 0-.318-.047-.464-.109-.068-.028-.142-.06-.236-.091-.4-.2-.9-.4-1.7-.4-.8 0-1.3.2-1.7.4-.2.1-.4.2-.7.2-.7 0-1.4-.8-1.9-1.6-1.6-2.4-1.6-5.1-.8-6.3Z"/></svg>