<svg xmlns="http://www.w3.org/2000/svg" viewBox="0 0 24 24" class="pdsicon"><path fill-rule="evenodd" d="M15.796 1.741A4.3 4.3 0 0 0 15.893 0a4.36 4.36 0 0 0-2.98 1.65 3.87 3.87 0 0 0-1.05 3.15 4.22 4.22 0 0 0 3.15-1.5 4.3 4.3 0 0 0 .783-1.559M8.513 24c-2.1 0-3.5-1.8-4.5-3.3-2.52-4.05-3.12-8.85-1.17-11.85a6.45 6.45 0 0 1 5.27-3.15 6.4 6.4 0 0 1 2.55.6l.35.09a4.3 4.3 0 0 0 1.15.21 3 3 0 0 0 .86-.16l.103-.04c.115-.048.242-.1.387-.1a6.5 6.5 0 0 1 2.7-.6 6 6 0 0 1 4.8 2.55l.75.9-1.05.6a3.7 3.7 0 0 0-1.8 3.45 3.58 3.58 0 0 0 2.4 3.15l1 .45-.45 1.05a9.6 9.6 0 0 1-1.5 2.7c-1.2 1.8-2.55 3.45-4.5 3.45a4.7 4.7 0 0 1-1.69-.35l-.26-.1-.36-.14a3.1 3.1 0 0 0-1.29-.31 2.7 2.7 0 0 0-1.65.45q-.255.06-.5.15a5.1 5.1 0 0 1-1.6.3M6.001 8.477a4.6 4.6 0 0 0-1.538 1.573h.03c-1.2 1.8-1.2 5.85 1.17 9.4.75 1.2 1.85 2.4 2.85 2.4a2.2 2.2 0 0 0 1.05-.3 5.3 5.3 0 0 1 2.55-.6 5.3 5.3 0 0 1 2.55.6l.35.14c.219.105.458.16.7.16 1.04 0 2.09-1.48 2.64-2.26l.21-.29q.324-.45.58-.94a5 5 0 0 1 .32-.56 5.72 5.72 0 0 1-2.7-4.5 5.39 5.39 0 0 1 1.8-4.5 4.26 4.26 0 0 0-2.55-1 4.36 4.36 0 0 0-2.1.45 2.6 2.6 0 0 1-1.8.45 5 5 0 0 1-1.6-.3l-.5-.15a4.15 4.15 0 0 0-1.92-.45 4.6 4.6 0 0 0-2.092.677"/></svg>