<svg xmlns="http://www.w3.org/2000/svg" viewBox="0 0 24 24" class="pdsicon"><path fill-rule="evenodd" d="M4.416 2h15.168c.38 0 .708 0 1.001.058a3 3 0 0 1 2.357 2.357c.059.293.058.62.058 1.001v.168c0 .38 0 .708-.058 1.001A3 3 0 0 1 21 8.83v7.412c0 .805 0 1.47-.044 2.01-.046.563-.145 1.08-.392 1.565a4 4 0 0 1-1.748 1.748c-.485.247-1.002.346-1.564.392-.541.044-1.206.044-2.01.044H8.758c-.805 0-1.47 0-2.01-.044-.563-.046-1.08-.145-1.565-.392a4 4 0 0 1-1.748-1.748c-.247-.485-.346-1.002-.392-1.564C3 17.71 3 17.046 3 16.242V8.828a3 3 0 0 1-1.942-2.244C.999 6.292 1 5.965 1 5.584v-.168c0-.38 0-.708.058-1.001a3 3 0 0 1 2.357-2.357C3.708 1.999 4.035 2 4.416 2M5 9v7.2c0 .857 0 1.439.038 1.889.035.438.1.663.18.819a2 2 0 0 0 .874.874c.156.08.38.145.819.18C7.361 20 7.943 20 8.8 20h6.4c.857 0 1.439 0 1.889-.038.438-.035.663-.1.819-.18a2 2 0 0 0 .874-.874c.08-.156.145-.38.18-.819.037-.45.038-1.032.038-1.889V9zm14.917-2H4.083l-.057-.003a1.4 1.4 0 0 1-.221-.016 1 1 0 0 1-.786-.786C3.005 6.123 3 6.013 3 5.5s.005-.623.02-.695a1 1 0 0 1 .785-.786C3.877 4.005 3.987 4 4.5 4h15c.513 0 .623.005.695.02a1 1 0 0 1 .786.785c.014.072.019.182.019.695s-.005.623-.02.695a1 1 0 0 1-.785.786 1.4 1.4 0 0 1-.22.016q-.03 0-.058.003M9 13a1 1 0 0 1 1-1h4a1 1 0 1 1 0 2h-4a1 1 0 0 1-1-1"/></svg>