<svg xmlns="http://www.w3.org/2000/svg" viewBox="0 0 16 16" class="pdsicon"><g clip-path="url(#a)"><path fill-rule="evenodd" d="M3.846.216A.74.74 0 0 1 4.366 0a.73.73 0 0 1 .512.213l3.636 3.636a.727.727 0 0 1-1.028 1.029L5.09 2.483v8.426h8.426l-2.395-2.395a.727.727 0 0 1 1.029-1.028l3.636 3.636a.725.725 0 0 1 0 1.029l-3.636 3.636a.727.727 0 0 1-1.029-1.029l2.395-2.394H4.364a.727.727 0 0 1-.728-.728V2.483L1.242 4.878A.727.727 0 1 1 .213 3.849z"/></g><defs><clipPath id="a"><path d="M0 0h16v16H0z"/></clipPath></defs></svg>