<svg xmlns="http://www.w3.org/2000/svg" viewBox="0 0 24 24" class="pdsicon"><path d="M8.715 22.985a3.1 3.1 0 0 1-1.159-.23 3 3 0 0 1-1.638-1.637L5.2 19.372c-.11-.25-.309-.45-.559-.56l-1.747-.718A2.996 2.996 0 0 1 1.255 14.1l.769-1.697a1 1 0 0 0 0-.788l-.77-1.747a3 3 0 0 1 0-2.316 3 3 0 0 1 1.639-1.637l1.747-.728a1 1 0 0 0 .56-.55l.718-1.746a2.995 2.995 0 0 1 3.995-1.637l1.697.768a1 1 0 0 0 .79 0l1.747-.718c.743-.3 1.574-.3 2.317 0a3 3 0 0 1 1.638 1.587l.709 1.697a1 1 0 0 0 .549.559l1.747.718a2.995 2.995 0 0 1 1.638 3.993l-.719 1.737a1 1 0 0 0 0 .788l.72 1.747a3 3 0 0 1 0 2.316 3.08 3.08 0 0 1-1.639 1.637l-1.747.729a1 1 0 0 0-.56.549l-.718 1.746a2.994 2.994 0 0 1-3.995 1.637l-1.737-.718a1 1 0 0 0-.79 0l-1.747.718c-.349.146-.72.227-1.098.24m0-19.963a1 1 0 0 0-.39.08 1 1 0 0 0-.56.558l-.748 1.737a3 3 0 0 1-1.618 1.617l-1.737.719c-.13.07-.246.165-.34.28a1.1 1.1 0 0 0-.22.329 1.1 1.1 0 0 0-.08.369q.001.203.08.39l.72 1.746a3 3 0 0 1 0 2.316l-.72 1.747a1 1 0 0 0 0 .788 1 1 0 0 0 .56.55l1.737.748a3 3 0 0 1 1.618 1.617l.729 1.737a1 1 0 0 0 1.338.559l1.748-.719a3 3 0 0 1 2.316 0l1.738.719a1 1 0 0 0 .789 0 1 1 0 0 0 .56-.56l.768-1.736a3 3 0 0 1 1.618-1.617l1.737-.729a1 1 0 0 0 .34-.27 1.2 1.2 0 0 0 .22-.329q.077-.192.08-.399a1 1 0 0 0-.08-.39l-.72-1.746a3 3 0 0 1 0-2.316l.72-1.737a1 1 0 0 0 0-.798 1 1 0 0 0-.56-.55l-1.737-.718c-.721-.29-1.301-.848-1.618-1.557v-.06l-.729-1.737a1 1 0 0 0-.55-.559 1.08 1.08 0 0 0-.788 0l-1.748.719a3 3 0 0 1-2.316 0l-1.758-.719a1.1 1.1 0 0 0-.4-.08M11.01 15a1 1 0 0 1-.709-.29l-1.997-1.996a1.002 1.002 0 1 1 1.418-1.418l1.288 1.298L14.796 8.8a1.003 1.003 0 0 1 1.418 1.417L11.72 14.71a1 1 0 0 1-.709.29"/></svg>