<svg xmlns="http://www.w3.org/2000/svg" viewBox="0 0 24 24" class="pdsicon"><path fill-rule="evenodd" d="m22.234 8.893-2.87-2.87a1 1 0 0 0-.306-.2.88.88 0 0 0-.726 0 1 1 0 0 0-.306.2l-2.87 2.87a.96.96 0 0 0 1.358 1.358l1.215-1.205v2.477a2.87 2.87 0 0 1-2.87 2.87h-1.912V4.262l1.234 1.244a.96.96 0 1 0 1.358-1.358l-2.87-2.87a1 1 0 0 0-.306-.2.88.88 0 0 0-.726 0 1 1 0 0 0-.306.2L8.46 4.15a.956.956 0 0 0 1.34 1.32l1.233-1.206V18.18H9.121a2.87 2.87 0 0 1-2.87-2.87v-3.395l1.235 1.243A.96.96 0 1 0 8.844 11.8l-2.87-2.87a1 1 0 0 0-.306-.2.88.88 0 0 0-.726 0 1 1 0 0 0-.307.2L1.766 11.8a.96.96 0 1 0 1.358 1.358l1.215-1.243v3.434a4.78 4.78 0 0 0 4.782 4.782h1.913v1.913a.957.957 0 0 0 1.913 0v-5.739h1.913a4.78 4.78 0 0 0 4.782-4.782V9.046l1.234 1.243a.96.96 0 0 0 1.358-1.358z"/></svg>