<svg xmlns="http://www.w3.org/2000/svg" viewBox="0 0 16 16" class="pdsicon"><path fill-rule="evenodd" d="M15.602 4.41 8.348.435a.634.634 0 0 0-.596 0L.497 4.41c-.398.1-.497.397-.497.596v1.988a.68.68 0 0 0 .696.695h14.608c.298 0 .597-.298.597-.695V5.006c0-.199-.1-.497-.299-.596ZM1.292 6.298v-.894L7.95 1.826l6.659 3.578v.894H1.292Zm1.391 6.659V8.98a.68.68 0 0 0-.695-.695.68.68 0 0 0-.696.695v3.976a.68.68 0 0 0 .696.695.68.68 0 0 0 .695-.695ZM6.658 8.98v3.976a.68.68 0 0 1-.695.695.68.68 0 0 1-.696-.695V8.98a.68.68 0 0 1 .696-.695.68.68 0 0 1 .695.695Zm3.975 3.976V8.98a.68.68 0 0 0-.695-.695.68.68 0 0 0-.696.695v3.976a.68.68 0 0 0 .696.695.68.68 0 0 0 .695-.695ZM14.61 8.98v3.976a.68.68 0 0 1-.696.695.68.68 0 0 1-.696-.695V8.98a.68.68 0 0 1 .696-.695.68.68 0 0 1 .696.695ZM.696 14.248a.68.68 0 0 0-.696.696.68.68 0 0 0 .696.696h14.608a.68.68 0 0 0 .696-.696c0-.397-.398-.696-.795-.696H.695Zm7.95-9.937a.696.696 0 1 1-1.391 0 .696.696 0 0 1 1.39 0Z"/></svg>