<svg xmlns="http://www.w3.org/2000/svg" viewBox="0 0 16 16" class="pdsicon"><path fill-rule="evenodd" d="M5.172 1.333h5.656c.536 0 .98 0 1.34.03.375.03.72.096 1.043.261.501.256.91.664 1.165 1.165.165.324.23.668.261 1.043.03.36.03.804.03 1.34v5.656c0 .536 0 .98-.03 1.34-.03.375-.096.72-.261 1.043-.256.501-.664.91-1.165 1.165-.324.165-.668.23-1.043.261-.36.03-.804.03-1.34.03H5.172c-.536 0-.98 0-1.34-.03-.375-.03-.72-.096-1.043-.261a2.67 2.67 0 0 1-1.165-1.165c-.165-.324-.23-.668-.261-1.043a18 18 0 0 1-.03-1.34V5.172c0-.536 0-.98.03-1.34.03-.375.096-.72.261-1.043.256-.501.664-.91 1.165-1.165.324-.165.668-.23 1.043-.261.36-.03.804-.03 1.34-.03M3.941 2.692c-.293.024-.442.067-.546.12-.251.128-.455.332-.583.583-.053.104-.096.253-.12.546-.025.3-.025.688-.025 1.259v5.6c0 .571 0 .96.025 1.26.024.292.067.441.12.545.128.251.332.455.583.583.104.053.253.096.546.12.3.025.688.025 1.259.025h5.6c.571 0 .96 0 1.26-.025.292-.024.441-.067.545-.12.251-.128.455-.332.583-.583.053-.104.096-.253.12-.546.025-.3.025-.688.025-1.259V5.2c0-.571 0-.96-.025-1.26-.024-.292-.067-.441-.12-.545a1.33 1.33 0 0 0-.583-.583c-.104-.053-.253-.096-.546-.12-.3-.025-.688-.025-1.259-.025H5.2c-.571 0-.96 0-1.26.025M8 4c.368 0 .667.298.667.667v6.666a.667.667 0 1 1-1.334 0V4.667C7.333 4.298 7.632 4 8 4m2.667 2.667c.368 0 .666.298.666.666v4a.667.667 0 0 1-1.333 0v-4c0-.368.299-.666.667-.666M5.333 8c.369 0 .667.298.667.667v2.666a.667.667 0 1 1-1.333 0V8.667c0-.369.298-.667.666-.667"/></svg>