<svg xmlns="http://www.w3.org/2000/svg" viewBox="0 0 24 24" class="pdsicon"><path d="M15 4.6c0-.56 0-.84-.109-1.054a1 1 0 0 0-.437-.437C14.24 3 13.96 3 13.4 3h-2.8c-.56 0-.84 0-1.054.109a1 1 0 0 0-.437.437C9 3.76 9 4.04 9 4.6V21h6z" opacity=".12"/><path fill-rule="evenodd" d="M13.975 4.01A8 8 0 0 0 13.4 4h-2.8a8 8 0 0 0-.588.011l-.002.014C10 4.14 10 4.303 10 4.6V20h4V4.6c0-.297 0-.459-.01-.575l-.001-.014zM16 10V4.568c0-.252 0-.498-.017-.706a2 2 0 0 0-.201-.77 2 2 0 0 0-.874-.874 2 2 0 0 0-.77-.201C13.93 2 13.684 2 13.432 2h-2.864c-.252 0-.498 0-.706.017a2 2 0 0 0-.77.201 2 2 0 0 0-.874.874 2 2 0 0 0-.201.77C8 4.07 8 4.316 8 4.568V6H4.568c-.252 0-.498 0-.706.017a2 2 0 0 0-.77.201 2 2 0 0 0-.874.874 2 2 0 0 0-.201.77C2 8.07 2 8.316 2 8.568v10.864c0 .252 0 .498.017.706.019.229.063.499.201.77a2 2 0 0 0 .874.874c.271.138.541.182.77.201.208.017.454.017.706.017h14.864c.252 0 .498 0 .706-.017.229-.019.499-.063.77-.201a2 2 0 0 0 .874-.874c.138-.271.182-.541.201-.77.017-.208.017-.454.017-.706v-6.864c0-.252 0-.498-.017-.706a2 2 0 0 0-.201-.77 2 2 0 0 0-.874-.874 2 2 0 0 0-.77-.201C19.93 10 19.684 10 19.432 10zm0 2v8h3.4a8 8 0 0 0 .589-.012v-.013c.01-.116.011-.279.011-.575v-6.8a8 8 0 0 0-.012-.588l-.013-.002A8 8 0 0 0 19.4 12zM8 8H4.6a8 8 0 0 0-.589.011v.014C4 8.14 4 8.303 4 8.6v10.8a8 8 0 0 0 .011.588l.014.002c.116.01.278.01.575.01H8zM3.092 21.782"/></svg>