<svg xmlns="http://www.w3.org/2000/svg" viewBox="0 0 16 16" class="pdsicon"><path d="M10 3.067c0-.374 0-.56-.073-.703a.67.67 0 0 0-.291-.291C9.493 2 9.306 2 8.933 2H7.067c-.374 0-.56 0-.703.073a.67.67 0 0 0-.291.291C6 2.507 6 2.694 6 3.067V14h4z" opacity=".12"/><path fill-rule="evenodd" d="M9.317 2.674a6 6 0 0 0-.384-.007H7.067a6 6 0 0 0-.393.007v.01a6 6 0 0 0-.007.383v10.266h2.666V3.067a6 6 0 0 0-.007-.393zm1.35 3.993V3.045c0-.168 0-.332-.012-.47a1.4 1.4 0 0 0-.134-.514 1.33 1.33 0 0 0-.582-.582 1.4 1.4 0 0 0-.514-.134c-.138-.012-.302-.012-.47-.012h-1.91c-.168 0-.332 0-.47.012a1.4 1.4 0 0 0-.514.134c-.25.127-.455.331-.582.582-.093.181-.122.361-.134.514-.012.138-.012.302-.012.47V4H3.045c-.168 0-.332 0-.47.011a1.4 1.4 0 0 0-.514.134c-.25.128-.455.332-.582.583-.093.181-.122.36-.134.513a6 6 0 0 0-.012.492v7.222c0 .168 0 .332.012.47.012.153.041.333.134.514.127.25.331.454.582.582.181.092.361.122.514.134.138.012.302.012.47.012h9.91c.168 0 .332 0 .47-.012.153-.012.333-.041.514-.134.25-.128.454-.332.582-.582a1.4 1.4 0 0 0 .134-.514c.012-.138.012-.302.012-.47V8.379c0-.169 0-.332-.012-.471a1.4 1.4 0 0 0-.134-.513 1.33 1.33 0 0 0-.582-.583 1.35 1.35 0 0 0-.514-.134c-.138-.011-.302-.011-.47-.011zm0 1.333v5.333h2.266c.198 0 .306 0 .384-.007h.009v-.01a5 5 0 0 0 .007-.383V8.4c0-.198 0-.306-.007-.384v-.008l-.01-.001A6 6 0 0 0 12.934 8zM5.333 5.333H3.067a6 6 0 0 0-.393.008v.009a6 6 0 0 0-.007.383v7.2c0 .198 0 .306.007.384v.009h.01c.077.007.185.007.383.007h2.266zm-3.272 9.188"/></svg>