<svg xmlns="http://www.w3.org/2000/svg" viewBox="0 0 16 16" class="pdsicon"><path d="M12 5.333a4 4 0 1 0-8 0c0 2.06-.52 3.471-1.1 4.404-.49.787-.735 1.18-.726 1.29.01.122.036.168.134.24.088.066.487.066 1.285.066h8.814c.798 0 1.197 0 1.285-.065.098-.073.124-.12.134-.24.009-.11-.236-.504-.726-1.291-.58-.933-1.1-2.344-1.1-4.404" opacity=".12"/><path fill-rule="evenodd" d="M4.7 2.034a4.667 4.667 0 0 1 7.967 3.3c0 1.941.488 3.229 1 4.05l.007.013c.238.383.427.686.554.906.063.11.121.217.164.311q.035.072.064.168a.8.8 0 0 1 .034.3 1 1 0 0 1-.115.407 1 1 0 0 1-.286.314c-.167.124-.358.152-.422.162h-.003c-.098.015-.21.022-.322.026-.224.009-.533.009-.918.009H3.576c-.385 0-.694 0-.918-.009a3 3 0 0 1-.322-.026h-.003c-.064-.01-.255-.038-.422-.162a1 1 0 0 1-.286-.314 1 1 0 0 1-.115-.408.8.8 0 0 1 .034-.299q.03-.095.064-.168c.043-.094.1-.2.164-.31.127-.221.316-.524.554-.907l.008-.012c.511-.822 1-2.11 1-4.052 0-1.237.491-2.424 1.366-3.3M8 2a3.333 3.333 0 0 0-3.333 3.333c0 2.179-.552 3.712-1.201 4.756l-.357.577h9.782l-.357-.577c-.65-1.044-1.2-2.577-1.2-4.756A3.333 3.333 0 0 0 8 2M5.736 13.559a.667.667 0 0 1 .941-.059c.353.312.815.5 1.323.5s.97-.188 1.323-.5a.667.667 0 1 1 .882 1A3.32 3.32 0 0 1 8 15.333a3.32 3.32 0 0 1-2.205-.833.667.667 0 0 1-.059-.941"/></svg>