<svg xmlns="http://www.w3.org/2000/svg" viewBox="0 0 24 24" class="pdsicon"><path d="M18 8A6 6 0 1 0 6 8c0 3.09-.78 5.206-1.65 6.605-.735 1.18-1.102 1.771-1.089 1.936.015.182.054.252.2.36.133.099.732.099 1.928.099H18.61c1.196 0 1.794 0 1.927-.098.147-.11.186-.179.2-.361.014-.165-.353-.755-1.088-1.936C18.78 13.206 18 11.09 18 8" opacity=".12"/><path fill-rule="evenodd" d="M7.05 3.05A7 7 0 0 1 19 8c0 2.913.732 4.844 1.5 6.077l.011.019c.358.574.64 1.028.83 1.359.096.165.183.325.247.466.032.071.068.158.096.252.024.079.068.246.051.45-.01.136-.039.37-.173.611a1.5 1.5 0 0 1-.428.47c-.25.186-.538.229-.634.243h-.004a5 5 0 0 1-.483.04c-.336.013-.8.013-1.377.013H5.364c-.577 0-1.041 0-1.376-.013a5 5 0 0 1-.484-.04H3.5a1.4 1.4 0 0 1-.634-.242 1.5 1.5 0 0 1-.428-.47 1.5 1.5 0 0 1-.173-.613c-.017-.203.027-.37.05-.449.029-.094.065-.18.097-.251a6 6 0 0 1 .247-.467c.19-.33.472-.785.83-1.359l.012-.019C4.268 12.844 5 10.913 5 8a7 7 0 0 1 2.05-4.95M12 3a5 5 0 0 0-5 5c0 3.268-.827 5.568-1.801 7.134-.213.342-.39.627-.536.865L5.39 16H18.61l.726-.001c-.145-.238-.323-.523-.536-.865C17.827 13.568 17 11.268 17 8a5 5 0 0 0-5-5M8.604 20.338a1 1 0 0 1 1.412-.088c.53.468 1.223.75 1.984.75s1.455-.282 1.984-.75a1 1 0 1 1 1.324 1.5A4.98 4.98 0 0 1 12 23a4.98 4.98 0 0 1-3.308-1.25 1 1 0 0 1-.088-1.412"/></svg>