<svg xmlns="http://www.w3.org/2000/svg" viewBox="0 0 24 24" class="pdsicon"><path d="M17.839 2H6.16c-.527 0-.981 0-1.356.03-.395.033-.789.104-1.167.297a3 3 0 0 0-1.311 1.311c-.193.378-.264.772-.296 1.167C2 5.18 2 5.635 2 6.161c0 .464.375.839.839.839H21.16A.84.84 0 0 0 22 6.161c0-.527 0-.981-.03-1.356-.033-.395-.104-.789-.297-1.167a3 3 0 0 0-1.311-1.311c-.378-.193-.772-.264-1.167-.296A18 18 0 0 0 17.838 2"/><path fill-rule="evenodd" d="M22 10.6c0-.56 0-.84-.109-1.054a1 1 0 0 0-.437-.437C21.24 9 20.96 9 20.4 9H3.6c-.56 0-.84 0-1.054.109a1 1 0 0 0-.437.437C2 9.76 2 10.04 2 10.6v7.239c0 .527 0 .982.03 1.356.033.395.104.789.297 1.167a3 3 0 0 0 1.311 1.311c.378.193.772.264 1.167.296.375.031.83.031 1.356.031H17.84c.527 0 .982 0 1.356-.03.395-.033.789-.104 1.167-.297a3 3 0 0 0 1.311-1.311c.193-.378.264-.772.296-1.167.031-.375.031-.83.031-1.356zM5.5 13a1 1 0 0 1 1-1h11a1 1 0 1 1 0 2h-11a1 1 0 0 1-1-1m0 4a1 1 0 0 1 1-1h11a1 1 0 1 1 0 2h-11a1 1 0 0 1-1-1"/></svg>