<svg xmlns="http://www.w3.org/2000/svg" viewBox="0 0 16 16" class="pdsicon"><path d="M14 0H2a.667.667 0 0 0-.667.667v14.666c0 .368.299.667.667.667h12a.667.667 0 0 0 .667-.667V.667A.667.667 0 0 0 14 0m-2 13c0 .184-.15.333-.333.333H4.333A.333.333 0 0 1 4 13v-.667c0-.184.15-.333.333-.333h7.334c.184 0 .333.15.333.333zm0-3.333c0 .184-.15.333-.333.333H4.333A.333.333 0 0 1 4 9.667V9c0-.184.15-.333.333-.333h7.334c.184 0 .333.149.333.333zm0-3.334c0 .184-.15.334-.333.334H4.333A.333.333 0 0 1 4 6.333V3c0-.184.15-.333.333-.333h7.334c.184 0 .333.149.333.333z"/></svg>