<svg xmlns="http://www.w3.org/2000/svg" viewBox="0 0 16 16" class="pdsicon"><path d="M1.333.667v14.666c0 .368.299.667.667.667h12a.667.667 0 0 0 .667-.667V.667A.667.667 0 0 0 14 0H2a.667.667 0 0 0-.667.667Zm2.334 2.666H7c.184 0 .333.15.333.334V7c0 .184-.149.333-.333.333H3.667A.333.333 0 0 1 3.333 7V3.667c0-.184.15-.334.334-.334Zm8.666 9.334H3.667a.334.334 0 0 1-.334-.334v-.666c0-.184.15-.334.334-.334h8.666c.184 0 .334.15.334.334v.666c0 .184-.15.334-.334.334Zm0-2.667H3.667a.333.333 0 0 1-.334-.333V9c0-.184.15-.333.334-.333h8.666c.184 0 .334.149.334.333v.667c0 .184-.15.333-.334.333Zm0-2.667H9A.333.333 0 0 1 8.667 7v-.667C8.667 6.15 8.816 6 9 6h3.333c.184 0 .334.15.334.333V7c0 .184-.15.333-.334.333Zm0-2.666H9a.333.333 0 0 1-.333-.334v-.666c0-.184.149-.334.333-.334h3.333c.184 0 .334.15.334.334v.666c0 .184-.15.334-.334.334Z"/></svg>