<svg xmlns="http://www.w3.org/2000/svg" viewBox="0 0 24 24" class="pdsicon"><path fill-rule="evenodd" d="M9.759 2h4.482c.805 0 1.47 0 2.01.044.563.046 1.08.145 1.565.392a4 4 0 0 1 1.748 1.748c.247.485.346 1.002.392 1.564C20 6.29 20 6.954 20 7.758V21a1 1 0 0 1-1.496.868L12 18.152l-6.504 3.716A1 1 0 0 1 4 21V7.759c0-.805 0-1.47.044-2.01.046-.563.145-1.08.392-1.565a4 4 0 0 1 1.748-1.748c.485-.247 1.002-.346 1.564-.392C8.29 2 8.954 2 9.758 2M7.91 4.038c-.438.035-.663.1-.819.18a2 2 0 0 0-.874.874c-.08.156-.145.38-.18.819C6 6.361 6 6.943 6 7.8v11.477l5.504-3.145a1 1 0 0 1 .992 0L18 19.277V7.8c0-.857 0-1.439-.038-1.889-.035-.438-.1-.663-.18-.819a2 2 0 0 0-.874-.874c-.156-.08-.38-.145-.819-.18C15.639 4 15.057 4 14.2 4H9.8c-.857 0-1.439 0-1.889.038"/></svg>