<svg xmlns="http://www.w3.org/2000/svg" viewBox="0 0 24 24" class="pdsicon"><path fill-rule="evenodd" d="M2.143 6.286A3.285 3.285 0 0 1 5.429 3a1 1 0 0 1 0 2c-.71 0-1.286.575-1.286 1.286v4.571a1 1 0 0 1-.293.707L3.414 12l.436.436a1 1 0 0 1 .293.707v4.571c0 .71.575 1.286 1.286 1.286a1 1 0 1 1 0 2 3.285 3.285 0 0 1-3.286-3.286v-4.157l-.85-.85a1 1 0 0 1 0-1.414l.85-.85zM17.571 4a1 1 0 0 1 1-1 3.285 3.285 0 0 1 3.286 3.286v4.157l.85.85a1 1 0 0 1 0 1.414l-.85.85v4.157A3.286 3.286 0 0 1 18.57 21a1 1 0 1 1 0-2c.71 0 1.286-.576 1.286-1.286v-4.571a1 1 0 0 1 .293-.707l.436-.436-.436-.436a1 1 0 0 1-.293-.707V6.286c0-.71-.575-1.286-1.286-1.286a1 1 0 0 1-1-1"/></svg>