<svg xmlns="http://www.w3.org/2000/svg" viewBox="0 0 16 16" class="pdsicon"><path fill-rule="evenodd" d="M11.057 1.46a.67.67 0 0 1 .276.54v10.667a.667.667 0 0 1-.877.632l-3.123-1.04V14a.667.667 0 0 1-.85.641l-4.666-1.333a.67.67 0 0 1-.484-.641v-2.409l-.877-.292A.67.67 0 0 1 0 9.333v-4c0-.287.184-.541.456-.632l10-3.333a.67.67 0 0 1 .6.091m-4.195 9.236.03.01L10 11.742V2.925L1.333 5.814v3.039zM6 13.116v-1.302l-3.333-1.111v1.46zm8-6.45A.667.667 0 1 0 14 8h1.333a.667.667 0 1 0 0-1.333zm.908-3.337a.667.667 0 0 1-.237.912l-1.133.667a.667.667 0 1 1-.676-1.15l1.133-.666a.667.667 0 0 1 .913.237m-1.37 6.43a.667.667 0 1 0-.676 1.149l1.133.667a.667.667 0 1 0 .676-1.15z"/></svg>