<svg xmlns="http://www.w3.org/2000/svg" viewBox="0 0 16 16" class="pdsicon"><g clip-path="url(#a)"><path fill-rule="evenodd" d="M8.667 0v2.667H7.333V0zM4.7 3.757 2.815 1.872l-.943.943L3.757 4.7zM2.667 7.333H0v1.334h2.667zM12.243 4.7l1.885-1.885-.943-.943L11.3 3.757zm1.09 2.633H16v1.334h-2.667zM8 3.333A4.666 4.666 0 0 0 3.333 8 4.66 4.66 0 0 0 6 12.212v3.121h4v-3.12A4.66 4.66 0 0 0 12.667 8 4.666 4.666 0 0 0 8 3.333M4.667 8a3.333 3.333 0 1 1 6.666 0 3.33 3.33 0 0 1-2.222 3.139l-.444.157V14H7.333v-2.704l-.444-.157A3.33 3.33 0 0 1 4.667 8"/></g><defs><clipPath id="a"><path d="M0 0h16v16H0z"/></clipPath></defs></svg>