<svg xmlns="http://www.w3.org/2000/svg" viewBox="0 0 16 16" class="pdsicon"><path d="M3.333 7.667a.667.667 0 0 0-.666.666V9c0 .368.298.667.666.667h1.334A.667.667 0 0 0 5.333 9v-.667a.667.667 0 0 0-.666-.666H3.333ZM7.333 7.667a.667.667 0 0 0-.666.666V9c0 .368.298.667.666.667h1.334A.667.667 0 0 0 9.333 9v-.667a.667.667 0 0 0-.666-.666H7.333ZM2.667 11.667c0-.368.298-.667.666-.667h1.334c.368 0 .666.299.666.667v.666a.667.667 0 0 1-.666.667H3.333a.667.667 0 0 1-.666-.667v-.666ZM7.333 11a.667.667 0 0 0-.666.667v.666c0 .368.298.667.666.667h1.334a.667.667 0 0 0 .666-.667v-.666A.667.667 0 0 0 8.667 11H7.333ZM10.667 8.333c0-.368.298-.666.666-.666h1.334c.368 0 .666.298.666.666V9a.667.667 0 0 1-.666.667h-1.334A.667.667 0 0 1 10.667 9v-.667Z"/><path fill-rule="evenodd" d="M12 1a.667.667 0 0 0-1.333 0v1.333H5.333V1A.667.667 0 1 0 4 1v1.333H.667A.667.667 0 0 0 0 3v12c0 .368.298.667.667.667h14.666A.667.667 0 0 0 16 15V3a.667.667 0 0 0-.667-.667H12V1Zm2.667 4V3.667H1.333V5h13.334ZM1.333 6.333h13.334v8H1.333v-8Z"/></svg>