<svg xmlns="http://www.w3.org/2000/svg" viewBox="0 0 24 24" class="pdsicon"><path fill-rule="evenodd" d="M3.292 5.583a.46.46 0 0 0-.459.459v11.916c0 .254.205.459.459.459h17.416a.46.46 0 0 0 .459-.459V6.042a.46.46 0 0 0-.459-.459zM1 6.042A2.29 2.29 0 0 1 3.292 3.75h17.416A2.29 2.29 0 0 1 23 6.042v11.916a2.29 2.29 0 0 1-2.292 2.292H3.292A2.29 2.29 0 0 1 1 17.958zm11.472 4.589c-.775 0-1.404.605-1.404 1.352 0 .795.602 1.388 1.404 1.388.783 0 1.4-.601 1.4-1.372 0-.767-.613-1.368-1.4-1.368m-8.722.05h.754c.833 0 1.413.539 1.413 1.316 0 .389-.178.763-.478 1.011-.252.21-.54.305-.94.305H3.75zm.651 2.186c.333 0 .54-.064.704-.21a.9.9 0 0 0 .283-.663.89.89 0 0 0-.283-.655c-.171-.153-.371-.213-.703-.213h-.138v1.74zm2.264-2.187h-.511v2.633h.511zm.857.678c0 .143.09.218.4.331.584.214.758.404.758.822 0 .509-.376.865-.909.865-.39 0-.674-.154-.91-.501l.33-.32c.118.229.316.351.56.351.23 0 .4-.158.4-.372 0-.11-.051-.204-.154-.27a2 2 0 0 0-.356-.151c-.482-.175-.647-.36-.647-.724 0-.428.356-.752.821-.752.288 0 .553.098.773.292l-.267.35c-.135-.15-.262-.212-.415-.212-.222 0-.384.126-.384.291m1.32.64c0 .773.607 1.373 1.389 1.373.22 0 .41-.043.642-.153v-.605c-.205.207-.386.288-.62.288-.517 0-.883-.374-.883-.907 0-.505.378-.904.86-.904.244 0 .43.086.643.296v-.604a1.383 1.383 0 0 0-2.032 1.215m5.489-1.317.702 1.767.712-1.767h.555l-1.138 2.698h-.275l-1.116-2.698zm2.202 2.632h1.455v-.446h-.941v-.71h.906v-.447h-.906v-.584h.941v-.445h-1.455zm2.557-2.633c.593 0 .93.284.93.777 0 .403-.211.667-.598.746l.828 1.11h-.632l-.71-1.06h-.066v1.06h-.515V10.68zm-.247 1.21h.148c.33 0 .501-.141.501-.404 0-.257-.172-.391-.492-.391h-.157z"/></svg>