<svg xmlns="http://www.w3.org/2000/svg" viewBox="0 0 24 24" class="pdsicon"><path fill-rule="evenodd" d="M3.292 5.583a.46.46 0 0 0-.459.459v11.916c0 .254.205.459.459.459h17.416a.46.46 0 0 0 .459-.459V6.042a.46.46 0 0 0-.459-.459zM1 6.042A2.29 2.29 0 0 1 3.292 3.75h17.416A2.29 2.29 0 0 1 23 6.042v11.916a2.29 2.29 0 0 1-2.292 2.292H3.292A2.29 2.29 0 0 1 1 17.958zm13.884 3.76H13.6a.18.18 0 0 0-.177.15l-.518 3.29c-.01.066.04.124.105.124h.66a.125.125 0 0 0 .122-.105l.148-.933a.18.18 0 0 1 .176-.15h.406c.845 0 1.333-.41 1.46-1.22q.086-.535-.163-.829c-.183-.214-.507-.328-.936-.328m.148 1.202c-.07.46-.422.46-.762.46h-.194l.136-.86a.11.11 0 0 1 .106-.09h.058c.258-.001.48-.002.594.132q.1.117.062.358M4.447 9.8H5.73c.43 0 .753.114.936.329.166.194.22.473.164.828-.128.81-.616 1.22-1.461 1.22h-.406a.18.18 0 0 0-.176.15l-.14.888a.18.18 0 0 1-.177.15h-.612a.107.107 0 0 1-.106-.123l.519-3.291a.18.18 0 0 1 .176-.15m.669 1.663c.34 0 .692 0 .762-.46q.039-.242-.062-.358c-.113-.132-.332-.132-.564-.132h-.089a.11.11 0 0 0-.105.09l-.136.86zm4.45-.475h-.614a.11.11 0 0 0-.106.09l-.027.172-.011-.016c-.064-.096-.201-.304-.758-.304-.68 0-1.26.515-1.372 1.236-.059.36.025.704.229.944.187.22.455.313.774.313.547 0 .85-.351.85-.351l-.027.17c-.01.066.04.124.106.124h.553a.18.18 0 0 0 .176-.15l.333-2.104a.107.107 0 0 0-.106-.124m-.856 1.196a.685.685 0 0 1-.694.587c-.178 0-.32-.058-.412-.166a.52.52 0 0 1-.097-.432.69.69 0 0 1 .69-.591c.174 0 .316.058.409.167.094.11.13.265.104.435m9.395-1.196h.615c.066 0 .116.059.106.124l-.333 2.104a.18.18 0 0 1-.176.15h-.553a.107.107 0 0 1-.106-.124l.027-.17s-.303.351-.85.351c-.32 0-.587-.092-.775-.313-.204-.24-.287-.584-.228-.944.112-.721.693-1.236 1.371-1.236.557 0 .695.208.759.304l.01.016.028-.172a.11.11 0 0 1 .105-.09m-.935 1.783a.685.685 0 0 0 .693-.587.53.53 0 0 0-.103-.435.52.52 0 0 0-.41-.167.69.69 0 0 0-.689.591.52.52 0 0 0 .096.432c.092.108.235.166.413.166m-4.33-1.783h-.619c-.059 0-.114.03-.147.078l-.852 1.255-.361-1.206a.18.18 0 0 0-.171-.127h-.608a.107.107 0 0 0-.101.141l.68 1.997-.64.903c-.05.071 0 .169.087.169h.617a.18.18 0 0 0 .147-.077l2.054-2.965a.107.107 0 0 0-.087-.168m6.078 2.254.526-3.35a.106.106 0 0 1 .106-.09h.593c.066 0 .116.058.106.123l-.52 3.29a.18.18 0 0 1-.176.151h-.53a.107.107 0 0 1-.105-.124"/></svg>