<svg xmlns="http://www.w3.org/2000/svg" viewBox="0 0 24 24" class="pdsicon"><path fill-rule="evenodd" d="M2.968 5.718a.46.46 0 0 1 .324-.135h17.416a.46.46 0 0 1 .459.459v11.916a.46.46 0 0 1-.459.459H3.292a.46.46 0 0 1-.459-.459V6.042c0-.122.049-.238.135-.324m.324-1.968A2.29 2.29 0 0 0 1 6.042v11.916a2.29 2.29 0 0 0 2.292 2.292h17.416A2.29 2.29 0 0 0 23 17.958V6.042a2.29 2.29 0 0 0-2.292-2.292zm14.891 6.39c1.019 0 1.551.867 1.551 1.967 0 .06-.003.159-.005.243l-.003.14h-2.101c.047.507.416.653.833.653.366.007.727-.074 1.055-.236v.859c-.367.195-.778.29-1.192.28-1.049 0-1.78-.653-1.78-1.947 0-1.092.624-1.96 1.642-1.96m-.004.872c-.27 0-.567.201-.567.687h1.109c0-.486-.28-.687-.542-.687m-4.138-.537c.227-.217.529-.337.842-.335.752 0 1.461.678 1.466 1.923 0 1.362-.701 1.98-1.47 1.98-.277 0-.546-.095-.76-.27l-.005 1.216-1.074.23v-5.01h.945zm.308 2.58q.134.053.276.045c.396 0 .662-.43.662-1.005 0-.563-.27-1.001-.662-1.001a.64.64 0 0 0-.51.21l.003 1.594a.64.64 0 0 0 .231.158M12.64 9.655l-1.078.232v-.877l1.078-.227zm-1.078.559h1.078v3.76h-1.078zm-1.225 0 .069.318a.73.73 0 0 1 .894-.319v.989a.76.76 0 0 0-.817.223v2.547H9.41v-3.758zm-3.128-.71 1.048-.223-.004.933h.816v.916h-.816v1.526c0 .635.679.438.816.382v.87a1.66 1.66 0 0 1-.751.143 1.08 1.08 0 0 1-1.114-1.105zm-1.488 1.569c-.23 0-.367.065-.367.232 0 .183.236.263.53.363.478.163 1.108.377 1.112 1.172 0 .77-.614 1.212-1.508 1.212a3 3 0 0 1-1.173-.245v-1.023c.36.204.761.322 1.173.344.241 0 .413-.064.413-.262 0-.203-.257-.295-.566-.407-.472-.17-1.067-.385-1.067-1.101 0-.76.582-1.216 1.453-1.216.364-.004.726.064 1.065.197v1.009a2.4 2.4 0 0 0-1.065-.275"/></svg>