<svg xmlns="http://www.w3.org/2000/svg" viewBox="0 0 24 24" class="pdsicon"><path fill-rule="evenodd" d="M2.833 6.042c0-.254.205-.459.459-.459h17.416c.254 0 .459.205.459.459v11.916a.46.46 0 0 1-.459.459H3.292a.46.46 0 0 1-.459-.459zm.459-2.292A2.29 2.29 0 0 0 1 6.042v11.916a2.29 2.29 0 0 0 2.292 2.292h17.416A2.29 2.29 0 0 0 23 17.958V6.042a2.29 2.29 0 0 0-2.292-2.292zm3.603 8.447H5.828l.534-1.31zm11.078-2.489h2.735L18.773 12l1.735 2.292h-2.736l-.6-.72-.668.72h-5.338v-.59l-.2.59H9.63l-.2-.524v.524H6.828l-.267-.72h-.667l-.267.72H3.292l1.935-4.584h2.002l.266.524v-.524h2.336l.534 1.179.534-1.179h5.805l.601.72zM11.9 13.637h.8v-3.274h-1.268l-.934 2.226-1.001-2.226H8.229v3.077l-1.268-3.077H5.827l-1.401 3.274h.868l.266-.72h1.602l.267.72h1.534v-2.554l1.135 2.554h.667l1.135-2.554zm6.34 0h1L17.84 12l1.467-1.637h-.934l-1 1.048-.935-1.048h-3.07v3.274h3.004l1-1.114zm-4.138-2.03v-.59h1.935l.801.917-.868.983h-1.868v-.655h1.668v-.655z"/></svg>