<svg xmlns="http://www.w3.org/2000/svg" viewBox="0 0 16 16" class="pdsicon"><path fill-rule="evenodd" d="M1.333 3.667c0-.184.15-.334.334-.334h12.666c.184 0 .334.15.334.334v8.666c0 .184-.15.334-.334.334H1.667a.333.333 0 0 1-.334-.334zM1.667 2C.747 2 0 2.746 0 3.667v8.666C0 13.253.746 14 1.667 14h12.666c.92 0 1.667-.746 1.667-1.667V3.667C16 2.747 15.254 2 14.333 2zm7.9 6.81a.346.346 0 1 0 .692 0 .346.346 0 0 0-.693 0m-3.825 0a.346.346 0 1 0 .693 0 .346.346 0 0 0-.693 0m4.986-2.935-.691 1.197c1.187.646 2 1.849 2.118 3.269h-8.31a4.08 4.08 0 0 1 2.119-3.269l-.692-1.197a.144.144 0 0 1 .25-.144l.7 1.213A4.3 4.3 0 0 1 8 6.564c.642 0 1.243.135 1.779.38l.7-1.213a.144.144 0 0 1 .25.144"/></svg>