<svg xmlns="http://www.w3.org/2000/svg" viewBox="0 0 24 24" class="pdsicon"><path fill-rule="evenodd" d="m14.5 10.052-.633 1.098a3.74 3.74 0 0 1 1.942 2.996H8.19a3.74 3.74 0 0 1 1.942-2.996L9.5 10.052a.132.132 0 0 1 .229-.132l.642 1.112a3.9 3.9 0 0 1 1.63-.349c.588 0 1.14.125 1.63.349l.642-1.112a.132.132 0 0 1 .229.132m-1.064 2.691a.318.318 0 1 0 .635 0 .318.318 0 0 0-.635 0m-3.506 0a.318.318 0 1 0 .635 0 .318.318 0 0 0-.635 0"/><path fill-rule="evenodd" d="M3.292 3.75A2.29 2.29 0 0 0 1 6.042v11.916a2.29 2.29 0 0 0 2.292 2.292h17.416A2.29 2.29 0 0 0 23 17.958V6.042a2.29 2.29 0 0 0-2.292-2.292zm-.459 2.292c0-.254.205-.459.459-.459h17.416c.254 0 .459.205.459.459v11.916a.46.46 0 0 1-.459.459H3.292a.46.46 0 0 1-.459-.459z"/></svg>