<svg xmlns="http://www.w3.org/2000/svg" viewBox="0 0 24 24" class="pdsicon"><path d="M12.097 11.261h4.01c.383 3.386-1.712 4.892-4.028 4.892a4.25 4.25 0 0 1-1.962-.478 4.2 4.2 0 0 1-1.509-1.325 4.082 4.082 0 0 1-.446-3.84 4.14 4.14 0 0 1 1.165-1.626 4.2 4.2 0 0 1 1.802-.902 4.26 4.26 0 0 1 2.02.03c.661.172 1.27.5 1.772.957l-1.248 1.172a2.519 2.519 0 0 0-3.274.07c-.295.266-.52.597-.656.967a2.41 2.41 0 0 0 .3 2.24c.23.322.534.585.888.766.355.182.748.276 1.148.275 1.03 0 1.928-.376 2.29-1.505h-2.272z"/><path fill-rule="evenodd" d="M3.292 3.75A2.29 2.29 0 0 0 1 6.042v11.916a2.29 2.29 0 0 0 2.292 2.292h17.416A2.29 2.29 0 0 0 23 17.958V6.042a2.29 2.29 0 0 0-2.292-2.292zm-.459 2.292c0-.254.205-.459.459-.459h17.416c.254 0 .459.205.459.459v11.916a.46.46 0 0 1-.459.459H3.292a.46.46 0 0 1-.459-.459z"/></svg>