<svg xmlns="http://www.w3.org/2000/svg" viewBox="0 0 24 24" class="pdsicon"><path d="M9.817 14.2h1.196l.749-4.389h-1.197zM13.502 11.03c-.002.205.254.34.672.543.69.313 1.009.693 1.005 1.192-.009.912-.825 1.5-2.083 1.5-.536-.005-1.053-.112-1.333-.234l.168-.983c.482.218.75.3 1.28.3.345 0 .713-.134.716-.428.003-.192-.154-.33-.62-.545-.454-.21-1.055-.562-1.048-1.192.007-.853.84-1.448 2.022-1.448.463 0 .835.095 1.072.184l-.163.951a2.16 2.16 0 0 0-1.002-.218c-.469 0-.686.195-.686.377"/><path fill-rule="evenodd" d="M18.42 9.815h-.925c-.286 0-.5.078-.626.364l-1.777 4.022h1.257s.205-.54.252-.66l.69.002h.842c.036.154.146.658.146.658h1.11zm-1.475 2.83c.05-.127.538-1.38.635-1.646l.04.184c.03.144.041.196.053.247l.022.103.243 1.111z"/><path d="m7.643 12.807 1.171-2.993h1.267l-1.883 4.38-1.266.002-1.064-3.812a5 5 0 0 0-1.256-.481l.015-.091h1.93c.26.01.47.092.542.37l.419 2.017z"/><path fill-rule="evenodd" d="M1 6.042A2.29 2.29 0 0 1 3.292 3.75h17.416A2.29 2.29 0 0 1 23 6.042v11.916a2.29 2.29 0 0 1-2.292 2.292H3.292A2.29 2.29 0 0 1 1 17.958zm2.292-.459a.46.46 0 0 0-.459.459v11.916c0 .254.205.459.459.459h17.416a.46.46 0 0 0 .459-.459V6.042a.46.46 0 0 0-.459-.459z"/></svg>