<svg xmlns="http://www.w3.org/2000/svg" viewBox="0 0 24 24" class="pdsicon"><path fill-rule="evenodd" d="M3.292 5.583a.46.46 0 0 0-.459.459v11.916c0 .254.205.459.459.459h17.416a.46.46 0 0 0 .459-.459V6.042a.46.46 0 0 0-.459-.459zM1 6.042A2.29 2.29 0 0 1 3.292 3.75h17.416A2.29 2.29 0 0 1 23 6.042v11.916a2.29 2.29 0 0 1-2.292 2.292H3.292A2.29 2.29 0 0 1 1 17.958zm14.546 7.886c-.194.43-.287.62-.537 1-.347.53-.838 1.19-1.447 1.196-.25.002-.414-.073-.59-.154a1.7 1.7 0 0 0-.822-.194 1.8 1.8 0 0 0-.826.196c-.181.08-.35.155-.6.153-.61-.006-1.074-.601-1.422-1.132-.974-1.481-1.075-3.22-.475-4.145.427-.657 1.1-1.041 1.733-1.041.337 0 .61.097.868.19.236.083.46.163.715.163.234 0 .428-.073.638-.152.254-.096.532-.202.939-.202.563 0 1.16.307 1.585.837-1.393.763-1.167 2.753.24 3.285m-1.99-6.053c.075.501-.13.992-.401 1.34-.29.371-.79.66-1.273.645-.088-.48.139-.974.413-1.307.302-.366.819-.648 1.261-.678"/></svg>