<svg xmlns="http://www.w3.org/2000/svg" viewBox="0 0 24 24" class="pdsicon"><path fill-rule="evenodd" d="M3.672 1.009c.133.01.319.036.518.127a1.5 1.5 0 0 1 .639.554c.118.184.17.364.199.495.025.11.042.237.057.34l.003.02L5.438 5H21.06c.142 0 .306 0 .448.012.16.014.4.05.643.192a1.5 1.5 0 0 1 .66.797c.093.265.083.508.067.667-.014.142-.045.303-.072.443l-1.335 7.008c-.082.435-.154.813-.238 1.124-.09.332-.208.655-.417.958a3 3 0 0 1-1.262 1.045 3 3 0 0 1-1.019.23c-.321.024-.707.024-1.149.024H8.76c-.465 0-.87 0-1.205-.026-.357-.027-.711-.088-1.06-.248a3 3 0 0 1-1.28-1.117c-.206-.325-.314-.668-.389-1.017-.07-.33-.125-.73-.188-1.19L3.581 6.137 3.133 3H2a1 1 0 0 1 0-2h1.326c.105 0 .232 0 .346.009M5.717 7l.897 6.597c.069.505.114.829.166 1.074.05.233.094.32.122.365a1 1 0 0 0 .427.373c.048.022.14.053.378.071.25.02.577.02 1.087.02h8.558c.486 0 .796 0 1.034-.018.225-.017.314-.046.362-.067a1 1 0 0 0 .42-.348c.03-.043.075-.125.134-.343.061-.23.12-.535.211-1.012L20.791 7zM7 21a2 2 0 1 1 4 0 2 2 0 0 1-4 0m8 0a2 2 0 1 1 4 0 2 2 0 0 1-4 0"/></svg>