<svg xmlns="http://www.w3.org/2000/svg" viewBox="0 0 16 16" class="pdsicon"><g clip-path="url(#a)"><path fill-rule="evenodd" d="M.696 0a.696.696 0 1 0 0 1.391h1.478l1.31 9.831c.046.346.341.604.69.604h9.739a.696.696 0 0 0 .682-.56l1.391-6.956a.695.695 0 0 0-.682-.832H3.855L3.472.604A.696.696 0 0 0 2.782 0zm4.087 10.435L4.041 4.87h10.415l-1.113 5.565z"/><path d="M4.174 13.217a1.391 1.391 0 1 0 0 2.783 1.391 1.391 0 0 0 0-2.783M13.913 13.217a1.391 1.391 0 1 0 0 2.783 1.391 1.391 0 0 0 0-2.783"/></g><defs><clipPath id="a"><path d="M0 0h16v16H0z"/></clipPath></defs></svg>