<svg xmlns="http://www.w3.org/2000/svg" viewBox="0 0 24 24" class="pdsicon"><path fill-rule="evenodd" d="M2 4a3 3 0 0 1 3-3h14a3 3 0 0 1 3 3v14a3 3 0 0 1-3 3h-1.2l-1.9 1.9a1 1 0 0 1-1.414 0l-2.475-2.475L9.536 22.9a1 1 0 0 1-1.414 0l-1.9-1.9H5a3 3 0 0 1-3-3zm5.414 15.364 1.415 1.414 1.262-1.262a4 4 0 0 1-1.464-1.365zM8 15.95l-2.707 2.707A1 1 0 0 0 5.07 19H5a1 1 0 0 1-1-1V4a1 1 0 0 1 1-1h14a1 1 0 0 1 1 1v14a1 1 0 0 1-1 1h-.047a1 1 0 0 0-.225-.343L16 15.928A4 4 0 0 0 8 15.95m2.014.283-.001-.006A2 2 0 1 1 12.028 18h-.032a2 2 0 0 1-1.982-1.767m3.909 3.275a4 4 0 0 0 1.458-1.37l1.226 1.226-1.414 1.414zM8 6a1 1 0 0 1 1-1h6a1 1 0 1 1 0 2H9a1 1 0 0 1-1-1M6 9.5a1 1 0 0 1 1-1h10a1 1 0 1 1 0 2H7a1 1 0 0 1-1-1"/></svg>