<svg xmlns="http://www.w3.org/2000/svg" viewBox="0 0 16 16" class="pdsicon"><path fill-rule="evenodd" d="M13.3 4.7C14.9 5 16 6.4 16 8c0 .7-.3 1.4-.6 2v4.7c0 .2-.1.4-.3.5-.2.1-.4.2-.6.1l-1.8-.6-1.8.6c-.2.1-.4 0-.6-.1-.2-.1-.3-.3-.3-.5V10c-.4-.6-.7-1.3-.7-2 0-1.6 1.2-3 2.7-3.3V1.3H1.3v11.3H8c.4 0 .7.3.7.7 0 .4-.3.7-.7.7H.7c-.4 0-.7-.3-.7-.6V.7C0 .3.3 0 .7 0h12c.3 0 .6.3.6.7v4ZM14.7 8c0-1.1-.9-2-2-2s-2 .9-2 2 .9 2 2 2 2-.9 2-2Zm-3.3 5.8 1.1-.4h.4l1.1.4v-2.7c-.4.2-.8.3-1.3.3-.4 0-.9-.1-1.3-.3v2.7ZM9.3 3.3c.4 0 .7.3.7.7 0 .4-.3.7-.6.7h-6c-.4 0-.7-.3-.7-.7 0-.4.3-.7.6-.7h6ZM7.3 6h-4c-.3 0-.6.3-.6.7 0 .3.3.6.6.6h4c.4 0 .7-.3.7-.6 0-.4-.3-.7-.7-.7Zm-4 2.7h4c.4 0 .7.3.7.6 0 .4-.3.7-.7.7h-4c-.3 0-.6-.3-.6-.7 0-.3.3-.6.6-.6Z"/></svg>