<svg xmlns="http://www.w3.org/2000/svg" viewBox="0 0 16 16" class="pdsicon"><path fill-rule="evenodd" d="M6 2c0-.368.298-.667.667-.667h2.666c.369 0 .667.299.667.667v12a.667.667 0 0 1-.667.667H6.667A.667.667 0 0 1 6 14zm1.333.667v10.666h1.334V2.667zM0 9.333c0-.368.298-.666.667-.666h2.666c.369 0 .667.298.667.666V14a.667.667 0 0 1-.667.667H.667A.667.667 0 0 1 0 14zM1.333 10v3.333h1.334V10zM12 6c0-.368.299-.667.667-.667h2.666c.368 0 .667.299.667.667v8a.667.667 0 0 1-.667.667h-2.666A.667.667 0 0 1 12 14zm1.333.667v6.666h1.334V6.667z"/></svg>