<svg xmlns="http://www.w3.org/2000/svg" viewBox="0 0 16 16" class="pdsicon"><g clip-path="url(#a)"><path fill-rule="evenodd" d="M14.652 12.445a8 8 0 1 0-13.305-8.89 8 8 0 0 0 13.305 8.89m-1.109-.741A6.666 6.666 0 1 0 2.458 4.296a6.666 6.666 0 0 0 11.085 7.408m-3.067-1.361c.133-.32.198-.663.19-1.01A2.28 2.28 0 0 0 8.36 6.947 2.07 2.07 0 0 0 6.52 7.96h-.047c0-1.547.574-2.487 1.594-2.487A1.17 1.17 0 0 1 9.26 6.4h1.333A2.4 2.4 0 0 0 8.08 4.3c-1.767 0-2.887 1.487-2.887 4-.006 2.693 1.4 3.567 2.807 3.567a2.49 2.49 0 0 0 2.476-1.524m-3.409-.003a1.37 1.37 0 0 1-.4-.963 1.413 1.413 0 0 1 1.4-1.41A1.334 1.334 0 0 1 9.4 9.373a1.367 1.367 0 0 1-2.333.967m-.4-.963v-.004.007z"/></g><defs><clipPath id="a"><path d="M0 0h16v16H0z"/></clipPath></defs></svg>