<svg xmlns="http://www.w3.org/2000/svg" viewBox="0 0 16 16" class="pdsicon"><g clip-path="url(#a)"><path d="M8 0a8 8 0 1 1 .001 16.001A8 8 0 0 1 8.001 0m0 1.333a6.668 6.668 0 0 0-4.714 11.38A6.666 6.666 0 1 0 8 1.334M8.094 4c1.48 0 2.48.9 2.48 2.134 0 .826-.394 1.5-1.827 2.866L7.48 10.293v.047h3.187v1.113H5.64v-.96L8.194 8c.726-.733 1.1-1.174 1.1-1.787a1.115 1.115 0 0 0-1.22-1.12A1.135 1.135 0 0 0 6.865 6.3H5.6A2.28 2.28 0 0 1 8.094 4"/></g><defs><clipPath id="a"><path d="M0 0h16v16H0z"/></clipPath></defs></svg>