<svg xmlns="http://www.w3.org/2000/svg" viewBox="0 0 16 16" class="pdsicon"><g clip-path="url(#a)"><path fill-rule="evenodd" d="M14.652 12.445a8 8 0 1 0-13.305-8.89 8 8 0 0 0 13.305 8.89m-1.109-.741A6.666 6.666 0 1 0 2.458 4.296a6.666 6.666 0 0 0 11.085 7.408m-7.99-6.03A2.5 2.5 0 0 0 5.36 6.68a2.28 2.28 0 0 0 2.28 2.387 2.06 2.06 0 0 0 1.873-1.014h.054c-.007 1.574-.58 2.507-1.594 2.507a1.147 1.147 0 0 1-1.193-.947H5.447a2.387 2.387 0 0 0 2.506 2.1c1.76 0 2.88-1.473 2.88-4 0-2.68-1.393-3.553-2.806-3.553a2.48 2.48 0 0 0-2.474 1.513m3.408.002c.255.256.399.602.399.964h.02a1.393 1.393 0 0 1-1.413 1.4 1.333 1.333 0 0 1-1.334-1.4 1.363 1.363 0 0 1 2.328-.964"/></g><defs><clipPath id="a"><path d="M0 0h16v16H0z"/></clipPath></defs></svg>