<svg xmlns="http://www.w3.org/2000/svg" viewBox="0 0 24 24" class="pdsicon"><path fill-rule="evenodd" d="M12.451 6.15H8.425v11.7h4.323c2.178 0 3.63-1.354 3.63-3.235 0-1.386-.858-2.458-2.095-2.788 1.006-.363 1.732-1.287 1.732-2.525 0-1.831-1.32-3.151-3.564-3.151m-.264 4.95h-1.798V7.835h1.749c1.204 0 1.897.643 1.897 1.633 0 .974-.693 1.634-1.848 1.634m.215 5.066h-2.013v-3.399h2.079c1.22 0 1.897.71 1.897 1.716 0 1.04-.776 1.683-1.963 1.683"/><path fill-rule="evenodd" d="M23 12c0 6.075-4.925 11-11 11S1 18.075 1 12 5.925 1 12 1s11 4.925 11 11m-1.833 0a9.167 9.167 0 1 1-18.334 0 9.167 9.167 0 0 1 18.334 0"/></svg>