<svg xmlns="http://www.w3.org/2000/svg" viewBox="0 0 16 16" class="pdsicon"><g clip-path="url(#a)"><path d="M8 0a8 8 0 1 1 .001 16.001A8 8 0 0 1 8.001 0m0 1.333a6.668 6.668 0 0 0-4.714 11.38A6.666 6.666 0 1 0 8 1.334m2.267 4.18H7.1L6.887 7.46h.047a1.87 1.87 0 0 1 1.393-.56 2.3 2.3 0 0 1 2.34 2.433A2.474 2.474 0 0 1 8 11.847c-1.44 0-2.506-.88-2.54-2.1h1.293A1.167 1.167 0 0 0 8 10.78a1.34 1.34 0 0 0 1.256-.879c.062-.17.088-.353.077-.535A1.333 1.333 0 0 0 8 7.94a1.63 1.63 0 0 0-1.153.447L5.64 8.193 6 4.4h4.267z"/></g><defs><clipPath id="a"><path d="M0 0h16v16H0z"/></clipPath></defs></svg>