<svg xmlns="http://www.w3.org/2000/svg" viewBox="0 0 16 16" class="pdsicon"><g clip-path="url(#a)"><path fill-rule="evenodd" d="M8 1.455q-.658 0-1.278.124A.727.727 0 0 1 6.439.152a8 8 0 0 1 3.121 0 .727.727 0 1 1-.282 1.427A6.6 6.6 0 0 0 8 1.455m-3.436.093a.727.727 0 0 1-.2 1.009 6.6 6.6 0 0 0-1.807 1.807.727.727 0 1 1-1.21-.81 8 8 0 0 1 2.208-2.206.727.727 0 0 1 1.009.2m6.873 0a.727.727 0 0 1 1.008-.2 8 8 0 0 1 2.207 2.207.727.727 0 0 1-1.209.809 6.6 6.6 0 0 0-1.807-1.807.727.727 0 0 1-.2-1.01m-10.43 4.32c.394.077.65.46.572.854a6.6 6.6 0 0 0 0 2.556.727.727 0 1 1-1.427.282 8 8 0 0 1 0-3.12.727.727 0 0 1 .855-.573m13.986 0a.727.727 0 0 1 .855.571 8 8 0 0 1 0 3.121.727.727 0 1 1-1.427-.282 6.6 6.6 0 0 0 0-2.556.727.727 0 0 1 .572-.855M1.548 11.436a.727.727 0 0 1 1.009.2 6.6 6.6 0 0 0 1.807 1.806.727.727 0 0 1-.81 1.21 8 8 0 0 1-2.206-2.208.727.727 0 0 1 .2-1.008m12.904 0a.727.727 0 0 1 .2 1.008 8 8 0 0 1-2.207 2.207.727.727 0 0 1-.809-1.209 6.6 6.6 0 0 0 1.807-1.807.727.727 0 0 1 1.01-.2m-8.585 3.556a.727.727 0 0 1 .855-.572 6.6 6.6 0 0 0 2.556 0 .727.727 0 1 1 .282 1.427 8 8 0 0 1-3.12 0 .727.727 0 0 1-.573-.855"/></g><defs><clipPath id="a"><path d="M0 0h16v16H0z"/></clipPath></defs></svg>