<svg xmlns="http://www.w3.org/2000/svg" viewBox="0 0 16 16" class="pdsicon"><g clip-path="url(#a)"><path fill-rule="evenodd" d="M14.652 12.445a8 8 0 1 0-13.305-8.89 8 8 0 0 0 13.305 8.89m-1.109-.741A6.666 6.666 0 1 0 2.458 4.296a6.666 6.666 0 0 0 11.085 7.408m-5.45.09c1.574 0 2.714-.9 2.714-2.14A1.68 1.68 0 0 0 9.2 7.94v-.06a1.58 1.58 0 0 0 1.333-1.593c.007-1.12-.993-2.034-2.42-2.034-1.426 0-2.56.854-2.56 2.08h1.28a1.147 1.147 0 0 1 1.274-1 1.033 1.033 0 0 1 1.186 1.02C9.293 7 8.767 7.427 8 7.427h-.667v1.026h.58c.934 0 1.48.487 1.48 1.134s-.6 1.093-1.333 1.093-1.3-.387-1.333-.987H5.393c.034 1.247 1.127 2.1 2.7 2.1"/></g><defs><clipPath id="a"><path d="M0 0h16v16H0z"/></clipPath></defs></svg>