<svg xmlns="http://www.w3.org/2000/svg" viewBox="0 0 24 24" class="pdsicon"><path fill-rule="evenodd" d="M12 3a9 9 0 0 0-1.758.171 1 1 0 0 1-.388-1.962 11 11 0 0 1 4.292 0 1 1 0 1 1-.388 1.962A9 9 0 0 0 12 3m-4.725.128A1 1 0 0 1 7 4.515 9.1 9.1 0 0 0 4.515 7a1 1 0 1 1-1.662-1.112 11.1 11.1 0 0 1 3.035-3.035 1 1 0 0 1 1.387.275m9.45 0a1 1 0 0 1 1.387-.275c1.2.803 2.232 1.835 3.035 3.035A1 1 0 1 1 19.485 7 9.1 9.1 0 0 0 17 4.515a1 1 0 0 1-.275-1.387m-14.34 5.94a1 1 0 0 1 .786 1.174 9 9 0 0 0 0 3.516 1 1 0 0 1-1.962.388 11 11 0 0 1 0-4.292 1 1 0 0 1 1.175-.787m19.23 0a1 1 0 0 1 1.176.786 11.05 11.05 0 0 1 0 4.292 1 1 0 1 1-1.962-.388 9 9 0 0 0 0-3.516 1 1 0 0 1 .787-1.175M3.129 16.724A1 1 0 0 1 4.515 17 9.1 9.1 0 0 0 7 19.485a1 1 0 1 1-1.112 1.662 11.1 11.1 0 0 1-3.035-3.034 1 1 0 0 1 .275-1.388m17.744 0a1 1 0 0 1 .275 1.387 11.1 11.1 0 0 1-3.034 3.035A1 1 0 1 1 17 19.485 9.1 9.1 0 0 0 19.485 17a1 1 0 0 1 1.387-.275m-11.805 4.89a1 1 0 0 1 1.175-.786 9 9 0 0 0 3.516 0 1 1 0 1 1 .388 1.962 11.05 11.05 0 0 1-4.292 0 1 1 0 0 1-.787-1.175"/></svg>