<svg xmlns="http://www.w3.org/2000/svg" viewBox="0 0 16 16" class="pdsicon"><g clip-path="url(#a)"><path d="M8 0a8 8 0 1 1 .001 16.001A8 8 0 0 1 8.001 0m0 1.333a6.668 6.668 0 0 0-4.714 11.38A6.666 6.666 0 1 0 8 1.334m.113 2.92c1.427 0 2.427.914 2.42 2.034A1.58 1.58 0 0 1 9.2 7.88v.06a1.68 1.68 0 0 1 1.607 1.713c0 1.24-1.14 2.14-2.713 2.14s-2.667-.853-2.7-2.1h1.333c.033.6.6.987 1.333.987s1.334-.447 1.334-1.093c0-.647-.547-1.134-1.48-1.134h-.58V7.427H8c.767 0 1.293-.427 1.293-1.073a1.036 1.036 0 0 0-1.186-1.021 1.147 1.147 0 0 0-1.274 1h-1.28c.001-1.226 1.134-2.08 2.56-2.08"/></g><defs><clipPath id="a"><path d="M0 0h16v16H0z"/></clipPath></defs></svg>