<svg xmlns="http://www.w3.org/2000/svg" viewBox="0 0 16 16" class="pdsicon"><g clip-path="url(#a)"><path d="M8 0a8 8 0 1 1 .001 16.001A8 8 0 0 1 8.001 0m0 1.333a6.668 6.668 0 0 0-4.714 11.38A6.666 6.666 0 1 0 8 1.334m.014 2.88c1.42 0 2.46.84 2.46 2a1.64 1.64 0 0 1-1.26 1.627v.054a1.87 1.87 0 0 1 1.533 1.833c0 1.193-1.14 2.066-2.733 2.066s-2.74-.873-2.734-2.066a1.85 1.85 0 0 1 1.54-1.833V7.84a1.62 1.62 0 0 1-1.266-1.627c0-1.133 1.04-2 2.46-2M8 8.427a1.234 1.234 0 0 0-1.333 1.2c0 .666.527 1.14 1.333 1.14.807 0 1.333-.46 1.366-1.14a1.25 1.25 0 0 0-.424-.894A1.25 1.25 0 0 0 8 8.427M8 5.28a1.054 1.054 0 0 0-1.146 1.06h.012A1.077 1.077 0 0 0 8 7.42a1.087 1.087 0 0 0 1.167-1.08A1.07 1.07 0 0 0 8 5.28"/></g><defs><clipPath id="a"><path d="M0 0h16v16H0z"/></clipPath></defs></svg>