<svg xmlns="http://www.w3.org/2000/svg" viewBox="0 0 16 16" class="pdsicon"><g clip-path="url(#a)"><path fill-rule="evenodd" d="M14.652 12.445a8 8 0 1 0-13.305-8.89 8 8 0 0 0 13.305 8.89m-1.109-.741A6.666 6.666 0 1 0 2.458 4.296a6.666 6.666 0 0 0 11.085 7.408m-3.07-1.365c.135-.318.2-.66.194-1.006A2.3 2.3 0 0 0 8.327 6.9a1.87 1.87 0 0 0-1.394.56h-.046L7.1 5.513h3.167V4.4H6l-.36 3.793 1.207.194c.31-.295.725-.456 1.153-.447a1.333 1.333 0 0 1 1.333 1.427A1.333 1.333 0 0 1 8 10.78a1.167 1.167 0 0 1-1.247-1.033H5.46c.033 1.22 1.1 2.1 2.54 2.1a2.47 2.47 0 0 0 2.474-1.508"/></g><defs><clipPath id="a"><path d="M0 0h16v16H0z"/></clipPath></defs></svg>