<svg xmlns="http://www.w3.org/2000/svg" viewBox="0 0 16 16" class="pdsicon"><g clip-path="url(#a)"><path fill-rule="evenodd" d="M14.652 12.445a8 8 0 1 0-13.305-8.89 8 8 0 0 0 13.305 8.89m-1.109-.741A6.666 6.666 0 1 0 2.458 4.296a6.666 6.666 0 0 0 11.085 7.408m-5.53.09c1.594 0 2.734-.874 2.734-2.067a1.87 1.87 0 0 0-1.534-1.834V7.84a1.64 1.64 0 0 0 1.26-1.627c0-1.16-1.04-2-2.46-2s-2.46.867-2.46 2A1.62 1.62 0 0 0 6.82 7.84v.053a1.85 1.85 0 0 0-1.54 1.834c-.007 1.193 1.14 2.066 2.733 2.066M8 10.766c-.807 0-1.333-.474-1.333-1.14A1.233 1.233 0 0 1 8 8.427a1.253 1.253 0 0 1 1.367 1.2c-.034.68-.56 1.14-1.367 1.14m-1.048-4a1.1 1.1 0 0 1-.085-.427h-.014A1.053 1.053 0 0 1 8 5.28a1.067 1.067 0 0 1 .818 1.854A1.09 1.09 0 0 1 8 7.42a1.07 1.07 0 0 1-1.048-.653"/></g><defs><clipPath id="a"><path d="M0 0h16v16H0z"/></clipPath></defs></svg>