<svg xmlns="http://www.w3.org/2000/svg" viewBox="0 0 16 16" class="pdsicon"><g clip-path="url(#a)"><path d="M8 0a8 8 0 1 1 .001 16.001A8 8 0 0 1 8.001 0m0 1.333a6.668 6.668 0 0 0-4.714 11.38A6.666 6.666 0 1 0 8 1.334M8.08 4.3a2.4 2.4 0 0 1 2.514 2.1H9.26a1.17 1.17 0 0 0-1.193-.926c-1.02 0-1.593.94-1.593 2.486h.046a2.07 2.07 0 0 1 1.84-1.014 2.283 2.283 0 0 1 2.307 2.387A2.486 2.486 0 0 1 8 11.866c-1.407 0-2.813-.873-2.806-3.566 0-2.513 1.12-4 2.886-4m-.013 3.667a1.413 1.413 0 0 0-1.4 1.413l.007.129a1.367 1.367 0 0 0 2.727-.136 1.334 1.334 0 0 0-1.334-1.406"/></g><defs><clipPath id="a"><path d="M0 0h16v16H0z"/></clipPath></defs></svg>