<svg xmlns="http://www.w3.org/2000/svg" viewBox="0 0 16 16" class="pdsicon"><g clip-path="url(#a)"><path d="M8 0a8 8 0 1 1 .001 16.001A8 8 0 0 1 8.001 0m0 1.333a6.668 6.668 0 0 0-4.714 11.38A6.666 6.666 0 1 0 8 1.334m.027 2.827c1.413 0 2.806.873 2.806 3.553 0 2.527-1.12 4-2.88 4a2.386 2.386 0 0 1-2.507-2.1H6.78a1.147 1.147 0 0 0 1.194.947c1.013 0 1.586-.933 1.593-2.506h-.053A2.06 2.06 0 0 1 7.64 9.066 2.28 2.28 0 0 1 5.36 6.68a2.48 2.48 0 0 1 1.65-2.384 2.5 2.5 0 0 1 1.017-.136m-.03 1.116A1.365 1.365 0 0 0 6.634 6.64a1.335 1.335 0 0 0 .807 1.293c.166.07.345.107.526.107a1.394 1.394 0 0 0 1.413-1.4h-.02a1.364 1.364 0 0 0-1.363-1.364"/></g><defs><clipPath id="a"><path d="M0 0h16v16H0z"/></clipPath></defs></svg>