<svg xmlns="http://www.w3.org/2000/svg" viewBox="0 0 16 16" class="pdsicon"><g clip-path="url(#a)"><path fill-rule="evenodd" d="M14.652 12.445a8 8 0 1 0-13.305-8.89 8 8 0 0 0 13.305 8.89m-1.109-.741A6.666 6.666 0 1 0 2.458 4.296a6.666 6.666 0 0 0 11.085 7.408m-7.903-.25h5.027V10.34H7.48v-.047L8.747 9c1.433-1.367 1.826-2.04 1.826-2.867 0-1.233-1-2.133-2.48-2.133A2.28 2.28 0 0 0 5.6 6.3h1.267a1.133 1.133 0 0 1 1.206-1.207 1.113 1.113 0 0 1 1.22 1.12c0 .614-.373 1.054-1.1 1.787L5.64 10.493z"/></g><defs><clipPath id="a"><path d="M0 0h16v16H0z"/></clipPath></defs></svg>