<svg xmlns="http://www.w3.org/2000/svg" viewBox="0 0 16 16" class="pdsicon"><g clip-path="url(#a)"><path fill-rule="evenodd" d="M16 8A8 8 0 1 1 0 8a8 8 0 0 1 16 0m-1.333 0A6.667 6.667 0 1 1 1.333 8a6.667 6.667 0 0 1 13.334 0M8.328 3.746H5.4v8.508h3.144c1.584 0 2.64-.984 2.64-2.352 0-1.008-.624-1.788-1.524-2.028.732-.264 1.26-.936 1.26-1.836 0-1.332-.96-2.292-2.592-2.292m-.192 3.6H6.828V4.97H8.1c.876 0 1.38.468 1.38 1.188 0 .708-.504 1.188-1.344 1.188m.156 3.684H6.828V8.558H8.34c.888 0 1.38.516 1.38 1.248 0 .756-.564 1.224-1.428 1.224"/></g><defs><clipPath id="a"><path d="M0 0h16v16H0z"/></clipPath></defs></svg>