<svg xmlns="http://www.w3.org/2000/svg" viewBox="0 0 16 16" class="pdsicon"><path d="M1.333 5.2c0-1.12 0-1.68.218-2.108a2 2 0 0 1 .874-.874C2.853 2 3.413 2 4.533 2h6.934c1.12 0 1.68 0 2.108.218a2 2 0 0 1 .874.874c.218.428.218.988.218 2.108v.133H1.333z" opacity=".12"/><path fill-rule="evenodd" d="M5.986 1.333h-1.48c-.537 0-.98 0-1.34.03-.375.03-.72.096-1.043.261-.502.256-.91.664-1.166 1.165-.165.324-.23.668-.26 1.043-.03.36-.03.804-.03 1.34v5.656c0 .536 0 .98.03 1.34.03.375.095.72.26 1.043.256.501.664.91 1.166 1.165.323.165.668.23 1.042.261.361.03.804.03 1.34.03h6.99c.536 0 .979 0 1.34-.03.374-.03.719-.096 1.042-.261.502-.256.91-.664 1.166-1.165.165-.324.23-.668.26-1.043.03-.36.03-.804.03-1.34V5.172c0-.536 0-.98-.03-1.34-.03-.375-.095-.72-.26-1.043a2.67 2.67 0 0 0-1.166-1.165c-.323-.165-.668-.23-1.042-.261-.361-.03-.804-.03-1.34-.03H5.985m3.867 1.334H6.547l-.4 2h3.306zm1.36 0-.4 2H14c-.002-.297-.008-.53-.024-.726-.024-.293-.067-.442-.12-.546a1.33 1.33 0 0 0-.583-.583c-.104-.053-.254-.096-.546-.12-.3-.025-.688-.025-1.26-.025zM14 6H2v4.8c0 .571 0 .96.025 1.26.024.292.067.441.12.545.128.251.332.455.583.583.104.053.254.096.546.12.3.025.688.025 1.26.025h6.933c.57 0 .959 0 1.259-.025.292-.024.442-.067.546-.12.25-.128.455-.332.583-.583.053-.104.096-.253.12-.546.024-.3.025-.688.025-1.259zM2.001 4.667h2.786l.4-2h-.654c-.57 0-.959 0-1.259.025-.292.024-.442.067-.546.12-.25.128-.455.332-.583.583-.053.104-.096.253-.12.546-.016.195-.022.429-.024.726"/></svg>