<svg xmlns="http://www.w3.org/2000/svg" viewBox="0 0 24 24" class="pdsicon"><path d="M2 7.8c0-1.68 0-2.52.327-3.162a3 3 0 0 1 1.311-1.311C4.28 3 5.12 3 6.8 3h10.4c1.68 0 2.52 0 3.162.327a3 3 0 0 1 1.311 1.311C22 5.28 22 6.12 22 7.8V8H2z" opacity=".12"/><path fill-rule="evenodd" d="M8.98 2H6.758c-.805 0-1.47 0-2.01.044-.563.046-1.08.145-1.565.392a4 4 0 0 0-1.748 1.748c-.247.485-.346 1.002-.392 1.564C1 6.29 1 6.954 1 7.758v8.483c0 .805 0 1.47.044 2.01.046.563.145 1.08.392 1.565a4 4 0 0 0 1.748 1.748c.485.247 1.002.346 1.564.392C5.29 22 5.954 22 6.758 22h10.483c.805 0 1.47 0 2.01-.044.563-.046 1.08-.145 1.565-.392a4 4 0 0 0 1.748-1.748c.247-.485.346-1.002.392-1.564.044-.541.044-1.206.044-2.01V7.758c0-.805 0-1.47-.044-2.01-.046-.563-.145-1.08-.392-1.565a4 4 0 0 0-1.748-1.748c-.485-.247-1.002-.346-1.564-.392C18.71 2 18.046 2 17.242 2H8.978m5.8 2H9.82l-.6 3h4.96zm2.04 0-.6 3h4.778a15 15 0 0 0-.036-1.089c-.035-.438-.1-.663-.18-.819a2 2 0 0 0-.874-.874c-.156-.08-.38-.145-.819-.18C18.639 4 18.057 4 17.2 4zM21 9H3v7.2c0 .857 0 1.439.038 1.889.035.438.1.663.18.819a2 2 0 0 0 .874.874c.156.08.38.145.819.18C5.361 20 5.943 20 6.8 20h10.4c.857 0 1.439 0 1.889-.038.438-.035.663-.1.819-.18a2 2 0 0 0 .874-.874c.08-.156.145-.38.18-.819.037-.45.038-1.032.038-1.889zM3.002 7H7.18l.6-3H6.8c-.857 0-1.439 0-1.889.038-.438.035-.663.1-.819.18a2 2 0 0 0-.874.874c-.08.156-.145.38-.18.819-.024.294-.033.643-.036 1.089"/></svg>