<svg xmlns="http://www.w3.org/2000/svg" viewBox="0 0 24 24" class="pdsicon"><path d="M20 3a3 3 0 0 1 3 3v12a3 3 0 0 1-3 3H4a3 3 0 0 1-3-3V6a3 3 0 0 1 3-3zM4 5a1 1 0 0 0-1 1v12a1 1 0 0 0 1 1h16a1 1 0 0 0 1-1V6a1 1 0 0 0-1-1zm5.01 3.001a4.7 4.7 0 0 1 2.07.476 1.001 1.001 0 0 1-.88 1.796A2.7 2.7 0 0 0 8.996 10h-.034a1.9 1.9 0 0 0-.97.234c-.237.14-.428.349-.546.599-.165.36-.246.752-.237 1.146l-.002.086c-.035.538.125 1.07.45 1.5a1.5 1.5 0 0 0 1.145.437L8.88 14c.408.007.816-.061 1.201-.2l.339.941.34.94A5.4 5.4 0 0 1 8.875 16a3.49 3.49 0 0 1-2.702-1.089l-.059-.067a4.25 4.25 0 0 1-.904-2.867 4.6 4.6 0 0 1 .425-1.989l.003-.007a3.37 3.37 0 0 1 1.37-1.486l.016-.01a3.9 3.9 0 0 1 1.955-.483V8l.007.001L9.012 8zm7.153 0a4.7 4.7 0 0 1 1.82.363l.248.114.09.048a1 1 0 0 1-.97 1.747A2.7 2.7 0 0 0 16.148 10h-.035c-.337-.008-.67.07-.965.231a1.4 1.4 0 0 0-.547.596l-.059.137c-.128.322-.19.668-.183 1.015q.001.045-.002.088a2.25 2.25 0 0 0 .446 1.498c.302.303.72.464 1.148.437l.081-.002c.306.005.611-.032.907-.11l.391-.12a1.001 1.001 0 0 1 .581 1.912l-.231.077a5.4 5.4 0 0 1-1.65.24 3.49 3.49 0 0 1-2.71-1.089l-.06-.068a4.25 4.25 0 0 1-.899-2.875 4.6 4.6 0 0 1 .424-1.98l.004-.008a3.4 3.4 0 0 1 1.386-1.494c.6-.33 1.273-.495 1.955-.484V8l.009.001.025-.001zM10.081 13.8a1 1 0 0 1 .679 1.882z"/></svg>