<svg xmlns="http://www.w3.org/2000/svg" viewBox="0 0 24 24" class="pdsicon"><path fill-rule="evenodd" d="M1 5.583c0-.506.41-.916.917-.916h20.166c.507 0 .917.41.917.916v12.834c0 .506-.41.916-.917.916H1.917A.917.917 0 0 1 1 18.417zm1.833.917v11h18.334v-11zm5.497 3.88a1.26 1.26 0 0 0-.503.548c-.152.33-.227.689-.219 1.051q0 .04-.002.08c-.032.495.115.984.413 1.379a1.37 1.37 0 0 0 1.05.397l.07-.002c.376.007.749-.055 1.102-.183a.917.917 0 1 1 .622 1.725 4.9 4.9 0 0 1-1.72.292 3.2 3.2 0 0 1-2.484-.999l-.054-.062a3.9 3.9 0 0 1-.83-2.625 4.2 4.2 0 0 1 .39-1.827l.003-.005a3.1 3.1 0 0 1 1.255-1.363l.015-.008a3.6 3.6 0 0 1 1.807-.445 4.3 4.3 0 0 1 1.912.438.917.917 0 1 1-.807 1.646 2.46 2.46 0 0 0-1.135-.25 1.76 1.76 0 0 0-.885.213m6.052.549c.11-.23.285-.421.505-.55a1.76 1.76 0 0 1 .916-.212 2.45 2.45 0 0 1 1.102.25.917.917 0 0 0 .807-1.646 4.3 4.3 0 0 0-1.91-.438 3.6 3.6 0 0 0-1.808.445l-.015.008a3.1 3.1 0 0 0-1.256 1.362l-.003.006a4.2 4.2 0 0 0-.39 1.826c-.054.946.24 1.88.826 2.625l.054.063a3.2 3.2 0 0 0 2.49.999 4.9 4.9 0 0 0 1.719-.292.917.917 0 0 0-.622-1.725 3.1 3.1 0 0 1-1.102.184l-.073.001a1.36 1.36 0 0 1-1.051-.397 2.06 2.06 0 0 1-.41-1.377l.002-.082a2.4 2.4 0 0 1 .219-1.05"/></svg>