<svg xmlns="http://www.w3.org/2000/svg" viewBox="0 0 16 16" class="pdsicon"><path fill-rule="evenodd" d="M0 3.333c0-.368.298-.666.667-.666h14.666c.368 0 .667.298.667.666v9.334a.667.667 0 0 1-.667.666H.667A.667.667 0 0 1 0 12.667zM1.333 4v8h13.334V4zm3.998 2.822a.9.9 0 0 0-.366.399c-.11.239-.165.5-.16.764v.058c-.024.36.083.715.3 1.003a1 1 0 0 0 .763.289l.052-.002c.272.005.544-.04.8-.133a.667.667 0 0 1 .453 1.254c-.401.145-.824.217-1.25.213a2.33 2.33 0 0 1-1.847-.772 2.84 2.84 0 0 1-.604-1.909 3.1 3.1 0 0 1 .285-1.329l.001-.003a2.25 2.25 0 0 1 .914-.991l.01-.006a2.6 2.6 0 0 1 1.314-.324 3.1 3.1 0 0 1 1.39.318A.667.667 0 0 1 6.8 6.85a1.8 1.8 0 0 0-.825-.183 1.3 1.3 0 0 0-.644.156m4.401.399a.92.92 0 0 1 .367-.4 1.3 1.3 0 0 1 .667-.154c.277-.003.552.06.801.182a.667.667 0 1 0 .587-1.198 3.1 3.1 0 0 0-1.39-.318 2.6 2.6 0 0 0-1.314.324l-.01.006c-.399.23-.717.575-.914.99l-.002.004c-.193.416-.29.87-.284 1.328a2.83 2.83 0 0 0 .64 1.955 2.33 2.33 0 0 0 1.811.727c.426.004.85-.068 1.25-.213a.667.667 0 1 0-.452-1.254 2.3 2.3 0 0 1-.802.133q-.026 0-.053.002a1 1 0 0 1-.764-.289 1.5 1.5 0 0 1-.298-1.001q.002-.03.001-.06a1.7 1.7 0 0 1 .16-.764"/></svg>