<svg xmlns="http://www.w3.org/2000/svg" viewBox="0 0 16 16" class="pdsicon"><g fill-rule="evenodd" clip-path="url(#a)"><path d="M8.667 8v6H7.333V8z"/><path d="m8 7.057 3.61 3.61-.943.943L8 8.943 5.333 11.61l-.942-.943z"/><path d="M6.902 1.794a6.667 6.667 0 1 1 3.913 12.707l-.65.148-.296-1.3.65-.148a5.334 5.334 0 1 0-6.492-5.734l-.049.489-.481.097a2.667 2.667 0 0 0 .506 5.28H6v1.334H3.995A4 4 0 0 1 2.764 6.87a6.67 6.67 0 0 1 4.138-5.077"/></g><defs><clipPath id="a"><path d="M0 0h16v16H0z"/></clipPath></defs></svg>