<svg xmlns="http://www.w3.org/2000/svg" viewBox="0 0 24 24" class="pdsicon"><path d="m12.9 2 .153.012a1 1 0 0 1 .78.629l2.09 5.435 5.436 2.091A1 1 0 0 1 22 11.1v1.8a1 1 0 0 1-.64.933l-5.437 2.09-2.09 5.436A1 1 0 0 1 12.9 22h-1.8a1 1 0 0 1-.933-.64l-2.09-5.437-5.436-2.09A1 1 0 0 1 2 12.9v-1.8a1 1 0 0 1 .64-.933l5.436-2.09 2.091-5.436.065-.138A1 1 0 0 1 11.1 2zM9.783 9.209a1 1 0 0 1-.574.574L4 11.786v.427l5.209 2.004.097.043a1 1 0 0 1 .477.531L11.787 20h.426l2.004-5.209.043-.097a1 1 0 0 1 .531-.477L20 12.213v-.427l-5.209-2.003a1 1 0 0 1-.574-.574L12.213 4h-.426z"/></svg>