<svg xmlns="http://www.w3.org/2000/svg" viewBox="0 0 24 24" class="pdsicon"><path fill-rule="evenodd" d="M13.815 2.957s4.343 9.797 4.62 10.395.098 1.216-.495 1.485-1.234 0-1.485-.495-1.65-3.795-1.65-3.795h-5.61s-1.427 3.3-1.65 3.795-.928.752-1.485.495-.771-.863-.495-1.485l4.62-10.395c.061-.14.165-.355.33-.66l.018-.033c.156-.29.282-.524.662-.792.395-.278.965-.278 1.465 0s.716.642.825.825c.077.13.123.228.207.402zM12 4.277l-1.815 3.96h3.63z"/><path d="M1.552 18.252h20.896c.147 0 .287.059.39.165a.57.57 0 0 1 .162.399v3.271a.57.57 0 0 1-.162.4.55.55 0 0 1-.39.165H1.552a.55.55 0 0 1-.39-.166.57.57 0 0 1-.162-.399v-3.271a.57.57 0 0 1 .162-.4.55.55 0 0 1 .39-.165"/></svg>