<svg xmlns="http://www.w3.org/2000/svg" viewBox="0 0 16 16" class="pdsicon"><g clip-path="url(#a)"><path fill-rule="evenodd" d="m13.739 1.233 1.14-1.14.94.947L1.152 15.707l-.94-.947 2.86-2.86h-1.06a2 2 0 0 1-2-2V3.233a2 2 0 0 1 2-2H13.74ZM1.541 10.371a.667.667 0 0 0 .471.196h2.394l8-8H2.012a.667.667 0 0 0-.666.666V9.9c0 .177.07.346.195.471Zm13.138-6.858 1.133-1.133c.128.28.188.586.174.893V9.94a2 2 0 0 1-2 2h-1.334v3.967L7.106 11.94h-.84l1.333-1.333 3.747 2.666v-2.706h2.666a.667.667 0 0 0 .667-.667V3.513Z"/></g><defs><clipPath id="a"><path d="M0 0h16v16H0z"/></clipPath></defs></svg>