<svg xmlns="http://www.w3.org/2000/svg" viewBox="0 0 16 16" class="pdsicon"><g clip-path="url(#a)"><path fill-rule="evenodd" d="M0 2.667c0-.737.597-1.334 1.333-1.334h1.334c.387 0 .698.169.92.36.22.187.38.42.494.626a.666.666 0 0 0 1.171 0 2.3 2.3 0 0 1 .494-.626c.222-.191.534-.36.92-.36h2.667c.387 0 .699.169.921.36.219.187.38.42.494.626a.666.666 0 0 0 1.171 0 2.3 2.3 0 0 1 .494-.626c.222-.191.534-.36.92-.36h1.334c.736 0 1.333.597 1.333 1.334v10.666c0 .737-.597 1.334-1.333 1.334H1.333A1.333 1.333 0 0 1 0 13.333zm2.663 0h-1.33v10.666h13.334V2.667h-1.33a.2.2 0 0 0-.056.038 1 1 0 0 0-.192.254 2 2 0 0 1-3.51 0 1 1 0 0 0-.193-.254.2.2 0 0 0-.057-.038H6.671a.2.2 0 0 0-.057.038 1 1 0 0 0-.192.254 2 2 0 0 1-3.51 0 1 1 0 0 0-.193-.254.2.2 0 0 0-.056-.038m-.004-.001h.003zm4.015 0h-.002zm2.652 0h.002zm4.015 0h-.003zM9.333 7.333c0-.368.299-.666.667-.666h2.667a.667.667 0 0 1 0 1.333H10a.667.667 0 0 1-.667-.667m0 2.667c0-.368.299-.667.667-.667h2.667a.667.667 0 1 1 0 1.334H10A.667.667 0 0 1 9.333 10m-6.557.679c-.12.348.19.654.557.654h4c.369 0 .678-.306.558-.654A2 2 0 0 0 6 9.333H4.666a2 2 0 0 0-1.89 1.346m3.89-3.346a1.333 1.333 0 1 1-2.666 0 1.333 1.333 0 0 1 2.667 0"/></g><defs><clipPath id="a"><path d="M0 0h16v16H0z"/></clipPath></defs></svg>