<svg xmlns="http://www.w3.org/2000/svg" viewBox="0 0 24 24" class="pdsicon"><path fill-rule="evenodd" d="M6.759 1H17.24c.805 0 1.47 0 2.01.044.563.046 1.08.145 1.565.392a4 4 0 0 1 1.748 1.748c.247.485.346 1.002.392 1.564C23 5.29 23 5.954 23 6.758v10.483c0 .805 0 1.47-.044 2.01-.046.563-.145 1.08-.392 1.565a4 4 0 0 1-1.748 1.748 3 3 0 0 1-.526.21c-.747.227-1.696.226-2.924.226H6.634c-1.228 0-2.177 0-2.924-.226a3 3 0 0 1-.526-.21 4 4 0 0 1-1.748-1.748c-.247-.485-.346-1.002-.392-1.564C1 18.71 1 18.046 1 17.242V6.758c0-.805 0-1.47.044-2.01.046-.563.145-1.08.392-1.565a4 4 0 0 1 1.748-1.748c.485-.247 1.002-.346 1.564-.392C5.29 1 5.954 1 6.758 1M4.91 3.038c-.438.035-.663.1-.819.18a2 2 0 0 0-.874.874c-.08.156-.145.38-.18.819C3 5.361 3 5.943 3 6.8v10.4c0 .857 0 1.439.038 1.889.026.318.067.523.118.672a5 5 0 0 1 3.869-3.665C7.509 16 8.067 16 8.885 16h6.231c.817 0 1.375 0 1.86.096a5 5 0 0 1 3.868 3.665c.051-.149.092-.354.118-.672.037-.45.038-1.032.038-1.889V6.8c0-.857 0-1.439-.038-1.889-.035-.438-.1-.663-.18-.819a2 2 0 0 0-.874-.874c-.156-.08-.38-.145-.819-.18C18.639 3 18.057 3 17.2 3H6.8c-.857 0-1.439 0-1.889.038m14.08 17.932a3.4 3.4 0 0 0-.049-.555 3 3 0 0 0-2.357-2.357C16.32 18.005 15.977 18 15 18H9c-.977 0-1.32.005-1.585.058a3 3 0 0 0-2.357 2.357 3.3 3.3 0 0 0-.05.555c.407.027.966.03 1.792.03h10.4c.826 0 1.385-.003 1.792-.03M12 6.5a3 3 0 1 0 0 6 3 3 0 0 0 0-6m-5 3a5 5 0 1 1 10 0 5 5 0 0 1-10 0"/></svg>