<svg xmlns="http://www.w3.org/2000/svg" viewBox="0 0 24 24" class="pdsicon"><path fill-rule="evenodd" d="M11 22a1 1 0 0 1-1 1H8a1 1 0 1 1 0-2h2a1 1 0 0 1 1 1m1.5.01a1 1 0 0 1 .986-1.013c.694-.01.875-.058.968-.106a1 1 0 0 0 .437-.437c.048-.093.097-.274.106-.968a1 1 0 0 1 2 .027c-.009.657-.038 1.287-.324 1.849a3 3 0 0 1-1.311 1.311c-.562.286-1.192.315-1.848.324a1 1 0 0 1-1.014-.986m-7 0a1 1 0 0 1-1.014.987c-.656-.009-1.286-.038-1.848-.324a3 3 0 0 1-1.311-1.311c-.286-.562-.315-1.192-.324-1.848a1 1 0 1 1 2-.027c.01.693.058.874.106.967a1 1 0 0 0 .437.437c.093.048.274.097.968.106a1 1 0 0 1 .986 1.014M2 17a1 1 0 0 1-1-1v-2a1 1 0 1 1 2 0v2a1 1 0 0 1-1 1m16.839 0h-7.677c-.528 0-.982 0-1.357-.03-.395-.033-.789-.104-1.167-.297a3 3 0 0 1-1.311-1.311c-.193-.378-.264-.772-.296-1.167C7 13.82 7 13.365 7 12.838V5.162c0-.527 0-.981.03-1.356.033-.395.104-.789.297-1.167a3 3 0 0 1 1.311-1.311c.378-.193.772-.264 1.167-.296C10.18 1 10.635 1 11.161 1h7.678c.527 0 .982 0 1.356.03.395.033.789.104 1.167.297a3 3 0 0 1 1.311 1.311c.193.378.264.772.296 1.167.031.375.031.83.031 1.356v7.678c0 .527 0 .981-.03 1.356-.033.395-.104.789-.297 1.167a3 3 0 0 1-1.311 1.311c-.378.193-.772.264-1.167.296-.375.031-.83.031-1.357.031m1.193-2.024c.272-.022.372-.06.422-.085a1 1 0 0 0 .437-.437c.025-.05.063-.15.085-.422C21 13.75 21 13.377 21 12.8V5.2c0-.577 0-.949-.024-1.232-.022-.272-.06-.373-.085-.422a1 1 0 0 0-.437-.437c-.05-.025-.15-.063-.422-.085C19.75 3 19.377 3 18.8 3h-7.6c-.577 0-.949 0-1.232.024-.272.022-.373.06-.422.085a1 1 0 0 0-.437.437c-.025.05-.063.15-.085.422C9 4.25 9 4.623 9 5.2v7.6c0 .577 0 .949.024 1.232.022.272.06.373.085.422a1 1 0 0 0 .437.437c.05.025.15.063.422.085.283.023.655.024 1.232.024h7.6c.577 0 .949 0 1.232-.024M1.99 11.5a1 1 0 0 1-.986-1.014c.009-.656.038-1.286.324-1.848a3 3 0 0 1 1.311-1.311c.562-.286 1.192-.315 1.848-.324a1 1 0 1 1 .028 2c-.694.01-.875.058-.968.106a1 1 0 0 0-.437.437c-.048.093-.097.274-.106.968a1 1 0 0 1-1.014.986"/></svg>