<svg xmlns="http://www.w3.org/2000/svg" viewBox="0 0 16 16" class="pdsicon"><g fill-rule="evenodd" clip-path="url(#a)"><path d="M10 5.333c0-.368.299-.666.667-.666h4c.368 0 .666.298.666.666v9.334a.667.667 0 0 1-.666.666H5.333a.667.667 0 0 1-.666-.666v-4a.667.667 0 1 1 1.333 0V14h8V6h-3.333A.667.667 0 0 1 10 5.333"/><path d="M.667 1.333c0-.368.298-.666.666-.666h9.334c.368 0 .666.298.666.666v9.334a.667.667 0 0 1-.666.666H1.333a.667.667 0 0 1-.666-.666zM2 2v8h8V2z"/></g><defs><clipPath id="a"><path d="M0 0h16v16H0z"/></clipPath></defs></svg>