<svg xmlns="http://www.w3.org/2000/svg" viewBox="0 0 24 24" class="pdsicon"><path fill-rule="evenodd" d="M8.866 2.154a4.83 4.83 0 0 1 6.268 0c.454.387 1.018.62 1.612.668a4.83 4.83 0 0 1 4.432 4.432c.047.594.281 1.158.668 1.612a4.83 4.83 0 0 1 0 6.268 2.83 2.83 0 0 0-.668 1.612 4.83 4.83 0 0 1-4.432 4.432 2.83 2.83 0 0 0-1.612.668 4.83 4.83 0 0 1-6.268 0 2.83 2.83 0 0 0-1.612-.668 4.83 4.83 0 0 1-4.432-4.432 2.83 2.83 0 0 0-.668-1.612 4.83 4.83 0 0 1 0-6.268c.387-.454.62-1.018.668-1.612a4.83 4.83 0 0 1 4.432-4.432 2.83 2.83 0 0 0 1.612-.668m4.97 1.523a2.83 2.83 0 0 0-3.673 0 4.83 4.83 0 0 1-2.75 1.139 2.83 2.83 0 0 0-2.597 2.597 4.83 4.83 0 0 1-1.14 2.75 2.83 2.83 0 0 0 0 3.674 4.83 4.83 0 0 1 1.14 2.75 2.83 2.83 0 0 0 2.597 2.598c1.014.08 1.976.479 2.75 1.139a2.83 2.83 0 0 0 3.674 0 4.83 4.83 0 0 1 2.75-1.14 2.83 2.83 0 0 0 2.598-2.597 4.83 4.83 0 0 1 1.139-2.75 2.83 2.83 0 0 0 0-3.674 4.83 4.83 0 0 1-1.14-2.75 2.83 2.83 0 0 0-2.597-2.597 4.83 4.83 0 0 1-2.75-1.14m1.457 3.616a1 1 0 1 1 1.414 1.414l-8 8a1 1 0 0 1-1.414-1.414zM7.5 9a1.5 1.5 0 1 1 3 0 1.5 1.5 0 0 1-3 0m6 6a1.5 1.5 0 1 1 3 0 1.5 1.5 0 0 1-3 0"/></svg>