<svg xmlns="http://www.w3.org/2000/svg" viewBox="0 0 16 16" class="pdsicon"><g clip-path="url(#a)"><path fill-rule="evenodd" d="M.667.667A.667.667 0 0 0 0 1.333v13.334c0 .368.298.666.667.666h14.666a.667.667 0 0 0 .667-.666V1.333a.667.667 0 0 0-.667-.666H.667M3.333 2h-2v1.333h2zm1.334 1.333V2h10v1.333zM1.333 4.667h13.334V14H1.333zm1.334 2.666c0-.368.298-.666.666-.666h4c.369 0 .667.298.667.666v4a.667.667 0 0 1-.667.667h-4a.667.667 0 0 1-.666-.667zM4 8v2.667h2.667V8zm6-1.333A.667.667 0 1 0 10 8h2.667a.667.667 0 1 0 0-1.333zM9.333 10c0-.368.299-.667.667-.667h1.333a.667.667 0 1 1 0 1.334H10A.667.667 0 0 1 9.333 10"/></g><defs><clipPath id="a"><path d="M0 0h16v16H0z"/></clipPath></defs></svg>