<svg xmlns="http://www.w3.org/2000/svg" viewBox="0 0 16 16" class="pdsicon"><g clip-path="url(#a)"><path d="M13.333 15.333a.7.7 0 0 1-.253-.053.6.6 0 0 1-.22-.14L9.727 12h-1.06v2.667a.666.666 0 1 1-1.333 0V12h-1.06L3.14 15.14A.666.666 0 0 1 2 14.667a.67.67 0 0 1 .193-.474L4.393 12h-.926a3.6 3.6 0 0 1-1.707-.22c-.374-.194-.68-.5-.873-.873A3.63 3.63 0 0 1 .667 9.2V4.8a3.6 3.6 0 0 1 .22-1.707 2 2 0 0 1 .873-.873A3.54 3.54 0 0 1 3.467 2h3.866v-.667a.667.667 0 1 1 1.334 0V2h3.866a3.54 3.54 0 0 1 1.707.22 2 2 0 0 1 .873.873c.21.543.285 1.129.22 1.707v4.4a3.6 3.6 0 0 1-.22 1.707c-.194.374-.499.679-.873.873a3.6 3.6 0 0 1-1.707.22h-.926l2.2 2.193q.094.093.146.214a.669.669 0 0 1-.007.513.8.8 0 0 1-.146.22.6.6 0 0 1-.22.14.7.7 0 0 1-.247.053m-9.866-12a3.6 3.6 0 0 0-1.107.074.67.67 0 0 0-.287.293c-.08.36-.105.732-.073 1.1v4.4c-.032.368-.008.74.073 1.1.064.127.167.23.294.293.36.081.731.106 1.1.074h9.066c.369.032.74.007 1.1-.074a.67.67 0 0 0 .294-.293c.08-.36.105-.732.073-1.1V4.8c.033-.37.008-.744-.073-1.107a.67.67 0 0 0-.294-.286 3.6 3.6 0 0 0-1.1-.074z"/></g><defs><clipPath id="a"><path d="M0 0h16v16H0z"/></clipPath></defs></svg>