<svg xmlns="http://www.w3.org/2000/svg" viewBox="0 0 16 16" class="pdsicon"><path fill-rule="evenodd" d="M.67.67h14.66a.67.67 0 0 1 .67.66v13.34a.67.67 0 0 1-.67.66H.67a.67.67 0 0 1-.67-.66V1.33A.67.67 0 0 1 .67.67M3.33 2h-2v1.33h2zm4.474 9.804A.67.67 0 0 0 8 11.33v-4a.67.67 0 0 0-.67-.66h-4a.67.67 0 0 0-.66.66v4a.67.67 0 0 0 .66.67h4a.67.67 0 0 0 .474-.196M10 10.67h1.33a.67.67 0 0 0 0-1.34H10a.67.67 0 1 0 0 1.34M10 8h2.67a.67.67 0 0 0 0-1.33H10A.67.67 0 1 0 10 8M4.67 3.33h10V2h-10zM4 8h2.67v2.67H4z"/></svg>