<svg xmlns="http://www.w3.org/2000/svg" viewBox="0 0 24 24" class="pdsicon"><g clip-path="url(#a)"><path d="M20 23a1 1 0 0 1-.38-.08.9.9 0 0 1-.33-.21L14.59 18H13v4a1.05 1.05 0 0 1-.29.71 1 1 0 0 1-1.42 0A1.05 1.05 0 0 1 11 22v-4H9.41l-4.7 4.71A1 1 0 0 1 3 22a1 1 0 0 1 .29-.71L6.59 18H5.2a5.44 5.44 0 0 1-2.56-.33 3.07 3.07 0 0 1-1.31-1.31A5.45 5.45 0 0 1 1 13.8V7.2a5.44 5.44 0 0 1 .33-2.56 3 3 0 0 1 1.31-1.31A5.3 5.3 0 0 1 5.2 3H11V2a1 1 0 1 1 2 0v1h5.8a5.3 5.3 0 0 1 2.56.33 3 3 0 0 1 1.31 1.31A5.44 5.44 0 0 1 23 7.2v6.6a5.45 5.45 0 0 1-.33 2.56 3.07 3.07 0 0 1-1.31 1.31 5.44 5.44 0 0 1-2.56.33h-1.39l3.3 3.29a1 1 0 0 1 .22.32q.07.189.07.39c-.002.13-.029.26-.08.38a1.2 1.2 0 0 1-.22.33.9.9 0 0 1-.33.21A1 1 0 0 1 20 23M5.2 5a5.4 5.4 0 0 0-1.66.11 1 1 0 0 0-.43.44A5.4 5.4 0 0 0 3 7.2v6.6a5.4 5.4 0 0 0 .11 1.65 1 1 0 0 0 .44.44A5.4 5.4 0 0 0 5.2 16h13.6a5.4 5.4 0 0 0 1.65-.11 1 1 0 0 0 .44-.44A5.4 5.4 0 0 0 21 13.8V7.2a5.4 5.4 0 0 0-.11-1.66 1 1 0 0 0-.44-.43A5.4 5.4 0 0 0 18.8 5z"/></g><defs><clipPath id="a"><path d="M0 0h24v24H0z"/></clipPath></defs></svg>