<svg xmlns="http://www.w3.org/2000/svg" viewBox="0 0 16 16" class="pdsicon"><path fill-rule="evenodd" d="M4.7 1.3H14c1.1 0 2 .9 2 2V10c0 1.1-.9 2-2 2H4.7c-1.1 0-2-.9-2-2V3.3c0-1.1.9-2 2-2Zm3.7 7.9 3.3-2c.2-.1.3-.3.3-.5 0-.3-.1-.5-.4-.6l-3.3-2c-.2-.1-.4-.1-.7 0-.2.1-.3.4-.3.6v4c0 .2.2.4.4.5.2.1.5.1.7 0ZM1.3 4.7c0-.4-.3-.7-.6-.7-.4 0-.7.3-.7.7v8c0 .5.2 1 .6 1.5.4.4.9.6 1.4.6h10.7c.4 0 .7-.3.7-.7 0-.4-.3-.7-.7-.7H2c-.2 0-.4-.1-.5-.2-.027-.054-.054-.1-.078-.143-.068-.118-.122-.21-.122-.357v-8Z"/></svg>