<svg xmlns="http://www.w3.org/2000/svg" viewBox="0 0 16 16" class="pdsicon"><g clip-path="url(#a)"><path fill-rule="evenodd" d="M4.7 2.7c-.4 0-.7.3-.7.6V10c0 .4.3.7.7.7H14c.4 0 .7-.3.7-.7V3.3c0-.4-.3-.7-.7-.7H4.7zm-2 .6c0-1.1.9-2 2-2H14c1.1 0 2 .9 2 2V10c0 1.1-.9 2-2 2H4.7c-1.1 0-2-.9-2-2zM.7 4c.3 0 .6.3.6.7v8c0 .146.054.24.122.357q.037.064.078.143c.1.1.3.2.5.2h10.7c.4 0 .7.3.7.7s-.3.7-.7.7H2c-.5 0-1-.2-1.4-.6q-.6-.75-.6-1.5v-8c0-.4.3-.7.7-.7m7.6.1q-.3-.15-.6 0c-.2.1-.4.3-.4.6v4c0 .2.2.4.4.6.2.1.5.1.7 0l3.3-2c.2-.1.3-.4.3-.6 0-.3-.1-.5-.4-.6zm.4 3.3V5.8l1.3.9z"/></g><defs><clipPath id="a"><path d="M0 0h16v16H0z"/></clipPath></defs></svg>