<svg xmlns="http://www.w3.org/2000/svg" viewBox="0 0 24 24" class="pdsicon"><path d="M7.789 2.957c.065-.328.098-.492.054-.62a.5.5 0 0 0-.22-.268C7.506 2 7.34 2 7.004 2H6.76c-.805 0-1.47 0-2.01.044-.563.046-1.08.145-1.565.392a4 4 0 0 0-1.748 1.748c-.247.485-.346 1.002-.392 1.564-.015.181-.022.271-.01.372.05.407.391.778.793.86.099.02.208.02.427.02h4.07c.234 0 .35 0 .446-.042a.5.5 0 0 0 .21-.172c.06-.085.083-.2.129-.43zM9.211 6.043c-.065.328-.098.492-.054.62a.5.5 0 0 0 .22.268C9.494 7 9.66 7 9.996 7h3.328c.234 0 .35 0 .447-.042a.5.5 0 0 0 .21-.172c.059-.085.082-.2.128-.43l.68-3.4c.065-.327.098-.491.054-.62a.5.5 0 0 0-.22-.267C14.506 2 14.34 2 14.004 2h-3.328c-.234 0-.35 0-.447.042a.5.5 0 0 0-.21.172c-.06.085-.082.2-.128.43zM17.676 1.998c-.234 0-.351 0-.447.043a.5.5 0 0 0-.21.172c-.059.085-.082.2-.128.43l-.68 3.4c-.066.328-.098.492-.054.62a.5.5 0 0 0 .22.268c.117.069.284.069.619.069h4.75c.219 0 .328 0 .428-.02.4-.082.743-.453.792-.86.012-.1.005-.19-.01-.372-.046-.562-.145-1.079-.392-1.564a4 4 0 0 0-1.748-1.748c-.485-.247-1.002-.346-1.564-.392a19 19 0 0 0-1.576-.046M22.891 9.546C23 9.76 23 10.04 23 10.6v5.641c0 .805 0 1.47-.044 2.01-.046.563-.145 1.08-.392 1.565a4 4 0 0 1-1.748 1.748c-.485.247-1.002.346-1.564.392-.541.044-1.206.044-2.01.044H6.758c-.805 0-1.47 0-2.01-.044-.563-.046-1.08-.145-1.565-.392a4 4 0 0 1-1.748-1.748c-.247-.485-.346-1.002-.392-1.564C1 17.71 1 17.046 1 16.242V10.6c0-.56 0-.84.109-1.054a1 1 0 0 1 .437-.437C1.76 9 2.04 9 2.6 9h18.8c.56 0 .84 0 1.054.109a1 1 0 0 1 .437.437"/></svg>