<svg xmlns="http://www.w3.org/2000/svg" viewBox="0 0 16 16" class="pdsicon"><path d="M1.333 5.467v1.2h13.334v-1.2c0-.747 0-1.12-.146-1.406a1.33 1.33 0 0 0-.582-.582c-.286-.146-.659-.146-1.406-.146H3.467c-.747 0-1.12 0-1.406.146-.25.127-.454.331-.582.582-.146.286-.146.659-.146 1.406" opacity=".12"/><path fill-rule="evenodd" d="M3.44 2.667h9.119c.351 0 .655 0 .904.02.264.022.526.07.778.198a2 2 0 0 1 .874.874c.129.252.176.514.198.778.02.25.02.553.02.904v5.118c0 .352 0 .655-.02.904-.022.264-.07.526-.198.778a2 2 0 0 1-.874.874 2 2 0 0 1-.778.198c-.25.02-.553.02-.904.02H3.441c-.351 0-.655 0-.904-.02a2 2 0 0 1-.778-.198 2 2 0 0 1-.874-.874 2 2 0 0 1-.198-.778c-.02-.25-.02-.552-.02-.904V5.441c0-.351 0-.655.02-.904.022-.264.07-.526.198-.778a2 2 0 0 1 .874-.874c.252-.129.514-.176.778-.198.25-.02.553-.02.904-.02M2 7.333v3.2c0 .385 0 .633.016.822.015.18.04.248.057.281a.67.67 0 0 0 .291.291c.033.017.1.042.281.057.19.015.437.016.822.016h9.066c.385 0 .633 0 .822-.016.18-.015.248-.04.281-.057a.67.67 0 0 0 .291-.291c.017-.033.042-.1.057-.281.015-.19.016-.437.016-.822v-3.2zM14 6H2v-.533c0-.385 0-.633.016-.822.015-.18.04-.248.057-.281a.67.67 0 0 1 .291-.291c.033-.017.1-.042.281-.057.19-.015.437-.016.822-.016h9.066c.385 0 .633 0 .822.016.18.015.248.04.281.057a.67.67 0 0 1 .291.291c.017.033.042.1.057.281.015.19.016.437.016.822zM3.333 9.333c0-.368.299-.666.667-.666h3.333a.667.667 0 0 1 0 1.333H4a.667.667 0 0 1-.667-.667"/></svg>