<svg xmlns="http://www.w3.org/2000/svg" viewBox="0 0 16 16" class="pdsicon"><path d="m8 8 6-3.333v6.039c0 .228 0 .342-.034.444a.7.7 0 0 1-.142.243c-.073.079-.173.134-.373.245l-4.933 2.74c-.189.106-.284.158-.384.179a.7.7 0 0 1-.268 0c-.1-.02-.195-.073-.384-.178l-4.933-2.74c-.2-.112-.3-.167-.373-.246a.7.7 0 0 1-.142-.243C2 11.048 2 10.934 2 10.706v-6.04z" opacity=".12"/><path fill-rule="evenodd" d="M7.731.79c.178-.036.36-.036.538 0 .204.042.388.145.533.226l.04.022 4.933 2.741.042.023c.154.085.348.192.497.353.129.14.226.305.285.486.07.208.069.43.068.605v5.508c0 .176.001.397-.068.605-.06.18-.156.346-.285.486-.149.161-.343.268-.497.353l-.042.023-4.933 2.74-.04.023c-.145.081-.329.184-.533.226q-.269.054-.538 0c-.204-.042-.388-.145-.533-.226l-.04-.022-4.933-2.741-.042-.023c-.154-.085-.348-.192-.497-.353a1.3 1.3 0 0 1-.285-.486c-.07-.208-.068-.43-.068-.605V5.246c0-.176-.001-.397.068-.605.06-.18.157-.346.285-.486.149-.161.343-.268.497-.353l.042-.023 4.933-2.74.04-.023A1.9 1.9 0 0 1 7.73.79M8 2.1h-.003c-.039.02-.09.048-.191.104L3.373 4.667 8 7.237l4.627-2.57-4.433-2.463a4 4 0 0 0-.19-.103zm5.333 3.7v4.906c0 .122 0 .184-.003.23v.003l-.003.002a4 4 0 0 1-.2.114l-4.46 2.479V8.392zm-6 2.592L2.667 5.8v4.906a4 4 0 0 0 .003.233l.003.002c.038.024.093.055.2.114l4.46 2.479z"/></svg>