<svg xmlns="http://www.w3.org/2000/svg" viewBox="0 0 24 24" class="pdsicon"><path d="m12 12 9-5v9.059c0 .342 0 .514-.05.666a1 1 0 0 1-.215.364c-.109.119-.258.202-.558.368l-7.4 4.111c-.284.158-.425.237-.575.267a1 1 0 0 1-.403 0c-.15-.03-.292-.11-.576-.267l-7.4-4.11c-.3-.167-.45-.25-.558-.369a1 1 0 0 1-.215-.364C3 16.573 3 16.401 3 16.06V7z" opacity=".12"/><path fill-rule="evenodd" d="M11.597 1.185a2 2 0 0 1 .806 0c.307.063.582.217.8.34l.06.032 7.4 4.112.063.034c.23.128.522.288.745.53.193.21.339.458.428.728.103.313.102.644.101.908v8.262c.001.264.002.595-.101.908-.09.27-.235.518-.428.728-.223.242-.514.402-.745.53l-.063.034-7.4 4.111-.06.034c-.218.122-.493.276-.8.339-.266.055-.54.055-.806 0-.307-.063-.582-.217-.8-.34l-.06-.033-7.4-4.11q-.03-.018-.063-.035c-.23-.128-.522-.288-.745-.53a2 2 0 0 1-.428-.728c-.103-.313-.102-.645-.101-.908V7.869c-.001-.264-.002-.595.101-.908a2 2 0 0 1 .428-.728c.223-.242.514-.402.745-.53l.063-.034 7.4-4.112.06-.033c.218-.122.493-.276.8-.34M12 3.149l-.005.002c-.057.028-.135.07-.286.155L5.059 7 12 10.856 18.94 7l-6.649-3.694A7 7 0 0 0 12 3.149m8 5.55v7.36a7 7 0 0 1-.005.35l-.005.003a7 7 0 0 1-.299.171L13 20.301v-7.713zm-9 3.89-7-3.89v7.36c0 .182 0 .276.005.344v.006l.005.003c.057.036.139.082.299.171L11 20.3z"/></svg>