<svg xmlns="http://www.w3.org/2000/svg" viewBox="0 0 16 16" class="pdsicon"><g clip-path="url(#a)"><path fill-rule="evenodd" d="M7.681.667c.243 0 .465.147.572.38l1.822 3.947 4.075.633c.24.037.44.217.515.464a.72.72 0 0 1-.162.699L12.59 8.783a.61.61 0 0 1-.902-.012.716.716 0 0 1 .012-.964l.988-1.03-3.128-.485a.64.64 0 0 1-.48-.373L7.68 2.889l-1.398 3.03a.64.64 0 0 1-.48.373l-3.128.486 2.263 2.359c.15.156.219.382.183.603l-.534 3.331 1.522-.855c.312-.175.697-.047.861.286s.044.746-.268.92l-2.665 1.499a.6.6 0 0 1-.672-.052.7.7 0 0 1-.253-.667l.696-4.34L.859 6.79a.72.72 0 0 1-.161-.7.65.65 0 0 1 .515-.463l4.074-.633L7.11 1.047a.64.64 0 0 1 .572-.38M8.32 14.65c0-.376.285-.681.638-.681h5.739c.352 0 .637.305.637.681s-.285.682-.637.682h-5.74c-.352 0-.637-.305-.637-.682m.638-4.09c-.353 0-.638.304-.638.68s.285.683.638.683h5.739c.352 0 .637-.306.637-.682s-.285-.682-.637-.682z"/></g><defs><clipPath id="a"><path d="M0 0h16v16H0z"/></clipPath></defs></svg>