<svg xmlns="http://www.w3.org/2000/svg" viewBox="0 0 16 16" class="pdsicon"><g clip-path="url(#a)"><path fill-rule="evenodd" d="M5.027 2a1.7 1.7 0 0 0-.845.28l-.004.004a6.58 6.58 0 0 0-2.845 5.45A6.646 6.646 0 0 0 8 14.402c3.024 0 5.629-2.055 6.421-4.833.12-.52.25-1.45.097-2.364-.153-.907-.566-1.73-1.479-2.204-1.38-.643-2.652-.325-3.9.063l-.216.068c-.53.167-1.1.347-1.614.394-.641.058-1.307-.08-1.821-.697l-.009-.01c-.288-.361-.31-.77-.272-1.084.032-.26.118-.533.183-.739l.023-.075c.077-.247.121-.416.127-.554.005-.114-.017-.162-.052-.204l-.043-.057c-.013-.02-.106-.117-.418-.104m1.507-.665C6.144.78 5.486.648 4.974.67a3 3 0 0 0-1.554.518A7.91 7.91 0 0 0 0 7.735c0 4.435 3.565 8 8 8 3.638 0 6.762-2.471 7.708-5.819l.008-.029c.145-.616.311-1.745.117-2.904-.198-1.174-.782-2.448-2.195-3.174l-.021-.011c-1.883-.884-3.607-.402-4.873-.008l-.217.068h-.002c-.559.175-.977.306-1.336.339-.337.03-.513-.035-.662-.205a.4.4 0 0 1 .003-.094c.017-.133.064-.283.136-.517l.02-.065c.074-.236.172-.559.186-.891a1.6 1.6 0 0 0-.338-1.09M6.53 4.002q-.001 0-.002-.006zm4.803 3.066a.667.667 0 1 0 0 1.333.667.667 0 0 0 0-1.333m-2 .667a2 2 0 1 1 4 0 2 2 0 0 1-4 0m-6-1.334a1.333 1.333 0 1 0 0 2.667 1.333 1.333 0 0 0 0-2.667m.334 4.667a1.333 1.333 0 1 1 2.666 0 1.333 1.333 0 0 1-2.666 0m5 0a1.333 1.333 0 1 0 0 2.667 1.333 1.333 0 0 0 0-2.667"/></g><defs><clipPath id="a"><path d="M0 0h16v16H0z"/></clipPath></defs></svg>