<svg xmlns="http://www.w3.org/2000/svg" viewBox="0 0 24 24" class="pdsicon"><path fill-rule="evenodd" d="M7.759 2h8.482c.805 0 1.47 0 2.01.044.563.046 1.08.145 1.565.392a4 4 0 0 1 1.748 1.748c.247.485.346 1.002.392 1.564C22 6.29 22 6.954 22 7.758v8.483c0 .805 0 1.47-.044 2.01-.046.563-.145 1.08-.392 1.565a4 4 0 0 1-1.748 1.748c-.485.247-1.002.346-1.564.392-.541.044-1.206.044-2.01.044H7.758c-.805 0-1.47 0-2.01-.044-.563-.046-1.08-.145-1.565-.392a4 4 0 0 1-1.748-1.748c-.247-.485-.346-1.002-.392-1.564C2 17.71 2 17.046 2 16.242V7.758c0-.805 0-1.47.044-2.01.046-.563.145-1.08.392-1.565a4 4 0 0 1 1.748-1.748c.485-.247 1.002-.346 1.564-.392C6.29 2 6.954 2 7.758 2M5.91 4.038c-.438.035-.663.1-.819.18a2 2 0 0 0-.874.874c-.08.156-.145.38-.18.819C4 6.361 4 6.943 4 7.8v8.4c0 .857 0 1.439.038 1.889.035.438.1.663.18.819a2 2 0 0 0 .874.874c.156.08.38.145.819.18C6.361 20 6.943 20 7.8 20h8.4c.857 0 1.439 0 1.889-.038.438-.035.663-.1.819-.18a2 2 0 0 0 .874-.874c.08-.156.145-.38.18-.819.037-.45.038-1.032.038-1.889V7.8c0-.857 0-1.439-.038-1.889-.035-.438-.1-.663-.18-.819a2 2 0 0 0-.874-.874c-.156-.08-.38-.145-.819-.18C17.639 4 17.057 4 16.2 4H7.8c-.857 0-1.439 0-1.889.038m6.085 3.685c-1.316-.932-3.129-1.058-4.568.172-1.655 1.413-1.9 3.807-.585 5.499.695.895 2.385 2.463 3.44 3.418l.022.02c.16.145.322.29.471.405.17.13.376.262.64.342.374.113.787.113 1.16 0 .265-.08.472-.212.641-.342.15-.114.31-.26.47-.405l.023-.02c1.055-.955 2.745-2.523 3.44-3.418 1.307-1.681 1.105-4.095-.595-5.508-1.45-1.205-3.245-1.095-4.559-.163m-.76 1.995c-.705-.825-1.748-.953-2.51-.303-.85.727-.957 1.912-.304 2.752.564.726 2.1 2.164 3.203 3.162.191.173.291.262.367.32l.005.004.004-.003c.076-.059.176-.148.367-.321 1.102-.998 2.64-2.436 3.204-3.162.66-.851.553-2.038-.295-2.743-.793-.659-1.823-.522-2.52.294a1 1 0 0 1-1.52 0"/></svg>