<svg xmlns="http://www.w3.org/2000/svg" viewBox="0 0 24 24" class="pdsicon"><path fill-rule="evenodd" d="M21 19a1 1 0 1 0-2 0 1 1 0 0 0 2 0m0-2.83a3.001 3.001 0 1 1-2 .001c-.003-.528-.01-.93-.038-1.26-.035-.438-.1-.663-.18-.819a2 2 0 0 0-.874-.874c-.156-.08-.38-.145-.819-.18C16.639 13 16.057 13 15.2 13H13v3.17a3.001 3.001 0 1 1-2 0V13H8.8c-.857 0-1.439 0-1.889.038-.438.035-.663.1-.819.18a2 2 0 0 0-.874.874c-.08.156-.145.38-.18.819-.027.33-.035.732-.037 1.26A3.001 3.001 0 0 1 4 22a3 3 0 0 1-1-5.83c.003-.547.011-1.019.044-1.422.046-.562.145-1.079.392-1.564a4 4 0 0 1 1.748-1.748c.485-.247 1.002-.346 1.564-.392C7.29 11 7.954 11 8.758 11H11V7.83a3.001 3.001 0 1 1 2 0V11h2.241c.805 0 1.47 0 2.01.044.563.046 1.08.145 1.565.392a4 4 0 0 1 1.748 1.748c.247.485.346 1.002.392 1.564.033.404.041.875.043 1.423M13 5a1 1 0 1 0-2 0 1 1 0 0 0 2 0m0 14a1 1 0 1 0-2 0 1 1 0 0 0 2 0m-8 0a1 1 0 1 0-2 0 1 1 0 0 0 2 0"/></svg>