<svg xmlns="http://www.w3.org/2000/svg" viewBox="0 0 16 16" class="pdsicon"><g clip-path="url(#a)"><path fill-rule="evenodd" d="M8.75.667a.75.75 0 0 0-1.5 0v.623c-.717.077-1.462.273-2.097.647-.9.532-1.57 1.427-1.57 2.73 0 .62.144 1.162.421 1.626.275.46.656.804 1.073 1.069.64.407 1.43.666 2.173.876v4.324a11.3 11.3 0 0 1-3.004-.604.75.75 0 1 0-.492 1.417c1.128.392 2.305.624 3.496.69v1.268a.75.75 0 1 0 1.5 0v-1.285c.803-.074 1.584-.269 2.225-.667.893-.554 1.442-1.46 1.442-2.714 0-.62-.144-1.163-.421-1.627a3.25 3.25 0 0 0-1.072-1.069c-.64-.407-1.431-.665-2.174-.875V2.803c.67.084 1.324.268 1.941.547a.75.75 0 1 0 .618-1.367 8.3 8.3 0 0 0-2.559-.69zM7.25 2.8c-.498.07-.965.21-1.335.428-.511.302-.832.74-.832 1.438 0 .38.086.65.21.857.126.212.318.4.589.572.37.236.832.412 1.368.577zm1.5 5.859v3.88c.591-.067 1.078-.212 1.434-.433.443-.275.733-.694.733-1.44 0-.38-.086-.65-.21-.858-.126-.212-.318-.4-.589-.572-.37-.235-.832-.412-1.368-.577"/></g><defs><clipPath id="a"><path d="M0 0h16v16H0z"/></clipPath></defs></svg>