<svg xmlns="http://www.w3.org/2000/svg" viewBox="0 0 24 24" class="pdsicon"><path fill-rule="evenodd" d="M13 3.02a13 13 0 0 0-.988-.02H8.8c-.857 0-1.439 0-1.889.038-.438.035-.663.1-.819.18a2 2 0 0 0-.874.874c-.08.156-.145.38-.18.819C5 5.361 5 5.943 5 6.8v10.4c0 .857 0 1.439.038 1.889.035.438.1.663.18.819a2 2 0 0 0 .874.874c.156.08.38.145.819.18C7.361 21 7.943 21 8.8 21h6.4c.857 0 1.439 0 1.889-.038.438-.035.663-.1.819-.18a2 2 0 0 0 .874-.874c.08-.156.145-.38.18-.819.037-.45.038-1.032.038-1.889V9.988c0-.527-.003-.802-.02-.988h-3.412c-.252 0-.498 0-.706-.017a2 2 0 0 1-.77-.2 2 2 0 0 1-.874-.875 2 2 0 0 1-.201-.77C13 6.93 13 6.684 13 6.432zm1.394-1.67a4 4 0 0 0-.703-.24C13.228 1 12.75 1 12.114 1H8.759c-.805 0-1.47 0-2.01.044-.563.046-1.08.145-1.565.392a4 4 0 0 0-1.748 1.748c-.247.485-.346 1.002-.392 1.564C3 5.29 3 5.954 3 6.758v10.483c0 .805 0 1.47.044 2.01.046.563.145 1.08.392 1.565a4 4 0 0 0 1.748 1.748c.485.247 1.002.346 1.564.392C7.29 23 7.954 23 8.758 23h6.483c.805 0 1.47 0 2.01-.044.563-.046 1.08-.145 1.565-.392a4 4 0 0 0 1.748-1.748c.247-.485.346-1.002.392-1.564.044-.541.044-1.206.044-2.01V9.885c0-.635 0-1.114-.11-1.577a4 4 0 0 0-.48-1.156c-.248-.406-.587-.745-1.037-1.194l-.072-.072-3.188-3.188-.072-.072c-.449-.45-.788-.789-1.194-1.038a4 4 0 0 0-.453-.239M15 4.414V6.4c0 .297 0 .459.01.575l.001.014h.014c.116.01.278.011.575.011h1.986zM7 13a1 1 0 0 1 1-1h8a1 1 0 1 1 0 2H8a1 1 0 0 1-1-1m0 4a1 1 0 0 1 1-1h6a1 1 0 1 1 0 2H8a1 1 0 0 1-1-1"/></svg>