<svg xmlns="http://www.w3.org/2000/svg" viewBox="0 0 16 16" class="pdsicon"><path d="M6.609 9.74a.696.696 0 1 0-1.392 0c0 1.087.517 1.813 1.135 2.24.581.403 1.245.542 1.648.542a.696.696 0 1 0 0-1.392c-.153 0-.533-.07-.856-.293-.286-.198-.535-.516-.535-1.098Z"/><path fill-rule="evenodd" d="m8 .696.495-.49a.696.696 0 0 0-.99 0L7.5.213l-.013.013a13.774 13.774 0 0 0-.231.241A37.731 37.731 0 0 0 4.663 3.52c-.709.934-1.43 1.993-1.976 3.05-.54 1.04-.948 2.15-.948 3.17C1.74 13.738 4.973 16 8 16s6.26-2.262 6.26-6.26c0-1.02-.408-2.13-.947-3.172-.546-1.056-1.268-2.115-1.976-3.05A37.718 37.718 0 0 0 8.513.226L8.5.212 8.495.207 8 .696Zm0 0-.495-.49.495.49Zm-.352 1.398L8 1.707a36.34 36.34 0 0 1 2.228 2.652c.683.9 1.353 1.89 1.85 2.849.504.974.792 1.846.792 2.531 0 3.097-2.471 4.87-4.87 4.87s-4.87-1.773-4.87-4.87c0-.685.288-1.557.792-2.531.497-.96 1.167-1.948 1.85-2.849a36.339 36.339 0 0 1 1.876-2.265Z"/></svg>