<svg xmlns="http://www.w3.org/2000/svg" viewBox="0 0 16 16" class="pdsicon"><path fill-rule="evenodd" d="M2.667 3.61v1.723a.667.667 0 0 1-1.334 0V2c0-.368.299-.667.667-.667h3.333a.667.667 0 0 1 0 1.334H3.61l2.196 2.195a.667.667 0 1 1-.943.943zm8-.943a.667.667 0 0 1 0-1.334H14c.368 0 .667.299.667.667v3.333a.667.667 0 1 1-1.334 0V3.61l-2.195 2.196a.667.667 0 0 1-.943-.943l2.195-2.195zM2 10c.368 0 .667.299.667.667v1.723l2.195-2.195a.667.667 0 0 1 .943.943l-2.196 2.195h1.724a.667.667 0 0 1 0 1.334H2A.667.667 0 0 1 1.333 14v-3.333c0-.368.299-.667.667-.667m10.39 3.333-2.195-2.195a.667.667 0 0 1 .943-.943l2.195 2.195v-1.723a.667.667 0 0 1 1.334 0V14a.667.667 0 0 1-.667.667h-3.333a.667.667 0 0 1 0-1.334z"/></svg>