<svg xmlns="http://www.w3.org/2000/svg" viewBox="0 0 24 24" class="pdsicon"><path d="M12 1c6.196 0 11 4.543 11 10.673s-4.804 10.67-11 10.67c-1.114 0-2.18-.15-3.185-.424a.9.9 0 0 0-.588.044l-2.183.963a.88.88 0 0 1-1.235-.778l-.061-1.959a.87.87 0 0 0-.294-.626C2.314 17.648 1 14.875 1 11.67 1 5.54 5.804 1 12 1m6.608 8.212c.308-.492-.296-1.048-.758-.696l-3.471 2.634a.66.66 0 0 1-.795.003l-2.571-1.927a1.65 1.65 0 0 0-2.387.439l-3.231 5.126c-.311.492.293 1.045.755.693l3.471-2.634a.66.66 0 0 1 .795-.003l2.571 1.927a1.65 1.65 0 0 0 2.387-.439z"/></svg>