<svg xmlns="http://www.w3.org/2000/svg" viewBox="0 0 16 16" class="pdsicon"><g clip-path="url(#a)"><path fill-rule="evenodd" d="M0 7.333C0 3.513 3.697.667 8 .667s8 2.846 8 6.666v.016a6.14 6.14 0 0 1-1.7 4.096l.362 3.145a.667.667 0 0 1-.913.694l-3.726-1.516a7.7 7.7 0 0 1-2.03.232C3.693 13.997 0 11.152 0 7.333M8 2C4.17 2 1.333 4.487 1.333 7.333S4.17 12.667 8 12.667h.014a6.4 6.4 0 0 0 1.87-.242.67.67 0 0 1 .434.024l2.89 1.176-.27-2.349a.67.67 0 0 1 .207-.563 4.8 4.8 0 0 0 1.522-3.388C14.66 4.483 11.827 2 8 2m0 1.333c.368 0 .667.299.667.667v4a.667.667 0 1 1-1.334 0V4c0-.368.299-.667.667-.667m.667 7.334a.667.667 0 1 1-1.334 0 .667.667 0 0 1 1.334 0"/></g><defs><clipPath id="a"><path d="M0 0h16v16H0z"/></clipPath></defs></svg>