<svg xmlns="http://www.w3.org/2000/svg" viewBox="0 0 24 24" class="pdsicon"><path fill-rule="evenodd" d="M3 11.5a9.5 9.5 0 1 1 6.085 8.868l-.182-.07-.013-.004h-.004l-.157.016-5.121.53q-.017 0-.034.003a7 7 0 0 1-.624.047c-.186.002-.521-.008-.842-.204a1.5 1.5 0 0 1-.7-1.048c-.059-.372.06-.685.132-.856.074-.172.18-.37.283-.559l1.652-3.057c.071-.133.11-.204.135-.257l.004-.008-.007-.024a11 11 0 0 0-.112-.341A9.5 9.5 0 0 1 3 11.5M12.5 4a7.5 7.5 0 0 0-7.11 9.897l.025.073c.082.239.177.519.197.772.018.232.002.427-.056.652-.062.245-.19.479-.292.668l-.03.054-1.455 2.695 4.744-.49.033-.004c.12-.013.267-.028.412-.023.132.005.243.02.372.05.142.033.296.092.425.142l.04.015A7.5 7.5 0 1 0 12.5 4m0 2.5a1 1 0 0 1 1 1V11a1 1 0 1 1-2 0V7.5a1 1 0 0 1 1-1m-1 8a1 1 0 0 1 1-1h.01a1 1 0 1 1 0 2h-.01a1 1 0 0 1-1-1"/></svg>