<svg xmlns="http://www.w3.org/2000/svg" viewBox="0 0 16 16" class="pdsicon"><path fill-rule="evenodd" d="M8.667 2.013A9 9 0 0 0 8.007 2h-2.14c-.571 0-.96 0-1.26.025-.292.024-.441.067-.546.12-.25.128-.455.332-.582.583-.053.104-.097.254-.12.546-.025.3-.026.688-.026 1.26v6.933c0 .57 0 .959.025 1.259.024.292.068.442.12.546.128.25.332.455.583.583.105.053.254.096.546.12.3.024.689.025 1.26.025h4.266c.571 0 .96 0 1.26-.025.292-.024.441-.067.546-.12.25-.128.454-.332.582-.583.053-.104.097-.254.12-.546.025-.3.026-.688.026-1.26V6.66c0-.352-.002-.535-.014-.659H10.38c-.168 0-.332 0-.471-.011a1.4 1.4 0 0 1-.513-.134 1.33 1.33 0 0 1-.583-.583 1.4 1.4 0 0 1-.134-.513c-.011-.139-.011-.303-.011-.471zM9.594.9A2.7 2.7 0 0 0 9.127.74C8.82.666 8.5.666 8.076.667H5.839c-.537 0-.98 0-1.34.03-.375.03-.72.095-1.043.26-.502.256-.91.664-1.165 1.166-.165.323-.23.668-.262 1.042C2 3.526 2 3.97 2 4.505v6.99c0 .536 0 .979.03 1.34.03.374.096.719.26 1.042.256.502.664.91 1.166 1.166.324.165.668.23 1.043.26.36.03.803.03 1.34.03h4.322c.537 0 .98 0 1.34-.03.375-.03.72-.096 1.043-.26.502-.256.91-.664 1.165-1.166.165-.323.23-.668.261-1.042.03-.361.03-.804.03-1.34V6.59c0-.423 0-.743-.074-1.052a2.7 2.7 0 0 0-.319-.77c-.166-.271-.392-.497-.691-.796l-.049-.048-2.125-2.126-.048-.048c-.3-.3-.525-.526-.796-.691a3 3 0 0 0-.304-.161M10 2.943v1.324c0 .197 0 .306.007.383v.009h.01c.077.007.185.008.383.008h1.324z"/></svg>