<svg xmlns="http://www.w3.org/2000/svg" viewBox="0 0 16 16" class="pdsicon"><path fill-rule="evenodd" d="M5.84.667h3.493c.177 0 .347.07.472.195l4 4a.67.67 0 0 1 .195.471v6.161c0 .537 0 .98-.03 1.34-.03.375-.096.72-.26 1.043-.256.502-.664.91-1.166 1.166-.324.165-.668.23-1.043.26-.36.03-.803.03-1.34.03H5.839c-.537 0-.98 0-1.34-.03-.375-.03-.72-.095-1.043-.26a2.67 2.67 0 0 1-1.165-1.166c-.165-.323-.23-.668-.262-1.042C2 12.474 2 12.03 2 11.495v-6.99c0-.536 0-.979.03-1.34.03-.374.096-.719.26-1.042.256-.502.664-.91 1.166-1.166.324-.165.668-.23 1.043-.26.36-.03.803-.03 1.34-.03M4.606 2.025c-.292.024-.441.067-.546.12-.25.128-.455.332-.582.583-.053.104-.097.254-.12.546-.025.3-.026.688-.026 1.26v6.933c0 .57 0 .959.025 1.259.024.292.068.442.12.546.128.25.332.455.583.583.105.053.254.096.546.12.3.024.689.025 1.26.025h4.266c.571 0 .96 0 1.26-.025.292-.024.441-.067.546-.12.25-.128.454-.332.582-.583.053-.104.097-.254.12-.546.025-.3.026-.688.026-1.26V6h-2.288c-.168 0-.332 0-.471-.011a1.4 1.4 0 0 1-.513-.134 1.33 1.33 0 0 1-.583-.583 1.4 1.4 0 0 1-.134-.513c-.011-.139-.011-.303-.011-.471V2h-2.8c-.571 0-.96 0-1.26.025M10 2.943l1.724 1.724H10.4a6 6 0 0 1-.392-.008l-.001-.009A5 5 0 0 1 10 4.267zm-2 4.39c.368 0 .667.299.667.667v2.39l.862-.861a.667.667 0 0 1 .942.942l-2 2a.667.667 0 0 1-.942 0l-2-2a.667.667 0 1 1 .942-.942l.862.861V8c0-.368.299-.667.667-.667"/></svg>