<svg xmlns="http://www.w3.org/2000/svg" viewBox="0 0 16 16" class="pdsicon"><path fill-rule="evenodd" d="M5.84.667h3.493c.177 0 .347.07.472.195l4 4a.67.67 0 0 1 .195.471v6.161c0 .537 0 .98-.03 1.34-.03.375-.096.72-.26 1.043-.256.502-.664.91-1.166 1.166-.324.165-.668.23-1.043.26-.36.03-.803.03-1.34.03H5.839c-.536 0-.98 0-1.34-.03-.375-.03-.72-.095-1.043-.26a2.67 2.67 0 0 1-1.165-1.166c-.165-.323-.23-.668-.261-1.042C2 12.474 2 12.03 2 11.495v-6.99c0-.536 0-.979.03-1.34.03-.374.096-.719.26-1.042.256-.502.664-.91 1.166-1.166.324-.165.668-.23 1.043-.26.36-.03.804-.03 1.34-.03M4.606 2.025c-.292.024-.441.067-.546.12-.25.128-.454.332-.582.583-.053.104-.097.254-.12.546-.025.3-.026.688-.026 1.26v6.933c0 .57 0 .959.025 1.259.024.292.068.442.12.546.129.25.333.455.583.583.105.053.254.096.546.12.3.024.689.025 1.26.025h4.266c.571 0 .96 0 1.26-.025.292-.024.441-.067.546-.12.25-.128.455-.332.582-.583.053-.104.097-.254.12-.546.025-.3.026-.688.026-1.26V6H9.333a.667.667 0 0 1-.666-.667V2h-2.8c-.571 0-.96 0-1.26.025M10 2.943l1.724 1.724H10zM6.167 8.167a1.833 1.833 0 1 1 3.666 0v.518a1.28 1.28 0 0 1 1.022.71c.092.18.121.36.134.513.011.139.011.303.011.47v.577c0 .168 0 .332-.011.47a1.4 1.4 0 0 1-.134.514c-.128.25-.332.454-.583.582-.18.093-.36.122-.513.134-.139.012-.303.012-.471.012H6.712c-.168 0-.332 0-.47-.012a1.4 1.4 0 0 1-.514-.134 1.33 1.33 0 0 1-.583-.582 1.4 1.4 0 0 1-.134-.514c-.011-.138-.011-.302-.01-.47v-.576C5 10.21 5 10.047 5.01 9.908c.013-.153.042-.332.134-.513a1.284 1.284 0 0 1 1.021-.71zM6.733 10a5 5 0 0 0-.392.008v.008a6 6 0 0 0-.008.384v.533c0 .198 0 .306.007.384l.001.009h.009c.078.007.186.007.383.007h2.534c.197 0 .306 0 .383-.007h.01v-.01c.006-.077.007-.185.007-.383V10.4a6 6 0 0 0-.008-.392l-.009-.001A5 5 0 0 0 9.267 10zM8.5 8.667h-1v-.5a.5.5 0 0 1 1 0z"/></svg>