<svg xmlns="http://www.w3.org/2000/svg" viewBox="0 0 24 24" class="pdsicon"><path d="M2.988 22.012a1 1 0 0 1-1-1v-17.5a2 2 0 0 1 0-.23 2 2 0 0 1 .19-.68 2 2 0 0 1 .9-.84 3.1 3.1 0 0 1 1.51-.22h7.26a3.1 3.1 0 0 1 1.5.22 2 2 0 0 1 .88.87c.197.477.273.996.22 1.51v1.4h5.2a2.17 2.17 0 0 1 1.39.22 1.5 1.5 0 0 1 .62 1 2.1 2.1 0 0 1-.36 1.32l-1.21 2.43 1.31 2.94c.235.39.337.847.29 1.3a1.52 1.52 0 0 1-.63 1 2.1 2.1 0 0 1-1.3.26h-7.67a3.1 3.1 0 0 1-1.51-.25 2 2 0 0 1-.88-.87 3.3 3.3 0 0 1-.21-1.51v-1.4h-5.5v9a1 1 0 0 1-1 1.03m8.5-10v1.4a5 5 0 0 0 0 .65c0-.05.3-.05.58-.05h7.38l-1.22-2.75a1.7 1.7 0 0 1-.17-.5 1.5 1.5 0 0 1 0-.52q.067-.261.19-.5l1.12-2.23h-4.88v1.9a3.1 3.1 0 0 1-.22 1.51 2 2 0 0 1-.88.87c-.473.197-.99.273-1.5.22zm-7.5-2h7.86q.32.02.64 0a1.7 1.7 0 0 1 0-.58v-5.32a5 5 0 0 0 0-.65h-8.5z"/></svg>