<svg xmlns="http://www.w3.org/2000/svg" viewBox="0 0 24 24" class="pdsicon"><path fill-rule="evenodd" d="M15.405 4.028c-.088-.022-.194-.028-.73-.028H8v2.4a8 8 0 0 0 .011.589h.014C8.14 7 8.303 7 8.6 7h6.8a8 8 0 0 0 .589-.011v-.014C16 6.86 16 6.697 16 6.4V4.416c-.188-.184-.248-.233-.306-.269a1 1 0 0 0-.289-.12m2.24-.798-.06-.059c-.287-.288-.54-.542-.846-.729a3 3 0 0 0-.867-.36C15.524 2 15.165 2 14.758 2H7.759l-.708.001a1 1 0 0 0-.117.001c-.448.004-.842.014-1.186.042-.562.046-1.079.145-1.564.392a4 4 0 0 0-1.748 1.748c-.247.485-.346 1.002-.392 1.564C2 6.29 2 6.954 2 7.758v8.483c0 .805 0 1.47.044 2.01.046.563.145 1.08.392 1.565a4 4 0 0 0 1.748 1.748c.485.247 1.002.346 1.564.392a17 17 0 0 0 1.303.043L7.76 22h8.482l.708-.001a1 1 0 0 0 .117-.001c.448-.004.842-.014 1.186-.042.562-.046 1.079-.145 1.564-.392a4 4 0 0 0 1.748-1.748c.247-.485.346-1.002.392-1.564.044-.541.044-1.206.044-2.01v-7c0-.407 0-.765-.083-1.114a3 3 0 0 0-.36-.867c-.186-.306-.44-.56-.728-.847l-.06-.058zM18 6.414v.018c0 .252 0 .498-.017.706a2 2 0 0 1-.201.77 2 2 0 0 1-.874.874 2 2 0 0 1-.77.201C15.93 9 15.684 9 15.432 9H8.568c-.252 0-.498 0-.706-.017a2 2 0 0 1-.77-.201 2 2 0 0 1-.874-.874 2 2 0 0 1-.201-.77C6 6.93 6 6.684 6 6.432V4.03l-.089.008c-.438.035-.663.1-.819.18a2 2 0 0 0-.874.874c-.08.156-.145.38-.18.819C4 6.361 4 6.943 4 7.8v8.4c0 .857 0 1.439.038 1.889.035.438.1.663.18.819a2 2 0 0 0 .874.874c.156.08.38.145.819.18L6 19.97v-5.4c0-.253 0-.5.017-.707.019-.229.063-.499.201-.77a2 2 0 0 1 .874-.874c.271-.138.541-.182.77-.201A9 9 0 0 1 8.568 12h6.864c.252 0 .498 0 .706.017.229.019.499.063.77.201a2 2 0 0 1 .874.874c.138.271.182.541.201.77.017.208.017.454.017.706v5.401l.089-.007c.438-.035.663-.1.819-.18a2 2 0 0 0 .874-.874c.08-.156.145-.38.18-.82.037-.45.038-1.031.038-1.888V9.325c0-.536-.006-.642-.028-.73a1 1 0 0 0-.12-.29c-.047-.077-.117-.156-.496-.535zM16 20v-5.4c0-.296 0-.459-.01-.575l-.001-.014h-.014A8 8 0 0 0 15.4 14H8.6c-.297 0-.459 0-.575.01l-.014.001v.014C8 14.14 8 14.303 8 14.6V20z"/></svg>