<svg xmlns="http://www.w3.org/2000/svg" viewBox="0 0 16 16" class="pdsicon"><g clip-path="url(#a)"><path fill-rule="evenodd" d="M2.667 2A.667.667 0 0 0 2 2.667v10.666a.667.667 0 0 0 .667.667h10.666a.667.667 0 0 0 .667-.667v-8.39L11.057 2zm-1.415-.748A2 2 0 0 1 2.667.667h8.943l3.723 3.724v8.942a2 2 0 0 1-2 2H2.667a2 2 0 0 1-2-2V2.667a2 2 0 0 1 .585-1.415m2.081 6.081h9.334v5.334h-1.334v-4H4.667v4H3.333zM10.667 6V3.333H9.333V6z"/></g><defs><clipPath id="a"><path d="M0 0h16v16H0z"/></clipPath></defs></svg>