<svg xmlns="http://www.w3.org/2000/svg" viewBox="0 0 16 16" class="pdsicon"><g clip-path="url(#a)"><path fill-rule="evenodd" d="M4.667 0A.667.667 0 0 0 4 .667v4c0 .368.298.666.667.666h2a.667.667 0 0 0 .666-.666.666.666 0 1 1 1.334 0c0 .368.298.666.666.666h2A.667.667 0 0 0 12 4.667v-4A.667.667 0 0 0 11.333 0zm1.447 4h-.78V1.333h5.333V4h-.78a2 2 0 0 0-3.773 0M.667 2c0-.368.298-.667.666-.667h1.334a.667.667 0 0 1 0 1.334H2v12h12v-12h-.667a.667.667 0 0 1 0-1.334h1.334c.368 0 .666.299.666.667v13.333a.667.667 0 0 1-.666.667H1.333a.667.667 0 0 1-.666-.667zm4 5.333a.667.667 0 0 0 0 1.334h6.666a.667.667 0 1 0 0-1.334zm0 3.334a.667.667 0 1 0 0 1.333h6.666a.667.667 0 0 0 0-1.333z"/></g><defs><clipPath id="a"><path d="M0 0h16v16H0z"/></clipPath></defs></svg>