<svg xmlns="http://www.w3.org/2000/svg" viewBox="0 0 24 24" class="pdsicon"><path fill-rule="evenodd" d="M16 4h-1.5a1 1 0 1 1 0-2h5a1 1 0 1 1 0 2H18v2h.838c.528 0 .982 0 1.357.03.395.033.789.104 1.167.297a3 3 0 0 1 1.311 1.311c.193.378.264.772.296 1.167.031.375.031.83.031 1.357v3.676c0 .528 0 .982-.03 1.357-.033.395-.104.789-.297 1.167a3 3 0 0 1-1.311 1.311c-.378.193-.772.264-1.167.296-.375.031-.83.031-1.356.031H18v2h1.5a1 1 0 1 1 0 2h-5a1 1 0 1 1 0-2H16z"/><path d="M5.161 6H13a1 1 0 0 1 1 1v10a1 1 0 0 1-1 1H5.161c-.527 0-.981 0-1.356-.03-.395-.033-.789-.104-1.167-.297a3 3 0 0 1-1.311-1.311c-.193-.378-.264-.772-.296-1.167C1 14.82 1 14.365 1 13.839v-3.677c0-.528 0-.982.03-1.357.033-.395.104-.789.297-1.167a3 3 0 0 1 1.311-1.311c.378-.193.772-.264 1.167-.296C4.18 6 4.635 6 5.161 6"/></svg>