<svg xmlns="http://www.w3.org/2000/svg" viewBox="0 0 24 24" class="pdsicon"><path d="M12.04.986a2.9 2.9 0 0 1 2 .804 2.8 2.8 0 0 1 .82 2 .53.53 0 0 0 .09.35.45.45 0 0 0 .22.19.6.6 0 0 0 .3 0 .55.55 0 0 0 .26-.14 3 3 0 0 1 1-.66 2.86 2.86 0 0 1 2.15 0c.345.143.658.354.92.62.53.531.828 1.25.83 2-.003.371-.077.738-.22 1.08-.141.34-.349.65-.61.91a.56.56 0 0 0-.18.31.5.5 0 0 0 0 .29.6.6 0 0 1 .06.18q.054.071.13.12c.078.058.173.089.27.09h.14a2.82 2.82 0 0 1 2 .82 2.86 2.86 0 0 1 .82 2 2.8 2.8 0 0 1-2.82 2.84.66.66 0 0 0-.36.08.6.6 0 0 0-.18.23.5.5 0 0 0 0 .3.6.6 0 0 0 .14.26c.286.283.507.624.65 1 .148.34.224.709.22 1.08a2.7 2.7 0 0 1-.22 1.08 2.65 2.65 0 0 1-.61.91 2.81 2.81 0 0 1-4 0 .56.56 0 0 0-.31-.18.5.5 0 0 0-.29 0 .55.55 0 0 0-.23.19.46.46 0 0 0-.09.27v.16a2.8 2.8 0 0 1-2.86 2.78 2.8 2.8 0 0 1-2.86-2.79.6.6 0 0 0 0-.34.48.48 0 0 0-.24-.18.6.6 0 0 0-.35-.06.5.5 0 0 0-.26.14 2.9 2.9 0 0 1-1 .65 2.84 2.84 0 0 1-2.16 0 3 3 0 0 1-.91-.62 2.79 2.79 0 0 1-.61-3.07 2.65 2.65 0 0 1 .61-.91.56.56 0 0 0 .18-.31.5.5 0 0 0 0-.29.47.47 0 0 0-.26-.22.46.46 0 0 0-.28-.08h-.12a2.82 2.82 0 0 1 0-5.64.6.6 0 0 0 .34-.09.55.55 0 0 0 .18-.19.7.7 0 0 0 .06-.35.5.5 0 0 0-.18-.31 3.1 3.1 0 0 1-.66-1 2.9 2.9 0 0 1-.17-1.04c0-.37.07-.737.21-1.08.145-.341.355-.65.62-.91a2.7 2.7 0 0 1 .91-.61 2.81 2.81 0 0 1 3.09.61.63.63 0 0 0 .31.18.42.42 0 0 0 .29 0H9a.5.5 0 0 0 .12-.13.47.47 0 0 0 .1-.36v-.16a2.8 2.8 0 0 1 .82-2 2.9 2.9 0 0 1 2-.804m-.095 1.992a.803.803 0 0 0-.815.812v.16a2.57 2.57 0 0 1-.42 1.37 2.46 2.46 0 0 1-1.1.92q-.12.05-.25.07a2.6 2.6 0 0 1-1.27.1 2.5 2.5 0 0 1-1.3-.68 1.1 1.1 0 0 0-.33-.24.86.86 0 0 0-.63 0q-.14.075-.26.18a.8.8 0 0 0-.12.28.8.8 0 0 0-.06.31q0 .165.06.32a.9.9 0 0 0 .18.26c.376.368.632.843.73 1.36.097.487.048.991-.14 1.45a2.43 2.43 0 0 1-.87 1.11 2.4 2.4 0 0 1-1.39.47h-.14a.86.86 0 0 0-.58.24.82.82 0 0 0 .58 1.4h.16a2.522 2.522 0 0 1 2.46 3 2.45 2.45 0 0 1-.68 1.3 1.5 1.5 0 0 0-.24.32.9.9 0 0 0-.06.32q0 .162.06.31.073.146.18.27a.8.8 0 0 0 .27.18c.202.08.427.08.63 0a.9.9 0 0 0 .26-.18 2.6 2.6 0 0 1 1.36-.78q.224-.034.45-.04v-.02c.345-.001.687.075 1 .22.447.17.834.47 1.11.86.289.417.442.913.44 1.42v.11a.78.78 0 0 0 .24.57.84.84 0 0 0 1.16 0 .8.8 0 0 0 .23-.57V20c.007-.49.152-.969.42-1.38.27-.403.653-.72 1.1-.91.455-.201.96-.26 1.45-.17s.943.323 1.3.67c.092.102.205.184.33.24a.75.75 0 0 0 .62 0q.15-.064.27-.17a.8.8 0 0 0 .18-.27.85.85 0 0 0 0-.63.8.8 0 0 0-.18-.26 2.6 2.6 0 0 1-.74-1.37c-.09-.49-.03-.995.17-1.45a2.53 2.53 0 0 1 2.29-1.51.9.9 0 0 0 .67-.24.822.822 0 0 0-.58-1.39h-.16a2.54 2.54 0 0 1-1.37-.42 2.46 2.46 0 0 1-.92-1.1.8.8 0 0 1-.07-.25 2.5 2.5 0 0 1 .59-2.57c.102-.092.184-.205.24-.33a.72.72 0 0 0 0-.62 1 1 0 0 0-.17-.27.8.8 0 0 0-.27-.18.86.86 0 0 0-.63 0 .7.7 0 0 0-.26.18c-.37.379-.85.634-1.37.73a2.51 2.51 0 0 1-3-2.45.87.87 0 0 0-.24-.67.83.83 0 0 0-.575-.232m-.725 5.05a4 4 0 1 1 1.56 7.845 4 4 0 0 1-1.56-7.846M12 9.95a2 2 0 1 0 0 4 2 2 0 0 0 0-4"/></svg>