<svg xmlns="http://www.w3.org/2000/svg" viewBox="0 0 16 16" class="pdsicon"><path fill-rule="evenodd" d="M8 0a2 2 0 0 0-2 2v.348q-.3.105-.582.241l-.247-.246a2 2 0 1 0-2.828 2.828l.246.247Q2.454 5.7 2.35 6H2a2 2 0 0 0 0 4h.348q.105.3.241.582l-.246.247a2 2 0 1 0 2.828 2.828l.247-.246q.283.135.582.24V14a2 2 0 0 0 4 0v-.348q.3-.106.582-.241l.247.246a2 2 0 1 0 2.828-2.828l-.246-.247q.135-.284.24-.582H14a2 2 0 0 0 0-4h-.348q-.106-.3-.241-.582l.246-.247a2 2 0 1 0-2.828-2.828l-.247.246A6 6 0 0 0 10 2.35V2a2 2 0 0 0-2-2m-.667 2a.666.666 0 1 1 1.334 0v.841c0 .304.205.57.5.646q.642.167 1.2.497a.67.67 0 0 0 .81-.103l.594-.595a.666.666 0 1 1 .943.943l-.595.594a.67.67 0 0 0-.103.81q.33.558.497 1.2c.076.295.342.5.646.5H14a.666.666 0 1 1 0 1.334h-.841a.67.67 0 0 0-.646.5c-.11.427-.278.83-.496 1.2a.67.67 0 0 0 .102.81l.595.594a.666.666 0 1 1-.943.943l-.594-.595a.67.67 0 0 0-.81-.103q-.558.33-1.2.497a.67.67 0 0 0-.5.646V14a.666.666 0 1 1-1.334 0v-.841a.67.67 0 0 0-.5-.646 4.6 4.6 0 0 1-1.2-.496.67.67 0 0 0-.81.102l-.594.595a.666.666 0 1 1-.943-.943l.595-.594a.67.67 0 0 0 .103-.81 4.6 4.6 0 0 1-.497-1.2.67.67 0 0 0-.646-.5H2a.666.666 0 1 1 0-1.334h.841c.304 0 .57-.205.646-.5q.167-.642.497-1.2a.67.67 0 0 0-.103-.81l-.595-.594a.666.666 0 1 1 .943-.943l.594.595a.67.67 0 0 0 .81.103q.558-.33 1.2-.497a.67.67 0 0 0 .5-.646zm-.666 6a1.333 1.333 0 1 1 2.666 0 1.333 1.333 0 0 1-2.666 0M8 5.333a2.667 2.667 0 1 0 0 5.334 2.667 2.667 0 0 0 0-5.334"/></svg>