<svg xmlns="http://www.w3.org/2000/svg" viewBox="0 0 24 24" class="pdsicon"><path fill-rule="evenodd" d="M10.992 22.755a2.8 2.8 0 0 0 1.088.195 2.8 2.8 0 0 0 2.86-2.78v-.16a.46.46 0 0 1 .09-.27.55.55 0 0 1 .23-.19.5.5 0 0 1 .29 0 .56.56 0 0 1 .31.18 2.81 2.81 0 0 0 4 0 2.65 2.65 0 0 0 .61-.91 2.7 2.7 0 0 0 .22-1.08 2.6 2.6 0 0 0-.22-1.08 2.8 2.8 0 0 0-.65-1 .6.6 0 0 1-.14-.26.5.5 0 0 1 0-.3.6.6 0 0 1 .18-.23.66.66 0 0 1 .36-.08 2.8 2.8 0 0 0 2.82-2.84 2.86 2.86 0 0 0-.82-2 2.82 2.82 0 0 0-2-.82h-.14a.46.46 0 0 1-.27-.09.5.5 0 0 1-.13-.12.6.6 0 0 0-.06-.18.5.5 0 0 1 0-.29.56.56 0 0 1 .18-.31 2.8 2.8 0 0 0 .61-.91c.143-.342.217-.71.22-1.08a2.84 2.84 0 0 0-.83-2 2.8 2.8 0 0 0-.92-.62 2.86 2.86 0 0 0-2.15 0 3 3 0 0 0-1 .66.55.55 0 0 1-.26.14.6.6 0 0 1-.3 0 .45.45 0 0 1-.22-.19.53.53 0 0 1-.09-.35 2.8 2.8 0 0 0-.82-2 2.89 2.89 0 0 0-4 0 2.8 2.8 0 0 0-.82 2v.16a.47.47 0 0 1-.1.36.5.5 0 0 1-.12.13h-.18a.42.42 0 0 1-.29 0 .63.63 0 0 1-.31-.18 2.81 2.81 0 0 0-3.09-.61 2.7 2.7 0 0 0-.91.61 2.8 2.8 0 0 0-.62.91 2.9 2.9 0 0 0-.21 1.08c-.008.354.05.707.17 1.04.152.374.376.713.66 1a.5.5 0 0 1 .18.31.7.7 0 0 1-.06.35.55.55 0 0 1-.18.19.6.6 0 0 1-.34.09 2.82 2.82 0 1 0 0 5.64h.12a.46.46 0 0 1 .28.08.47.47 0 0 1 .26.22.5.5 0 0 1 0 .29.56.56 0 0 1-.18.31 2.65 2.65 0 0 0-.61.91 2.79 2.79 0 0 0 .61 3.07 3 3 0 0 0 .91.62 2.84 2.84 0 0 0 2.16 0 2.9 2.9 0 0 0 1-.65.5.5 0 0 1 .26-.14.6.6 0 0 1 .35.06.48.48 0 0 1 .24.18.6.6 0 0 1 0 .34 2.8 2.8 0 0 0 1.772 2.595M9.67 17.77a2.4 2.4 0 0 0-1-.22v.02q-.226.005-.45.04a2.6 2.6 0 0 0-1.36.78.9.9 0 0 1-.26.18.86.86 0 0 1-.63 0 .8.8 0 0 1-.27-.18 1.3 1.3 0 0 1-.18-.27.8.8 0 0 1-.06-.31q0-.166.06-.32a1.5 1.5 0 0 1 .24-.32 2.45 2.45 0 0 0 .68-1.3 2.52 2.52 0 0 0-2.46-3h-.16a.82.82 0 0 1-.58-1.4.86.86 0 0 1 .58-.24h.14a2.4 2.4 0 0 0 1.39-.47 2.43 2.43 0 0 0 .87-1.11 2.5 2.5 0 0 0 .14-1.45 2.6 2.6 0 0 0-.73-1.36.9.9 0 0 1-.18-.26.9.9 0 0 1-.06-.32.8.8 0 0 1 .06-.31.8.8 0 0 1 .12-.28q.12-.104.26-.18a.86.86 0 0 1 .63 0q.188.09.33.24c.356.35.809.587 1.3.68a2.6 2.6 0 0 0 1.27-.1 1.2 1.2 0 0 0 .25-.07c.45-.19.833-.51 1.1-.92a2.57 2.57 0 0 0 .42-1.37v-.16a.8.8 0 0 1 .24-.58.83.83 0 0 1 1.15 0 .87.87 0 0 1 .24.67 2.51 2.51 0 0 0 3 2.45 2.57 2.57 0 0 0 1.37-.73.7.7 0 0 1 .26-.18.86.86 0 0 1 .63 0 .8.8 0 0 1 .27.18 1 1 0 0 1 .17.27.72.72 0 0 1 0 .62 1 1 0 0 1-.24.33 2.5 2.5 0 0 0-.59 2.57.8.8 0 0 0 .07.25c.19.45.51.833.92 1.1a2.54 2.54 0 0 0 1.37.42h.16a.82.82 0 0 1 .58 1.39.9.9 0 0 1-.67.24 2.53 2.53 0 0 0-2.29 1.51c-.2.455-.26.96-.17 1.45.1.522.359 1 .74 1.37a.8.8 0 0 1 .18.26.87.87 0 0 1 0 .63.8.8 0 0 1-.18.27 1 1 0 0 1-.27.17.75.75 0 0 1-.62 0 1 1 0 0 1-.33-.24 2.5 2.5 0 0 0-1.3-.67 2.5 2.5 0 0 0-1.45.17 2.5 2.5 0 0 0-1.1.91 2.6 2.6 0 0 0-.42 1.38v.16a.8.8 0 0 1-.23.57.84.84 0 0 1-1.16 0 .78.78 0 0 1-.24-.57v-.11a2.5 2.5 0 0 0-.44-1.42 2.4 2.4 0 0 0-1.11-.86m.108-2.494a4 4 0 1 0 4.444-6.652 4 4 0 0 0-4.444 6.652m1.11-4.989a2 2 0 1 1 2.223 3.325 2 2 0 0 1-2.222-3.325"/></svg>