<svg xmlns="http://www.w3.org/2000/svg" viewBox="0 0 24 24" class="pdsicon"><path d="M20 18.8V11H4v7.8c0 1.12 0 1.68.218 2.108a2 2 0 0 0 .874.874C5.52 22 6.08 22 7.2 22h9.6c1.12 0 1.68 0 2.108-.218a2 2 0 0 0 .874-.874C20 20.48 20 19.92 20 18.8" opacity=".12"/><path fill-rule="evenodd" d="M8.464 3c-.25 0-.493.1-.675.286A1.02 1.02 0 0 0 7.5 4c0 .271.106.527.289.714A.95.95 0 0 0 8.464 5h2.17a6 6 0 0 0-.25-.525C9.898 3.575 9.274 3 8.464 3M11 7v3H3.6a8 8 0 0 1-.589-.011v-.014A8 8 0 0 1 3 9.4V7.6a8 8 0 0 1 .011-.589h.014C3.14 7 3.303 7 3.6 7zM5.67 5a3.03 3.03 0 0 1 .692-3.115A2.95 2.95 0 0 1 8.464 1C10.26 1 11.373 2.218 12 3.272 12.627 2.218 13.741 1 15.536 1c.792 0 1.548.32 2.102.885A3.02 3.02 0 0 1 18.33 5h2.102c.252 0 .498 0 .706.017.229.019.499.063.77.201a2 2 0 0 1 .874.874c.138.271.182.541.201.77.017.208.017.454.017.706v1.864c0 .252 0 .498-.017.706a2 2 0 0 1-.201.77 2 2 0 0 1-.874.874 2 2 0 0 1-.77.201q-.066.005-.138.009v6.847c0 .527 0 .982-.03 1.356-.033.395-.104.789-.297 1.167a3 3 0 0 1-1.311 1.311c-.378.193-.772.264-1.167.296-.375.031-.83.031-1.356.031H7.16c-.527 0-.981 0-1.356-.03-.395-.033-.789-.104-1.167-.297a3 3 0 0 1-1.311-1.311c-.193-.378-.264-.772-.296-1.167C3 19.82 3 19.365 3 18.838v-6.846l-.138-.009a2 2 0 0 1-.77-.201 2 2 0 0 1-.874-.874 2 2 0 0 1-.201-.77C1 9.93 1 9.684 1 9.432V7.568c0-.252 0-.498.017-.706.019-.229.063-.499.201-.77a2 2 0 0 1 .874-.874c.271-.138.541-.182.77-.201C3.07 5 3.316 5 3.568 5H5.67M5 12v6.8c0 .577 0 .949.024 1.232.022.272.06.372.085.422a1 1 0 0 0 .437.437c.05.025.15.063.422.085C6.25 21 6.623 21 7.2 21H11v-9zm8 0v9h3.8c.577 0 .949 0 1.232-.024.272-.022.373-.06.422-.085a1 1 0 0 0 .437-.437c.025-.05.063-.15.085-.422C19 19.75 19 19.377 19 18.8V12zm7.4-2a8 8 0 0 0 .589-.011v-.014C21 9.86 21 9.697 21 9.4V7.6a8 8 0 0 0-.012-.589h-.013A8 8 0 0 0 20.4 7H13v3zm-4.864-5c.25 0 .493-.1.675-.286.183-.187.289-.443.289-.714s-.106-.527-.289-.714A.95.95 0 0 0 15.536 3c-.81 0-1.434.576-1.92 1.475a6 6 0 0 0-.25.525z"/></svg>