<svg xmlns="http://www.w3.org/2000/svg" viewBox="0 0 16 16" class="pdsicon"><g clip-path="url(#a)"><path fill-rule="evenodd" d="M5.997 1.333A.67.67 0 0 0 5.33 2c0 .356.286.651.638.667h1.725c-.357-.703-.907-1.334-1.696-1.334m-2 .667q.002.352.114.667H2.663c-.737 0-1.334.597-1.334 1.333v1.334c0 .737.597 1.334 1.334 1.334h.003v2.001H1.33c-.737 0-1.334.597-1.334 1.334v2.494c0 .538.324 1.024.82 1.23l4.87 2.03.011.005c.683.256 1.424.249 2.063.09l.032-.009 6.505-2.332a1.26 1.26 0 0 0 .743-.695 1.1 1.1 0 0 0-.15-1.105 2.7 2.7 0 0 0-.385-.403c.103-.19.161-.407.161-.638V6.668c.737 0 1.334-.597 1.334-1.334V4c0-.736-.597-1.333-1.333-1.333h-1.448q.114-.315.115-.667c0-1.101-.899-2-2-2-1.347 0-2.189.9-2.669 1.678C8.185.9 7.344 0 5.997 0c-1.101 0-2 .899-2 2m8.002 10.003h.693c.457.006.756.155.955.325l-6.24 2.237c-.416.099-.858.09-1.231-.047l-4.846-2.02v-2.495h2c.778 0 1.484.301 1.953.833.242.275.614.5 1.064.5H8c.38 0 .83.27 1.102.668h-3.77v1.333h4.001c.364 0 .72-.15.96-.424a1.09 1.09 0 0 0 .258-.91zm.7-1.333h.634V6.668H4v2.054c.873.14 1.686.554 2.284 1.232a.2.2 0 0 0 .054.045l.012.004h1.65c.624 0 1.215.265 1.68.667H12.7M2.664 4h12.004v1.334H2.663zM12 2c0 .356-.286.651-.638.667H9.638c.356-.703.906-1.334 1.695-1.334.366 0 .668.302.668.667"/></g><defs><clipPath id="a"><path d="M0 0h16v16H0z"/></clipPath></defs></svg>