<svg xmlns="http://www.w3.org/2000/svg" viewBox="0 0 24 24" class="pdsicon"><path fill-rule="evenodd" d="M13.308 9.632a4.5 4.5 0 0 1-1.78.36 4.5 4.5 0 1 1 3.23-7.64 4.5 4.5 0 1 1-1.45 7.28m4.609-5.219a2.5 2.5 0 1 0-2.778 4.158 2.5 2.5 0 0 0 2.778-4.158m-4.8-.851a2.46 2.46 0 0 0-1.59-.57 2.5 2.5 0 0 0 0 5c.245-.001.488-.038.72-.11a4.49 4.49 0 0 1 .87-4.32M20.637 13.495a2.59 2.59 0 0 1 2.193 1.56 2.51 2.51 0 0 1-.562 2.777l-2.16 2.1a5.2 5.2 0 0 1-2.63 1.37l-3.05.59a5.2 5.2 0 0 1-2.26-.05l-2.75-.67a3.5 3.5 0 0 0-.78-.09h-1.66a2 2 0 0 1-1.08 1.69 3.1 3.1 0 0 1-1.51.22h-.8a3.1 3.1 0 0 1-1.5-.22 2 2 0 0 1-.88-.87 3.1 3.1 0 0 1-.22-1.51v-5.8a3.1 3.1 0 0 1 .22-1.51 2 2 0 0 1 .87-.87 3.1 3.1 0 0 1 1.51-.22h.8a3.1 3.1 0 0 1 1.51.22c.377.187.682.493.87.87q.115.217.16.46l1.61-.67a9.3 9.3 0 0 1 3.1-.88c.478.002.954.059 1.42.17l2.38.58a2.55 2.55 0 0 1 2 2.33l1.48-1.08a2.6 2.6 0 0 1 1.719-.497m-16.21 7.497q.303-.008.6-.05v-6.38a5 5 0 0 0 0-.65c-.01.05-.3.05-.58.05h-.8a5 5 0 0 0-.65 0c.05.01.05.3.05.58v5.8a5 5 0 0 0 0 .65zm14.28-2.5 2.16-2.1a.48.48 0 0 0 .12-.553.5.5 0 0 0-.12-.167.6.6 0 0 0-.77-.05l-2.51 1.83a3.14 3.14 0 0 1-1.84.6h-2.43a1 1 0 1 1 0-2h1.54a.56.56 0 0 0 .58-.53v-.31a.56.56 0 0 0-.43-.52l-2.39-.58a4.3 4.3 0 0 0-.94-.11c-.798.114-1.575.354-2.3.71l-2.35 1v3.4h1.65c.422-.002.842.049 1.25.15l2.76.67c.462.1.94.1 1.4 0l3-.59a3.2 3.2 0 0 0 1.62-.85"/></svg>