<svg xmlns="http://www.w3.org/2000/svg" viewBox="0 0 24 24" class="pdsicon"><path d="M23.707.297A1.006 1.006 0 0 0 22.942 0C8.838.737 3.628 13.301 3.578 13.427a1.006 1.006 0 0 0 .221 1.086l5.688 5.688a1.005 1.005 0 0 0 1.09.219c.126-.052 12.622-5.32 13.42-19.357a1.004 1.004 0 0 0-.29-.766Zm-8.21 11.05a2.011 2.011 0 1 1-2.844-2.845 2.011 2.011 0 0 1 2.844 2.844ZM1.119 18.816a2.86 2.86 0 1 1 4.044 4.044C4.046 23.977 0 24 0 24s0-4.068 1.119-5.184ZM10.413 2.224a8.959 8.959 0 0 0-7.877 2.498 9.133 9.133 0 0 0-1.392 1.81 1.005 1.005 0 0 0 .156 1.22l2 2.002a26.767 26.767 0 0 1 7.113-7.53ZM21.776 13.587a8.96 8.96 0 0 1-2.498 7.877 9.135 9.135 0 0 1-1.81 1.392 1.006 1.006 0 0 1-1.22-.156l-2.002-2a26.768 26.768 0 0 0 7.53-7.113Z"/></svg>