<svg xmlns="http://www.w3.org/2000/svg" viewBox="0 0 24 24" class="pdsicon"><path fill-rule="evenodd" d="M13.29 8.69a.3.3 0 0 1 .3-.31h2.54a3.5 3.5 0 0 1 2.34.88 3.15 3.15 0 0 1 1 1.6c.26.926.2 1.912-.17 2.8a3.12 3.12 0 0 1-2.16 1.85 4 4 0 0 1-1.08.15h-2.47a.29.29 0 0 1-.3-.3zm1.63 5.45h.88q.27.023.54 0a1.74 1.74 0 0 0 1.43-1.24 2.8 2.8 0 0 0 .06-1.37A1.82 1.82 0 0 0 16 9.92h-1.08z"/><path d="M6.14 15.67h-1a.31.31 0 0 1-.3-.3V8.69a.31.31 0 0 1 .3-.3h1a.3.3 0 0 1 .3.3v2.54h2.9V8.69a.3.3 0 0 1 .3-.3h1a.29.29 0 0 1 .3.3v6.68a.3.3 0 0 1-.3.3h-1a.3.3 0 0 1-.3-.3v-2.59h-2.9v2.59a.3.3 0 0 1-.3.3"/><path fill-rule="evenodd" d="M2.82 3.55h18.36A1.82 1.82 0 0 1 23 5.37v13.26a1.82 1.82 0 0 1-1.82 1.82H2.82A1.82 1.82 0 0 1 1 18.63V5.37a1.82 1.82 0 0 1 1.82-1.82m.89 14.69h16.58a.5.5 0 0 0 .5-.5V6.26a.5.5 0 0 0-.5-.5H3.71a.5.5 0 0 0-.5.5v11.48a.5.5 0 0 0 .5.5"/></svg>