<svg xmlns="http://www.w3.org/2000/svg" viewBox="0 0 24 24" class="pdsicon"><path fill-rule="evenodd" d="M7.759 2h8.482c.805 0 1.47 0 2.01.044.563.046 1.08.145 1.565.392a4 4 0 0 1 1.748 1.748c.247.485.346 1.002.392 1.564C22 6.29 22 6.954 22 7.758v8.483c0 .805 0 1.47-.044 2.01-.046.563-.145 1.08-.392 1.565a4 4 0 0 1-1.748 1.748c-.485.247-1.002.346-1.564.392-.541.044-1.206.044-2.01.044H7.758c-.805 0-1.47 0-2.011-.044-.562-.046-1.079-.145-1.564-.392a4 4 0 0 1-1.748-1.748c-.247-.485-.346-1.002-.392-1.564C2 17.71 2 17.046 2 16.242V7.758c0-.805 0-1.47.044-2.011.046-.562.145-1.079.392-1.564a4 4 0 0 1 1.748-1.748c.485-.247 1.002-.346 1.564-.392C6.29 2 6.954 2 7.758 2m7.133 13.298c-1.112 0-1.832-.453-2.162-1.09a.9.9 0 0 1-.119-.448c0-.299.19-.488.506-.488.233 0 .373.101.492.334.22.48.602.765 1.296.765.721 0 1.209-.413 1.209-.989.004-.677-.488-1.055-1.301-1.055h-.36c-.282 0-.449-.171-.449-.421 0-.251.167-.422.449-.422h.334c.698 0 1.164-.4 1.164-.963 0-.55-.36-.918-1.063-.918-.598 0-.945.246-1.156.742-.123.273-.246.374-.51.374-.316 0-.483-.185-.483-.475 0-.158.03-.298.11-.452.299-.629 1.002-1.09 2.034-1.09 1.314 0 2.158.685 2.158 1.665 0 .796-.567 1.328-1.332 1.486v.022c.936.088 1.556.65 1.556 1.533 0 1.125-.984 1.89-2.373 1.89m-8.157-.642c0 .374.215.59.567.59.356 0 .567-.216.567-.59V12.42h3.085v2.236c0 .374.21.59.562.59.356 0 .567-.216.567-.59V9.345c0-.374-.21-.59-.567-.59-.351 0-.562.216-.562.59v2.122H7.869V9.344c0-.374-.211-.59-.567-.59-.352 0-.567.216-.567.59z"/></svg>