<svg xmlns="http://www.w3.org/2000/svg" viewBox="0 0 24 24" class="pdsicon"><path d="M12 1C6.436 1 1.917 5.52 1.917 11.083v5.5a2.76 2.76 0 0 0 2.75 2.75h2.75a.92.92 0 0 0 .916-.916V12a.92.92 0 0 0-.916-.917H3.75c0-4.546 3.703-8.25 8.25-8.25s8.25 3.704 8.25 8.25h-3.667a.92.92 0 0 0-.916.917v6.417a.92.92 0 0 0 .916.916h2.75c.321 0 .633-.064.917-.165v.165a1.84 1.84 0 0 1-1.833 1.834h-4.584a.92.92 0 0 0-.916.916.92.92 0 0 0 .916.917h4.584a3.666 3.666 0 0 0 3.666-3.667v-8.25C22.083 5.52 17.564 1 12 1M6.5 12.917V17.5H4.667a.92.92 0 0 1-.917-.917v-3.666zM19.333 17.5H17.5v-4.583h2.75v3.666a.92.92 0 0 1-.917.917"/></svg>