<svg xmlns="http://www.w3.org/2000/svg" viewBox="0 0 24 24" class="pdsicon"><g opacity=".12"><path d="M3 13.5a2.5 2.5 0 0 1 5 0v2a2.5 2.5 0 0 1-5 0zM16 13.5a2.5 2.5 0 0 1 5 0v2a2.5 2.5 0 0 1-5 0z"/></g><path fill-rule="evenodd" d="M2 12C2 6.477 6.477 2 12 2s10 4.477 10 10v5c0 1.325-.652 2.567-1.543 3.457S18.325 22 17 22h-4a1 1 0 1 1 0-2h4c.675 0 1.433-.348 2.043-.957l.098-.101A3.5 3.5 0 0 1 15 15.5v-2a3.5 3.5 0 0 1 4.808-3.247 8.003 8.003 0 0 0-15.618 0A3.5 3.5 0 0 1 9 13.5v2a3.5 3.5 0 1 1-7 0zm2 3.5a1.5 1.5 0 0 0 3 0v-2a1.5 1.5 0 0 0-3 0zm16-2a1.5 1.5 0 0 0-3 0v2a1.5 1.5 0 0 0 3 0z"/></svg>