<svg xmlns="http://www.w3.org/2000/svg" viewBox="0 0 16 16" class="pdsicon"><g opacity=".12"><path d="M2 9a1.667 1.667 0 0 1 3.333 0v1.333a1.667 1.667 0 1 1-3.333 0zM10.667 9A1.667 1.667 0 1 1 14 9v1.333a1.667 1.667 0 1 1-3.333 0z"/></g><path fill-rule="evenodd" d="M1.333 8a6.667 6.667 0 0 1 13.334 0v3.333c0 .884-.435 1.711-1.029 2.305s-1.421 1.029-2.305 1.029H8.667a.667.667 0 0 1 0-1.334h2.666c.45 0 .956-.231 1.362-.638l.065-.067A2.333 2.333 0 0 1 10 10.334V9a2.333 2.333 0 0 1 3.206-2.165 5.335 5.335 0 0 0-10.412 0A2.333 2.333 0 0 1 6 9v1.333a2.333 2.333 0 1 1-4.667 0zm1.334 2.333a1 1 0 1 0 2 0V9a1 1 0 0 0-2 0zM13.333 9a1 1 0 1 0-2 0v1.333a1 1 0 0 0 2 0z"/></svg>