<svg xmlns="http://www.w3.org/2000/svg" viewBox="0 0 24 24" class="pdsicon"><path fill-rule="evenodd" d="M7.759 2h8.482c.805 0 1.47 0 2.01.045.563.046 1.08.144 1.565.391a4 4 0 0 1 1.748 1.749c.247.485.346 1.002.392 1.564.044.54.044 1.205.044 2.01v8.483c0 .805 0 1.47-.044 2.01-.046.562-.145 1.08-.392 1.564a4 4 0 0 1-1.748 1.749c-.485.247-1.002.345-1.564.391-.541.044-1.206.044-2.01.044H7.758c-.805 0-1.47 0-2.011-.044-.562-.046-1.079-.144-1.564-.392a4 4 0 0 1-1.748-1.748c-.247-.485-.346-1.002-.392-1.564C2 17.712 2 17.047 2 16.242V7.759c0-.805 0-1.47.044-2.01.046-.562.145-1.08.392-1.564a4 4 0 0 1 1.748-1.749c.485-.247 1.002-.345 1.564-.391C6.29 2 6.954 2 7.758 2m7.988 13.258c-.33 0-.558-.228-.558-.57v-4.76h-.022l-1.024.712a.5.5 0 0 1-.321.11c-.237 0-.409-.172-.409-.422 0-.176.07-.308.26-.44l1.296-.91c.281-.197.457-.237.694-.237.4 0 .642.242.642.633v5.313c0 .343-.229.572-.558.572m-8.052-.602c0 .374.215.59.567.59.356 0 .567-.216.567-.59V12.42h3.085v2.236c0 .374.21.59.562.59.356 0 .567-.216.567-.59V9.343c0-.373-.21-.588-.567-.588-.351 0-.562.215-.562.588v2.123H8.829V9.343c0-.373-.211-.588-.567-.588-.352 0-.567.215-.567.588z"/></svg>