<svg xmlns="http://www.w3.org/2000/svg" viewBox="0 0 24 24" class="pdsicon"><path d="M14.971 14.377c.708 0 1.27-.553 1.27-1.248.005-.73-.527-1.248-1.257-1.248s-1.278.519-1.278 1.226c0 .712.558 1.27 1.265 1.27"/><path fill-rule="evenodd" d="M7.759 2h8.482c.805 0 1.47 0 2.01.044.563.046 1.08.145 1.565.392a4 4 0 0 1 1.748 1.748c.247.486.346 1.002.392 1.564C22 6.29 22 6.954 22 7.758v8.484c0 .805 0 1.469-.044 2.01-.046.562-.145 1.079-.392 1.564a4 4 0 0 1-1.748 1.748c-.485.248-1.002.346-1.564.392-.541.044-1.206.044-2.01.044H7.758c-.805 0-1.47 0-2.011-.044-.562-.046-1.079-.144-1.564-.392a4 4 0 0 1-1.748-1.748c-.247-.485-.346-1.002-.392-1.564C2 17.711 2 17.047 2 16.242V7.759c0-.805 0-1.47.044-2.01.046-.563.145-1.08.392-1.565a4 4 0 0 1 1.748-1.748c.485-.247 1.002-.346 1.564-.392C6.29 2 6.954 2 7.758 2m7.23 13.3c-.989 0-1.771-.483-2.21-1.41q-.351-.734-.352-1.815c0-2.114.967-3.375 2.58-3.375.966 0 1.704.422 2.02 1.024.071.127.102.237.102.36 0 .26-.185.457-.484.457-.224 0-.364-.106-.54-.33-.295-.404-.633-.588-1.103-.588-.958 0-1.468.883-1.49 2.342v.066h.022c.25-.585.883-1.024 1.745-1.024 1.221 0 2.078.879 2.078 2.078 0 1.288-.997 2.215-2.368 2.215m-8.346-.641c0 .373.215.589.566.589.356 0 .567-.216.567-.59v-2.236h3.085v2.237c0 .373.211.589.563.589.356 0 .567-.216.567-.59V9.347c0-.374-.211-.59-.567-.59-.352 0-.563.216-.563.59v2.122H7.776V9.346c0-.374-.21-.59-.567-.59-.351 0-.566.216-.566.59z"/></svg>