<svg xmlns="http://www.w3.org/2000/svg" viewBox="0 0 24 24" class="pdsicon"><path fill-rule="evenodd" d="M7.759 2h8.482c.805 0 1.47 0 2.01.044.563.046 1.08.145 1.565.392a4 4 0 0 1 1.748 1.748c.247.486.346 1.002.392 1.564C22 6.29 22 6.954 22 7.758v8.484c0 .805 0 1.469-.044 2.01-.046.562-.145 1.079-.392 1.564a4 4 0 0 1-1.748 1.748c-.485.248-1.002.346-1.564.392-.541.044-1.206.044-2.01.044H7.758c-.805 0-1.47 0-2.011-.044-.562-.046-1.079-.144-1.564-.392a4 4 0 0 1-1.748-1.748c-.247-.485-.346-1.002-.392-1.564C2 17.711 2 17.047 2 16.242V7.759c0-.805 0-1.47.044-2.01.046-.563.145-1.08.392-1.565a4 4 0 0 1 1.748-1.748c.485-.247 1.002-.346 1.564-.392C6.29 2 6.954 2 7.758 2m5.448 13.197c-.352 0-.536-.194-.536-.48 0-.219.074-.35.316-.58l1.938-1.92c.809-.8 1.01-1.12 1.01-1.604 0-.567-.434-.975-1.045-.975-.571 0-.971.29-1.195.861-.115.228-.247.347-.506.347-.307 0-.492-.189-.492-.47q.001-.125.035-.237c.172-.686.932-1.411 2.167-1.411 1.27 0 2.144.751 2.144 1.815 0 .743-.356 1.244-1.406 2.272l-1.455 1.433v.022h2.532c.299 0 .483.184.483.465 0 .277-.184.462-.483.462zm-6.404-.514c0 .373.215.588.567.588.356 0 .567-.215.567-.588v-2.237h3.085v2.237c0 .373.21.588.562.588.356 0 .567-.215.567-.588V9.37c0-.374-.21-.59-.567-.59-.351 0-.562.216-.562.59v2.122H7.937V9.37c0-.374-.211-.59-.567-.59-.352 0-.567.216-.567.59z"/></svg>