<svg xmlns="http://www.w3.org/2000/svg" viewBox="0 0 16 16" class="pdsicon"><path fill-rule="evenodd" d="M6 3.5c0-.3.2-.5.5-.5s.5.2.5.5v9c0 .3-.2.5-.5.5s-.5-.2-.5-.5v-4H1v4c0 .3-.2.5-.5.5s-.5-.2-.5-.5v-9c0-.3.2-.5.5-.5s.5.2.5.5v4h5zm9.2 3.7c-.2.3-.6.6-1 .8.256.128.472.298.672.455q.168.135.328.245c.5.5.8 1.1.8 1.7 0 1.4-1.4 2.5-3 2.5-1.3 0-2.4-.6-2.9-1.7-.1-.3 0-.6.2-.7.3-.1.6 0 .7.2.3.8 1.1 1.2 2 1.2 1.2 0 2-.8 2-1.5 0-.3-.2-.7-.5-1-.6-.5-1.5-.9-2.5-.9-.3 0-.5-.2-.5-.5s.2-.5.5-.5c1 0 1.9-.4 2.5-1 .3-.3.5-.7.5-1 0-.7-.8-1.5-2-1.5-.9 0-1.7.5-2 1.2-.2.2-.5.3-.7.2-.3-.1-.4-.4-.2-.7.5-1 1.6-1.7 2.9-1.7 1.6 0 3 1.2 3 2.5 0 .6-.3 1.2-.8 1.7"/></svg>