<svg xmlns="http://www.w3.org/2000/svg" viewBox="0 0 16 16" class="pdsicon"><path fill-rule="evenodd" d="M12.92 6.677c.794 0 1.59.298 2.086.894.596.696.895 1.59.994 2.485-.1 1.888-1.789 3.08-3.28 3.08h-.099c-1.59 0-2.782-.993-3.28-2.98v-.1c-.198-.696-.298-1.391-.298-2.286 0-2.286 1.392-4.67 3.578-4.77 2.087 0 2.981 1.59 2.981 1.69.1.298 0 .596-.198.695-.298.1-.597 0-.696-.199 0 0-.596-1.192-2.087-1.093-1.69.1-2.584 2.286-2.584 3.777v.099c.596-.795 1.59-1.292 2.882-1.292Zm-2.585 3.478c.398 1.292 1.193 1.988 2.286 1.988.894 0 2.186-.696 2.286-2.087 0-.696-.199-1.292-.596-1.69-.299-.298-.696-.596-1.392-.596-1.49 0-2.385.795-2.584 2.385Zm-4.372-6.46c0-.297.198-.496.497-.496.298 0 .497.199.497.497v8.944c0 .298-.2.497-.497.497-.299 0-.497-.2-.497-.497V8.665H.993v3.975c0 .298-.198.497-.496.497S0 12.937 0 12.64V3.696c0-.298.199-.497.497-.497s.497.199.497.497V7.67h4.969V3.696Z"/></svg>