<svg xmlns="http://www.w3.org/2000/svg" viewBox="0 0 16 16" class="pdsicon"><path fill-rule="evenodd" d="M11.1 12.007h4.4c.3 0 .5.2.5.5s-.2.5-.5.5H10c-.2 0-.4-.1-.5-.4-.1-.1 0-.4.1-.5.512-.555.988-1.055 1.411-1.5.57-.599 1.045-1.099 1.389-1.5l.3-.3.212-.23c1.081-1.167 1.788-1.93 1.788-2.87 0-.4-.1-.6-.2-.8-.3-.6-1-.9-1.8-1-1 0-2 .7-2.2 1.7-.1.3-.3.5-.6.4-.3 0-.5-.3-.4-.6.4-1.5 1.8-2.5 3.3-2.4 1.2.1 2.1.6 2.6 1.5.2.4.3.8.3 1.3 0 1.34-.825 2.222-2.123 3.61l-.177.19-.3.3c-.5.5-1.2 1.2-2 2.1M6 3.507c0-.3.2-.5.5-.5s.5.2.5.5v9c0 .3-.2.5-.5.5s-.5-.2-.5-.5v-4H1v4c0 .3-.2.5-.5.5s-.5-.2-.5-.5v-9c0-.3.2-.5.5-.5s.5.2.5.5v4h5z"/></svg>