<svg xmlns="http://www.w3.org/2000/svg" viewBox="0 0 24 24" class="pdsicon"><path fill-rule="evenodd" d="M7.759 2h8.482c.805 0 1.47 0 2.01.044.563.046 1.08.145 1.565.392a4 4 0 0 1 1.748 1.748c.247.485.346 1.002.392 1.564C22 6.29 22 6.954 22 7.758v8.483c0 .805 0 1.47-.044 2.01-.046.563-.145 1.08-.392 1.565a4 4 0 0 1-1.748 1.748c-.485.247-1.002.346-1.564.392-.541.044-1.206.044-2.01.044H7.758c-.805 0-1.47 0-2.011-.044-.562-.046-1.079-.145-1.564-.392a4 4 0 0 1-1.748-1.748c-.247-.485-.346-1.002-.392-1.564C2 17.71 2 17.046 2 16.242V7.758c0-.805 0-1.47.044-2.011.046-.562.145-1.079.392-1.564a4 4 0 0 1 1.748-1.748c.485-.247 1.002-.346 1.564-.392C6.29 2 6.954 2 7.758 2m7.162 13.272c-.976 0-1.82-.466-2.132-1.156a1 1 0 0 1-.1-.43c0-.295.188-.48.487-.48.237 0 .382.093.501.325.215.515.637.818 1.248.818.752 0 1.283-.532 1.283-1.283 0-.73-.531-1.248-1.279-1.248-.4 0-.747.162-.988.4-.264.263-.374.32-.633.32-.365 0-.545-.259-.536-.567 0-.026 0-.043.004-.07l.202-2.395c.04-.5.295-.703.791-.703h2.734c.29 0 .479.185.479.461 0 .282-.19.466-.48.466h-2.561l-.167 1.877h.022c.268-.396.79-.642 1.428-.642 1.213 0 2.078.857 2.078 2.07 0 1.327-.975 2.237-2.381 2.237m-8.223-.642c0 .374.215.589.566.589.356 0 .567-.215.567-.589v-2.237h3.085v2.237c0 .374.211.589.563.589.356 0 .567-.215.567-.589V9.317c0-.373-.211-.589-.567-.589-.352 0-.563.216-.563.59v2.122H7.831V9.317c0-.373-.21-.589-.567-.589-.351 0-.566.216-.566.59z"/></svg>