<svg xmlns="http://www.w3.org/2000/svg" viewBox="0 0 24 24" class="pdsicon"><path d="M15.474 13.048V9.691h-.017c-1.007 1.441-1.635 2.39-2.15 3.326v.031z"/><path fill-rule="evenodd" d="M7.759 2h8.482c.805 0 1.47 0 2.01.045.563.046 1.08.144 1.565.392a4 4 0 0 1 1.748 1.748c.247.485.346 1.002.392 1.564C22 6.29 22 6.954 22 7.759v8.483c0 .805 0 1.47-.044 2.01-.046.563-.145 1.08-.392 1.565a4 4 0 0 1-1.748 1.748c-.485.247-1.002.345-1.564.391-.541.045-1.206.045-2.01.045H7.758c-.805 0-1.47 0-2.011-.045-.562-.046-1.079-.144-1.564-.391a4 4 0 0 1-1.748-1.748c-.247-.486-.346-1.003-.392-1.565C2 17.712 2 17.047 2 16.242V7.759c0-.805 0-1.469.044-2.01.046-.562.145-1.079.392-1.564a4 4 0 0 1 1.748-1.748c.485-.248 1.002-.346 1.564-.392C6.29 2 6.954 2 7.758 2m8.238 13.259c-.312 0-.54-.203-.54-.559v-.747h-2.5c-.41 0-.678-.259-.678-.637 0-.246.07-.453.247-.769.444-.795 1.164-1.88 1.924-2.997.414-.615.69-.809 1.156-.809.585 0 .932.308.932.835v3.446h.444c.299 0 .479.193.479.466 0 .276-.18.465-.484.465h-.44v.747c0 .356-.223.559-.54.559m-9.458-.603c0 .374.216.59.567.59.356 0 .567-.216.567-.59V12.42h3.085v2.236c0 .374.211.59.563.59.356 0 .566-.216.566-.59V9.345c0-.374-.21-.59-.566-.59-.352 0-.563.216-.563.59v2.122H7.673V9.344c0-.374-.21-.59-.567-.59-.351 0-.567.216-.567.59z"/></svg>