<svg xmlns="http://www.w3.org/2000/svg" viewBox="0 0 16 16" class="pdsicon"><path fill-rule="evenodd" d="M6.3 3.5c0-.3.2-.5.5-.5s.5.2.5.5v9c0 .3-.2.5-.5.5s-.5-.2-.5-.5v-4h-5v4c0 .3-.2.5-.5.5s-.5-.2-.5-.5v-9c0-.3.2-.5.5-.5s.5.2.5.5v4h5v-4Zm4.1 3.4c.7-.5 1.6-.6 2.4-.5 1.6.2 2.8 1.5 2.9 3.1.1.8-.3 1.7-.9 2.4-.7.7-1.6 1.1-2.5 1.1-1.5 0-2.8-1-3.3-2.4 0-.2.1-.5.3-.6.3-.1.6 0 .7.3.4 1 1.3 1.7 2.3 1.7.7 0 1.3-.3 1.8-.9.4-.5.6-1.1.6-1.7-.1-1.1-1.1-1.9-2.1-2.1-.9-.2-1.9.2-2.5 1-.2.2-.4.3-.6.2-.2-.1-.3-.3-.3-.5l.5-4.5c0-.3.2-.5.5-.5h4.6c.3 0 .5.2.5.5s-.2.5-.5.5h-4.2l-.2 2.9Z"/></svg>