<svg xmlns="http://www.w3.org/2000/svg" viewBox="0 0 16 16" class="pdsicon"><path fill-rule="evenodd" d="M15.06 6A7.37 7.37 0 0 0 10 .94.94.94 0 0 0 9.06 0H6.94A.94.94 0 0 0 6 .94 7.37 7.37 0 0 0 .94 6a.94.94 0 0 0-.94.94v2.12c0 .52.42.94.94.94A7.36 7.36 0 0 0 6 15.06c0 .52.42.94.94.94h2.12c.52 0 .94-.42.94-.94A7.36 7.36 0 0 0 15.06 10c.52 0 .94-.42.94-.94V6.94a.94.94 0 0 0-.94-.94M10 2.34A6.02 6.02 0 0 1 13.66 6h-2.193A4.07 4.07 0 0 0 10 4.533zM7.333 1.333h1.334v2.72A4.4 4.4 0 0 0 8 4q-.339.002-.667.053zM6 2.34v2.193A4.07 4.07 0 0 0 4.533 6H2.34A6.03 6.03 0 0 1 6 2.34M1.333 7.333h2.72Q4.002 7.661 4 8q.002.339.053.667h-2.72zM6 13.66A6.02 6.02 0 0 1 2.34 10h2.193A4.07 4.07 0 0 0 6 11.467zm2.667 1.007H7.333v-2.72q.328.051.667.053.339-.002.667-.053zm-.667-4a2.666 2.666 0 1 1 0-5.334 2.666 2.666 0 1 1 0 5.334m2 2.993v-2.193A4.07 4.07 0 0 0 11.467 10h2.193A6.03 6.03 0 0 1 10 13.66m4.667-4.993h-2.72Q11.998 8.339 12 8q-.002-.339-.053-.667h2.72z"/></svg>