<svg xmlns="http://www.w3.org/2000/svg" viewBox="0 0 24 24" class="pdsicon"><path fill-rule="evenodd" d="M12.551 1.702a2 2 0 0 0-1 0 3 3 0 0 0-1 .58l-.06.06-6.91 5.34a4.8 4.8 0 0 0-1 .88 2.9 2.9 0 0 0-.48 1 4.9 4.9 0 0 0-.11 1.29v8.73a2.9 2.9 0 0 0 1.61 2.48c.368.172.765.273 1.17.3h14.46a3.2 3.2 0 0 0 1.16-.3 3 3 0 0 0 1.31-1.31c.181-.365.284-.764.3-1.17v-8.75a4.9 4.9 0 0 0-.08-1.3 2.9 2.9 0 0 0-.43-1 4.8 4.8 0 0 0-1-.85l-6.86-5.34-.08-.06a2.9 2.9 0 0 0-1-.58m-3.52 12.27v6.4h6v-6.4a2.5 2.5 0 0 0-.11-1.06.94.94 0 0 0-.43-.38 2.5 2.5 0 0 0-1.06-.11h-2.8a2.4 2.4 0 0 0-1.05.11 1 1 0 0 0-.44.43 2.5 2.5 0 0 0-.11 1.01"/></svg>