<svg xmlns="http://www.w3.org/2000/svg" viewBox="0 0 16 16" class="pdsicon"><path d="M6 14V8h4v6" opacity=".12"/><path fill-rule="evenodd" d="M7.652.89c.228-.06.468-.06.696 0 .265.073.488.248.666.388l.05.038 4.522 3.517.051.04c.252.195.473.367.638.59.144.195.252.416.318.65.074.267.074.547.074.865v4.915c0 .35 0 .654-.02.904-.022.263-.07.525-.198.778a2 2 0 0 1-.874.874 2 2 0 0 1-.778.197c-.25.02-.553.02-.905.02H4.108c-.352 0-.655 0-.905-.02a2 2 0 0 1-.778-.197 2 2 0 0 1-.874-.874 2 2 0 0 1-.197-.778c-.02-.25-.02-.553-.02-.905V6.978c-.001-.318-.001-.598.073-.865a2 2 0 0 1 .318-.65c.165-.223.386-.395.638-.59l.051-.04 4.522-3.517.05-.038c.178-.14.4-.315.666-.387m-.985 12.443h2.666V9.067a6 6 0 0 0-.007-.393h-.01a6 6 0 0 0-.383-.007H7.067a6 6 0 0 0-.393.007v.01a6 6 0 0 0-.007.383zm4 0V9.045c0-.168 0-.332-.012-.47a1.4 1.4 0 0 0-.134-.514 1.33 1.33 0 0 0-.582-.582 1.4 1.4 0 0 0-.514-.134c-.138-.012-.302-.012-.47-.012h-1.91c-.168 0-.332 0-.47.012a1.4 1.4 0 0 0-.514.134c-.25.127-.455.331-.582.582-.093.181-.122.361-.134.514-.012.138-.012.302-.012.47v4.288h-1.2c-.384 0-.632 0-.821-.016-.181-.014-.248-.04-.281-.056a.67.67 0 0 1-.292-.292c-.016-.033-.042-.1-.056-.28a11 11 0 0 1-.016-.822V7.043c0-.42.005-.503.024-.57a.7.7 0 0 1 .106-.217c.042-.057.104-.112.436-.37l4.521-3.517c.125-.097.191-.148.241-.181L8 2.184l.005.004c.05.033.116.084.24.18l4.522 3.518c.332.258.394.313.436.37a.7.7 0 0 1 .106.216c.019.068.024.15.024.571v4.824c0 .384 0 .632-.016.821-.014.181-.04.248-.056.281a.67.67 0 0 1-.292.292c-.033.017-.1.042-.28.056-.19.016-.438.016-.822.016z"/></svg>