<svg xmlns="http://www.w3.org/2000/svg" viewBox="0 0 24 24" class="pdsicon"><path d="M17.775 22.35h-11.6a5.4 5.4 0 0 1-2.56-.33 3 3 0 0 1-1.31-1.31 5.5 5.5 0 0 1-.33-2.57v-7.23a5 5 0 0 1 .11-1.39c.095-.361.258-.7.48-1a5 5 0 0 1 1-.94l6.87-5.26a3.1 3.1 0 0 1 1-.64 2 2 0 0 1 1 0 3.1 3.1 0 0 1 1.08.64l6.78 5.27a4.9 4.9 0 0 1 1.14.93 3 3 0 0 1 .48 1c.101.456.138.924.11 1.39v7.23a5.5 5.5 0 0 1-.33 2.57 3 3 0 0 1-1.36 1.31 5.4 5.4 0 0 1-2.56.33m-1.8-2h1.8c.556.046 1.115.01 1.66-.11a1 1 0 0 0 .43-.44 5.6 5.6 0 0 0 .11-1.66v-7.23q.045-.43 0-.86a.9.9 0 0 0-.16-.32 4.2 4.2 0 0 0-.65-.56l-6.82-5.27a4 4 0 0 0-.41-.3s-.16.17-.33.3l-6.78 5.27a4.2 4.2 0 0 0-.65.56 1.1 1.1 0 0 0-.16.32 4.2 4.2 0 0 0 0 .86v7.23a5.5 5.5 0 0 0 .11 1.66 1 1 0 0 0 .44.44c.541.12 1.098.157 1.65.11h1.8v-6.41a3.1 3.1 0 0 1 .22-1.5 2 2 0 0 1 .83-.92 3.3 3.3 0 0 1 1.51-.21h2.8a3.3 3.3 0 0 1 1.51.21 2 2 0 0 1 .87.88c.198.474.273.99.22 1.5zm-6 0h4v-6.41a5 5 0 0 0 0-.64c0 .05-.3.05-.58.05h-3.47v.58z"/></svg>