<svg xmlns="http://www.w3.org/2000/svg" viewBox="0 0 16 16" class="pdsicon"><path fill-rule="evenodd" d="M7.588.483c.265-.2.598-.2.864 0l7.312 5.994c.266.2.333.666.067.932-.2.266-.665.333-.931.067L7.986 1.882l-6.913 5.66c-.266.2-.731.2-.93-.066-.2-.267-.2-.733.066-.933zM5.992 11.005c0-.4.266-.666.665-.666h2.659c.399 0 .665.266.665.666v3.33h2.659V8.34c0-.4.266-.666.665-.666s.664.267.664.666v6.66c0 .4-.265.666-.664.666H2.668c-.399 0-.664-.267-.664-.666V8.34c0-.4.265-.666.664-.666.4 0 .665.267.665.666v5.994h2.66zm1.33 3.33h1.33V11.67h-1.33z"/></svg>