<svg xmlns="http://www.w3.org/2000/svg" viewBox="0 0 24 24" class="pdsicon"><path d="M9 21v-9h6v9" opacity=".12"/><path fill-rule="evenodd" d="M11.477 1.336a2 2 0 0 1 1.046 0c.397.108.732.37.999.58l.074.059L20.38 7.25l.077.06c.377.292.709.55.956.884a3 3 0 0 1 .477.976c.112.4.112.82.111 1.297v7.372c0 .527 0 .982-.03 1.356-.033.395-.104.789-.297 1.167a3 3 0 0 1-1.311 1.311c-.378.193-.772.264-1.167.296-.375.031-.83.031-1.356.031H6.16c-.527 0-.981 0-1.356-.03-.395-.033-.789-.104-1.167-.297a3 3 0 0 1-1.311-1.311c-.193-.378-.264-.772-.296-1.167C2 18.82 2 18.365 2 17.838v-7.371c0-.477-.001-.897.111-1.297a3 3 0 0 1 .477-.976c.247-.334.58-.592.956-.884l.077-.06 6.783-5.275.074-.059c.267-.21.602-.472 1-.58M10 20h4v-6.4c0-.296 0-.459-.01-.575l-.001-.014h-.014A8 8 0 0 0 13.4 13h-2.8c-.296 0-.459 0-.575.01l-.014.001v.014c-.01.116-.011.278-.011.575zm6 0v-6.432c0-.252 0-.498-.017-.706a2 2 0 0 0-.201-.77 2 2 0 0 0-.874-.874 2 2 0 0 0-.77-.201C13.93 11 13.684 11 13.432 11h-2.864c-.252 0-.498 0-.706.017a2 2 0 0 0-.77.201 2 2 0 0 0-.874.874 2 2 0 0 0-.201.77 9 9 0 0 0-.017.706V20H6.2c-.577 0-.949 0-1.232-.024-.272-.022-.373-.06-.422-.085a1 1 0 0 1-.437-.437c-.025-.05-.063-.15-.085-.422C4 18.75 4 18.377 4 17.8v-7.235c0-.63.009-.755.037-.856a1 1 0 0 1 .159-.325c.063-.085.155-.168.653-.556l6.783-5.275a7 7 0 0 1 .36-.271L12 3.277l.007.005c.075.05.175.126.361.271l6.783 5.275c.498.388.59.471.653.556a1 1 0 0 1 .159.325c.028.1.037.225.037.856V17.8c0 .577 0 .949-.024 1.232-.022.272-.06.372-.085.422a1 1 0 0 1-.437.437c-.05.025-.15.063-.422.085C18.75 20 18.377 20 17.8 20z"/></svg>