<svg xmlns="http://www.w3.org/2000/svg" viewBox="0 0 24 24" class="pdsicon"><path fill-rule="evenodd" d="M7.759 2h8.482c.805 0 1.47 0 2.01.044.563.046 1.08.145 1.565.392a4 4 0 0 1 1.748 1.748c.247.485.346 1.002.392 1.564C22 6.29 22 6.954 22 7.758v8.483c0 .805 0 1.47-.044 2.01-.046.563-.145 1.08-.392 1.565a4 4 0 0 1-1.748 1.748c-.485.247-1.002.346-1.564.392-.541.044-1.206.044-2.01.044H6.893c-.27 0-.536 0-.75-.019l-.025-.002q-.195-.01-.37-.023c-.563-.046-1.08-.145-1.565-.392a4 4 0 0 1-1.748-1.748c-.247-.485-.346-1.002-.392-1.564C2 17.71 2 17.046 2 16.242V7.758c0-.805 0-1.47.044-2.01.046-.563.145-1.08.392-1.565a4 4 0 0 1 1.748-1.748c.485-.247 1.002-.346 1.564-.392C6.29 2 6.954 2 7.758 2M7.8 20h-.386l8.162-8.161c.21-.21.325-.324.414-.4l.01-.009.01.009c.09.076.205.19.414.4L20 15.414v.786c0 .857 0 1.439-.038 1.889-.035.438-.1.663-.18.819a2 2 0 0 1-.874.874c-.156.08-.38.145-.819.18-.45.037-1.032.038-1.889.038zM20 12.586l-2.184-2.184a9 9 0 0 0-.511-.488 2 2 0 0 0-.687-.402 2 2 0 0 0-1.236 0c-.29.094-.512.254-.687.402-.159.135-.332.31-.51.488l-8.553 8.551c-.19.192-.379.38-.517.544-.042.051-.1.122-.158.21a2 2 0 0 1-.739-.799c-.08-.156-.145-.38-.18-.819C4 17.639 4 17.057 4 16.2V7.8c0-.857 0-1.439.038-1.889.035-.438.1-.663.18-.819a2 2 0 0 1 .874-.874c.156-.08.38-.145.819-.18C6.361 4 6.943 4 7.8 4h8.4c.857 0 1.439 0 1.889.038.438.035.663.1.819.18a2 2 0 0 1 .874.874c.08.156.145.38.18.819C20 6.361 20 6.943 20 7.8zM8.5 7.5a1 1 0 1 0 0 2 1 1 0 0 0 0-2m-3 1a3 3 0 1 1 6 0 3 3 0 0 1-6 0"/></svg>