<svg xmlns="http://www.w3.org/2000/svg" viewBox="0 0 24 24" class="pdsicon"><g opacity=".12"><path d="m6.366 19.634 8.503-8.503c.396-.396.594-.594.822-.668a1 1 0 0 1 .618 0c.228.074.426.272.822.668L21 15v1.2c0 1.68 0 2.52-.327 3.162a3 3 0 0 1-1.311 1.311C18.72 21 17.88 21 16.2 21H6.931c-.605 0-.908 0-1.049-.12a.5.5 0 0 1-.173-.42c.014-.183.228-.397.657-.826M8.5 10.5a2 2 0 1 0 0-4 2 2 0 0 0 0 4"/></g><path d="m20 15.414-3.576-3.575a8 8 0 0 0-.414-.4L16 11.43l-.01.008a8 8 0 0 0-.414.4l-8.16 8.159L7.8 20h8.4l1.097-.005c.309-.005.567-.014.792-.032.438-.036.663-.101.82-.18a2 2 0 0 0 .873-.875c.08-.156.145-.38.18-.82.038-.45.038-1.031.038-1.888zM9.5 8.5a1 1 0 1 0-2 0 1 1 0 0 0 2 0M20 7.8c0-.857 0-1.439-.037-1.889-.036-.438-.101-.663-.18-.82a2 2 0 0 0-.875-.873c-.156-.08-.38-.145-.82-.18C17.639 4 17.058 4 16.2 4H7.8c-.857 0-1.439 0-1.889.037-.438.036-.663.101-.82.18a2 2 0 0 0-.873.875c-.08.156-.145.38-.18.82C4 6.361 4 6.942 4 7.8v8.4c0 .857 0 1.439.037 1.889.036.438.101.663.18.82a2 2 0 0 0 .74.797c.058-.088.116-.158.158-.209.144-.172.343-.37.543-.57l8.503-8.503c.187-.186.368-.37.534-.51.175-.148.397-.308.687-.402a2 2 0 0 1 1.084-.042l.152.042.205.082c.193.091.35.209.482.32.166.14.348.324.534.51L20 12.585zm-8.5.7a3 3 0 1 1-6 0 3 3 0 0 1 6 0M22 16.2l-.005 1.128q-.007.512-.039.924c-.046.562-.144 1.08-.392 1.564a4 4 0 0 1-1.748 1.749c-.485.247-1.002.345-1.564.391q-.412.033-.924.04L16.2 22H6.932c-.283 0-.565.001-.788-.019q-.02-.001-.04-.004-.186-.009-.356-.02c-.562-.047-1.08-.145-1.564-.393a4 4 0 0 1-1.748-1.748c-.248-.485-.346-1.002-.392-1.564C1.999 17.702 2 17.024 2 16.2V7.8c0-.824-.001-1.502.044-2.052.046-.562.144-1.08.392-1.564a4 4 0 0 1 1.748-1.748c.485-.248 1.002-.346 1.564-.392C6.298 1.999 6.976 2 7.8 2h8.4c.824 0 1.502-.001 2.052.044.562.046 1.08.144 1.564.392a4 4 0 0 1 1.749 1.748c.247.485.345 1.002.391 1.564.045.55.044 1.228.044 2.052z"/></svg>