<svg xmlns="http://www.w3.org/2000/svg" viewBox="0 0 16 16" class="pdsicon"><g fill-rule="evenodd" clip-path="url(#a)"><path d="M11.333 6c.2 0 .4.067.534.2l4 4.667c.266.266.2.733-.067.933-.267.267-.733.2-.933-.067l-3.534-4.066L7.2 12.4c-.133.2-.333.267-.533.267a.6.6 0 0 1-.467-.2l-2.133-2.134L1.2 13.8c-.267.267-.667.333-.933.067C0 13.6-.067 13.2.2 12.933l3.333-4c.067-.2.267-.266.467-.266s.4.066.533.2L6.667 11l4.2-4.8c.066-.133.266-.2.466-.2"/><path d="M0 2c0-.4.267-.667.667-.667h14.666c.4 0 .667.267.667.667v12c0 .4-.267.667-.667.667H.667C.267 14.667 0 14.4 0 14zm1.333.667v10.666h13.334V2.667z"/><path d="M6 4.667c-.4 0-.667.266-.667.666S5.6 6 6 6s.667-.267.667-.667S6.4 4.667 6 4.667m-2 .666c0-1.133.867-2 2-2s2 .867 2 2-.867 2-2 2-2-.866-2-2"/></g><defs><clipPath id="a"><path d="M0 0h16v16H0z"/></clipPath></defs></svg>