<svg xmlns="http://www.w3.org/2000/svg" viewBox="0 0 24 24" class="pdsicon"><path d="M12 7.35c3.45 0 6.9 1.35 9.3 3.75.15.15.45.15.75 0l1.8-1.8c.15-.15.15-.3.15-.45s0-.3-.15-.3c-6.6-6.45-17.1-6.45-23.7 0-.15 0-.15.15-.15.3s0 .3.15.45l1.8 1.8c.15.15.45.15.75 0C5.1 8.7 8.55 7.35 12 7.35"/><path d="M12 12.9c1.95 0 3.75.75 5.25 2.1.15.15.45.15.75 0l1.8-1.8c.15-.15.15-.3.15-.3 0-.15 0-.3-.15-.3-4.35-4.05-10.95-4.05-15.3 0-.15-.15-.3 0-.3.15s0 .3.15.3L6.15 15c.15.15.45.15.75 0 1.35-1.35 3.3-2.1 5.1-2.1"/><path d="M15.6 16.95c.15 0 .15-.15.15-.3s0-.3-.15-.3a5.083 5.083 0 0 0-6.9 0c-.15 0-.15.15-.15.3 0 0 0 .15.15.3l3.15 3.3c0 .15.15.15.3.15.064 0 .1 0 .133-.011.044-.016.08-.053.167-.139z"/></svg>