<svg xmlns="http://www.w3.org/2000/svg" viewBox="0 0 24 24" class="pdsicon"><path d="M18.45 17.7h-15C1.5 17.7 0 16.05 0 14.25v-4.5C0 7.8 1.5 6.3 3.45 6.3H18.3c1.95 0 3.45 1.5 3.45 3.45v4.35c.15 1.95-1.35 3.6-3.3 3.6m-15-10.5c-1.5 0-2.7 1.2-2.7 2.7v4.35c0 1.5 1.2 2.7 2.7 2.7H18.3c1.5 0 2.7-1.2 2.7-2.7v-4.5c0-1.5-1.2-2.7-2.7-2.7H3.45zM22.8 10.65v3.75c.75-.3 1.2-1.05 1.2-1.8 0-.9-.45-1.65-1.2-1.95"/><path d="M1.8 9.75c0-.9.75-1.8 1.8-1.8h14.85c.9 0 1.8.75 1.8 1.8v4.35c0 .9-.75 1.8-1.8 1.8h-15c-.9 0-1.8-.75-1.8-1.8V9.75z"/></svg>