<svg xmlns="http://www.w3.org/2000/svg" viewBox="0 0 24 24" class="pdsicon"><path d="M21.3 4.05c-.75 0-1.35.6-1.35 1.35v13.35c0 .75.6 1.35 1.35 1.35h1.35c.75 0 1.35-.6 1.35-1.35V5.4c0-.75-.6-1.35-1.35-1.35zM14.7 6.6c-.75 0-1.35.6-1.35 1.35V18.6c0 .75.6 1.35 1.35 1.35h1.35c.75 0 1.35-.6 1.35-1.35V7.95c0-.75-.6-1.35-1.35-1.35zM6.6 12.6c0-.75.6-1.35 1.35-1.35H9.3c.75 0 1.35.6 1.35 1.35v6c0 .75-.6 1.35-1.35 1.35H7.95c-.75 0-1.35-.6-1.35-1.35zM1.35 14.7C.6 14.7 0 15.3 0 16.05v2.7c0 .75.6 1.35 1.35 1.35H2.7c.75 0 1.35-.6 1.35-1.35v-2.7c0-.75-.6-1.35-1.35-1.35z"/></svg>