<svg xmlns="http://www.w3.org/2000/svg" viewBox="0 0 24 24" class="pdsicon"><path fill-rule="evenodd" d="M8.277 1h7.446c.12 0 .261 0 .387.01.145.012.353.042.571.153a1.5 1.5 0 0 1 .656.656c.11.218.141.426.153.571.01.125.01.268.01.387v2.446c0 .12 0 .261-.01.387a1.5 1.5 0 0 1-.153.571 1.5 1.5 0 0 1-.656.656 1.5 1.5 0 0 1-.571.153l-.11.006v3.505c0 .605.008.724.034.822q.046.17.148.316c.059.083.145.165.61.552l3.697 3.081.072.06c.352.293.662.55.892.878a3 3 0 0 1 .444.947c.104.387.104.79.103 1.248v1.179c0 .38 0 .708-.058 1.001a3 3 0 0 1-2.357 2.357c-.293.059-.62.058-1.001.058H5.416c-.38 0-.708 0-1.001-.058a3 3 0 0 1-2.357-2.357c-.059-.293-.058-.62-.058-1.001v-1.179c0-.458-.001-.861.103-1.248a3 3 0 0 1 .444-.947c.23-.327.54-.585.892-.878l.072-.06 3.697-3.08c.465-.388.552-.47.61-.553q.101-.145.148-.316c.026-.098.034-.217.034-.822V6.996l-.11-.006a1.5 1.5 0 0 1-.571-.153 1.5 1.5 0 0 1-.655-.656 1.5 1.5 0 0 1-.154-.571c-.01-.125-.01-.268-.01-.387V2.777c0-.12 0-.262.01-.387.012-.145.042-.353.154-.571a1.5 1.5 0 0 1 .655-.656c.218-.11.426-.141.571-.153.125-.01.268-.01.387-.01M10 7v3.595c0 .458.001.861-.103 1.248a3 3 0 0 1-.444.947c-.23.327-.54.585-.892.878l-.072.06L5.762 16h12.476l-2.727-2.272-.072-.06c-.352-.293-.662-.55-.892-.878a3 3 0 0 1-.444-.947c-.104-.387-.104-.79-.103-1.248V7zM8.5 5V3h7v2zM20 19.235c-.002-.29-.008-.372-.02-.43a1 1 0 0 0-.785-.786c-.072-.014-.182-.019-.695-.019h-13c-.513 0-.623.005-.695.02a1 1 0 0 0-.786.785c-.011.058-.017.14-.018.43.001.341.006.592.023.797.022.272.06.372.085.422a1 1 0 0 0 .437.437c.05.025.15.063.422.085C5.25 21 5.623 21 6.2 21h11.6c.577 0 .949 0 1.232-.024.272-.022.373-.06.422-.085a1 1 0 0 0 .437-.437c.025-.05.063-.15.085-.422.017-.205.022-.456.023-.797"/></svg>