<svg xmlns="http://www.w3.org/2000/svg" viewBox="0 0 24 24" class="pdsicon"><path fill-rule="evenodd" d="M4.568 2h3.864c.252 0 .498 0 .706.017.229.019.499.063.77.201a2 2 0 0 1 .874.874c.138.271.182.541.201.77.017.208.017.454.017.706v3.864c0 .252 0 .498-.017.706a2 2 0 0 1-.201.77 2 2 0 0 1-.874.874 2 2 0 0 1-.77.201C8.93 11 8.684 11 8.432 11H4.568c-.252 0-.498 0-.706-.017a2 2 0 0 1-.77-.201 2 2 0 0 1-.874-.874 2 2 0 0 1-.201-.77C2 8.93 2 8.684 2 8.432V4.568c0-.252 0-.498.017-.706.019-.229.063-.499.201-.77a2 2 0 0 1 .874-.874c.271-.138.541-.182.77-.201C4.07 2 4.316 2 4.568 2m-.557 2.011v.014C4 4.14 4 4.303 4 4.6v3.8a8 8 0 0 0 .011.589h.014C4.14 9 4.303 9 4.6 9h3.8a8 8 0 0 0 .589-.011v-.014C9 8.86 9 8.697 9 8.4V4.6a8 8 0 0 0-.011-.589h-.014A8 8 0 0 0 8.4 4H4.6a8 8 0 0 0-.589.011M15.568 2h3.864c.252 0 .498 0 .706.017.229.019.499.063.77.201a2 2 0 0 1 .874.874c.138.271.182.541.201.77.017.208.017.454.017.706v3.864c0 .252 0 .498-.017.706a2 2 0 0 1-.201.77 2 2 0 0 1-.874.874 2 2 0 0 1-.77.201c-.208.017-.454.017-.706.017h-3.864c-.252 0-.498 0-.706-.017a2 2 0 0 1-.77-.201 2 2 0 0 1-.874-.874 2 2 0 0 1-.201-.77C13 8.93 13 8.684 13 8.432V4.568c0-.252 0-.498.017-.706.019-.229.063-.499.201-.77a2 2 0 0 1 .874-.874c.271-.138.541-.182.77-.201C15.07 2 15.316 2 15.568 2m-.557 2.011v.014C15 4.14 15 4.303 15 4.6v3.8c0 .297 0 .459.01.575l.001.014h.014c.116.01.278.011.575.011h3.8a8 8 0 0 0 .589-.011v-.014C20 8.86 20 8.697 20 8.4V4.6a8 8 0 0 0-.012-.589h-.013A8 8 0 0 0 19.4 4h-3.8a8 8 0 0 0-.589.011M4.568 13h3.864c.252 0 .498 0 .706.017.229.019.499.063.77.201a2 2 0 0 1 .874.874c.138.271.182.541.201.77.017.208.017.454.017.706v3.864c0 .252 0 .498-.017.706a2 2 0 0 1-.201.77 2 2 0 0 1-.874.874 2 2 0 0 1-.77.201C8.93 22 8.684 22 8.432 22H4.568c-.252 0-.498 0-.706-.017a2 2 0 0 1-.77-.201 2 2 0 0 1-.874-.874 2 2 0 0 1-.201-.77C2 19.93 2 19.684 2 19.432v-3.864c0-.252 0-.498.017-.706.019-.229.063-.499.201-.77a2 2 0 0 1 .874-.874c.271-.138.541-.182.77-.201C4.07 13 4.316 13 4.568 13m-.557 2.011v.014C4 15.14 4 15.303 4 15.6v3.8a8 8 0 0 0 .011.588l.014.002c.116.01.278.01.575.01h3.8a8 8 0 0 0 .589-.012v-.013C9 19.86 9 19.696 9 19.4v-3.8a8 8 0 0 0-.011-.588l-.014-.002A8 8 0 0 0 8.4 15H4.6a8 8 0 0 0-.589.011M15.568 13h3.864c.252 0 .498 0 .706.017.229.019.499.063.77.201a2 2 0 0 1 .874.874c.138.271.182.541.201.77.017.208.017.454.017.706v3.864c0 .252 0 .498-.017.706a2 2 0 0 1-.201.77 2 2 0 0 1-.874.874 2 2 0 0 1-.77.201c-.208.017-.454.017-.706.017h-3.864c-.252 0-.498 0-.706-.017a2 2 0 0 1-.77-.201 2 2 0 0 1-.874-.874 2 2 0 0 1-.201-.77C13 19.93 13 19.684 13 19.432v-3.864c0-.252 0-.498.017-.706.019-.229.063-.499.201-.77a2 2 0 0 1 .874-.874c.271-.138.541-.182.77-.201.208-.017.454-.017.706-.017m-.557 2.011v.014c-.01.116-.011.278-.011.575v3.8c0 .297 0 .459.01.575l.001.013.014.002c.116.01.278.01.575.01h3.8a8 8 0 0 0 .589-.012v-.013c.01-.116.011-.279.011-.575v-3.8a8 8 0 0 0-.012-.588l-.013-.002A8 8 0 0 0 19.4 15h-3.8a8 8 0 0 0-.589.011"/></svg>