<svg xmlns="http://www.w3.org/2000/svg" viewBox="0 0 16 16" class="pdsicon"><g clip-path="url(#a)"><path fill-rule="evenodd" d="M1.333 2.667a.667.667 0 1 1 1.334 0 .667.667 0 0 1-1.334 0m.667-2a2 2 0 1 0 0 4 2 2 0 0 0 0-4M1.333 8a.667.667 0 1 1 1.334 0 .667.667 0 0 1-1.334 0M2 6a2 2 0 1 0 0 4 2 2 0 0 0 0-4m0 6.667A.667.667 0 1 0 2 14a.667.667 0 0 0 0-1.333m-2 .666a2 2 0 1 1 4 0 2 2 0 0 1-4 0M6 2a.667.667 0 0 0 0 1.333h9.333a.667.667 0 1 0 0-1.333zm-.667 6c0-.368.299-.667.667-.667h9.333a.667.667 0 1 1 0 1.334H6A.667.667 0 0 1 5.333 8M6 12.667A.667.667 0 0 0 6 14h9.333a.667.667 0 1 0 0-1.333z"/></g><defs><clipPath id="a"><path d="M0 0h16v16H0z"/></clipPath></defs></svg>