<svg xmlns="http://www.w3.org/2000/svg" viewBox="0 0 24 24" class="pdsicon"><path fill-rule="evenodd" d="M8 6a1 1 0 0 1 1-1h12a1 1 0 1 1 0 2H9a1 1 0 0 1-1-1m0 6a1 1 0 0 1 1-1h12a1 1 0 1 1 0 2H9a1 1 0 0 1-1-1m0 6a1 1 0 0 1 1-1h12a1 1 0 1 1 0 2H9a1 1 0 0 1-1-1M2.879 7.386v.528h2.346v-.528l-.548-.047c-.1-.007-.107-.027-.107-.134V4.064H2.966l-.074.548.581.12c.067.02.087.06.087.14v2.333c0 .1-.013.127-.107.134zm-.348 6.57v-.622l.896-.875.059-.057c.633-.614.903-.877.903-1.246 0-.248-.12-.428-.474-.428-.368 0-.522.12-.522.595l-.909-.08c.007-1.063.816-1.237 1.517-1.237 1.036 0 1.404.44 1.404 1.07 0 .626-.432 1.04-.918 1.505l-.004.005-.756.722h.983c.067 0 .094-.014.107-.08l.094-.528h.708v1.256zm3.138 4.999c0-.602-.314-.942-.882-1.03V17.9c.42-.127.768-.481.768-1.043 0-.715-.394-1.11-1.423-1.11-.702 0-1.497.181-1.497 1.237l.915.08c0-.474.174-.594.535-.594.374 0 .488.206.488.46 0 .428-.26.662-.742.722l-.328.04v.669c.201-.034.328-.047.495-.047.414 0 .669.167.669.575 0 .468-.321.601-.696.601-.468 0-.748-.193-1.002-.44l-.535.588c.341.374.942.614 1.617.614.956 0 1.618-.414 1.618-1.296"/></svg>