<svg xmlns="http://www.w3.org/2000/svg" viewBox="0 0 16 16" class="pdsicon"><g clip-path="url(#a)"><path fill-rule="evenodd" d="M3.13 6.26c0-3.096 2.471-4.869 4.87-4.869s4.87 1.773 4.87 4.87c0 .685-.288 1.557-.792 2.531-.497.96-1.167 1.948-1.85 2.848A36 36 0 0 1 8 14.294l-.352-.387a36 36 0 0 1-1.876-2.266c-.683-.9-1.353-1.889-1.85-2.848-.504-.974-.792-1.846-.792-2.531m4.375 9.533L8 15.304l.495.49a.696.696 0 0 1-.99-.001m0 0L8 15.304l.495.489.005-.005.013-.014.05-.05.181-.19a37.71 37.71 0 0 0 2.593-3.053c.709-.934 1.43-1.993 1.976-3.05.54-1.04.948-2.15.948-3.17C14.26 2.262 11.027 0 8 0S1.74 2.262 1.74 6.26c0 1.02.408 2.13.947 3.172.546 1.056 1.267 2.115 1.976 3.05a38 38 0 0 0 2.775 3.242l.049.05.013.014zm-.896-9.532a1.391 1.391 0 1 1 2.782 0 1.391 1.391 0 0 1-2.782 0M8 3.478a2.783 2.783 0 1 0 0 5.565 2.783 2.783 0 0 0 0-5.565"/></g><defs><clipPath id="a"><path d="M0 0h16v16H0z"/></clipPath></defs></svg>