<svg xmlns="http://www.w3.org/2000/svg" viewBox="0 0 24 24" class="pdsicon"><path fill-rule="evenodd" d="M12 3a7 7 0 0 0-7 7c0 1.892.853 3.678 2.292 5.547 1.215 1.578 2.77 3.12 4.44 4.776l.268.266.268-.266c1.67-1.656 3.225-3.198 4.44-4.776C18.147 13.678 19 11.892 19 10a7 7 0 0 0-7-7m-9 7a9 9 0 0 1 18 0c0 2.526-1.147 4.74-2.708 6.767-1.304 1.694-2.974 3.349-4.641 5.002q-.474.469-.944.938a1 1 0 0 1-1.414 0q-.47-.469-.944-.938c-1.668-1.653-3.337-3.308-4.641-5.002C4.147 14.74 3 12.527 3 10m9-2a2 2 0 1 0 0 4 2 2 0 0 0 0-4m-4 2a4 4 0 1 1 8 0 4 4 0 0 1-8 0"/></svg>