<svg xmlns="http://www.w3.org/2000/svg" viewBox="0 0 24 24" class="pdsicon"><path d="M9.853 9.192v3.779a3.24 3.24 0 0 0-2.772.534 3.308 3.308 0 0 0-1.322 2.512 3 3 0 0 0 .865 2.3 2.95 2.95 0 0 0 2.29.856 2.92 2.92 0 0 0 2.31-.865 2.97 2.97 0 0 0 .844-2.333V1h3.71c.63 3.955 2.593 4.873 5.222 5.297v3.79a11.1 11.1 0 0 1-5.118-1.742v7.487c0 3.391-1.992 7.168-6.94 7.168a6.9 6.9 0 0 1-2.7-.56 7 7 0 0 1-2.273-1.572 7 7 0 0 1-1.49-2.336 7.1 7.1 0 0 1-.477-2.736c.03-.973.263-1.93.686-2.805a6.9 6.9 0 0 1 1.767-2.274 6.79 6.79 0 0 1 5.398-1.524"/></svg>