<svg xmlns="http://www.w3.org/2000/svg" viewBox="0 0 24 24" class="pdsicon"><path d="M21.423 10.005a5.48 5.48 0 0 0-.471-4.502 5.54 5.54 0 0 0-5.97-2.66A5.48 5.48 0 0 0 10.846 1 5.54 5.54 0 0 0 5.56 4.838a5.48 5.48 0 0 0-3.665 2.658 5.545 5.545 0 0 0 .682 6.5 5.48 5.48 0 0 0 .47 4.502 5.54 5.54 0 0 0 5.97 2.66A5.48 5.48 0 0 0 13.153 23a5.54 5.54 0 0 0 5.29-3.84 5.48 5.48 0 0 0 3.665-2.66 5.545 5.545 0 0 0-.684-6.497zm-8.27 11.557a4.1 4.1 0 0 1-2.64-.954c.035-.018.093-.05.13-.073l4.382-2.53a.71.71 0 0 0 .36-.624v-6.176l1.851 1.069q.03.017.036.05v5.115a4.13 4.13 0 0 1-4.119 4.123M4.295 17.78a4.1 4.1 0 0 1-.491-2.762l.13.077 4.38 2.53c.223.13.498.13.72 0l5.349-3.088v2.138a.07.07 0 0 1-.027.057l-4.428 2.557a4.13 4.13 0 0 1-5.632-1.51M3.142 8.216A4.1 4.1 0 0 1 5.288 6.41l-.002.151v5.06a.71.71 0 0 0 .36.624l5.348 3.087-1.852 1.07a.07.07 0 0 1-.062.005l-4.43-2.559a4.13 4.13 0 0 1-1.508-5.63m15.212 3.54-5.348-3.088L14.858 7.6a.07.07 0 0 1 .062-.006l4.43 2.557a4.124 4.124 0 0 1-.638 7.44V12.38a.71.71 0 0 0-.357-.623m1.843-2.773-.13-.078-4.38-2.53a.71.71 0 0 0-.72 0L9.617 9.463V7.325a.07.07 0 0 1 .026-.057l4.429-2.555a4.122 4.122 0 0 1 6.122 4.27zm-11.585 3.81-1.853-1.068a.07.07 0 0 1-.035-.051V6.559a4.124 4.124 0 0 1 6.761-3.166l-.13.073-4.38 2.53a.71.71 0 0 0-.36.623zm1.005-2.168L12 9.25l2.382 1.375v2.75L12 14.75l-2.383-1.375z"/></svg>