<svg xmlns="http://www.w3.org/2000/svg" viewBox="0 0 24 24" class="pdsicon"><path d="M21.458 6.213 18.442 4.43 15.29 2.649c-2.056-1.234-4.66.274-4.66 2.604v.411c0 .274.136.411.273.549l1.371.822c.548.274 1.097 0 1.097-.548v-.96c0-.411.41-.685.822-.411l5.757 3.29a.642.642 0 0 1 0 1.096l-2.878 1.645-2.879 1.508c-.411.137-.822-.137-.822-.548v-.412c0-2.467-2.605-3.975-4.66-2.741l-3.153 1.782-3.016 1.782a3.087 3.087 0 0 0 0 5.346l3.016 1.782 3.152 1.781c2.056 1.097 4.66-.41 4.66-2.74v-.412c0-.274-.136-.411-.273-.548l-1.371-.823c-.548-.274-1.097 0-1.097.548v.96c0 .411-.41.685-.822.411l-5.757-3.29c-.274-.137-.274-.685.137-.96l5.757-3.289c.274-.137.685.137.685.548v.412c0 2.33 2.605 3.838 4.66 2.604l3.153-1.782 3.016-1.782c2.056-.96 2.056-3.975 0-5.071"/></svg>