<svg xmlns="http://www.w3.org/2000/svg" viewBox="0 0 24 24" class="pdsicon"><path d="M23 12.067c0-2.115-.603-4.186-1.736-5.967a11 11 0 0 0-4.66-4.084 10.94 10.94 0 0 0-11.75 1.637 11.07 11.07 0 0 0-3.38 5.204 11.13 11.13 0 0 0-.06 6.217 11.1 11.1 0 0 0 3.28 5.269A10.97 10.97 0 0 0 10.282 23v-7.734H7.488v-3.2h2.793V9.629c0-2.773 1.643-4.306 4.155-4.306a17 17 0 0 1 2.463.216v2.724H15.51a1.58 1.58 0 0 0-1.175.315 1.6 1.6 0 0 0-.617 1.414v2.076h3.048l-.488 3.2h-2.567V23a10.98 10.98 0 0 0 6.65-3.742A11.1 11.1 0 0 0 23 12.067"/></svg>