<svg xmlns="http://www.w3.org/2000/svg" viewBox="0 0 24 24" class="pdsicon"><path d="M22.594 18.442c.718-.36.307-.564.102-.718-3.847-1.847-4.463-4.72-4.514-4.925-.052-.256-.052-.462.205-.77.308-.256 1.488-.974 1.847-1.23.564-.411.82-.77.615-1.283-.102-.308-.41-.41-.77-.41h-.307c-.616.153-1.18.461-1.539.512-.051.052-.103.052-.154.052-.154 0-.205-.103-.205-.308.051-.667.103-2 0-3.232-.103-1.693-.667-2.514-1.334-3.232C16.232 2.54 14.796 1 11.974 1 9.204 1 7.768 2.539 7.46 2.898c-.667.718-1.231 1.54-1.334 3.232-.154 1.231-.051 2.565 0 3.232 0 .205-.051.308-.256.308h-.103c-.36-.103-.923-.41-1.539-.565H3.92c-.359 0-.667.103-.77.462-.204.462.052.872.616 1.231.36.257 1.54 1.026 1.847 1.283.257.256.257.462.205.718-.051.205-.667 3.078-4.514 4.925-.205.154-.616.359.103.718 1.026.616 1.744.564 2.308.872.462.308.205.975.513 1.231.41.257 1.642-.051 3.232.462 1.334.462 2.155 1.693 4.566 1.693 2.36 0 3.18-1.231 4.514-1.693 1.59-.513 2.822-.205 3.232-.462.308-.256.051-.923.513-1.18.564-.359 1.282-.307 2.308-.923"/></svg>