<svg xmlns="http://www.w3.org/2000/svg" viewBox="0 0 24 24" class="pdsicon"><path fill-rule="evenodd" d="M12 2.982c2.937 0 3.285.011 4.445.064a6.1 6.1 0 0 1 2.042.379 3.4 3.4 0 0 1 1.265.823 3.4 3.4 0 0 1 .823 1.265 6.1 6.1 0 0 1 .379 2.042c.053 1.16.064 1.508.064 4.445s-.011 3.285-.064 4.445a6.1 6.1 0 0 1-.379 2.042 3.64 3.64 0 0 1-2.088 2.088 6.1 6.1 0 0 1-2.042.379c-1.16.053-1.508.064-4.445.064s-3.285-.011-4.445-.064a6.1 6.1 0 0 1-2.042-.379 3.4 3.4 0 0 1-1.265-.823 3.4 3.4 0 0 1-.823-1.265 6.1 6.1 0 0 1-.379-2.042c-.053-1.16-.064-1.508-.064-4.445s.011-3.285.064-4.445a6.1 6.1 0 0 1 .379-2.042 3.4 3.4 0 0 1 .823-1.265 3.4 3.4 0 0 1 1.265-.823 6.1 6.1 0 0 1 2.042-.379c1.16-.053 1.508-.064 4.445-.064M12 1c-2.987 0-3.362.013-4.535.066a8.1 8.1 0 0 0-2.67.511A5.63 5.63 0 0 0 1.577 4.8a8.1 8.1 0 0 0-.511 2.67C1.013 8.638 1 9.013 1 12s.013 3.362.066 4.535c.019.912.192 1.815.511 2.67A5.63 5.63 0 0 0 4.8 22.423c.855.32 1.758.492 2.67.511C8.638 22.987 9.013 23 12 23s3.362-.013 4.535-.066a8.1 8.1 0 0 0 2.67-.511 5.63 5.63 0 0 0 3.218-3.223c.32-.855.492-1.758.511-2.67.053-1.168.066-1.543.066-4.53s-.013-3.362-.066-4.535a8.1 8.1 0 0 0-.511-2.67A5.63 5.63 0 0 0 19.2 1.577a8.1 8.1 0 0 0-2.67-.511C15.362 1.013 14.987 1 12 1m0 5.351a5.65 5.65 0 1 0 0 11.298 5.65 5.65 0 0 0 0-11.298m0 9.316a3.667 3.667 0 1 1 0-7.335 3.667 3.667 0 0 1 0 7.335m7.192-9.539a1.32 1.32 0 1 1-2.64 0 1.32 1.32 0 0 1 2.64 0"/></svg>