<svg xmlns="http://www.w3.org/2000/svg" viewBox="0 0 24 24" class="pdsicon"><path d="M22.817 7.6s-.184-1.558-.917-2.2c-.825-.917-1.742-.917-2.2-.917C16.583 4.3 12 4.3 12 4.3s-4.583 0-7.7.183c-.458.092-1.375.092-2.2.917-.642.642-.917 2.2-.917 2.2S1 9.342 1 11.175v1.65c0 1.742.183 3.575.183 3.575s.184 1.558.917 2.2c.825.917 1.925.825 2.383.917C6.225 19.7 12 19.7 12 19.7s4.583 0 7.7-.275c.458-.092 1.375-.092 2.2-.917.642-.641.917-2.2.917-2.2S23 14.567 23 12.733v-1.65c0-1.741-.183-3.483-.183-3.483M9.708 14.842V8.7l5.959 3.117z"/></svg>