<svg xmlns="http://www.w3.org/2000/svg" viewBox="0 0 24 24" class="pdsicon"><path d="M22.083 1H1.917C1.367 1 1 1.367 1 1.917v20.166c0 .55.367.917.917.917h20.166c.55 0 .917-.367.917-.917V1.917c0-.55-.367-.917-.917-.917M4.3 19.792V9.25h3.3v10.542zM5.858 7.783c-1.008 0-1.925-.825-1.925-1.925 0-1.008.825-1.925 1.925-1.925 1.009 0 1.925.825 1.925 1.925s-.825 1.925-1.925 1.925m13.934 12.009h-3.3v-5.134c0-1.191 0-2.75-1.65-2.75-1.742 0-1.925 1.284-1.925 2.659v5.225h-3.3V9.25h3.116v1.467c.459-.825 1.467-1.65 3.117-1.65 3.3 0 3.942 2.2 3.942 5.041z"/></svg>