<svg xmlns="http://www.w3.org/2000/svg" viewBox="0 0 17 16" class="pdsicon"><path d="m14.925 3.8-2.2-1.3-2.3-1.3c-1.5-.9-3.4.2-3.4 1.9v.3c0 .2.1.3.2.4l1 .6c.4.2.8 0 .8-.4v-.7c0-.3.3-.5.6-.3l2.1 1.2 2.1 1.2c.3.2.3.6 0 .8l-2.1 1.2-2.1 1.1c-.3.1-.6-.1-.6-.4v-.3c0-1.8-1.9-2.9-3.4-2l-2.3 1.3-2.2 1.3c-1.5.9-1.5 3 0 3.9l2.2 1.3 2.3 1.3c1.5.8 3.4-.3 3.4-2v-.3c0-.2-.1-.3-.2-.4l-1-.6c-.4-.2-.8 0-.8.4v.7c0 .3-.3.5-.6.3l-2.1-1.2-2.1-1.2c-.2-.1-.2-.5.1-.7l2.1-1.2 2.1-1.2c.2-.1.5.1.5.4v.3c0 1.7 1.9 2.8 3.4 1.9l2.3-1.3 2.2-1.3c1.5-.7 1.5-2.9 0-3.7Z"/></svg>