<svg xmlns="http://www.w3.org/2000/svg" viewBox="0 0 16 16" class="pdsicon"><path d="M9.223 8.477c-.44.309-.66.463-.9.523a1.33 1.33 0 0 1-.646 0c-.24-.06-.46-.214-.9-.523l-5.444-3.81a2 2 0 0 1 2-2h9.334a2 2 0 0 1 2 2z" opacity=".12"/><path fill-rule="evenodd" d="M4.506 2h6.988c.537 0 .98 0 1.34.03.375.03.72.096 1.043.26.502.256.91.664 1.166 1.166.159.312.226.644.258 1.004a.67.67 0 0 1 .02.333c.012.3.012.647.012 1.046v4.322c0 .537 0 .98-.03 1.34-.03.375-.095.72-.26 1.043-.256.502-.664.91-1.166 1.165-.323.165-.668.23-1.042.261-.361.03-.804.03-1.34.03h-6.99c-.536 0-.979 0-1.34-.03-.374-.03-.719-.096-1.042-.26a2.67 2.67 0 0 1-1.166-1.166c-.165-.324-.23-.668-.26-1.043a18 18 0 0 1-.03-1.34V5.839c0-.399 0-.746.012-1.046a.67.67 0 0 1 .02-.333c.032-.36.1-.692.258-1.004.256-.502.664-.91 1.166-1.165.323-.165.668-.23 1.042-.262C3.526 2 3.97 2 4.505 2M2 5.947v4.186c0 .571 0 .96.025 1.26.024.292.067.441.12.546.128.25.332.454.583.582.104.053.254.097.546.12.3.025.688.026 1.26.026h6.933c.57 0 .959 0 1.259-.025.292-.024.442-.067.546-.12.25-.129.455-.332.583-.583.053-.105.096-.254.12-.546.024-.3.025-.689.025-1.26V5.947L9.606 9.023l-.077.054c-.363.255-.682.479-1.045.57a2 2 0 0 1-.968 0c-.363-.091-.682-.315-1.045-.57l-.077-.054zm11.945-1.589L8.84 7.931c-.486.34-.589.399-.68.422a.7.7 0 0 1-.322 0c-.091-.023-.194-.082-.68-.422L2.055 4.358c.024-.138.055-.227.09-.297.128-.25.332-.455.583-.582.104-.053.254-.097.546-.12.3-.025.688-.026 1.26-.026h6.933c.57 0 .959 0 1.259.025.292.024.442.068.546.12.25.128.455.332.583.583.035.07.066.16.09.297"/></svg>