<svg xmlns="http://www.w3.org/2000/svg" viewBox="0 0 24 24" class="pdsicon"><path fill-rule="evenodd" d="M11.315.965a3 3 0 0 1 1.37 0c.516.12.973.42 1.494.759l.11.071 7.25 4.713.052.034.226.146.056.037c.206.132.464.3.662.535a2 2 0 0 1 .377.695c.09.294.089.602.088.847v7.439c0 .805 0 1.47-.044 2.01-.046.563-.145 1.08-.392 1.565a4 4 0 0 1-1.748 1.748c-.485.247-1.002.346-1.564.392-.541.044-1.206.044-2.01.044H6.758c-.805 0-1.47 0-2.01-.044-.563-.046-1.08-.145-1.565-.392a4 4 0 0 1-1.748-1.748c-.247-.485-.346-1.002-.392-1.564C1 17.71 1 17.046 1 16.242v-7.44c-.001-.245-.002-.553.088-.847a2 2 0 0 1 .377-.695c.197-.236.456-.403.662-.535l.056-.037.226-.146.078-.051L9.71 1.795l.11-.071c.52-.34.978-.638 1.494-.76M10.8 3.472 3.835 8l6.966 4.528c.695.452.841.53.97.56a1 1 0 0 0 .457 0c.13-.03.276-.108.971-.56L20.165 8 13.2 3.472c-.695-.452-.841-.53-.97-.56a1 1 0 0 0-.457 0c-.13.03-.276.108-.971.56M21 9.842l-6.711 4.363-.11.071c-.52.34-.978.638-1.494.76a3 3 0 0 1-1.37 0c-.516-.122-.973-.42-1.494-.76l-.11-.071L3 9.843V16.2c0 .857 0 1.439.038 1.889.035.438.1.663.18.819a2 2 0 0 0 .874.874c.156.08.38.145.819.18C5.361 20 5.943 20 6.8 20h10.4c.857 0 1.439 0 1.889-.038.438-.035.663-.1.819-.18a2 2 0 0 0 .874-.874c.08-.156.145-.38.18-.819.037-.45.038-1.032.038-1.889z"/></svg>