<svg xmlns="http://www.w3.org/2000/svg" viewBox="0 0 16 16" class="pdsicon"><g clip-path="url(#a)"><path fill-rule="evenodd" d="M16 1.333a.667.667 0 0 0-.828-.646l-5.145 1.286L6.21.7a.67.67 0 0 0-.373-.014L.505 2.02A.67.67 0 0 0 0 2.667v12a.667.667 0 0 0 .828.646l5.145-1.286 1.15.384a.667.667 0 0 0 .422-1.265L6.21 12.7a.67.67 0 0 0-.373-.014l-4.505 1.126V3.187l4.64-1.16L9.79 3.3c.12.04.25.045.373.014l4.505-1.126v6.48a.667.667 0 1 0 1.333 0zm-.862 10.472a.667.667 0 0 0-.943-.943l-2.862 2.862-.862-.862a.667.667 0 0 0-.942.943l1.333 1.333c.26.26.682.26.943 0z"/></g><defs><clipPath id="a"><path d="M0 0h16v16H0z"/></clipPath></defs></svg>