<svg xmlns="http://www.w3.org/2000/svg" viewBox="0 0 24 24" class="pdsicon"><path d="M23 2.833a.917.917 0 0 0-1.139-.889l-7.074 1.769-5.247-1.75a.9.9 0 0 0-.512-.019L1.694 3.777a.92.92 0 0 0-.694.89v16.5a.917.917 0 0 0 1.139.889l7.074-1.769 1.581.527a.917.917 0 1 0 .58-1.739l-1.834-.611a.9.9 0 0 0-.512-.02l-6.195 1.549V5.383l6.38-1.596 5.247 1.75a.9.9 0 0 0 .512.019l6.195-1.549v8.91a.917.917 0 0 0 1.833 0z"/><path d="M21.815 17.232a.917.917 0 0 0-1.297-1.297l-3.935 3.935-1.185-1.185a.917.917 0 0 0-1.296 1.297l1.833 1.833a.917.917 0 0 0 1.297 0z"/></svg>