<svg xmlns="http://www.w3.org/2000/svg" viewBox="0 0 16 16" class="pdsicon"><path fill-rule="evenodd" d="M0 2c0-.368.298-.667.667-.667h14.666a.667.667 0 1 1 0 1.334H.667A.667.667 0 0 1 0 2m0 4c0-.368.298-.667.667-.667h6a.667.667 0 0 1 0 1.334h-6A.667.667 0 0 1 0 6m.667 3.333a.667.667 0 0 0 0 1.334h6a.667.667 0 1 0 0-1.334zM0 14c0-.368.298-.667.667-.667h14.666a.667.667 0 0 1 0 1.334H.667A.667.667 0 0 1 0 14m11.333-7.333v.666h4a.667.667 0 1 1 0 1.334h-4v.666a.667.667 0 0 1-1.138.472L8.862 8.47a.667.667 0 0 1 0-.942l1.333-1.334a.667.667 0 0 1 1.138.472"/></svg>