<svg xmlns="http://www.w3.org/2000/svg" viewBox="0 0 24 24" class="pdsicon"><path fill-rule="evenodd" d="M2 4a1 1 0 0 1 1-1h18a1 1 0 1 1 0 2H3a1 1 0 0 1-1-1m18 5.5L16.667 12 20 14.5zm-.32-2.238c.16-.099.463-.27.851-.262.45.01.873.22 1.15.575.24.306.284.651.302.838.017.192.017.425.017.652v5.87c0 .227 0 .46-.017.652-.018.187-.063.532-.302.838a1.5 1.5 0 0 1-1.15.575c-.388.008-.691-.163-.85-.262a8 8 0 0 1-.533-.377l-3.895-2.921-.022-.017c-.125-.093-.266-.199-.379-.3a1.5 1.5 0 0 1-.417-.58 1.5 1.5 0 0 1 0-1.087c.11-.28.293-.467.417-.579.113-.101.254-.207.379-.3l.022-.017 3.867-2.9.028-.021c.181-.136.368-.276.532-.377M2 9.25a1 1 0 0 1 1-1h9a1 1 0 1 1 0 2H3a1 1 0 0 1-1-1m0 5.5a1 1 0 0 1 1-1h9a1 1 0 1 1 0 2H3a1 1 0 0 1-1-1M2 20a1 1 0 0 1 1-1h18a1 1 0 1 1 0 2H3a1 1 0 0 1-1-1"/></svg>