<svg xmlns="http://www.w3.org/2000/svg" viewBox="0 0 24 24" class="pdsicon"><path fill-rule="evenodd" d="M2 4a1 1 0 0 1 1-1h18a1 1 0 1 1 0 2H3a1 1 0 0 1-1-1m2.852 3.739.028.021 3.867 2.9.022.017c.125.093.266.199.379.3.124.112.307.299.417.58a1.5 1.5 0 0 1 0 1.087c-.11.28-.293.467-.417.579a6 6 0 0 1-.379.3l-.022.017-3.867 2.9-.028.021c-.181.136-.368.276-.532.377-.16.099-.463.27-.851.262a1.5 1.5 0 0 1-1.15-.575c-.24-.306-.285-.651-.302-.838C2 15.495 2 15.262 2 15.035v-5.87c0-.227 0-.46.017-.652.017-.187.063-.532.302-.838a1.5 1.5 0 0 1 1.15-.575c.388-.008.691.163.85.262.165.1.352.241.533.377M4 9.6v5l3.333-2.5zm7-.35a1 1 0 0 1 1-1h9a1 1 0 1 1 0 2h-9a1 1 0 0 1-1-1m0 5.5a1 1 0 0 1 1-1h9a1 1 0 1 1 0 2h-9a1 1 0 0 1-1-1M2 20a1 1 0 0 1 1-1h18a1 1 0 1 1 0 2H3a1 1 0 0 1-1-1"/></svg>