<svg xmlns="http://www.w3.org/2000/svg" viewBox="0 0 16 16" class="pdsicon"><path fill-rule="evenodd" d="M13.017.434a.667.667 0 0 1 .316.567v10.667a.667.667 0 0 1-.965.596L7.22 9.69l1.302 3.231a2 2 0 0 1-1.108 2.6l-.25-.618.25.618a2 2 0 0 1-2.6-1.107L2.871 9.635A3.333 3.333 0 0 1 3.333 3h3.843L12.368.405a.667.667 0 0 1 .65.03Zm-6.809 7.9h1.125c.104 0 .206.025.298.071L12 10.59V2.08L7.631 4.264a.667.667 0 0 1-.298.07h-4a2 2 0 0 0-.014 4h2.889Zm-.434 1.334h-1.45l1.726 4.247a.666.666 0 0 0 1.235-.497l-1.511-3.75ZM14 8.335v-4a2 2 0 0 1 0 4Z"/></svg>