<svg xmlns="http://www.w3.org/2000/svg" viewBox="0 0 24 24" class="pdsicon"><path fill-rule="evenodd" d="M16.567 2.199c.292-.132.718-.302 1.176-.246.573.07 1.048.352 1.384.822.264.369.321.807.347 1.122.026.334.026.76.026 1.247v9.828c0 .487 0 .912-.026 1.246-.026.316-.083.754-.347 1.123-.336.47-.81.751-1.384.821-.458.056-.884-.114-1.176-.246-.318-.143-.71-.357-1.167-.606l-.034-.019c-1.569-.855-3.41-1.642-4.866-1.726v3.285c0 .19 0 .354-.014.502a3 3 0 0 1-2.692 2.691c-.148.015-.312.015-.502.015h-.084c-.19 0-.354 0-.502-.015a3 3 0 0 1-2.692-2.691C4 19.204 4 19.04 4 18.85v-3.305l-.162-.009a3 3 0 0 1-.986-.207 3 3 0 0 1-1.624-1.623 3 3 0 0 1-.207-.986C1 12.407 1 12.028 1 11.59v-1.274c0-.805 0-1.469.044-2.01.046-.562.145-1.079.392-1.564a4 4 0 0 1 1.748-1.748c.485-.248 1.002-.346 1.564-.392.541-.044 1.206-.044 2.01-.044h3.492c1.491 0 3.456-.83 5.116-1.734l.034-.019c.457-.249.85-.463 1.167-.606M22 7.058a1 1 0 0 1 1 1v4a1 1 0 1 1-2 0v-4a1 1 0 0 1 1-1"/></svg>