<svg xmlns="http://www.w3.org/2000/svg" viewBox="0 0 24 24" class="pdsicon"><path fill-rule="evenodd" d="M7.759 2h8.482c.805 0 1.47 0 2.01.044.563.046 1.08.145 1.565.392a4 4 0 0 1 1.748 1.748c.247.485.346 1.002.392 1.564C22 6.29 22 6.954 22 7.758v5.483c0 .805 0 1.47-.044 2.01-.046.563-.145 1.08-.392 1.565a4 4 0 0 1-1.748 1.748c-.485.247-1.002.346-1.564.392-.541.044-1.206.044-2.01.044h-2.558c-.664 0-.858.005-1.034.04a2 2 0 0 0-.508.179c-.16.082-.313.199-.832.614l-2.413 1.93c-.184.147-.371.297-.536.406-.157.104-.462.29-.86.29a1.5 1.5 0 0 1-1.173-.564c-.248-.31-.293-.665-.31-.852A8 8 0 0 1 6 20.37v-1.38c-.392-.012-.728-.045-1.035-.127a4 4 0 0 1-2.829-2.829C2 15.524 2 14.933 2 14.138V7.759c0-.805 0-1.47.044-2.01.046-.563.145-1.08.392-1.565a4 4 0 0 1 1.748-1.748c.485-.247 1.002-.346 1.564-.392C6.29 2 6.954 2 7.758 2M5.91 4.038c-.438.035-.663.1-.819.18a2 2 0 0 0-.874.874c-.08.156-.145.38-.18.819C4 6.361 4 6.943 4 7.8V14c0 .994.009 1.295.068 1.518a2 2 0 0 0 1.414 1.414c.223.06.524.068 1.518.068a1 1 0 0 1 1 1v1.92l2.06-1.649.068-.054c.422-.338.741-.593 1.104-.78a4 4 0 0 1 1.016-.355c.4-.082.809-.082 1.35-.082H16.2c.857 0 1.439 0 1.889-.038.438-.035.663-.1.819-.18a2 2 0 0 0 .874-.874c.08-.156.145-.38.18-.819.037-.45.038-1.032.038-1.889V7.8c0-.857 0-1.439-.038-1.889-.035-.438-.1-.663-.18-.819a2 2 0 0 0-.874-.874c-.156-.08-.38-.145-.819-.18C17.639 4 17.057 4 16.2 4H7.8c-.857 0-1.439 0-1.889.038M6 8.5a1 1 0 0 1 1-1h5a1 1 0 1 1 0 2H7a1 1 0 0 1-1-1M6 12a1 1 0 0 1 1-1h8a1 1 0 1 1 0 2H7a1 1 0 0 1-1-1"/></svg>