<svg xmlns="http://www.w3.org/2000/svg" viewBox="0 0 24 24" class="pdsicon"><path fill-rule="evenodd" d="M1.293 1.293a1 1 0 0 1 1.414 0l12.122 12.12q.023.021.042.044l2.02 2.02A5.97 5.97 0 0 0 18 12v-2a1 1 0 1 1 2 0v2a7.97 7.97 0 0 1-1.68 4.906l4.387 4.387a1 1 0 0 1-1.414 1.414l-4.387-4.387A7.96 7.96 0 0 1 13 19.938V21h3a1 1 0 1 1 0 2H8a1 1 0 1 1 0-2h3v-1.062A8 8 0 0 1 4 12v-2a1 1 0 0 1 2 0v2a6 6 0 0 0 9.477 4.89l-1.445-1.444A4 4 0 0 1 8 12V9.414L1.293 2.707a1 1 0 0 1 0-1.414M10 11.414V12a2 2 0 0 0 2.518 1.932zM8.417 3.221A4 4 0 0 1 16 5v4.4a1 1 0 1 1-2 0V5a2 2 0 0 0-3.792-.889 1 1 0 0 1-1.791-.89"/></svg>