<svg xmlns="http://www.w3.org/2000/svg" viewBox="0 0 24 24" class="pdsicon"><path d="M15.99 22h-8a1 1 0 0 1 0-2h3v-2h-4.2c-1.84 0-2.76 0-3.61-.44a3.9 3.9 0 0 1-1.73-1.75c-.44-.85-.44-1.77-.44-3.61V7.8c0-1.84 0-2.76.44-3.62a4 4 0 0 1 1.73-1.75C4.03 2 4.95 2 6.79 2h10.4c1.84 0 2.76 0 3.62.43a4.05 4.05 0 0 1 1.75 1.75c.43.86.43 1.78.43 3.62v4.4c0 1.84 0 2.76-.43 3.61a4 4 0 0 1-1.75 1.73c-.86.44-1.78.44-3.62.44h-4.2v2h3a1 1 0 0 1 0 2zM6.79 4a7.6 7.6 0 0 0-2.71.22 1.93 1.93 0 0 0-.87.87 7.6 7.6 0 0 0-.22 2.71v4.4a7.6 7.6 0 0 0 .22 2.71c.187.377.493.683.87.87a7.6 7.6 0 0 0 2.71.22h10.4a7.6 7.6 0 0 0 2.71-.22 1.93 1.93 0 0 0 .87-.87 7.6 7.6 0 0 0 .22-2.71V7.8a7.6 7.6 0 0 0-.22-2.71 1.93 1.93 0 0 0-.87-.87A7.6 7.6 0 0 0 17.19 4z"/></svg>