<svg xmlns="http://www.w3.org/2000/svg" viewBox="0 0 24 24" class="pdsicon"><path fill-rule="evenodd" d="M17.25 2.01H4.77a4.3 4.3 0 0 0-1.56.39 4 4 0 0 0-1.74 1.79 4 4 0 0 0-.39 1.57c-.05.54-.05 1.2-.05 2v4.49c0 .8 0 1.47.05 2a3.83 3.83 0 0 0 2.12 3.3c.487.237 1.019.37 1.56.39.54.05 1.21.05 2 .05H11v2H8a1 1 0 0 0 0 2h8a1 1 0 0 0 0-2h-3v-2h4.24c.81 0 1.47 0 2-.05a4 4 0 0 0 1.59-.39 4 4 0 0 0 1.75-1.75c.228-.49.36-1.02.39-1.56V5.77a4.3 4.3 0 0 0-.39-1.57c-.39-.75-1-1.36-1.75-1.75a4.3 4.3 0 0 0-1.57-.39c-.54-.05-1.2-.05-2.01-.05"/></svg>