<svg xmlns="http://www.w3.org/2000/svg" viewBox="0 0 24 24" class="pdsicon"><path d="M2 14h20c0 .93 0 1.395-.102 1.777a3 3 0 0 1-2.122 2.12C19.396 18 18.93 18 18 18H6c-.93 0-1.395 0-1.776-.102a3 3 0 0 1-2.122-2.121C2 15.395 2 14.93 2 14" opacity=".12"/><path fill-rule="evenodd" d="M6.759 2H17.24c.805 0 1.47 0 2.01.044.563.046 1.08.145 1.565.392a4 4 0 0 1 1.748 1.748c.247.485.346 1.002.392 1.564C23 6.29 23 6.954 23 7.758v5.483l-.001.708a1 1 0 0 1-.001.117 17 17 0 0 1-.042 1.186c-.046.562-.145 1.079-.392 1.564a4 4 0 0 1-1.748 1.748c-.485.247-1.002.346-1.564.392-.541.044-1.206.044-2.01.044H6.758c-.805 0-1.47 0-2.01-.044-.563-.046-1.08-.145-1.565-.392a4 4 0 0 1-1.748-1.748c-.247-.485-.346-1.002-.392-1.564a17 17 0 0 1-.043-1.303L1 13.24V7.76c0-.805 0-1.47.044-2.01.046-.563.145-1.08.392-1.565a4 4 0 0 1 1.748-1.748c.485-.247 1.002-.346 1.564-.392C5.29 2 5.954 2 6.758 2M3.03 15l.007.089c.035.438.1.663.18.819a2 2 0 0 0 .874.874c.156.08.38.145.819.18C5.361 17 5.943 17 6.8 17h10.4c.857 0 1.439 0 1.889-.038.438-.035.663-.1.819-.18a2 2 0 0 0 .874-.874c.08-.156.145-.38.18-.819L20.97 15zM21 13H3V7.8c0-.857 0-1.439.038-1.889.035-.438.1-.663.18-.819a2 2 0 0 1 .874-.874c.156-.08.38-.145.819-.18C5.361 4 5.943 4 6.8 4h10.4c.857 0 1.439 0 1.889.038.438.035.663.1.819.18a2 2 0 0 1 .874.874c.08.156.145.38.18.819C21 6.361 21 6.943 21 7.8zM7 21a1 1 0 0 1 1-1h8a1 1 0 1 1 0 2H8a1 1 0 0 1-1-1"/></svg>