<svg xmlns="http://www.w3.org/2000/svg" viewBox="0 0 16 16" class="pdsicon"><path d="M1.333 9.333h13.334c0 .62 0 .93-.069 1.185a2 2 0 0 1-1.414 1.414C12.93 12 12.62 12 12 12H4c-.62 0-.93 0-1.184-.068A2 2 0 0 1 1.4 10.518c-.068-.255-.068-.565-.068-1.185" opacity=".12"/><path fill-rule="evenodd" d="M4.506 1.333h6.988c.537 0 .98 0 1.34.03.375.03.72.096 1.043.261.502.256.91.664 1.166 1.165.165.324.23.668.26 1.043.03.36.03.804.03 1.34V9.3a1 1 0 0 1-.001.078q-.003.447-.028.79c-.03.376-.096.72-.261 1.044-.256.501-.664.91-1.166 1.165-.323.165-.668.23-1.042.261-.361.03-.804.03-1.34.03h-6.99c-.536 0-.979 0-1.34-.03-.374-.03-.719-.096-1.042-.261a2.67 2.67 0 0 1-1.166-1.165c-.165-.324-.23-.668-.26-1.043a11 11 0 0 1-.03-.869V5.172c0-.536 0-.98.03-1.34.03-.375.095-.72.26-1.043.256-.501.664-.91 1.166-1.165.323-.165.668-.23 1.042-.261.361-.03.804-.03 1.34-.03M2.02 10l.004.06c.024.292.067.441.12.545.128.251.332.455.583.583.104.053.254.096.546.12.3.025.688.025 1.26.025h6.933c.57 0 .959 0 1.259-.025.292-.024.442-.067.546-.12.25-.128.455-.332.583-.583.053-.104.096-.253.12-.546l.004-.059zM14 8.667H2V5.2c0-.571 0-.96.025-1.26.024-.292.067-.441.12-.545.128-.251.332-.455.583-.583.104-.053.254-.096.546-.12.3-.025.688-.025 1.26-.025h6.933c.57 0 .959 0 1.259.025.292.024.442.067.546.12.25.128.455.332.583.583.053.104.096.253.12.546.024.3.025.688.025 1.259zM4.667 14c0-.368.298-.667.666-.667h5.334a.667.667 0 0 1 0 1.334H5.333A.667.667 0 0 1 4.667 14"/></svg>