<svg xmlns="http://www.w3.org/2000/svg" viewBox="0 0 16 16" class="pdsicon"><g fill-rule="evenodd" clip-path="url(#a)"><path d="M.667 8c0-.368.298-.667.666-.667h10a.667.667 0 1 1 0 1.334h-10A.667.667 0 0 1 .667 8"/><path d="M5.805 3.529c.26.26.26.682 0 .942L2.276 8l3.529 3.529a.667.667 0 1 1-.943.942l-4-4a.667.667 0 0 1 0-.942l4-4c.26-.26.682-.26.943 0M14.667.667c.368 0 .666.298.666.666v13.334a.667.667 0 0 1-1.333 0V1.333c0-.368.299-.666.667-.666"/></g><defs><clipPath id="a"><path d="M0 0h16v16H0z"/></clipPath></defs></svg>