<svg xmlns="http://www.w3.org/2000/svg" viewBox="0 0 24 24" class="pdsicon"><path fill-rule="evenodd" d="M1 7.417c0-.507.41-.917.917-.917h20.166c.507 0 .917.41.917.917v14.666c0 .507-.41.917-.917.917H1.917A.917.917 0 0 1 1 22.083zm1.833.916v12.834h18.334V8.333z"/><path fill-rule="evenodd" d="M12 12.917a1.833 1.833 0 1 0 0 3.667 1.833 1.833 0 0 0 0-3.667M8.334 14.75a3.667 3.667 0 1 1 7.333 0 3.667 3.667 0 0 1-7.333 0M3.75 4.667c0-.507.41-.917.917-.917h14.666a.917.917 0 1 1 0 1.833H4.667a.917.917 0 0 1-.917-.916M7.416 1.917c0-.507.41-.917.917-.917h7.333a.917.917 0 0 1 0 1.833H8.333a.917.917 0 0 1-.917-.916"/></svg>