<svg xmlns="http://www.w3.org/2000/svg" viewBox="0 0 24 24" class="pdsicon"><path fill-rule="evenodd" d="M19.968 4.199c-.138.01-.329.042-.667.098l-8.8 1.467a8 8 0 0 0-.482.088l-.01.003v.01a8 8 0 0 0-.009.49V18a4 4 0 1 1-2-3.465V6.327c0-.216 0-.43.014-.613a2 2 0 0 1 .161-.685 2 2 0 0 1 .718-.847 2 2 0 0 1 .649-.272c.178-.044.39-.079.603-.115l8.862-1.477a10 10 0 0 1 .804-.113c.254-.02.564-.019.885.1a2 2 0 0 1 1.039.88c.17.298.223.604.245.858.02.235.02.516.02.81V16a4 4 0 1 1-2-3.465V4.89c0-.343 0-.536-.013-.674q0-.01-.002-.017zM20 16a2 2 0 1 0-4 0 2 2 0 0 0 4 0M8 18a2 2 0 1 0-4 0 2 2 0 0 0 4 0"/></svg>