<svg xmlns="http://www.w3.org/2000/svg" viewBox="0 0 16 16" class="pdsicon"><g clip-path="url(#a)"><path fill-rule="evenodd" d="M2.67 14V0H16v14a2 2 0 0 1-2 2H2a2 2 0 0 1-1.41-.59A2 2 0 0 1 0 14V8h2v1.33h-.67V14a.63.63 0 0 0 .2.47.65.65 0 0 0 .94 0 .63.63 0 0 0 .2-.47Zm11.8.47a.68.68 0 0 0 .2-.47V1.33H4V14c0 .229-.04.456-.12.67H14a.68.68 0 0 0 .47-.2ZM13.33 3.33h-8v4h8v-4ZM12 6H6.67V4.67H12V6ZM5.33 8.67h8V10h-8V8.67Zm0 2.66h8v1.33h-8v-1.33Z"/></g><defs><clipPath id="a"><path d="M0 0h16v16H0z"/></clipPath></defs></svg>