<svg xmlns="http://www.w3.org/2000/svg" viewBox="0 0 24 24" class="pdsicon"><path d="M12 23H8.8c-1.84 0-2.76 0-3.62-.44a4 4 0 0 1-1.74-1.74C3 20 3 19 3 17.2V6.8C3 5 3 4 3.44 3.18a4 4 0 0 1 1.74-1.74C6.04 1 6.96 1 8.8 1h6.4c1.84 0 2.76 0 3.62.44a4 4 0 0 1 1.74 1.74C21 4 21 5 21 6.8V10a1 1 0 0 1-2 0V6.8a7.6 7.6 0 0 0-.22-2.71 1.93 1.93 0 0 0-.87-.87A7.6 7.6 0 0 0 15.2 3H8.8a7.6 7.6 0 0 0-2.71.22 1.93 1.93 0 0 0-.87.87A7.6 7.6 0 0 0 5 6.8v10.4a7.6 7.6 0 0 0 .22 2.71c.187.377.493.683.87.87A7.6 7.6 0 0 0 8.8 21H12a1 1 0 0 1 0 2m5-1a1 1 0 0 1-.65-.24 41 41 0 0 1-3.63-3.42 3.29 3.29 0 0 1 .5-4.6 3.17 3.17 0 0 1 3.78-.22 3.21 3.21 0 0 1 3.76.21 3.26 3.26 0 0 1 .51 4.61 38.5 38.5 0 0 1-3.63 3.42A1 1 0 0 1 17 22m-1.76-7a1.13 1.13 0 0 0-.74.28 1.26 1.26 0 0 0-.21 1.81q1.272 1.381 2.71 2.59a32 32 0 0 0 2.71-2.59 1.25 1.25 0 0 0-.21-1.8 1.23 1.23 0 0 0-1.75.2 1 1 0 0 1-1.5 0 1.4 1.4 0 0 0-1.01-.49M9 16H8a1 1 0 0 1 0-2h1a1 1 0 0 1 0 2m3.5-4H8a1 1 0 0 1 0-2h4.5a1 1 0 0 1 0 2M16 8H8a1 1 0 0 1 0-2h8a1 1 0 1 1 0 2"/></svg>