<svg xmlns="http://www.w3.org/2000/svg" viewBox="0 0 24 24" class="pdsicon"><path d="m12.202 1.155.201.03.124.031c.285.082.537.232.736.342l7.4 4.111c.24.133.564.3.808.565a2 2 0 0 1 .35.53l.078.197.037.13c.052.215.062.435.064.63v4.78a1 1 0 0 1-2 0V8.698l-7 3.89V20.3l.515-.285a1 1 0 0 1 .97 1.748l-1.222.68c-.227.126-.524.304-.86.373-.266.055-.54.055-.806 0-.336-.07-.633-.247-.86-.373l-7.4-4.112c-.24-.133-.564-.3-.808-.564a2 2 0 0 1-.428-.728A2.5 2.5 0 0 1 2 16.28V7.722a2.5 2.5 0 0 1 .1-.76c.09-.27.237-.518.43-.727.243-.265.568-.432.807-.565l7.4-4.111c.227-.126.524-.304.86-.373.199-.041.404-.05.605-.03M19 14a1 1 0 0 1 1 1v2h2a1 1 0 1 1 0 2h-2v2a1 1 0 0 1-2 0v-2h-2a1 1 0 0 1 0-2h2v-2a1 1 0 0 1 1-1M4 16.06c0 .183 0 .277.005.345v.005l.005.004c.057.036.139.082.299.17L11 20.3v-7.712l-7-3.89zm1.059-9.06L12 10.855l2.44-1.356-6.941-3.856zm6.936-3.847c-.057.028-.135.07-.286.154L9.558 4.499l6.94 3.857 2.442-1.357-6.649-3.693a7 7 0 0 0-.286-.154L12 3.149q-.002 0-.005.003"/></svg>