<svg xmlns="http://www.w3.org/2000/svg" viewBox="0 0 24 24" class="pdsicon"><path stroke-linecap="round" stroke-linejoin="round" stroke-width="2" d="M20.5 7.278 12 12 3.5 7.278M12 12v9.5"/><path stroke-linecap="round" stroke-linejoin="round" stroke-width="2" d="m14 20.889-1.223.68c-.284.157-.425.236-.575.267a1 1 0 0 1-.403 0c-.15-.031-.292-.11-.576-.268l-7.4-4.11c-.3-.167-.45-.25-.558-.369a1 1 0 0 1-.215-.364C3 16.573 3 16.401 3 16.06V7.94c0-.342 0-.514.05-.666a1 1 0 0 1 .215-.364c.109-.119.258-.202.558-.368l7.4-4.111c.284-.158.425-.237.576-.268a1 1 0 0 1 .402 0c.15.031.292.11.576.268l7.4 4.11c.3.167.45.25.558.369a1 1 0 0 1 .215.364c.05.152.05.324.05.666V12.5M16.5 9.5l-9-5M19 21v-6M16 18h6"/></svg>