<svg xmlns="http://www.w3.org/2000/svg" viewBox="0 0 16 16" class="pdsicon"><path fill-rule="evenodd" d="M15.9 6.9c.1.2.1.3.1.4v8c0 .4-.3.7-.7.7H.7c-.4 0-.7-.3-.7-.6V7.3c0-.1 0-.2.1-.3l.2-.2L2.7 5V.7c0-.4.2-.7.6-.7h9.3c.4 0 .7.3.7.7V5l2.4 1.7.2.2ZM12 1.3H4v7.1l4 2.1 4-2.2v-7ZM1.3 8.4v6.2h11.4L1.3 8.4Zm8.1 2.8 5.3 2.9V8.3l-5.3 2.9Zm-.9-2.8v.5c0 .3-.2.6-.5.6s-.6-.2-.6-.5v-.5c-.37 0-.74-.11-1.069-.207C6.215 8.26 6.104 8.226 6 8.2c-.3-.1-.4-.3-.3-.6.1-.3.3-.5.6-.4.15.05.35.1.55.15.2.05.4.1.55.15V6.1c-.8-.3-1.5-.7-1.5-1.7 0-.5.1-.9.6-1.1.333-.133.489-.178.644-.222.078-.022.156-.045.256-.078v-.2c0-.3.3-.5.6-.5s.5.2.5.5v.1c.4.1 1 .3 1.2.4.2.1.3.3.2.6-.1.3-.4.3-.7.2a3.19 3.19 0 0 0-.345-.09A1.456 1.456 0 0 1 8.5 3.9v1.4c.6.2 1.3.6 1.3 1.5 0 .7-.3 1.1-.6 1.3-.1.05-.225.1-.35.15-.125.05-.25.1-.35.15Zm.3-1.6c0-.1 0-.3-.3-.4v1l.1-.1c.1-.1.2-.2.2-.5ZM7 4.4c0 .2.1.4.5.6V3.9c-.1 0-.2 0-.3.1-.1.1-.2.2-.2.4Z"/></svg>