<svg xmlns="http://www.w3.org/2000/svg" viewBox="0 0 16 16" class="pdsicon"><g clip-path="url(#a)"><path d="M1.39 8.134c.316-.129.66-.176 1-.14h.534c.342-.035.687.015 1.005.146a1.289 1.289 0 0 1 .687.887l1.074-.447a6.2 6.2 0 0 1 2.067-.586q.479.002.946.113l1.587.387c.36.08.686.273.927.553.238.281.38.632.406 1l.987-.72c.33-.246.737-.364 1.147-.333.408.028.794.2 1.087.486.157.157.284.343.373.547.088.211.133.438.132.667a1.69 1.69 0 0 1-.505 1.213l-1.44 1.4a3.5 3.5 0 0 1-1.754.913l-2.033.394a3.5 3.5 0 0 1-1.507-.034l-1.834-.447q-.256-.06-.52-.059H4.664c-.01.237-.084.467-.213.666-.123.2-.298.361-.507.467a2.1 2.1 0 0 1-1.02.12H2.39a2.05 2.05 0 0 1-1-.147 1.33 1.33 0 0 1-.586-.58c-.13-.32-.179-.67-.14-1.013V9.72a2.1 2.1 0 0 1 .146-1.006c.128-.25.331-.453.58-.58m1.96 1.133c-.002.033-.201.034-.387.034h-.966v4.252q-.02.218 0 .434l.953.007q.2.015.4 0zm4.433.034a5.3 5.3 0 0 0-1.533.472l-1.587.694v2.266h1.12c.28 0 .561.034.834.1l1.84.447c.307.067.625.067.932 0l2-.393c.408-.08.784-.277 1.08-.567v.007l1.44-1.4a.24.24 0 0 0 .074-.107.27.27 0 0 0 .014-.16.3.3 0 0 0 0-.133.4.4 0 0 0-.08-.113.415.415 0 0 0-.514-.033L11.73 11.6c-.356.258-.787.399-1.227.4H8.877a.668.668 0 0 1 0-1.334h1.026a.4.4 0 0 0 .267-.093.42.42 0 0 0 .12-.26v-.207a.38.38 0 0 0-.287-.346L8.41 9.374a3 3 0 0 0-.627-.073M7.13.707a3.01 3.01 0 0 1 2.707.853 3 3 0 0 1 4 1.74 2.99 2.99 0 0 1-.608 3.04 3 3 0 0 1-4.36.074 3.02 3.02 0 0 1-2.606-.12 3.05 3.05 0 0 1-1.08-.967 3 3 0 0 1-.487-1.38c-.042-.493.036-.99.228-1.446A3.01 3.01 0 0 1 7.13.707m3.723 1.955a1.67 1.67 0 0 0-1.016.478 1.67 1.67 0 0 0-.507 1.18 1.67 1.67 0 0 0 1.047 1.54 1.68 1.68 0 0 0 1.82-.36c.233-.228.395-.52.466-.84a1.63 1.63 0 0 0-.093-.96 1.673 1.673 0 0 0-1.717-1.038m-3.17-.668a1.667 1.667 0 0 0 0 3.333q.245-.003.48-.073a2.9 2.9 0 0 1-.086-1.514c.098-.508.327-.982.666-1.373a1.67 1.67 0 0 0-1.06-.373"/></g><defs><clipPath id="a"><path d="M0 0h16v16H0z"/></clipPath></defs></svg>