<svg xmlns="http://www.w3.org/2000/svg" viewBox="0 0 16 16" class="pdsicon"><g clip-path="url(#a)"><path fill-rule="evenodd" d="M7.683 6.654c.408 0 .812-.081 1.187-.24a3 3 0 0 0 4.333-4.147 3 3 0 0 0-3.367-.707A3 3 0 0 0 7.13.707 3 3 0 0 0 4.923 2.5a3.1 3.1 0 0 0-.227 1.447c.047.493.214.967.487 1.38.277.404.648.736 1.08.967.436.237.924.36 1.42.36m3.17-3.992A1.67 1.67 0 0 1 12.57 3.7c.127.303.16.638.093.96a1.693 1.693 0 0 1-3.045.59 1.67 1.67 0 0 1-.288-.93 1.67 1.67 0 0 1 .506-1.18 1.67 1.67 0 0 1 1.017-.478m-3.17-.668c.386-.002.76.13 1.06.373a2.95 2.95 0 0 0-.667 1.373 2.9 2.9 0 0 0 .087 1.514 1.7 1.7 0 0 1-.48.073 1.66 1.66 0 0 1-1.18-.493 1.667 1.667 0 0 1 1.18-2.84m7.16 7.486a1.72 1.72 0 0 0-1.086-.486c-.41-.031-.818.087-1.147.333l-.987.72a1.73 1.73 0 0 0-.406-1 1.7 1.7 0 0 0-.927-.553l-1.587-.387a4 4 0 0 0-.947-.113 6.2 6.2 0 0 0-2.066.586l-1.074.447a1.29 1.29 0 0 0-.686-.887 2.1 2.1 0 0 0-1.007-.146H2.39a2.1 2.1 0 0 0-1 .14c-.25.127-.453.33-.58.58A2.1 2.1 0 0 0 .663 9.72v3.867c-.039.344.01.693.14 1.013.13.25.335.454.587.58.316.132.66.182 1 .147h.533c.345.046.695.004 1.02-.12.209-.106.384-.267.507-.467.129-.199.203-.43.213-.666h1.093q.265 0 .52.06l1.834.446a3.5 3.5 0 0 0 1.506.034l2.034-.394a3.5 3.5 0 0 0 1.753-.913l1.44-1.4a1.687 1.687 0 0 0 .507-1.213c0-.23-.045-.456-.133-.667a1.8 1.8 0 0 0-.374-.547M3.35 13.994a3 3 0 0 1-.4 0l-.954-.007a2.4 2.4 0 0 1 0-.433V9.3h.967c.187 0 .387 0 .387-.033v4.727m10.56-3.067-1.44 1.4v-.007c-.297.29-.673.487-1.08.567l-2 .393a2.2 2.2 0 0 1-.934 0l-1.84-.446a3.5 3.5 0 0 0-.833-.1h-1.12v-2.267l1.587-.693A5.3 5.3 0 0 1 7.783 9.3q.317.002.627.074l1.593.386a.38.38 0 0 1 .287.347v.207a.4.4 0 0 1-.12.26.4.4 0 0 1-.267.093H8.876a.67.67 0 0 0-.473.193.67.67 0 0 0-.193.474.667.667 0 0 0 .666.666h1.627c.441 0 .87-.14 1.227-.4l1.673-1.22a.41.41 0 0 1 .513.034.4.4 0 0 1 .08.113.3.3 0 0 1 0 .133.27.27 0 0 1-.013.16.24.24 0 0 1-.073.107"/></g><defs><clipPath id="a"><path d="M0 0h16v16H0z"/></clipPath></defs></svg>