<svg xmlns="http://www.w3.org/2000/svg" viewBox="0 0 24 24" class="pdsicon"><g clip-path="url(#a)"><path fill-rule="evenodd" d="M11.525 9.98a4.5 4.5 0 0 0 1.78-.36 4.5 4.5 0 0 0 7.45-4.67 4.5 4.5 0 0 0-6-2.61 4.51 4.51 0 0 0-4.06-1.28 4.51 4.51 0 0 0-3.31 2.69 4.6 4.6 0 0 0-.34 2.17c.07.74.32 1.45.73 2.07a4.6 4.6 0 0 0 1.62 1.45 4.44 4.44 0 0 0 2.13.54m4.754-5.988a2.5 2.5 0 0 1 1.636.408c.42.282.748.682.94 1.15.19.455.24.957.14 1.44a2.54 2.54 0 0 1-.7 1.26 2.52 2.52 0 0 1-2.73.54 2.5 2.5 0 0 1-1.57-2.31 2.5 2.5 0 0 1 .76-1.77 2.5 2.5 0 0 1 1.524-.718M11.526 2.99a2.5 2.5 0 0 1 1.59.56 4.43 4.43 0 0 0-1 2.06 4.4 4.4 0 0 0 .13 2.27 2.6 2.6 0 0 1-.72.11 2.5 2.5 0 0 1-1.77-.74 2.5 2.5 0 0 1 1.77-4.26m10.74 11.23a2.58 2.58 0 0 0-1.63-.73 2.56 2.56 0 0 0-1.72.5l-1.48 1.08a2.6 2.6 0 0 0-.61-1.5 2.56 2.56 0 0 0-1.39-.83l-2.38-.58a6.2 6.2 0 0 0-1.42-.17 9.3 9.3 0 0 0-3.1.88l-1.61.67a2 2 0 0 0-.16-.46 2 2 0 0 0-.87-.87 3.1 3.1 0 0 0-1.51-.22h-.8a3.1 3.1 0 0 0-1.5.21 2 2 0 0 0-.87.87 3.1 3.1 0 0 0-.22 1.51v5.8a3.1 3.1 0 0 0 .21 1.52 2 2 0 0 0 .88.87c.473.198.99.274 1.5.22h.8a3.1 3.1 0 0 0 1.53-.18 1.9 1.9 0 0 0 .76-.7 2 2 0 0 0 .32-1h1.64q.394 0 .78.09l2.75.67a5.2 5.2 0 0 0 2.26.05l3.05-.59a5.23 5.23 0 0 0 2.63-1.37l2.16-2.1a2.529 2.529 0 0 0 .76-1.82 2.6 2.6 0 0 0-.2-1 2.7 2.7 0 0 0-.56-.82m-17.24 6.77q-.3.023-.6 0l-1.43-.01a3.5 3.5 0 0 1 0-.65v-6.38h1.45c.28 0 .58 0 .58-.05v7.09m15.84-4.6-2.16 2.1v-.01a3.2 3.2 0 0 1-1.62.85l-3 .59a3.3 3.3 0 0 1-1.4 0l-2.76-.67a5.3 5.3 0 0 0-1.25-.15h-1.68v-3.4l2.38-1.04a8 8 0 0 1 2.3-.71q.475.005.94.11l2.39.58a.57.57 0 0 1 .43.52v.31a.62.62 0 0 1-.18.39.6.6 0 0 1-.4.14h-1.54a1 1 0 0 0-.71.29 1 1 0 0 0-.29.71 1 1 0 0 0 1 1h2.44a3.14 3.14 0 0 0 1.84-.6l2.51-1.83a.62.62 0 0 1 .77.05q.073.076.12.17a.45.45 0 0 1 0 .2.4.4 0 0 1-.02.24.36.36 0 0 1-.11.16"/></g><defs><clipPath id="a"><path d="M0 0h24v24H0z"/></clipPath></defs></svg>