<svg xmlns="http://www.w3.org/2000/svg" viewBox="0 0 16 16" class="pdsicon"><path d="M6 1.333h4v.934c0 .373 0 .56-.073.702a.67.67 0 0 1-.291.292c-.143.072-.33.072-.703.072H7.067c-.374 0-.56 0-.703-.072a.67.67 0 0 1-.291-.292C6 2.827 6 2.64 6 2.267z" opacity=".12"/><path fill-rule="evenodd" d="M5.441.667h5.118c.352 0 .655 0 .904.02.264.022.526.07.778.198a2 2 0 0 1 .874.874c.129.252.176.514.198.778.02.25.02.553.02.904v9.118c0 .352 0 .655-.02.904-.022.264-.07.526-.198.778a2 2 0 0 1-.874.874 2 2 0 0 1-.778.198c-.25.02-.552.02-.904.02H5.441c-.351 0-.655 0-.904-.02a2 2 0 0 1-.778-.198 2 2 0 0 1-.874-.874 2 2 0 0 1-.198-.778c-.02-.25-.02-.552-.02-.904V3.441c0-.351 0-.655.02-.904.022-.264.07-.526.198-.778a2 2 0 0 1 .874-.874c.252-.129.514-.176.778-.198.25-.02.553-.02.904-.02M9.333 2H6.667v.267a6 6 0 0 0 .007.392h.01c.077.007.185.008.383.008h1.866a6 6 0 0 0 .393-.008V2.65a6 6 0 0 0 .007-.383zm-4 0v.287c0 .17 0 .333.012.472.012.152.041.332.134.513.128.25.331.455.582.583.181.092.361.121.514.134.138.011.302.011.47.011h1.91c.168 0 .332 0 .47-.011.153-.013.333-.042.514-.134.25-.128.454-.332.582-.583.093-.181.122-.36.134-.513.012-.139.012-.303.012-.471V2c.31 0 .522.002.688.016.18.015.248.04.281.057a.67.67 0 0 1 .291.291c.017.033.042.1.057.281.015.19.016.437.016.822v9.066c0 .385 0 .633-.016.822-.015.18-.04.248-.057.281a.67.67 0 0 1-.291.291c-.033.017-.1.042-.281.057-.19.015-.437.016-.822.016H5.467c-.385 0-.633 0-.822-.016-.18-.015-.248-.04-.281-.057a.67.67 0 0 1-.291-.291c-.017-.033-.042-.1-.057-.281A11 11 0 0 1 4 12.533V3.467c0-.385 0-.633.016-.822.015-.18.04-.248.057-.281a.67.67 0 0 1 .291-.291c.033-.017.1-.042.281-.057.166-.014.378-.016.688-.016"/></svg>