<svg xmlns="http://www.w3.org/2000/svg" viewBox="0 0 24 24" class="pdsicon"><path fill-rule="evenodd" d="M9.149 5.04c.18-.021.567-.065.937.092.304.129.57.37.73.66.12.22.157.432.172.59.012.131.012.277.012.394V11.4c0 .56 0 .84.109 1.054a1 1 0 0 0 .437.437C11.76 13 12.04 13 12.6 13h4.624c.117 0 .263 0 .394.012.158.014.37.052.59.172.29.16.531.426.66.73.157.37.113.757.092.937l-.005.047a9 9 0 1 1-9.854-9.853z"/><path fill-rule="evenodd" d="m14.851 1.04.047.005A9 9 0 0 1 22.956 9.1l.005.048c.021.18.065.567-.092.937-.129.304-.37.57-.66.73-.22.12-.432.157-.59.172a4 4 0 0 1-.394.012h-6.447c-.12 0-.261 0-.387-.01a1.5 1.5 0 0 1-.571-.154 1.5 1.5 0 0 1-.655-.655 1.5 1.5 0 0 1-.154-.571C13 9.485 13 9.342 13 9.223V2.776c0-.117 0-.263.012-.394.015-.158.052-.37.172-.59a1.53 1.53 0 0 1 .73-.66c.37-.157.757-.113.937-.092"/></svg>