<svg xmlns="http://www.w3.org/2000/svg" viewBox="0 0 16 16" class="pdsicon"><g clip-path="url(#a)"><path d="M15.022 7.373c-.1-.2-.301-.3-.502-.502L2.683.151c-.4-.201-.902-.201-1.304 0-.1.1-.3.2-.4.4-.101.201-.202.402-.202.603v13.542c0 .2.1.401.201.602.1.2.301.3.502.501.2.1.4.201.602.201.2 0 .4-.1.601-.2L14.52 8.977c.201 0 .402-.2.502-.401.1-.2.2-.401.2-.602s-.1-.401-.2-.602m-1.404.602L11.21 9.379 9.806 7.975 11.21 6.57zm-3.612 2.107L4.69 13.09l4.113-4.113zM4.69 2.859l5.316 3.01-1.203 1.103zM7.9 7.975l-5.718 5.718V2.257z"/></g><defs><clipPath id="a"><path d="M0 0h16v16H0z"/></clipPath></defs></svg>