<svg xmlns="http://www.w3.org/2000/svg" viewBox="0 0 24 24" class="pdsicon"><path d="M21.655 11.138c-.138-.276-.414-.414-.69-.69L4.69 1.207a2.05 2.05 0 0 0-1.793 0c-.138.138-.414.276-.552.552-.138.275-.276.551-.276.827v18.62c0 .277.138.553.276.829s.414.413.69.69c.275.137.551.275.827.275s.552-.138.828-.276l16.275-9.38c.276 0 .552-.275.69-.55.138-.277.276-.553.276-.828 0-.276-.138-.552-.276-.828m-1.93.828-3.311 1.93-1.931-1.93 1.93-1.931zm-4.966 2.896L7.449 19l5.655-5.655zm-7.31-9.931 7.31 4.138-1.655 1.517zm4.413 7.035L4 19.828V4.103z"/></svg>