<svg xmlns="http://www.w3.org/2000/svg" viewBox="0 0 24 24" class="pdsicon"><path fill-rule="evenodd" d="M21.649 1.393a1 1 0 0 1 .68.267 1 1 0 0 1 0 1.32l-1.76 1.78a5.83 5.83 0 0 1 .44 6 5.7 5.7 0 0 1-1.08 1.48l-2.1 2.1-8.18-8.18 2.09-2.09a5.5 5.5 0 0 1 1.48-1.1 5.83 5.83 0 0 1 6 .44l1.75-1.75a1 1 0 0 1 .68-.267m-3.82 10.227.76-.77a3.854 3.854 0 1 0-5.45-5.45l-.77.76zM13.009 12.54l1.33 1.37-1.96 1.93 2 2-2.1 2.1a6.1 6.1 0 0 1-1.48 1.1 5.85 5.85 0 0 1-6-.45l-1.75 1.75a1 1 0 0 1-1.36 0 1 1 0 0 1 0-1.36l1.76-1.78a5.83 5.83 0 0 1-.44-6c.265-.56.62-1.074 1.05-1.52l2.1-2.1 2 2 1.92-1.93 1.37 1.33-1.93 2 1.49 1.49zm-4.855 7.149a3.85 3.85 0 0 0 2.725-1.129l.73-.76-.6-.6-1.33-1.37-3.49-3.49-.76.77a3.854 3.854 0 0 0 2.725 6.579"/></svg>