<svg xmlns="http://www.w3.org/2000/svg" viewBox="0 0 24 24" class="pdsicon"><path fill-rule="evenodd" d="M7.347 2h9.305c.098 0 .302-.002.503.051q.256.07.474.222a1.9 1.9 0 0 1 .379.375l4.346 5.215c.064.077.143.172.207.262.076.106.172.26.23.463.077.27.077.555 0 .823a1.5 1.5 0 0 1-.23.464c-.064.09-.143.185-.207.262l-8.988 10.786c-.09.108-.195.234-.295.335a1.5 1.5 0 0 1-.556.37 1.5 1.5 0 0 1-1.03 0 1.5 1.5 0 0 1-.557-.37c-.1-.101-.204-.227-.294-.335l-8.976-10.77-.013-.016c-.064-.077-.143-.172-.207-.262a1.5 1.5 0 0 1-.23-.464 1.5 1.5 0 0 1 0-.822c.058-.204.154-.358.23-.464.064-.09.143-.185.207-.262l.013-.015 4.333-5.2.018-.021c.062-.076.191-.234.361-.354a1.5 1.5 0 0 1 .474-.222c.2-.053.405-.052.503-.051m5.932 2H10.72L9.387 8h5.225zm3.441 4-1.333-4h1.144l3.334 4zm-2.127 2-2.594 7.456L9.407 10zM7.279 8l1.333-4H7.468L4.135 8zm-3.144 2h3.154l2.26 6.496zm10.316 6.496L16.71 10h3.154z"/></svg>