<svg xmlns="http://www.w3.org/2000/svg" viewBox="0 0 16 16" class="pdsicon"><g clip-path="url(#a)"><path fill-rule="evenodd" d="M3.667 1.619a1.06 1.06 0 0 1 .778-.285c.993 0 1.705.62 2.21 1.372.144.214.264.43.362.628h-2.67a1.06 1.06 0 0 1-1.013-1c.015-.272.134-.528.333-.715M2.245 3.334A2.4 2.4 0 0 1 2 2.356v-.044A2.39 2.39 0 0 1 4.455 0c1.63.005 2.692 1.048 3.307 1.962q.13.194.238.383.108-.19.238-.383C8.853 1.048 9.915.005 11.545 0A2.39 2.39 0 0 1 14 2.356a2.4 2.4 0 0 1-.245.978h1.578c.368 0 .667.298.667.666v2.667a.667.667 0 0 1-.667.667H8.667v7.333h4a.666.666 0 0 0 .666-.667V8.667a.667.667 0 0 1 1.334 0V14a2 2 0 0 1-2 2H3.333a2 2 0 0 1-2-2V8.667a.667.667 0 0 1 1.334 0V14a.667.667 0 0 0 .666.667h4V7.334H.667A.667.667 0 0 1 0 6.667V4c0-.368.298-.666.667-.666zm2.081 1.333H1.333V6h6V4.667H4.326m4.34 0V6h6V4.667h-6m2.986-1.333a1.06 1.06 0 0 0 1.014-1 1.06 1.06 0 0 0-1.11-1c-.994 0-1.706.62-2.211 1.372-.144.214-.264.43-.362.628z"/></g><defs><clipPath id="a"><path d="M0 0h16v16H0z"/></clipPath></defs></svg>