<svg xmlns="http://www.w3.org/2000/svg" viewBox="0 0 24 24" class="pdsicon"><path fill-rule="evenodd" d="M2.293 2.293a1 1 0 0 1 1.415 0l3.638 3.639q.088.07.16.16l10.391 10.39q.102.079.184.185l3.627 3.626a1 1 0 0 1-1.415 1.414l-3.153-3.154C15.695 19.4 13.972 20 12 20c-2.861 0-5.194-1.265-6.923-2.707-1.726-1.441-2.91-3.107-3.502-4.046l-.024-.038c-.118-.185-.27-.425-.348-.762a2.2 2.2 0 0 1 0-.894c.077-.337.23-.578.348-.764l.025-.038c.602-.953 1.825-2.676 3.62-4.141L2.293 3.707a1 1 0 0 1 0-1.414m4.325 5.74C4.98 9.325 3.834 10.92 3.267 11.818l-.11.18V12q.007.016.028.049l.08.13c.533.843 1.587 2.32 3.094 3.577C7.863 17.012 9.757 18 12 18c1.353 0 2.578-.359 3.667-.919l-1.635-1.635a4 4 0 0 1-5.478-5.478zm3.45 3.449a2 2 0 0 0 2.45 2.45zM12 6q-.572 0-1.11.082a1 1 0 0 1-.293-1.979A9.6 9.6 0 0 1 12 4c2.862 0 5.195 1.265 6.924 2.707 1.726 1.441 2.91 3.107 3.502 4.046l.024.038c.118.185.27.425.348.762.062.272.062.622 0 .894-.077.337-.23.578-.349.764l-.024.039a18.5 18.5 0 0 1-1.442 1.972 1 1 0 1 1-1.533-1.283A16.5 16.5 0 0 0 20.845 12V12l-.03-.049-.08-.13c-.532-.843-1.587-2.32-3.093-3.577C16.138 6.988 14.244 6 12 6"/></svg>