<svg xmlns="http://www.w3.org/2000/svg" viewBox="0 0 16 16" class="pdsicon"><g fill-rule="evenodd" clip-path="url(#a)"><path d="M1.586 7.818q.105.16.256.373c.324.454.799 1.057 1.4 1.658C4.462 11.07 6.104 12.182 8 12.182s3.538-1.112 4.759-2.333a13.3 13.3 0 0 0 1.656-2.03q-.105-.162-.257-.373a13.3 13.3 0 0 0-1.4-1.659C11.539 4.567 9.897 3.455 8 3.455S4.462 4.567 3.242 5.787a13.3 13.3 0 0 0-1.656 2.031m13.687 0 .631-.361-.001-.002-.003-.004-.008-.015-.03-.05-.108-.175a14.796 14.796 0 0 0-1.967-2.452C12.462 3.434 10.468 2 8 2S3.538 3.434 2.213 4.759A14.8 14.8 0 0 0 .246 7.21l-.138.225-.008.015-.003.004v.001s-.001.001.63.362l-.631-.36a.73.73 0 0 0 0 .721l.631-.36-.631.36.001.003.003.004.008.014a6 6 0 0 0 .138.226 14.798 14.798 0 0 0 1.967 2.452c1.325 1.325 3.32 2.758 5.787 2.758s4.462-1.433 5.787-2.758a14.8 14.8 0 0 0 1.967-2.452 8 8 0 0 0 .138-.226l.008-.014.003-.004V8.18zm0 0 .631.361a.73.73 0 0 0 0-.722z"/><path d="M8 6.364a1.455 1.455 0 1 0 0 2.909 1.455 1.455 0 0 0 0-2.91M5.091 7.818a2.91 2.91 0 1 1 5.818 0 2.91 2.91 0 0 1-5.818 0"/></g><defs><clipPath id="a"><path d="M0 0h16v16H0z"/></clipPath></defs></svg>