<svg xmlns="http://www.w3.org/2000/svg" viewBox="0 0 16 17" class="pdsicon"><path fill-rule="evenodd" d="M7.757 6.912a.5.5 0 0 0 .486 0l5.877-3.265a.2.2 0 0 0 0-.35L8.347.09a.715.715 0 0 0-.695 0L1.88 3.297a.2.2 0 0 0 0 .35l5.877 3.265Zm-.472 1.49a.2.2 0 0 0-.103-.174L1.147 4.875a.2.2 0 0 0-.297.175v7.105a.715.715 0 0 0 .368.624l5.77 3.206a.2.2 0 0 0 .297-.175V8.403Zm1.43 0a.2.2 0 0 1 .103-.174l6.034-3.352a.2.2 0 0 1 .298.175v7.104a.714.714 0 0 1-.368.624l-5.77 3.206a.2.2 0 0 1-.297-.175V8.403Z"/></svg>