<svg xmlns="http://www.w3.org/2000/svg" viewBox="0 0 16 16" class="pdsicon"><path fill-rule="evenodd" d="M8.295.063a.727.727 0 0 0-.59 0L1.162 2.97a.724.724 0 0 0-.435.681v8.712c0 .287.17.547.432.664l6.531 2.903a.725.725 0 0 0 .291.069H8a.734.734 0 0 0 .31-.07l6.53-2.902a.727.727 0 0 0 .433-.664V3.652a.722.722 0 0 0-.072-.33.724.724 0 0 0-.363-.352L8.295.063Zm4.46 3.573L8 1.523 3.245 3.636 8 5.75l4.755-2.114ZM2.182 4.756v7.135l5.09 2.263V7.018l-5.09-2.263Zm6.545 9.398 5.091-2.263V4.755l-5.09 2.263v7.136Z"/></svg>