<svg xmlns="http://www.w3.org/2000/svg" viewBox="0 0 24 24" class="pdsicon"><path fill-rule="evenodd" d="M2.32 5.15A4.5 4.5 0 0 1 10 8.33v.5a14.34 14.34 0 0 1-1.78 6.68 14.55 14.55 0 0 1-3.75 4.43.999.999 0 1 1-1.27-1.54 12.4 12.4 0 0 0 3.28-3.85c.37-.682.671-1.399.9-2.14a4.3 4.3 0 0 1-1.87.42 4.5 4.5 0 0 1-3.19-7.68m1.79 5.26a2.55 2.55 0 0 0 1.39.42c.343.007.684-.057 1-.19a2.48 2.48 0 0 0 1.31-1.35 2.5 2.5 0 0 0-2.797-3.415 2.5 2.5 0 0 0-.903 4.535m11.21-5.26A4.5 4.5 0 0 1 23 8.33v.5a14.4 14.4 0 0 1-1.76 6.68 14.7 14.7 0 0 1-3.78 4.44 1 1 0 0 1-1.26-1.55 12.3 12.3 0 0 0 3.28-3.85c.37-.682.671-1.399.9-2.14a4.3 4.3 0 0 1-1.87.42 4.5 4.5 0 0 1-3.18-7.68zm1.79 5.26a2.55 2.55 0 0 0 1.39.42c.343.007.684-.057 1-.19a2.48 2.48 0 0 0 1.35-1.35c.133-.316.197-.657.19-1a2.5 2.5 0 0 0-2.987-2.455A2.5 2.5 0 0 0 16.23 9.25c.175.463.481.866.88 1.16"/></svg>