<svg xmlns="http://www.w3.org/2000/svg" viewBox="0 0 16 16" class="pdsicon"><g clip-path="url(#a)"><path fill-rule="evenodd" d="M2.118 13.322q-.058.01-.118.011a.66.66 0 0 1-.647-.793l.667-3.333a.7.7 0 0 1 .18-.34l8-8c.26-.26.68-.26.94 0l2.667 2.666c.26.26.26.68 0 .94l-8 8a.7.7 0 0 1-.34.18l-3.334.667zM12.393 4l-1.726-1.727-1.06 1.06 1.726 1.727zm-3.726.273L3.28 9.66l-.427 2.16 2.154-.433L10.393 6zM1.333 14.667h13.334c.366 0 .666.3.666.666s-.3.667-.666.667H1.333a.67.67 0 0 1-.666-.667c0-.366.3-.666.666-.666"/></g><defs><clipPath id="a"><path d="M0 0h16v16H0z"/></clipPath></defs></svg>