<svg xmlns="http://www.w3.org/2000/svg" viewBox="0 0 24 24" class="pdsicon"><path fill-rule="evenodd" d="M20.46 1.486a3.8 3.8 0 0 1 1.24.834 3.81 3.81 0 0 1 0 5.41L10.4 19.01a7 7 0 0 1-.64.6 5 5 0 0 1-.56.37c-.2.1-.4.18-.81.34l-5.56 2.14a1 1 0 0 1-1.27-1.3l2.14-5.54q.147-.42.34-.82.166-.293.37-.56.28-.34.6-.64L16.29 2.32a3.81 3.81 0 0 1 4.17-.834M5.38 16.78l-1.14 3 2.92-1.14zm3.62.83L20.24 6.32h.05a1.833 1.833 0 0 0 0-2.59 1.83 1.83 0 0 0-2.59 0L6.41 15.03q.026.024.062.05c.048.034.098.07.098.11l2.26 2.26z"/><path d="M13 20.02h8a1 1 0 1 1 0 2h-8a1 1 0 0 1 0-2"/></svg>