<svg xmlns="http://www.w3.org/2000/svg" viewBox="0 0 16 16" class="pdsicon"><g clip-path="url(#a)"><path fill-rule="evenodd" d="M16 0h-.74a14.35 14.35 0 0 0-6.89 2.16 6 6 0 0 0-6.32 1.38 5.9 5.9 0 0 0-.92 1.21l-.26.44 2.29 2.3q-.45.724-.78 1.51l-.17.41 4.41 4.41.38-.2a12 12 0 0 0 1.48-.79l2.29 2.3.45-.26a5.8 5.8 0 0 0 1.2-.93 6 6 0 0 0 1.41-6.34A14.4 14.4 0 0 0 16 .75zM2.56 5q.204-.27.44-.51a4.63 4.63 0 0 1 3.94-1.32 16 16 0 0 0-3 3.18zm9 8c-.16.15-.33.3-.51.44l-1.41-1.36A16.4 16.4 0 0 0 12.83 9a4.65 4.65 0 0 1-1.32 4zM3.8 9.07l3.163 3.113A14.5 14.5 0 0 0 13.15 6.13L9.86 2.84A14.6 14.6 0 0 0 3.8 9.07m7.36-6.82 2.594 2.544c.41-1.079.68-2.206.806-3.354a13.2 13.2 0 0 0-3.4.81M7.94 5.22a2 2 0 0 0 0 2.84 2 2 0 0 0 2.84 0 2.008 2.008 0 1 0-2.84-2.84M10 6.64a.66.66 0 0 1-1.14.47.66.66 0 0 1 0-.94.63.63 0 0 1 .5-.17.65.65 0 0 1 .47.2.63.63 0 0 1 .17.44M0 16s0-2.71.74-3.45a1.902 1.902 0 0 1 2.69 2.69C2.69 16 0 16 0 16m1.44-1.45a3.5 3.5 0 0 0 1.05-.25.59.59 0 0 0 .12-.616.56.56 0 0 0-.52-.354.54.54 0 0 0-.37.13 3.5 3.5 0 0 0-.28 1.09"/></g><defs><clipPath id="a"><path d="M0 0h16v16H0z"/></clipPath></defs></svg>