<svg xmlns="http://www.w3.org/2000/svg" viewBox="0 0 24 24" class="pdsicon"><path d="m12 15-3-3a22 22 0 0 1 2-3.95A12.88 12.88 0 0 1 22 2c0 2.72-.78 7.5-6 11a22.4 22.4 0 0 1-4 2" opacity=".12"/><path fill-rule="evenodd" d="M20.96 3.039a11.88 11.88 0 0 0-9.112 5.541l-.006.01a21 21 0 0 0-1.667 3.17l2.067 2.068a21.4 21.4 0 0 0 3.212-1.666c4.225-2.838 5.3-6.55 5.505-9.123M15.34 14.55A23 23 0 0 1 13 15.678v3.027q.144-.047.295-.101c.863-.313 1.582-.724 1.873-1.16.144-.214.25-.546.292-1.001a6.6 6.6 0 0 0-.047-1.423q-.03-.244-.072-.469M12 20l.179.984A1 1 0 0 1 11 20v-4.586L8.586 13H4a1 1 0 0 1-.984-1.179L4 12l-.984-.179v-.002l.001-.003.002-.01.006-.032.023-.112a12.611 12.611 0 0 1 .468-1.639c.325-.895.913-2.175 1.928-2.854l.001-.001c.595-.397 1.293-.56 1.927-.62a8.6 8.6 0 0 1 1.863.055c.526.068 1.001.166 1.36.252A13.88 13.88 0 0 1 22.006 1 1 1 0 0 1 23 2c0 2.81-.788 7.708-5.852 11.417.085.357.182.828.249 1.348.073.567.114 1.22.054 1.863-.059.634-.222 1.332-.619 1.927v.001c-.68 1.015-1.96 1.603-2.855 1.928a13 13 0 0 1-1.751.49l-.032.007-.01.002h-.005zM9.467 8.662A23 23 0 0 0 8.325 11h-3.03q.047-.144.101-.295c.313-.863.724-1.582 1.16-1.873.214-.143.546-.25 1.001-.292a6.6 6.6 0 0 1 1.423.047q.254.033.487.075m-5.61 7.073a3.18 3.18 0 0 1 4.243.132l.013.011c1.188 1.174 1.173 3.057.152 4.266-.443.527-1.053.914-1.639 1.2-.598.292-1.244.514-1.823.68a17 17 0 0 1-2.117.46l-.037.005-.011.001-.005.001L2.5 21.5l-.991-.133v-.005l.002-.01.005-.038.02-.134c.019-.113.046-.274.083-.47.074-.392.19-.93.357-1.512.166-.58.388-1.226.68-1.824.287-.587.673-1.197 1.2-1.64M2.5 21.5l-.991-.133a1 1 0 0 0 1.124 1.124zm1.27-1.27q.233-.059.482-.129a9.3 9.3 0 0 0 1.496-.554c.47-.23.8-.467.986-.69l.002-.002c.396-.469.363-1.16-.023-1.548a1.18 1.18 0 0 0-1.569-.042c-.224.188-.462.518-.69.987a9.3 9.3 0 0 0-.555 1.495q-.07.25-.129.483"/></svg>