<svg xmlns="http://www.w3.org/2000/svg" viewBox="0 0 16 16" class="pdsicon"><g clip-path="url(#a)"><path fill-rule="evenodd" d="M2.38 9c.03-.12 3.5-8.47 12.88-9H16l-.07.74C15.4 10.08 7.09 13.62 7 13.62l-.38.2-4.41-4.41zm7.95-1.44a1.33 1.33 0 0 0 .29-1.454 1.3 1.3 0 0 0-.29-.436 1.3 1.3 0 0 0-.68-.37 1.36 1.36 0 0 0-1.38.57 1.32 1.32 0 0 0 0 1.49 1.36 1.36 0 0 0 1.375.57c.26-.051.5-.18.685-.37M3.403 1.953A6 6 0 0 1 6.94 1.48 18 18 0 0 0 2.2 6.5L.87 5.17a.6.6 0 0 1-.19-.39.7.7 0 0 1 .08-.43 6 6 0 0 1 2.643-2.397M1.36 12.13c-.23.094-.437.233-.61.41C0 13.29 0 16 0 16s2.7 0 3.44-.76a2 2 0 0 0 .42-.62 2 2 0 0 0 .14-.73c.009-.25-.04-.5-.14-.73a2.2 2.2 0 0 0-.41-.62 1.8 1.8 0 0 0-.62-.41 1.88 1.88 0 0 0-1.47 0m13.16-3.07a6 6 0 0 1-2.87 6.18.7.7 0 0 1-.43.08.6.6 0 0 1-.39-.19L9.5 13.8a18 18 0 0 0 5.02-4.74"/></g><defs><clipPath id="a"><path d="M0 0h16v16H0z"/></clipPath></defs></svg>