<svg xmlns="http://www.w3.org/2000/svg" viewBox="0 0 16 16" class="pdsicon"><path d="M8 10 6 8c.355-.92.801-1.803 1.333-2.633a8.59 8.59 0 0 1 7.334-4.034c0 1.814-.52 5-4 7.334A15 15 0 0 1 8 10" opacity=".12"/><path fill-rule="evenodd" d="M13.973 2.026A7.92 7.92 0 0 0 7.899 5.72l-.004.006A14 14 0 0 0 6.783 7.84L8.161 9.22q1.117-.465 2.142-1.111c2.817-1.892 3.534-4.366 3.67-6.082M10.228 9.7q-.76.419-1.561.751v2.018q.096-.03.197-.068c.575-.208 1.054-.482 1.248-.772.096-.144.166-.365.195-.668.027-.298.01-.628-.032-.948a7 7 0 0 0-.047-.313M8 13.333l.12.656a.667.667 0 0 1-.787-.656v-3.057l-1.61-1.61H2.668a.667.667 0 0 1-.656-.785L2.667 8l-.656-.12v-.003l.002-.006.004-.022a5 5 0 0 1 .075-.335c.053-.216.136-.512.252-.832.216-.596.609-1.45 1.285-1.903h.001c.397-.265.862-.374 1.285-.413.428-.04.864-.013 1.242.036.35.045.667.11.906.168A9.25 9.25 0 0 1 14.671.667c.366.002.662.3.662.666 0 1.874-.525 5.139-3.901 7.611.057.239.121.552.166.9.049.377.076.813.036 1.241-.04.423-.148.888-.413 1.285-.453.677-1.307 1.07-1.903 1.286a8.4 8.4 0 0 1-1.167.327l-.022.004-.006.002H8.12zM6.312 5.775a15 15 0 0 0-.762 1.558H3.53q.03-.096.068-.197c.208-.575.482-1.054.772-1.248.144-.096.365-.166.668-.195.298-.027.628-.01.948.032q.17.021.326.05M2.57 10.49a2.12 2.12 0 0 1 2.83.088l.007.008c.793.782.783 2.037.102 2.844-.295.35-.702.608-1.093.8-.398.194-.829.342-1.215.453a12 12 0 0 1-1.411.306l-.025.004h-.007l-.003.001-.09-.66-.66-.09v-.003l.001-.007.004-.025a7 7 0 0 1 .068-.403c.05-.26.127-.619.238-1.008a7.5 7.5 0 0 1 .454-1.215c.19-.391.449-.798.8-1.093m-.904 3.843-.661-.088a.667.667 0 0 0 .75.749zm.847-.847q.155-.038.321-.085a6 6 0 0 0 .997-.37c.313-.152.533-.311.658-.46v-.001c.265-.313.243-.774-.014-1.032a.787.787 0 0 0-1.046-.028h-.001c-.149.125-.307.345-.46.658a6 6 0 0 0-.37.997 9 9 0 0 0-.085.321"/></svg>