<svg xmlns="http://www.w3.org/2000/svg" viewBox="0 0 24 24" class="pdsicon"><path d="M14.981 2.968a13.9 13.9 0 0 1 6.775-1.718 1 1 0 0 1 .994 1c0 2.81-.788 7.708-5.852 11.417.085.357.182.828.249 1.348.073.567.114 1.22.054 1.863-.059.634-.222 1.332-.619 1.927v.001c-.68 1.015-1.96 1.604-2.855 1.928a13 13 0 0 1-1.751.491 1.03 1.03 0 0 1-.867-.207 1 1 0 0 1-.36-.768v-4.586L8.337 13.25H3.75a1 1 0 0 1-.984-1.178 12.614 12.614 0 0 1 .5-1.799c.325-.894.913-2.175 1.928-2.854h.001c.595-.397 1.293-.561 1.927-.62a8.6 8.6 0 0 1 1.863.055c.526.067 1 .166 1.36.251a13.9 13.9 0 0 1 4.636-4.137"/><path fill-rule="evenodd" d="M5.753 15.239a3.18 3.18 0 0 0-2.147.746c-.527.443-.913 1.053-1.2 1.64a11.3 11.3 0 0 0-.68 1.823 17 17 0 0 0-.467 2.168v.001a1 1 0 0 0 1.124 1.124 12 12 0 0 0 .658-.11c.39-.074.928-.19 1.511-.357.58-.166 1.226-.388 1.824-.68.586-.286 1.196-.673 1.639-1.2 1.02-1.209 1.036-3.092-.152-4.265l-.013-.012a3.18 3.18 0 0 0-2.097-.878"/></svg>