<svg xmlns="http://www.w3.org/2000/svg" viewBox="0 0 16 16" class="pdsicon"><g clip-path="url(#a)"><path fill-rule="evenodd" d="M16 0h-.74a14.35 14.35 0 0 0-6.89 2.16 6 6 0 0 0-6.32 1.38 5.85 5.85 0 0 0-.92 1.21l-.26.44 2.29 2.3c-.299.482-.56.987-.78 1.51l-.17.41 4.41 4.41.38-.2a12.007 12.007 0 0 0 1.48-.79l2.29 2.3.45-.26a5.832 5.832 0 0 0 1.2-.93 6 6 0 0 0 1.41-6.34A14.4 14.4 0 0 0 16 .75V0ZM2.56 5a4.63 4.63 0 0 1 4.38-1.83 16.08 16.08 0 0 0-3 3.18L2.56 5Zm9 8c-.16.15-.33.3-.51.44l-1.41-1.36A16.346 16.346 0 0 0 12.83 9a4.65 4.65 0 0 1-1.32 4h.05ZM3.8 9.07l3.163 3.113A14.49 14.49 0 0 0 13.15 6.13L9.86 2.84A14.62 14.62 0 0 0 3.8 9.07Zm7.36-6.82 2.594 2.544c.41-1.079.68-2.206.806-3.354a13.24 13.24 0 0 0-3.4.81ZM7.94 5.22a2 2 0 0 0 0 2.84 2 2 0 0 0 2.84 0 2.008 2.008 0 1 0-2.84-2.84ZM10 6.64a.66.66 0 0 1-1.14.47.66.66 0 0 1 0-.94.63.63 0 0 1 .5-.17.65.65 0 0 1 .47.2.63.63 0 0 1 .17.44ZM0 16s0-2.71.74-3.45a1.902 1.902 0 0 1 2.69 2.69C2.69 16 0 16 0 16Zm1.44-1.45a3.49 3.49 0 0 0 1.05-.25.59.59 0 0 0 .12-.616.56.56 0 0 0-.52-.354.54.54 0 0 0-.37.13 3.48 3.48 0 0 0-.28 1.09Z"/></g><defs><clipPath id="a"><path d="M0 0h16v16H0z"/></clipPath></defs></svg>