<svg xmlns="http://www.w3.org/2000/svg" viewBox="0 0 24 24" class="pdsicon"><path fill-rule="evenodd" d="M22.457 1.543a1 1 0 0 1 .293.707 13.85 13.85 0 0 1-5.85 11.43c.3 1.22.68 3.64-.32 5.14-1.17 1.76-4.3 2.37-4.65 2.43a.6.6 0 0 1-.18 0 1 1 0 0 1-1-1v-4.59l-2.41-2.41H3.75a1 1 0 0 1-.77-.36 1 1 0 0 1-.21-.82c.06-.35.67-3.48 2.43-4.65 1.51-1.01 3.93-.61 5.15-.32a13.88 13.88 0 0 1 11.31-5.85h.09a1 1 0 0 1 .707.293M5.08 11.25h3q.518-1.204 1.17-2.34a4.7 4.7 0 0 0-2.91.17 4.5 4.5 0 0 0-1.26 2.17m7.67 7.74a4.46 4.46 0 0 0 2.17-1.27 4.62 4.62 0 0 0 .23-2.92q-1.165.665-2.4 1.19zM12 14.1a21.7 21.7 0 0 0 3.21-1.66v-.03a11.78 11.78 0 0 0 5.5-9.12 11.8 11.8 0 0 0-4.76 1.43 12 12 0 0 0-4.35 4.11 20.5 20.5 0 0 0-1.67 3.18z"/><path fill-rule="evenodd" d="M3.61 15.98a3.17 3.17 0 0 1 2.15-.74 3.1 3.1 0 0 1 2.09.88 3.17 3.17 0 0 1 .17 4.29c-1.47 1.74-5.21 2.28-5.64 2.34h-.13a1 1 0 0 1-.943-.676 1 1 0 0 1-.047-.454c.06-.42.6-4.17 2.35-5.64m-.12 4.5a6.4 6.4 0 0 0 3-1.37 1.17 1.17 0 0 0-.09-1.59 1.18 1.18 0 0 0-.77-.31 1.16 1.16 0 0 0-.76.27 6.3 6.3 0 0 0-1.38 3"/></svg>