<svg xmlns="http://www.w3.org/2000/svg" viewBox="0 0 24 24" class="pdsicon"><path fill-rule="evenodd" d="M12 3a9 9 0 1 0 0 18 9 9 0 0 0 0-18M1 12C1 5.925 5.925 1 12 1s11 4.925 11 11-4.925 11-11 11S1 18.075 1 12m11-7.5a1 1 0 0 1 1 1V6h.167A3.333 3.333 0 0 1 16.5 9.333a1 1 0 1 1-2 0C14.5 8.597 13.903 8 13.167 8H11a1.5 1.5 0 0 0 0 3h2a3.5 3.5 0 1 1 0 7v.5a1 1 0 1 1-2 0V18h-.167A3.333 3.333 0 0 1 7.5 14.667a1 1 0 1 1 2 0c0 .736.597 1.333 1.333 1.333H13a1.5 1.5 0 0 0 0-3h-2a3.5 3.5 0 1 1 0-7v-.5a1 1 0 0 1 1-1"/></svg>