<svg xmlns="http://www.w3.org/2000/svg" viewBox="0 0 16 16" class="pdsicon"><g clip-path="url(#a)"><path fill-rule="evenodd" d="M.7 1.3c0-.3.3-.6.6-.6h13.3c.4 0 .7.3.7.7V4c0 .4-.3.7-.7.7H1.3C1 4.7.7 4.4.7 4zM2 2v1.3h12V2H2M.7 6.7c0-.4.3-.7.6-.7h13.3c.4 0 .7.3.7.7v2.7c0 .4-.3.7-.7.7H1.3C1 10 .7 9.7.7 9.3zm1.3.6v1.3h12V7.3zm-.7 4c-.4 0-.7.3-.7.7v2.7c0 .4.3.7.7.7h13.3c.4 0 .7-.3.7-.7V12c0-.4-.3-.7-.7-.7zM2 14v-1.3h12V14z"/></g><defs><clipPath id="a"><path d="M0 0h16v16H0z"/></clipPath></defs></svg>