<svg xmlns="http://www.w3.org/2000/svg" viewBox="0 0 24 24" class="pdsicon"><path fill-rule="evenodd" d="M1.55 2.008c-.092 0-.183.092-.275.184A.83.83 0 0 0 1 2.833v5.5c0 .55.367.917.917.917s.916-.367.916-.917v-3.3l4.859 4.859a.886.886 0 0 0 1.283 0 .886.886 0 0 0 0-1.284L4.117 3.75h3.3c.55 0 .916-.367.916-.917s-.366-.916-.916-.916h-5.5c-.092 0-.275 0-.367.091M6.5 20.25c-.55 0-.917.367-.917.917s.367.916.917.916h11c.55 0 .917-.366.917-.916s-.367-.917-.917-.917zm3.667-17.417c0-.55.366-.916.916-.916h11c.55 0 .917.366.917.916V17.5c0 .55-.367.917-.917.917H1.917c-.55 0-.917-.367-.917-.917V12c0-.55.367-.917.917-.917s.916.367.916.917v4.583h18.334V3.75H11.083c-.55 0-.916-.367-.916-.917"/></svg>