<svg xmlns="http://www.w3.org/2000/svg" viewBox="0 0 24 24" class="pdsicon"><path fill-rule="evenodd" d="M7.417 3.75H4.13l4.852 4.852a.917.917 0 1 1-1.297 1.296L2.833 5.046v3.287a.917.917 0 1 1-1.833 0v-5.5a.91.91 0 0 1 .267-.646l.003-.004a.91.91 0 0 1 .647-.266h5.5a.917.917 0 1 1 0 1.833M17.5 20.25H7.417a.917.917 0 0 0 0 1.833H17.5a.917.917 0 1 0 0-1.833M23 6.5a.917.917 0 0 0-1.833 0v10.083H11.083a.917.917 0 0 0 0 1.834h11c.507 0 .917-.41.917-.917zM1.917 11.083c.506 0 .916.41.916.917v4.583H6.12L18.954 3.75h-7.87a.917.917 0 0 1 0-1.833h10.083a.917.917 0 0 1 .648 1.565L3.482 21.815a.917.917 0 1 1-1.297-1.297l2.102-2.101h-2.37A.917.917 0 0 1 1 17.5V12c0-.506.41-.917.917-.917"/></svg>