<svg xmlns="http://www.w3.org/2000/svg" viewBox="0 0 16 16" class="pdsicon"><path fill-rule="evenodd" d="M4.69.662c0-.366.296-.662.662-.662h5.296a.662.662 0 0 1 0 1.324H5.352A.662.662 0 0 1 4.69.662ZM3.366 2.648a.662.662 0 0 0 0 1.324h9.268a.662.662 0 0 0 0-1.324H3.366Zm-.332 2.318a1.65 1.65 0 0 0-1.153.468c-.31.3-.502.721-.502 1.187v7.724c0 .914.741 1.655 1.655 1.655h9.931c.915 0 1.656-.741 1.656-1.655V6.62c0-.914-.741-1.655-1.655-1.655H3.034Zm-.551 9.379v-7.58l5.146 4.678c.21.191.532.191.742 0l5.146-4.679v7.58a.552.552 0 0 1-.551.553H3.034a.552.552 0 0 1-.551-.552Zm.875-8.276h9.284L8 10.289l-4.642-4.22Z"/></svg>