<svg xmlns="http://www.w3.org/2000/svg" viewBox="0 0 24 24" class="pdsicon"><path d="M7.448 1.91a.91.91 0 0 1 .91-.91h7.283a.91.91 0 0 1 0 1.82H8.36a.91.91 0 0 1-.91-.91M5.628 4.641a.91.91 0 1 0 0 1.821h12.744a.91.91 0 1 0 0-1.82z"/><path fill-rule="evenodd" d="M5.172 7.828a2.27 2.27 0 0 0-1.586.644 2.27 2.27 0 0 0-.69 1.632v10.62A2.276 2.276 0 0 0 5.173 23h13.656a2.276 2.276 0 0 0 2.275-2.276v-10.62a2.276 2.276 0 0 0-2.275-2.276zm-.758 12.896V10.301l7.076 6.433a.76.76 0 0 0 1.02 0l7.076-6.433v10.423c0 .42-.34.759-.758.759H5.172a.76.76 0 0 1-.758-.759m1.204-11.38h12.764L12 15.148z"/></svg>