<svg xmlns="http://www.w3.org/2000/svg" viewBox="0 0 16 16" class="pdsicon"><g clip-path="url(#a)"><path fill-rule="evenodd" d="M4.69.662c0-.366.296-.662.662-.662h5.296a.662.662 0 1 1 0 1.324H5.352A.66.66 0 0 1 4.69.662M3.366 2.648a.662.662 0 1 0 0 1.324h9.269a.662.662 0 1 0 0-1.324zm-.331 2.318a1.65 1.65 0 0 0-1.154.468c-.31.3-.502.721-.502 1.187v7.724c0 .914.741 1.655 1.656 1.655h9.93c.915 0 1.656-.741 1.656-1.655V6.62c0-.914-.741-1.655-1.655-1.655zm-.552 9.379v-7.58l5.146 4.678c.21.191.532.191.742 0l5.146-4.679v7.58a.55.55 0 0 1-.551.553H3.035a.55.55 0 0 1-.552-.552m.875-8.276h9.284L8 10.289z"/></g><defs><clipPath id="a"><path d="M0 0h16v16H0z"/></clipPath></defs></svg>