<svg xmlns="http://www.w3.org/2000/svg" viewBox="0 0 24 24" class="pdsicon"><path fill-rule="evenodd" d="M18.624 15.6a1.5 1.5 0 0 1 .103-.873 1.5 1.5 0 0 1 1.373-.909h.082a1.818 1.818 0 0 0 0-3.636h-.155a1.5 1.5 0 0 1-1.373-.91V9.2a1.5 1.5 0 0 1 .3-1.655l.055-.054a1.819 1.819 0 1 0-2.573-2.573l-.054.055a1.5 1.5 0 0 1-1.655.3 1.5 1.5 0 0 1-.909-1.373v-.082a1.818 1.818 0 0 0-3.636 0v.155a1.5 1.5 0 0 1-.91 1.372H9.2a1.5 1.5 0 0 1-1.655-.3l-.054-.054a1.818 1.818 0 1 0-2.573 2.573l.055.054a1.5 1.5 0 0 1 .3 1.655 1.5 1.5 0 0 1-1.373.982h-.082a1.818 1.818 0 0 0 0 3.636h.155a1.5 1.5 0 0 1 1.372.909 1.5 1.5 0 0 1-.3 1.654l-.054.055a1.819 1.819 0 1 0 2.573 2.573l.054-.055a1.5 1.5 0 0 1 1.655-.3 1.5 1.5 0 0 1 .982 1.373v.082a1.818 1.818 0 0 0 3.636 0v-.155a1.5 1.5 0 0 1 .909-1.373 1.5 1.5 0 0 1 1.654.3l.055.055a1.82 1.82 0 1 0 2.573-2.573l-.055-.054a1.5 1.5 0 0 1-.403-.782M15 12a3 3 0 1 1-6 0 3 3 0 0 1 6 0" opacity=".12"/><path fill-rule="evenodd" d="M19.8 14.86a.5.5 0 0 0-.18.23l-.01-.02a.52.52 0 0 0 0 .3c.021.096.066.186.13.26a2.9 2.9 0 0 1 .658 1 2.892 2.892 0 0 1 0 2.16 2.81 2.81 0 0 1-1.52 1.52 2.8 2.8 0 0 1-2.146 0 2.8 2.8 0 0 1-.916-.61.58.58 0 0 0-.299-.18.48.48 0 0 0-.289 0 .6.6 0 0 0-.239.19.53.53 0 0 0-.08.27v.17a2.83 2.83 0 0 1-1.73 2.606 2.8 2.8 0 0 1-3.06-.606 2.88 2.88 0 0 1-.827-2 .53.53 0 0 0-.09-.34.5.5 0 0 0-.229-.18.6.6 0 0 0-.349-.06.5.5 0 0 0-.259.14 2.8 2.8 0 0 1-.996.65 2.75 2.75 0 0 1-2.141 0 2.8 2.8 0 0 1-1.534-1.48 2.9 2.9 0 0 1 0-2.16 2.8 2.8 0 0 1 .608-.91.6.6 0 0 0 .189-.31.6.6 0 0 0 0-.29.5.5 0 0 0-.19-.23.43.43 0 0 0-.268-.08h-.18a2.83 2.83 0 0 1-1.992-.83 2.82 2.82 0 0 1-.603-3.073 2.8 2.8 0 0 1 1.035-1.263 2.8 2.8 0 0 1 1.56-.474.63.63 0 0 0 .339-.09.46.46 0 0 0 .17-.24c.059-.106.08-.23.06-.35a.5.5 0 0 0-.13-.26 2.9 2.9 0 0 1-.658-1 2.9 2.9 0 0 1-.19-1.12c0-.37.072-.737.21-1.08a2.8 2.8 0 0 1 .608-.91c.258-.267.57-.475.916-.61a2.75 2.75 0 0 1 2.142 0c.344.138.656.345.916.61.083.089.19.151.309.18a.5.5 0 0 0 .289 0l.179-.06a.5.5 0 0 0 .11-.07.54.54 0 0 0 .08-.28v-.12a2.78 2.78 0 0 1 .826-2 2.87 2.87 0 0 1 3.984 0 2.77 2.77 0 0 1 .827 2 .6.6 0 0 0 .08.35c.052.084.128.15.219.19q.149.036.298 0a.5.5 0 0 0 .26-.14 2.82 2.82 0 0 1 3.107-.66c.34.145.651.351.916.61a3 3 0 0 1 .608.92 2.9 2.9 0 0 1 0 2.16 3 3 0 0 1-.608.91.5.5 0 0 0-.179.31.5.5 0 0 0 0 .29.6.6 0 0 1 .06.18.4.4 0 0 0 .1.09c.077.06.171.09.268.09h.17a2.82 2.82 0 0 1 2.608 1.736 2.825 2.825 0 0 1-.62 3.066 2.8 2.8 0 0 1-1.978.818.6.6 0 0 0-.349.08m-2.012-.57c.19-.447.51-.826.916-1.09.404-.273.879-.42 1.365-.42a.87.87 0 0 0 .657-.24.81.81 0 0 0 0-1.15.78.78 0 0 0-.577-.24h-.15a2.55 2.55 0 0 1-1.374-.42 2.44 2.44 0 0 1-.907-1.1 1.2 1.2 0 0 1-.08-.25 2.54 2.54 0 0 1 .578-2.57 1 1 0 0 0 .24-.33.8.8 0 0 0 .06-.31q-.002-.166-.06-.32a.9.9 0 0 0-.18-.26.7.7 0 0 0-.259-.18.85.85 0 0 0-.627 0 .8.8 0 0 0-.27.18c-.366.376-.839.631-1.354.73-.49.089-.997.03-1.454-.17a2.478 2.478 0 0 1-1.494-2.28.91.91 0 0 0-.24-.67.816.816 0 0 0-1.394.58v.2a2.5 2.5 0 0 1-1.504 2.3q-.125.05-.259.07a2.54 2.54 0 0 1-1.255.1 2.48 2.48 0 0 1-1.295-.68 1.3 1.3 0 0 0-.328-.24.85.85 0 0 0-.628 0 1 1 0 0 0-.259.18.813.813 0 0 0-.24.53q.003.166.06.32a.9.9 0 0 0 .18.26c.375.368.629.843.727 1.36a2.53 2.53 0 0 1-.17 1.46 2.43 2.43 0 0 1-.866 1.11 2.4 2.4 0 0 1-1.394.47h-.1a.77.77 0 0 0-.577.24.81.81 0 0 0 0 1.15.79.79 0 0 0 .577.25h.18a2.44 2.44 0 0 1 2.26 1.46 2.514 2.514 0 0 1-.498 2.75 1 1 0 0 0-.238.32.9.9 0 0 0-.06.32.81.81 0 0 0 .239.58.9.9 0 0 0 .259.18c.201.08.426.08.627 0a.8.8 0 0 0 .27-.18c.365-.38.838-.638 1.354-.74q.225-.015.448 0c.344 0 .684.075.996.22.444.173.828.472 1.106.86.287.41.446.898.458 1.4v.11a.82.82 0 0 0 .239.57.835.835 0 0 0 1.155 0 .82.82 0 0 0 .24-.57v-.16a2.521 2.521 0 0 1 2.948-2.45c.488.09.939.323 1.295.67a1 1 0 0 0 .328.24.77.77 0 0 0 .628 0 .78.78 0 0 0 .438-.44.85.85 0 0 0 0-.63.7.7 0 0 0-.18-.26 2.57 2.57 0 0 1-.726-1.37 2.5 2.5 0 0 1 .169-1.45m-8-5.636a3.97 3.97 0 0 1 5.03.498 4.008 4.008 0 0 1-1.292 6.524 3.97 3.97 0 0 1-4.342-.868 4.005 4.005 0 0 1-.864-4.359 4 4 0 0 1 1.467-1.795m1.106 4.989a1.986 1.986 0 0 0 2.516-.249 2.004 2.004 0 0 0-.647-3.262 1.985 1.985 0 0 0-2.17.434 2 2 0 0 0-.432 2.18c.15.365.406.677.733.897"/></svg>