<svg xmlns="http://www.w3.org/2000/svg" viewBox="0 0 16 16" class="pdsicon"><g fill-rule="evenodd" clip-path="url(#a)"><path d="M12.416 10.4c-.036-.196-.012-.399.069-.582a1 1 0 0 1 .915-.606h.054a1.212 1.212 0 1 0 0-2.424h-.103a1 1 0 0 1-.915-.606v-.049a1 1 0 0 1 .2-1.103l.037-.036a1.212 1.212 0 1 0-1.715-1.715l-.037.036a1 1 0 0 1-1.103.2 1 1 0 0 1-.606-.915v-.055a1.212 1.212 0 1 0-2.424 0v.103a1 1 0 0 1-.606.916h-.049a1 1 0 0 1-1.103-.2l-.036-.037a1.212 1.212 0 1 0-1.715 1.715l.036.037a1 1 0 0 1 .2 1.103 1 1 0 0 1-.915.654h-.055a1.212 1.212 0 1 0 0 2.425h.103a1 1 0 0 1 .916.606 1 1 0 0 1-.2 1.103l-.037.036a1.21 1.21 0 0 0 .394 1.978 1.21 1.21 0 0 0 1.321-.263l.037-.036a1 1 0 0 1 1.103-.2 1 1 0 0 1 .654.915v.054a1.212 1.212 0 1 0 2.425 0v-.103a1 1 0 0 1 .606-.915 1 1 0 0 1 1.103.2l.036.037a1.213 1.213 0 1 0 1.715-1.715l-.036-.037a1 1 0 0 1-.27-.52M10 8a2 2 0 1 1-4 0 2 2 0 0 1 4 0" opacity=".12"/><path d="M13.2 9.907a.33.33 0 0 0-.12.153l-.006-.013a.35.35 0 0 0 0 .2.4.4 0 0 0 .086.173c.19.19.34.416.438.667a1.926 1.926 0 0 1 0 1.44c-.19.459-.555.823-1.013 1.013s-.972.19-1.43 0a1.9 1.9 0 0 1-.611-.407.4.4 0 0 0-.2-.12.3.3 0 0 0-.192 0 .4.4 0 0 0-.16.127.35.35 0 0 0-.052.18v.113a1.89 1.89 0 0 1-1.154 1.738 1.865 1.865 0 0 1-2.04-.404 1.92 1.92 0 0 1-.552-1.334.35.35 0 0 0-.06-.226.33.33 0 0 0-.152-.12.4.4 0 0 0-.232-.04.34.34 0 0 0-.173.093c-.188.19-.414.338-.664.433a1.83 1.83 0 0 1-1.428 0 1.86 1.86 0 0 1-1.022-.986 1.93 1.93 0 0 1 0-1.44c.094-.227.231-.434.405-.607a.4.4 0 0 0 .126-.207.4.4 0 0 0 0-.193.32.32 0 0 0-.126-.153.3.3 0 0 0-.18-.054h-.12a1.9 1.9 0 0 1-1.327-.553 1.882 1.882 0 0 1 1.328-3.207.4.4 0 0 0 .226-.06.3.3 0 0 0 .113-.16.36.36 0 0 0 .04-.233.33.33 0 0 0-.087-.173c-.19-.19-.34-.417-.438-.667a1.9 1.9 0 0 1-.126-.747c0-.246.047-.49.139-.72.094-.227.232-.433.405-.606.172-.178.38-.317.611-.407a1.83 1.83 0 0 1 1.428 0c.23.092.437.23.61.407.056.059.128.1.206.12q.096.029.193 0l.12-.04a.3.3 0 0 0 .073-.047.36.36 0 0 0 .053-.187v-.08a1.85 1.85 0 0 1 .55-1.333 1.915 1.915 0 0 1 2.657 0 1.85 1.85 0 0 1 .551 1.333.4.4 0 0 0 .053.234c.035.055.086.1.146.126a.4.4 0 0 0 .2 0 .34.34 0 0 0 .172-.093 1.88 1.88 0 0 1 2.072-.44c.227.096.434.234.61.407a2 2 0 0 1 .406.613c.186.462.186.978 0 1.44a2 2 0 0 1-.405.607.34.34 0 0 0-.12.206.32.32 0 0 0 0 .194q.03.056.04.12.028.036.067.06c.051.039.114.06.179.06h.113a1.88 1.88 0 0 1 1.739 1.157 1.884 1.884 0 0 1-.413 2.044c-.351.35-.825.545-1.32.545a.4.4 0 0 0-.232.054m-1.341-.38c.127-.298.34-.551.61-.727a1.63 1.63 0 0 1 .91-.28.58.58 0 0 0 .439-.16.54.54 0 0 0 0-.767.52.52 0 0 0-.386-.16h-.1a1.7 1.7 0 0 1-.916-.28 1.63 1.63 0 0 1-.604-.733 1 1 0 0 1-.053-.167 1.69 1.69 0 0 1 .385-1.713.7.7 0 0 0 .16-.22.5.5 0 0 0 .04-.207.6.6 0 0 0-.04-.213.6.6 0 0 0-.12-.173.45.45 0 0 0-.173-.12.57.57 0 0 0-.418 0 .5.5 0 0 0-.18.12c-.244.25-.559.42-.902.486a1.67 1.67 0 0 1-1.696-.722 1.65 1.65 0 0 1-.27-.911.6.6 0 0 0-.16-.447.544.544 0 0 0-.929.387v.133a1.67 1.67 0 0 1-1.003 1.534.7.7 0 0 1-.172.046 1.7 1.7 0 0 1-.837.067 1.65 1.65 0 0 1-.863-.453.9.9 0 0 0-.22-.16.57.57 0 0 0-.418 0 .7.7 0 0 0-.172.12.53.53 0 0 0-.16.353q0 .11.04.213a.6.6 0 0 0 .12.174 1.686 1.686 0 0 1 .372 1.88 1.6 1.6 0 0 1-.578.74 1.6 1.6 0 0 1-.93.313H2.57a.52.52 0 0 0-.385.16.54.54 0 0 0 0 .767.53.53 0 0 0 .385.166h.12a1.63 1.63 0 0 1 1.507.974 1.676 1.676 0 0 1-.332 1.833.7.7 0 0 0-.16.213.6.6 0 0 0-.04.214.54.54 0 0 0 .16.386q.076.075.173.12a.57.57 0 0 0 .418 0 .5.5 0 0 0 .18-.12c.243-.253.558-.425.902-.493q.15-.01.299 0c.23 0 .456.05.664.147.296.115.552.314.737.573.192.274.298.599.306.933v.074a.55.55 0 0 0 .159.38.557.557 0 0 0 .77 0 .55.55 0 0 0 .16-.38v-.107a1.682 1.682 0 0 1 1.966-1.633c.325.06.625.215.862.446a.7.7 0 0 0 .22.16.5.5 0 0 0 .418 0A.52.52 0 0 0 12.35 12a.57.57 0 0 0 0-.42.45.45 0 0 0-.12-.173 1.7 1.7 0 0 1-.484-.914c-.06-.326-.02-.663.113-.966M6.525 5.769a2.65 2.65 0 0 1 3.354.332 2.672 2.672 0 0 1-.862 4.35 2.65 2.65 0 0 1-2.895-.579 2.67 2.67 0 0 1-.575-2.906c.2-.487.541-.904.978-1.197m.738 3.326A1.324 1.324 0 0 0 8.94 8.93a1.336 1.336 0 0 0-.431-2.174 1.32 1.32 0 0 0-1.447.289 1.335 1.335 0 0 0 .2 2.051"/></g><defs><clipPath id="a"><path d="M0 0h16v16H0z"/></clipPath></defs></svg>