<svg xmlns="http://www.w3.org/2000/svg" viewBox="0 0 24 24" class="pdsicon"><path fill-rule="evenodd" d="M10.337 3.14a1.5 1.5 0 0 1 1.2-.552c.407.01.714.213.868.323a8 8 0 0 1 .566.462l8.471 7.26.02.017c.104.09.226.194.323.293.11.113.266.292.358.55a1.5 1.5 0 0 1 0 1.014 1.5 1.5 0 0 1-.358.55c-.098.1-.219.203-.323.293l-.02.017-8.498 7.284c-.186.16-.374.32-.539.438-.154.11-.461.313-.868.323a1.5 1.5 0 0 1-1.2-.552c-.257-.315-.302-.68-.319-.87a8 8 0 0 1-.018-.693v-3.1a10.4 10.4 0 0 0-6.23 3.605A1 1 0 0 1 2 19.163v-.612a10.67 10.67 0 0 1 8-10.322V4.703c0-.245 0-.492.018-.693.017-.19.062-.555.32-.87M12 5.173v3.86a1 1 0 0 1-.828.986 8.67 8.67 0 0 0-6.95 6.588 12.4 12.4 0 0 1 6.71-2.535A1 1 0 0 1 12 15.07v3.756L19.963 12z"/></svg>