<svg xmlns="http://www.w3.org/2000/svg" viewBox="0 0 24 24" class="pdsicon"><path d="M2 3h1.133l.448 3.138 1.056 7.763c.063.46.117.861.188 1.19.075.35.183.693.389 1.018a3 3 0 0 0 1.28 1.117c.349.16.703.22 1.06.248.336.026.74.026 1.205.026h8.627c.442 0 .828 0 1.149-.024a3 3 0 0 0 1.019-.23 3 3 0 0 0 1.262-1.045c.209-.303.328-.626.417-.958.084-.31.156-.69.238-1.123l1.335-7.01c.027-.139.058-.3.072-.442.016-.16.026-.402-.068-.667a1.5 1.5 0 0 0-.659-.797 1.5 1.5 0 0 0-.643-.192A5 5 0 0 0 21.06 5H5.439l-.354-2.475c-.015-.103-.032-.23-.057-.34-.03-.13-.081-.311-.2-.495a1.5 1.5 0 0 0-.638-.554 1.5 1.5 0 0 0-.518-.127A5 5 0 0 0 3.327 1H2a1 1 0 0 0 0 2M7 21a2 2 0 1 1 4 0 2 2 0 0 1-4 0M15 21a2 2 0 1 1 4 0 2 2 0 0 1-4 0"/></svg>