<svg xmlns="http://www.w3.org/2000/svg" viewBox="0 0 16 16" class="pdsicon"><path d="M1.333 2h.755l.3 2.092.703 5.176c.042.307.079.574.126.793.05.233.122.462.259.678a2 2 0 0 0 .853.745c.233.107.469.147.707.165.224.018.493.018.803.018h5.752c.295 0 .551 0 .766-.016.228-.017.454-.055.679-.154a2 2 0 0 0 .841-.696c.14-.203.219-.418.278-.639.056-.207.104-.46.16-.749l.89-4.672c.017-.093.037-.2.047-.295.01-.107.017-.269-.045-.446a1 1 0 0 0-.44-.53 1 1 0 0 0-.428-.128c-.095-.009-.205-.009-.3-.009H3.627l-.236-1.65a3 3 0 0 0-.038-.226 1 1 0 0 0-.133-.33 1 1 0 0 0-.426-.37 1 1 0 0 0-.345-.085 3 3 0 0 0-.23-.005h-.885a.667.667 0 0 0 0 1.333M4.667 14a1.333 1.333 0 1 1 2.666 0 1.333 1.333 0 0 1-2.666 0M10 14a1.333 1.333 0 1 1 2.667 0A1.333 1.333 0 0 1 10 14"/></svg>