<svg xmlns="http://www.w3.org/2000/svg" viewBox="0 0 16 16" class="pdsicon"><path d="M1.333 2h.755l.3 2.092.704 5.176c.041.307.078.574.125.793.05.233.122.462.259.678a2 2 0 0 0 .853.745c.233.107.47.147.707.165.224.018.493.018.803.018h5.752c.295 0 .551 0 .766-.016a2 2 0 0 0 .679-.154 2 2 0 0 0 .841-.696 2 2 0 0 0 .278-.639c.056-.207.104-.46.16-.749l.89-4.672c.017-.093.037-.2.047-.295A1 1 0 0 0 15.207 4a1 1 0 0 0-.44-.53 1 1 0 0 0-.428-.128 4 4 0 0 0-.3-.009H3.627l-.236-1.65a3 3 0 0 0-.038-.226 1 1 0 0 0-.133-.33 1 1 0 0 0-.426-.37 1 1 0 0 0-.345-.085c-.076-.005-.16-.005-.23-.005h-.885a.667.667 0 0 0 0 1.333M4.667 14a1.333 1.333 0 1 1 2.666 0 1.333 1.333 0 0 1-2.666 0M10 14a1.333 1.333 0 1 1 2.667 0A1.333 1.333 0 0 1 10 14"/></svg>