<svg xmlns="http://www.w3.org/2000/svg" viewBox="0 0 24 24" class="pdsicon"><path fill-rule="evenodd" d="M22.648 1.212c.222.19.352.48.352.788v9c0 .552-.41 1-.917 1-.506 0-.916-.448-.916-1V3.28l-6.195 1.69a.84.84 0 0 1-.512-.021L9.213 3.04l-6.38 1.74v15.938l6.195-1.69a.84.84 0 0 1 .512.022l2.75 1c.48.175.74.741.58 1.265s-.68.807-1.16.633l-2.497-.908-7.074 1.93a.86.86 0 0 1-.786-.183A1.03 1.03 0 0 1 1 22V4c0-.459.286-.859.694-.97l7.334-2a.84.84 0 0 1 .512.021l5.247 1.908 7.074-1.93a.86.86 0 0 1 .787.183m-.833 14.08c.358.391.358 1.025 0 1.415L19.713 19l2.102 2.293c.358.39.358 1.024 0 1.414a.864.864 0 0 1-1.297 0l-2.101-2.293-2.102 2.293a.864.864 0 0 1-1.297 0 1.065 1.065 0 0 1 0-1.414L17.12 19l-2.102-2.293a1.065 1.065 0 0 1 0-1.414.864.864 0 0 1 1.297 0l2.102 2.293 2.101-2.293a.864.864 0 0 1 1.297 0"/></svg>