<svg xmlns="http://www.w3.org/2000/svg" viewBox="0 0 24 24" class="pdsicon"><path d="M16.241 2c.805 0 1.47 0 2.011.044.562.046 1.08.144 1.564.392a4 4 0 0 1 1.749 1.748c.247.485.345 1.002.391 1.564C22 6.29 22 6.954 22 7.758v8.483c0 .805 0 1.47-.044 2.011-.046.562-.144 1.08-.392 1.564a4 4 0 0 1-1.748 1.749c-.485.247-1.002.345-1.564.391-.541.044-1.206.044-2.01.044H7.758c-.805 0-1.47 0-2.011-.044-.562-.046-1.08-.144-1.564-.392a4 4 0 0 1-1.748-1.748c-.248-.485-.346-1.002-.392-1.564C2 17.711 2 17.046 2 16.242V7.758c0-.805 0-1.47.044-2.011.046-.562.144-1.08.392-1.564a4 4 0 0 1 1.748-1.748c.485-.248 1.002-.346 1.564-.392C6.29 2 6.954 2 7.758 2zM7.8 4c-.857 0-1.439 0-1.889.037-.438.036-.663.101-.82.18a2 2 0 0 0-.873.875c-.08.156-.145.38-.18.82C4 6.361 4 6.942 4 7.8v8.4c0 .857 0 1.439.037 1.889.036.438.101.663.18.82a2 2 0 0 0 .875.873c.156.08.38.145.82.18C6.361 20 6.942 20 7.8 20h8.4c.857 0 1.439 0 1.889-.037.438-.036.663-.101.82-.18a2 2 0 0 0 .873-.875c.08-.156.145-.38.18-.82.038-.45.038-1.031.038-1.888V7.8c0-.857 0-1.439-.037-1.889-.036-.438-.101-.663-.18-.82a2 2 0 0 0-.875-.873c-.156-.08-.38-.145-.82-.18C17.639 4 17.058 4 16.2 4zM12 5.25a1 1 0 0 1 1 1v.327h.032a3.064 3.064 0 0 1 3.065 3.064 1 1 0 0 1-2 0c0-.588-.477-1.064-1.065-1.064h-1.916a1.212 1.212 0 1 0 0 2.423h1.769A3.212 3.212 0 0 1 13 17.42v.33a1 1 0 1 1-2 0v-.327h-.031a3.064 3.064 0 0 1-3.065-3.064 1 1 0 1 1 2 0c0 .588.477 1.064 1.065 1.064h1.916a1.212 1.212 0 1 0 0-2.423h-1.769A3.212 3.212 0 0 1 11 6.58v-.33a1 1 0 0 1 1-1"/></svg>