<svg xmlns="http://www.w3.org/2000/svg" viewBox="0 0 24 24" class="pdsicon"><path fill-rule="evenodd" d="M16.241 2H7.76c-.805 0-1.47 0-2.01.044-.563.046-1.08.145-1.565.392a4 4 0 0 0-1.748 1.748c-.247.485-.346 1.002-.392 1.564C2 6.29 2 6.954 2 7.758v8.483c0 .805 0 1.47.044 2.01.046.563.145 1.08.392 1.565a4 4 0 0 0 1.748 1.748c.485.247 1.002.346 1.564.392C6.29 22 6.954 22 7.758 22h8.483c.805 0 1.47 0 2.01-.044.563-.046 1.08-.145 1.565-.392a4 4 0 0 0 1.748-1.748c.247-.485.346-1.002.392-1.564.044-.541.044-1.206.044-2.01V7.758c0-.805 0-1.47-.044-2.01-.046-.563-.145-1.08-.392-1.565a4 4 0 0 0-1.748-1.748c-.485-.247-1.002-.346-1.564-.392C17.71 2 17.046 2 16.242 2M5.092 4.218c.156-.08.38-.145.819-.18C6.361 4 6.943 4 7.8 4h8.4c.857 0 1.439 0 1.889.038.438.035.663.1.819.18a2 2 0 0 1 .874.874c.08.156.145.38.18.819C20 6.361 20 6.943 20 7.8v8.4c0 .857 0 1.439-.038 1.889-.035.438-.1.663-.18.819a2 2 0 0 1-.874.874c-.156.08-.38.145-.819.18-.45.037-1.032.038-1.889.038H7.8c-.857 0-1.439 0-1.889-.038-.438-.035-.663-.1-.819-.18a2 2 0 0 1-.874-.874c-.08-.156-.145-.38-.18-.819C4 17.639 4 17.057 4 16.2V7.8c0-.857 0-1.439.038-1.889.035-.438.1-.663.18-.819a2 2 0 0 1 .874-.874m7.909 2.032a1 1 0 0 0-2 0v.329A3.212 3.212 0 0 0 11.116 13h1.77a1.211 1.211 0 1 1 0 2.423h-1.918a1.064 1.064 0 0 1-1.064-1.064 1 1 0 1 0-2 0 3.064 3.064 0 0 0 3.064 3.064h.033v.327a1 1 0 1 0 2 0v-.329A3.212 3.212 0 0 0 12.885 11h-1.77a1.211 1.211 0 1 1 0-2.423h1.918c.587 0 1.064.476 1.064 1.064a1 1 0 0 0 2 0 3.064 3.064 0 0 0-3.065-3.064h-.031z"/></svg>