<svg xmlns="http://www.w3.org/2000/svg" viewBox="0 0 16 16" class="pdsicon"><g clip-path="url(#a)"><path fill-rule="evenodd" d="M7.657.095a.67.67 0 0 1 .686 0l6.667 4a.667.667 0 0 1 0 1.143l-6.667 4a.67.67 0 0 1-.686 0l-6.667-4a.667.667 0 0 1 0-1.143zM2.629 4.667 8 7.889l5.37-3.222L8 1.444zM.762 7.657a.667.667 0 0 1 .914-.229L8 11.223l6.324-3.795a.667.667 0 1 1 .686 1.144l-6.667 4a.67.67 0 0 1-.686 0l-6.667-4a.667.667 0 0 1-.228-.915m.914 3.105a.667.667 0 1 0-.686 1.143l6.667 4a.67.67 0 0 0 .686 0l6.667-4a.667.667 0 1 0-.686-1.143L8 14.556z"/></g><defs><clipPath id="a"><path d="M0 0h16v16H0z"/></clipPath></defs></svg>