<svg xmlns="http://www.w3.org/2000/svg" viewBox="0 0 24 24" class="pdsicon"><path fill-rule="evenodd" d="M12 3.118 19.764 7 12 10.882 4.236 7zm-.277-2.033a1.5 1.5 0 0 1 .554 0 1.9 1.9 0 0 1 .528.2l9.642 4.82a1 1 0 0 1 0 1.79l-9.642 4.82-.026.014c-.093.047-.286.146-.502.186a1.5 1.5 0 0 1-.554 0c-.216-.04-.41-.139-.502-.186l-.026-.013-9.642-4.822a1 1 0 0 1 0-1.788l9.642-4.822.026-.013c.093-.047.286-.146.502-.186M1.106 11.553a1 1 0 0 1 1.341-.447L12 15.882l9.553-4.776a1 1 0 1 1 .894 1.788l-9.642 4.821-.026.014c-.093.047-.286.146-.502.186a1.5 1.5 0 0 1-.554 0c-.216-.04-.41-.139-.502-.186l-.026-.014-9.642-4.82a1 1 0 0 1-.447-1.342m0 5a1 1 0 0 1 1.341-.447L12 20.882l9.553-4.776a1 1 0 1 1 .894 1.788l-9.642 4.822-.026.012c-.093.048-.286.147-.502.187a1.5 1.5 0 0 1-.554 0c-.216-.04-.41-.139-.502-.186l-.026-.014-9.642-4.82a1 1 0 0 1-.447-1.342"/></svg>