<svg xmlns="http://www.w3.org/2000/svg" viewBox="0 0 24 24" class="pdsicon"><path fill-rule="evenodd" d="M11.365 1.725a1.5 1.5 0 0 1 1.269 0c.344.16.539.438.64.595a7 7 0 0 1 .323.585l1.444 2.78 3.107-.61c.215-.043.438-.087.625-.106.186-.02.524-.04.864.129a1.5 1.5 0 0 1 .791.992c.09.369-.006.694-.066.87-.06.18-.153.387-.242.587l-1.287 2.893 2.415 2.049c.167.141.34.288.472.423.13.133.358.384.438.756a1.5 1.5 0 0 1-.283 1.237c-.233.3-.546.428-.722.49a7 7 0 0 1-.609.177l-3.064.798-.096 3.165c-.007.219-.014.446-.037.633-.022.185-.078.52-.318.814a1.5 1.5 0 0 1-1.143.55c-.38.005-.676-.16-.834-.258-.161-.099-.343-.235-.518-.367L12 19.01l-2.535 1.898c-.175.132-.357.268-.518.367-.158.098-.454.263-.834.258a1.5 1.5 0 0 1-1.143-.55c-.24-.294-.296-.629-.318-.814a7 7 0 0 1-.037-.633L6.52 16.37l-3.064-.798a7 7 0 0 1-.61-.176c-.174-.063-.488-.192-.721-.491a1.5 1.5 0 0 1-.283-1.237c.08-.371.307-.623.438-.756.132-.135.305-.282.472-.423l.027-.023 2.388-2.026-1.273-2.862-.014-.031a7 7 0 0 1-.242-.586c-.06-.177-.155-.502-.066-.871a1.5 1.5 0 0 1 .791-.992c.34-.17.678-.149.864-.13a7 7 0 0 1 .659.113l3.073.604 1.444-2.78.016-.03c.1-.194.206-.396.308-.555.1-.157.295-.434.64-.595M12 4.17l-1.336 2.57-.019.038c-.068.134-.208.412-.442.612a1.5 1.5 0 0 1-.688.331c-.302.059-.607-.005-.754-.036l-.041-.008-2.843-.559 1.177 2.647q.007.017.018.038c.062.137.192.42.202.728a1.5 1.5 0 0 1-.17.744c-.142.273-.382.472-.498.568l-.032.026-2.209 1.874 2.803.73.04.01c.147.037.45.112.696.296a1.5 1.5 0 0 1 .476.596c.124.282.13.594.133.744v.042l.089 2.895 2.319-1.736.033-.026c.119-.091.366-.28.664-.36.25-.065.513-.065.763 0 .298.08.545.269.664.36l.034.026 2.318 1.736.088-2.895.001-.042c.003-.15.009-.462.133-.743a1.5 1.5 0 0 1 .476-.597c.247-.184.55-.26.695-.295l.04-.01 2.804-.73-2.209-1.875-.032-.026c-.116-.096-.356-.295-.498-.568a1.5 1.5 0 0 1-.17-.744c.01-.308.14-.591.203-.728l.017-.038 1.177-2.647-2.842.559-.041.008c-.147.031-.453.095-.755.036a1.5 1.5 0 0 1-.687-.331c-.235-.2-.375-.478-.443-.612l-.019-.037z"/></svg>