<svg xmlns="http://www.w3.org/2000/svg" viewBox="0 0 16 16" class="pdsicon"><g clip-path="url(#a)"><path d="m10 1.333.786 2.043c.188.49.282.733.428.94q.197.273.47.47c.207.146.45.24.94.428L14.667 6l-2.043.786c-.49.188-.734.282-.94.428q-.273.197-.47.47c-.146.206-.24.45-.428.94L10 10.667l-.786-2.043c-.188-.49-.282-.734-.428-.94a2 2 0 0 0-.47-.47c-.206-.146-.45-.24-.94-.428L5.333 6l2.043-.786c.49-.188.734-.282.94-.428a2 2 0 0 0 .47-.47c.146-.207.24-.45.428-.94z" opacity=".12"/><path fill-rule="evenodd" d="M10 .667c.276 0 .523.17.622.427l.786 2.043c.2.52.263.67.35.792q.13.183.313.314c.121.086.271.149.792.349l2.043.786a.667.667 0 0 1 0 1.244l-2.043.786c-.52.2-.67.263-.792.35a1.3 1.3 0 0 0-.314.313c-.086.121-.149.271-.349.792l-.786 2.043a.667.667 0 0 1-1.244 0l-.786-2.043c-.2-.52-.263-.67-.35-.792a1.3 1.3 0 0 0-.313-.314c-.121-.086-.271-.149-.792-.349l-2.043-.786a.667.667 0 0 1 0-1.244l2.043-.786c.52-.2.67-.263.792-.35q.182-.13.314-.313c.086-.121.149-.271.349-.792l.786-2.043A.67.67 0 0 1 10 .667m0 2.523-.164.426-.026.068c-.162.422-.285.742-.48 1.017a2.7 2.7 0 0 1-.629.628c-.275.196-.595.319-1.017.481l-.068.026L7.19 6l.426.164.068.026c.422.162.742.285 1.017.48.243.173.456.386.628.629.196.275.319.595.481 1.017l.026.068.164.426.164-.426.026-.068c.162-.422.285-.742.48-1.017.173-.243.386-.456.629-.628.275-.196.595-.319 1.017-.481l.068-.026L12.81 6l-.425-.164-.068-.026c-.423-.162-.742-.285-1.017-.48a2.7 2.7 0 0 1-.628-.629c-.196-.275-.319-.594-.481-1.017l-.026-.068zM4.333 8c.253 0 .484.143.597.369l.523 1.045c.188.377.245.486.315.576q.105.136.242.242c.09.07.199.127.576.315l1.045.523a.667.667 0 0 1 0 1.193l-1.045.523c-.377.188-.486.246-.576.315a1.3 1.3 0 0 0-.242.242c-.07.09-.127.2-.315.576l-.523 1.046a.667.667 0 0 1-1.193 0l-.523-1.046c-.188-.377-.246-.485-.315-.576a1.3 1.3 0 0 0-.242-.242c-.09-.07-.2-.127-.576-.315l-1.046-.523a.667.667 0 0 1 0-1.193l1.046-.523c.377-.188.485-.245.576-.315q.136-.105.242-.242c.07-.09.127-.199.315-.576l.523-1.045A.67.67 0 0 1 4.333 8m0 2.157c-.13.26-.237.464-.378.647q-.211.273-.484.484a4 4 0 0 1-.647.379c.26.13.464.237.647.378q.273.211.484.484c.14.184.248.388.378.647.13-.26.238-.463.379-.647q.211-.273.484-.484c.183-.14.387-.248.647-.378a4 4 0 0 1-.647-.379 2.7 2.7 0 0 1-.484-.484 4 4 0 0 1-.379-.647"/></g><defs><clipPath id="a"><path d="M0 0h16v16H0z"/></clipPath></defs></svg>