<svg xmlns="http://www.w3.org/2000/svg" viewBox="0 0 24 24" class="pdsicon"><path fill-rule="evenodd" d="M6.745 3h10.51c.474 0 .883 0 1.22.028.356.029.71.093 1.05.266a2.7 2.7 0 0 1 1.18 1.18c.174.34.238.695.268 1.05.027.338.027.747.027 1.221v10.51c0 .474 0 .883-.027 1.22-.03.356-.094.71-.267 1.05a2.7 2.7 0 0 1-1.18 1.18c-.34.174-.695.238-1.05.268-.338.027-.747.027-1.221.027H6.745c-.474 0-.883 0-1.22-.027-.356-.03-.71-.094-1.05-.267a2.7 2.7 0 0 1-1.18-1.18c-.174-.34-.238-.695-.267-1.05A16 16 0 0 1 3 17.255V6.745c0-.474 0-.883.028-1.22.029-.356.093-.71.266-1.05a2.7 2.7 0 0 1 1.18-1.18c.34-.174.695-.238 1.05-.267A16 16 0 0 1 6.745 3"/></svg>