<svg xmlns="http://www.w3.org/2000/svg" viewBox="0 0 24 24" class="pdsicon"><path d="M12.616 17.926A1 1 0 0 0 13 18a1 1 0 0 0 .71-1.71L9.41 12l4.3-4.29A1.005 1.005 0 0 0 13 5.996a1 1 0 0 0-.71.294L8 10.59l-4.29-4.3a1.004 1.004 0 0 0-1.42 1.42L6.59 12l-4.3 4.29a1.004 1.004 0 0 0 1.42 1.42L8 13.41l4.29 4.3a1 1 0 0 0 .326.216M16.293 21.707A1 1 0 0 0 17 22h4a1 1 0 1 0 0-2h-2.8c.13-.28.38-.41.8-.61l.105-.051C20.208 18.805 22 17.937 22 16a3 3 0 0 0-.73-1.95 3.12 3.12 0 0 0-3.87-.65 3.05 3.05 0 0 0-1.34 1.6 1 1 0 1 0 1.88.68 1 1 0 0 1 .45-.54 1.16 1.16 0 0 1 .73-.13 1.1 1.1 0 0 1 .64.35A1 1 0 0 1 20 16c0 .6-.86 1.09-1.93 1.6A3.21 3.21 0 0 0 16 21a1 1 0 0 0 .293.707"/></svg>