<svg xmlns="http://www.w3.org/2000/svg" viewBox="0 0 24 24" class="pdsicon"><path d="M18.404 3.071A11 11 0 0 1 21.72 6.86 11 11 0 1 1 1 12a.92.92 0 1 1 1.83 0 9.16 9.16 0 0 0 14.43 7.53 9.161 9.161 0 1 0-12-13.74L8.02 5a.928.928 0 0 1 .49 1.79L3.22 8.2a.9.9 0 0 1-.28 0h-.07a.9.9 0 0 1-.31-.09L2.39 8l-.08-.08a1.2 1.2 0 0 1-.15-.27.13.13 0 0 0 0-.06 1 1 0 0 1 0-.27v-.08l.67-5.28a.92.92 0 0 1 1-.8.93.93 0 0 1 .8 1l-.24 1.92a11 11 0 0 1 14.014-1.009"/><path d="M10.98 15.49h1.87a1.31 1.31 0 0 0 0-2.62h-1.74a3.05 3.05 0 1 1 0-6.1v-.43a.87.87 0 0 1 1.74 0v.43h.14a2.91 2.91 0 0 1 2.91 2.91.87.87 0 0 1-1.74 0 1.16 1.16 0 0 0-1.12-1.16h-1.88a1.31 1.31 0 1 0 0 2.61h1.74a3.05 3.05 0 1 1 0 6.1v.43a.87.87 0 0 1-1.74 0v-.43h-.18a2.9 2.9 0 0 1-2.9-2.91.87.87 0 0 1 1.74 0 1.16 1.16 0 0 0 1.16 1.17"/></svg>