<svg xmlns="http://www.w3.org/2000/svg" viewBox="0 0 16 16" class="pdsicon"><path fill-rule="evenodd" d="M8 0C3.6 0 0 3.6 0 8s3.6 8 8 8 8-3.6 8-8-3.6-8-8-8Zm-.333 8.667c-.867 0-1.667.2-2.2.4a.64.64 0 0 0-.467.6v1h2.333c.2 0 .334.133.334.333s-.134.333-.334.333H4.667c-.2 0-.334-.133-.334-.333V9.667c0-.6.334-1.067.934-1.267.207-.083.44-.14.7-.204.157-.038.324-.079.5-.13l-.2-.2c-.334-.466-.534-1-.534-1.533V6c0-1.133.867-2 2-2 1.134 0 2 .867 2 2v.333c0 .534-.2 1.134-.533 1.534-.467.466-.933.8-1.533.8Zm4.333 3c0 .2-.133.333-.333.333H9c-.2 0-.333-.133-.333-.333V10c0-.2.133-.333.333-.333h.333V9c0-.533.467-1 1-1 .534 0 1 .467 1 1v.667h.334c.2 0 .333.133.333.333v1.667Zm-1.667-3c.2 0 .334.133.334.333v.667H10V9c0-.2.133-.333.333-.333Zm-1 2.666v-1h2v1h-2ZM7.667 4.667C8.4 4.667 9 5.267 9 6v.333c0 .4-.133.8-.4 1.134C8.333 7.8 8 8 7.667 8c-.334 0-.667-.2-.934-.533a1.81 1.81 0 0 1-.4-1.134V6c0-.733.6-1.333 1.334-1.333Z"/></svg>