<svg xmlns="http://www.w3.org/2000/svg" viewBox="0 0 24 24" class="pdsicon"><path d="M11.542 7.417c1.008 0 1.833.825 1.833 1.833v.458c0 .55-.183 1.1-.55 1.559S12 12 11.542 12c-.459 0-.917-.275-1.284-.733a2.5 2.5 0 0 1-.55-1.559V9.25c0-1.008.825-1.833 1.834-1.833M15.208 12.917c.275 0 .459.183.459.458v.917h-.917v-.917c0-.275.183-.458.458-.458M13.833 16.583v-1.375h2.75v1.375z"/><path fill-rule="evenodd" d="M12 1C5.95 1 1 5.95 1 12s4.95 11 11 11 11-4.95 11-11S18.05 1 12 1m-.458 11.917a8.9 8.9 0 0 0-3.025.55.88.88 0 0 0-.642.825v1.375h3.208c.275 0 .459.183.459.458s-.184.458-.459.458H7.417c-.275 0-.459-.183-.459-.458v-1.833c0-.825.459-1.467 1.284-1.742.285-.114.606-.193.962-.28q.324-.078.688-.178l-.275-.275c-.459-.642-.734-1.375-.734-2.109V9.25c0-1.558 1.192-2.75 2.75-2.75s2.75 1.192 2.75 2.75v.458c0 .734-.275 1.559-.733 2.109-.642.641-1.283 1.1-2.108 1.1m5.958 4.125c0 .275-.183.458-.458.458h-3.667c-.275 0-.458-.183-.458-.458V14.75c0-.275.183-.458.458-.458h.458v-.917c0-.733.642-1.375 1.375-1.375.734 0 1.375.642 1.375 1.375v.917h.459c.275 0 .458.183.458.458z"/></svg>