<svg xmlns="http://www.w3.org/2000/svg" viewBox="0 0 24 24" class="pdsicon"><path d="M17 11.002h4c.265 0 .52-.056.707-.243A1 1 0 0 0 21 9.05h-2.85c.13-.27.38-.4.8-.6q.037-.016.073-.034C20.17 7.875 22 7.009 22 5.05a3 3 0 0 0-.73-2 3.1 3.1 0 0 0-3.87-.64 3 3 0 0 0-1.34 1.6 1.002 1.002 0 0 0 .985 1.394 1 1 0 0 0 .895-.724 1 1 0 0 1 .45-.53 1.11 1.11 0 0 1 1.37.22.94.94 0 0 1 .24.63c0 .6-.86 1.1-1.93 1.6a3.22 3.22 0 0 0-2.07 3.4 1 1 0 0 0 1 1M12.616 17.926A1 1 0 0 0 13 18a1 1 0 0 0 .71-1.71L9.41 12l4.3-4.29A1.005 1.005 0 0 0 13 5.996a1 1 0 0 0-.71.294L8 10.59l-4.29-4.3a1.004 1.004 0 0 0-1.42 1.42L6.59 12l-4.3 4.29a1.004 1.004 0 0 0 1.42 1.42L8 13.41l4.29 4.3a1 1 0 0 0 .326.216"/></svg>