<svg xmlns="http://www.w3.org/2000/svg" viewBox="0 0 24 24" class="pdsicon"><path fill-rule="evenodd" d="M1.327 2.638a3 3 0 0 1 1.311-1.31c.378-.194.772-.265 1.167-.297C4.18 1 4.635 1 5.16 1h4.597c.407-.001.765-.002 1.114.082a3 3 0 0 1 .867.36c.306.186.559.44.846.728l7.757 7.757c.57.57 1.04 1.039 1.39 1.453.366.43.661.865.83 1.383a4 4 0 0 1 0 2.472c-.169.518-.464.953-.83 1.383-.35.414-.82.884-1.39 1.453l-2.27 2.27c-.57.57-1.039 1.04-1.453 1.39-.43.366-.865.661-1.383.83a4 4 0 0 1-2.472 0c-.518-.169-.953-.464-1.383-.83-.414-.35-.884-.82-1.453-1.39l-7.757-7.756c-.288-.288-.542-.541-.729-.847a3 3 0 0 1-.36-.867C1 10.524 1 10.165 1 9.758V5.162c0-.528 0-.982.03-1.357.033-.395.104-.788.297-1.167M8 6a2 2 0 1 0 0 4 2 2 0 0 0 0-4"/></svg>