<svg xmlns="http://www.w3.org/2000/svg" viewBox="0 0 16 16" class="pdsicon"><path fill-rule="evenodd" d="m10 14.7 4.7-4.7c.2-.2.4-.4.5-.6q.031-.093.062-.177c.075-.21.138-.386.138-.623 0-.3-.1-.6-.2-.8s-.2-.4-.4-.6L8.3.7H.7v7.6l6.5 6.4c.08.162.292.258.475.341l.125.059q.093.031.177.062c.21.075.386.138.623.138.3 0 .6-.1.8-.2s.4-.2.6-.4m-8-7V2h5.7l6.1 6.1s0 .1.1.2.1.3.1.3 0 .1-.1.2c0 .042 0 .067-.008.089-.01.03-.034.053-.092.111l-4.7 4.8s-.1.1-.2.1c-.1.1-.2.1-.3.1s-.2 0-.3-.1c-.1 0-.1 0-.2-.1zm2.7-2.4c0-.3.3-.6.6-.6.4 0 .7.3.7.6 0 .4-.3.7-.7.7-.3 0-.6-.3-.6-.7m.6-2c-1.1 0-2 .9-2 2s.9 2 2 2 2-.9 2-2-.9-2-2-2"/></svg>