<svg xmlns="http://www.w3.org/2000/svg" viewBox="0 0 24 24" class="pdsicon"><path fill-rule="evenodd" d="M6.161 2H17.84c.527 0 .982 0 1.356.03.395.033.789.104 1.167.297a3 3 0 0 1 1.311 1.311c.193.378.264.772.296 1.167.031.375.031.83.031 1.356V17.84c0 .527 0 .982-.03 1.356-.033.395-.104.789-.297 1.167a3 3 0 0 1-1.311 1.311c-.378.193-.772.264-1.167.296-.375.031-.83.031-1.356.031H6.16c-.527 0-.981 0-1.356-.03-.395-.033-.789-.104-1.167-.297a3 3 0 0 1-1.311-1.311c-.193-.378-.264-.772-.296-1.167A18 18 0 0 1 2 17.838V6.162c0-.527 0-.981.03-1.356.033-.395.104-.789.297-1.167a3 3 0 0 1 1.311-1.311c.378-.193.772-.264 1.167-.296C5.18 2 5.635 2 6.161 2M4 10.465V17.8c0 .577 0 .949.024 1.232.022.272.06.372.085.422a1 1 0 0 0 .437.437c.05.025.15.063.422.085C5.25 20 5.623 20 6.2 20H8v-4.432c0-.252 0-.498.017-.706.019-.229.063-.499.201-.77a2 2 0 0 1 .874-.874c.271-.138.541-.182.77-.201.208-.017.454-.017.706-.017h2.864c.252 0 .498 0 .706.017.229.019.499.063.77.201a2 2 0 0 1 .874.874c.138.271.182.541.201.77.017.208.017.454.017.706V20h1.8c.577 0 .949 0 1.232-.024.272-.022.372-.06.422-.085a1 1 0 0 0 .437-.437c.025-.05.063-.15.085-.422C20 18.75 20 18.377 20 17.8v-7.335A4 4 0 0 1 18 11a4 4 0 0 1-3-1.354A4 4 0 0 1 12 11a4 4 0 0 1-3-1.354A4 4 0 0 1 6 11a4 4 0 0 1-2-.535M10 7a2 2 0 1 0 4 0 1 1 0 1 1 2 0 2 2 0 1 0 4 0v-.8c0-.577 0-.949-.024-1.232-.022-.272-.06-.373-.085-.422a1 1 0 0 0-.437-.437c-.05-.025-.15-.063-.422-.085C18.75 4 18.377 4 17.8 4H6.2c-.577 0-.949 0-1.232.024-.272.022-.373.06-.422.085a1 1 0 0 0-.437.437c-.025.05-.063.15-.085.422C4 5.25 4 5.623 4 6.2V7a2 2 0 1 0 4 0 1 1 0 0 1 2 0m4 13v-4.4c0-.296 0-.459-.01-.575l-.001-.014h-.014A8 8 0 0 0 13.4 15h-2.8a8 8 0 0 0-.589.011v.014c-.01.116-.011.278-.011.575V20z"/></svg>