<svg xmlns="http://www.w3.org/2000/svg" viewBox="0 0 16 16" class="pdsicon"><g clip-path="url(#a)"><path fill-rule="evenodd" d="m13.905.657 2 3.333a.67.67 0 0 1 .095.343 2.661 2.661 0 0 1-4.444 1.984 2.65 2.65 0 0 1-3.558 0 2.65 2.65 0 0 1-3.555 0A2.65 2.65 0 0 1 2.661 7h-.006A2.66 2.66 0 0 1 0 4.333c0-.12.033-.24.095-.343l2-3.333a.67.67 0 0 1 .572-.324h10.666a.67.67 0 0 1 .572.324m-2.347 7.258c.555.275 1.166.419 1.786.418q.331-.005.656-.062V15a.666.666 0 0 1-.667.667h-4v-4H6.667v4h-4A.667.667 0 0 1 2 15V8.273q.329.057.66.06a4 4 0 0 0 1.783-.416q.246.12.506.209a3.96 3.96 0 0 0 3.042-.206L8 7.917q.246.12.506.209a3.97 3.97 0 0 0 3.043-.207z"/></g><defs><clipPath id="a"><path d="M0 0h16v16H0z"/></clipPath></defs></svg>