<svg xmlns="http://www.w3.org/2000/svg" viewBox="0 0 24 24" class="pdsicon"><path d="M6.161 2H17.84c.527 0 .982 0 1.356.03.395.033.789.104 1.167.297a3 3 0 0 1 1.311 1.311c.193.378.264.772.296 1.167.031.375.031.83.031 1.356V7c0 .926-.997 2-2.667 2s-2.666-1.074-2.666-2a1 1 0 1 0-2 0c0 .926-.997 2-2.667 2S9.333 7.926 9.333 7a1 1 0 0 0-2 0c0 .926-.997 2-2.666 2S2 7.926 2 7v-.839c0-.527 0-.981.03-1.356.033-.395.104-.789.297-1.167a3 3 0 0 1 1.311-1.311c.378-.193.772-.264 1.167-.296C5.18 2 5.635 2 6.161 2"/><path fill-rule="evenodd" d="M19.333 11A5.3 5.3 0 0 0 22 10.282v7.557c0 .527 0 .982-.03 1.356-.033.395-.104.789-.297 1.167a3 3 0 0 1-1.311 1.311c-.378.193-.772.264-1.167.296-.375.031-.83.031-1.356.031H6.16c-.527 0-.981 0-1.356-.03-.395-.033-.789-.104-1.167-.297a3 3 0 0 1-1.311-1.311c-.193-.378-.264-.772-.296-1.167A18 18 0 0 1 2 17.839v-7.557A5.3 5.3 0 0 0 4.667 11c1.405 0 2.778-.562 3.666-1.514C9.222 10.438 10.595 11 12 11s2.778-.562 3.667-1.514c.888.952 2.26 1.514 3.666 1.514M10.6 14h2.8c.56 0 .84 0 1.054.109a1 1 0 0 1 .437.437C15 14.76 15 15.04 15 15.6V20H9v-4.4c0-.56 0-.84.109-1.054a1 1 0 0 1 .437-.437C9.76 14 10.04 14 10.6 14"/></svg>