<svg xmlns="http://www.w3.org/2000/svg" viewBox="0 0 16 16" class="pdsicon"><g clip-path="url(#a)"><path fill-rule="evenodd" d="m13.905.657 2 3.333a.667.667 0 0 1 .095.343 2.661 2.661 0 0 1-4.444 1.984 2.65 2.65 0 0 1-3.558 0 2.65 2.65 0 0 1-3.555 0A2.65 2.65 0 0 1 2.661 7h-.006A2.662 2.662 0 0 1 0 4.333c0-.12.033-.24.095-.343l2-3.333a.667.667 0 0 1 .572-.324h10.666a.667.667 0 0 1 .572.324Zm-2.347 7.258c.555.275 1.166.419 1.786.418.22-.003.44-.024.656-.062V15a.666.666 0 0 1-.667.667h-4v-4H6.667v4h-4A.667.667 0 0 1 2 15V8.273c.218.038.44.058.66.06a3.993 3.993 0 0 0 1.783-.416c.164.08.333.15.506.209a3.959 3.959 0 0 0 3.042-.206L8 7.917a3.965 3.965 0 0 0 3.55.003l.009-.005Z"/></g><defs><clipPath id="a"><path d="M0 0h16v16H0z"/></clipPath></defs></svg>