<svg xmlns="http://www.w3.org/2000/svg" viewBox="0 0 16 16" class="pdsicon"><g clip-path="url(#a)"><path fill-rule="evenodd" d="M6 0c-.3 0-.564.201-.643.491L3.49 7.333H.667A.667.667 0 0 0 0 8v7.333c0 .368.298.667.667.667h11.617a2.67 2.67 0 0 0 2.634-2.261l.718-4.667A2.667 2.667 0 0 0 13 6H8.667V2.667A2.667 2.667 0 0 0 6 0M3.333 14.667v-6h-2v6zm1.334-6.578 1.817-6.665a1.33 1.33 0 0 1 .85 1.243v4c0 .368.298.666.666.666h5a1.333 1.333 0 0 1 1.318 1.536l-.718 4.667a1.33 1.33 0 0 1-1.317 1.13H4.667z"/></g><defs><clipPath id="a"><path d="M0 0h16v16H0z"/></clipPath></defs></svg>