<svg xmlns="http://www.w3.org/2000/svg" viewBox="0 0 24 24" class="pdsicon"><path d="M16.005 9.243a1.5 1.5 0 0 1 .99 0l.157.066.127.07c.279.176.438.424.523.566.106.179.215.409.322.632l4.778 9.991.04.095a1 1 0 0 1-1.796.858l-.048-.09L19.456 18h-5.912l-1.642 3.432a1 1 0 0 1-1.804-.864l4.778-9.99c.107-.224.216-.454.322-.633.097-.162.291-.463.65-.636zM14.5 16h4l-2-4.183zM14 4a1 1 0 1 1 0 2h-1.465l-1.703 2.555a1 1 0 0 1-.125.152L8.914 10.5l1.793 1.793.068.076a1 1 0 0 1-1.406 1.406l-.076-.068L7.5 11.914l-2.793 2.793a1 1 0 1 1-1.414-1.414L6.086 10.5 4.293 8.707l-.068-.076A1 1 0 0 1 5.63 7.225l.076.068L7.5 9.086l1.723-1.723L10.132 6H2a1 1 0 0 1 0-2zM8 1a1 1 0 0 1 0 2H7a1 1 0 0 1 0-2z"/></svg>