<svg xmlns="http://www.w3.org/2000/svg" viewBox="0 0 16 16" class="pdsicon"><g clip-path="url(#a)"><path fill-rule="evenodd" d="M8.073 0h-.07A3.967 3.967 0 0 0 4 3.926v2.74H2a.667.667 0 0 0-.667.667v8c0 .368.299.667.667.667h12a.667.667 0 0 0 .667-.667v-8A.667.667 0 0 0 14 6.667H5.333v-2.73a2.634 2.634 0 0 1 2.66-2.604h.07a2.634 2.634 0 0 1 2.604 2.66.667.667 0 1 0 1.333.014A3.967 3.967 0 0 0 8.073 0M4.668 8H2.666v6.667h10.667V8zM8 10.667A.667.667 0 1 0 8 12a.667.667 0 0 0 0-1.333m-2 .666a2 2 0 1 1 4 0 2 2 0 0 1-4 0"/></g><defs><clipPath id="a"><path d="M0 0h16v16H0z"/></clipPath></defs></svg>