<svg xmlns="http://www.w3.org/2000/svg" viewBox="0 0 24 24" class="pdsicon"><path d="M23 2.833a.917.917 0 0 0-1.139-.889l-7.074 1.769-5.247-1.75a.9.9 0 0 0-.512-.019L1.694 3.777a.92.92 0 0 0-.694.89v16.5a.917.917 0 0 0 1.139.889l7.333-1.833a.917.917 0 1 0-.444-1.779l-6.195 1.549V5.383l6.38-1.596 5.247 1.75a.9.9 0 0 0 .512.019l6.195-1.549v7.076a.917.917 0 1 0 1.833 0z"/><path fill-rule="evenodd" d="M19.065 12.269a.917.917 0 0 0-1.297 0l-5.5 5.5a.92.92 0 0 0-.268.648v2.75c0 .506.41.916.917.916h2.75a.92.92 0 0 0 .648-.268l5.5-5.5a.917.917 0 0 0 0-1.297zm-5.232 7.981v-1.454l4.584-4.583 1.453 1.454-4.583 4.583z"/></svg>