<svg xmlns="http://www.w3.org/2000/svg" viewBox="0 0 24 24" class="pdsicon"><path d="M2.293 2.293a1 1 0 0 1 1.414 0l18 18a1 1 0 1 1-1.414 1.414l-4.219-4.219-.64 2.178c-.428 1.456-2.259 1.923-3.332.85L8.5 16.914l-3.793 3.793a1 1 0 1 1-1.414-1.414L7.086 15.5l-3.602-3.602c-1.073-1.073-.606-2.904.85-3.333l2.177-.64-4.218-4.218a1 1 0 0 1 0-1.414m2.605 8.191 8.618 8.618.948-3.224L8.12 9.535zm8.221-7.598a2 2 0 0 1 2.993-.188l5.19 5.19a2 2 0 0 1-.386 3.129l-2.901 1.74a1 1 0 0 1-1.03-1.714l2.903-1.741-5.19-5.19v.001l-1.741 2.902a1 1 0 1 1-1.715-1.03l1.741-2.901z"/></svg>