<svg xmlns="http://www.w3.org/2000/svg" viewBox="0 0 16 16" class="pdsicon"><g fill-rule="evenodd" clip-path="url(#a)"><path d="M.727 10.182c.402 0 .728.325.728.727v3.637h13.09v-3.637a.727.727 0 1 1 1.455 0v4.364a.727.727 0 0 1-.727.727H.727A.727.727 0 0 1 0 15.273v-4.364c0-.402.326-.727.727-.727"/><path d="M8 0c.402 0 .727.326.727.727v10.91a.727.727 0 0 1-1.454 0V.726C7.273.326 7.598 0 8 0"/><path d="M7.486.213a.727.727 0 0 1 1.028 0l4.364 4.364a.727.727 0 0 1-1.029 1.028L8 1.755l-3.85 3.85a.727.727 0 1 1-1.028-1.028z"/></g><defs><clipPath id="a"><path d="M0 0h16v16H0z"/></clipPath></defs></svg>