<svg xmlns="http://www.w3.org/2000/svg" viewBox="0 0 24 24" class="pdsicon"><path d="M18.78 14.878q.122 0 .23.052a.54.54 0 0 1 .23.22 2 2 0 0 1 .11.21l.77 1.55 1.72.26h.23a.52.52 0 0 1 .42.58.46.46 0 0 1-.14.29l-.16.17-1.24 1.21.29 1.71q.006.12 0 .24a.55.55 0 0 1-.05.31.54.54 0 0 1-.69.23l-.21-.11-1.54-.8-1.47.89-.21.11a.6.6 0 0 1-.32 0 .54.54 0 0 1-.34-.32.57.57 0 0 1-.06-.31 2 2 0 0 1 0-.24l.29-1.71-1.24-1.21-.17-.17a.6.6 0 0 1-.14-.29.52.52 0 0 1 .15-.43.5.5 0 0 1 .28-.15h.23l1.69-.26.77-1.55q.043-.111.11-.21a.5.5 0 0 1 .23-.22.5.5 0 0 1 .23-.052m-7.21-.378c.198.01.392.062.57.15.28.15.51.38.66.66.088.177.139.372.15.57v4.72a1.5 1.5 0 0 1-.15.57c-.15.28-.38.51-.66.66-.178.088-.372.14-.57.15H2.55a3 3 0 0 1-.35 0 1.51 1.51 0 0 1-1.22-1.22 3 3 0 0 1 0-.35 9.7 9.7 0 0 1 .08-1.78 5 5 0 0 1 4.05-4 9.7 9.7 0 0 1 1.64-.13zM7.895 2.419a5.5 5.5 0 0 1 7.499 4.008 5.5 5.5 0 1 1-7.499-4.008"/></svg>