<svg xmlns="http://www.w3.org/2000/svg" viewBox="0 0 16 16" class="pdsicon"><path fill-rule="evenodd" d="M15.207 9.883c.25.079.463.246.6.47.12.22.18.469.17.72v3a.58.58 0 0 1-.6.67h-2.68a.67.67 0 0 1 0-1.34h2v-2.21l-2.48-1a1.1 1.1 0 0 1-.6-.47 1.4 1.4 0 0 1-.2-.74v-.66a.69.69 0 0 1 .33-.6 1.9 1.9 0 0 0 .74-.74c.128-.318.196-.658.2-1v-1.32a1.9 1.9 0 0 0-.27-1 1.9 1.9 0 0 0-.73-.74 2.16 2.16 0 0 0-2 0 .69.69 0 1 1-.67-1.2 3.3 3.3 0 0 1 3.38 0 3 3 0 0 1 1.2 1.2 3.2 3.2 0 0 1 .47 1.74v1.32a3 3 0 0 1-.47 1.7 3 3 0 0 1-.87 1v.2zm-7.83-.33 2.47 1c.24.083.442.25.57.47.135.219.204.472.2.73v2.28a.58.58 0 0 1-.6.67H.687a.64.64 0 0 1-.67-.67v-2.21a1.4 1.4 0 0 1 .2-.74c.137-.224.35-.391.6-.47l2.54-1.07v-.2a3 3 0 0 1-.87-1 3 3 0 0 1-.47-1.67v-1.34a3.12 3.12 0 0 1 1-2.35 3.13 3.13 0 0 1 2.35-1 3.13 3.13 0 0 1 2.34 1 3.13 3.13 0 0 1 1.01 2.35v1.34a3.07 3.07 0 0 1-.47 1.68 3.1 3.1 0 0 1-.87 1z"/></svg>