<svg xmlns="http://www.w3.org/2000/svg" viewBox="0 0 16 16" class="pdsicon"><path d="M15.388 14.715H12.71c-.4 0-.668-.267-.668-.669 0-.401.267-.669.668-.669h2.008V11.17l-2.476-1.003c-.267-.067-.468-.268-.602-.468-.134-.201-.2-.469-.2-.736V8.36c0-.268.133-.469.334-.603.334-.2.535-.4.736-.735q.2-.503.2-1.004V4.68c0-.335-.066-.67-.267-1.004a1.94 1.94 0 0 0-.736-.736 2.13 2.13 0 0 0-2.007 0c-.335.201-.736.067-.937-.267-.2-.335-.067-.736.268-.937a3.32 3.32 0 0 1 3.345 0c.535.268.937.736 1.204 1.204.335.536.469 1.138.469 1.74v1.338a3 3 0 0 1-.469 1.673c-.2.401-.535.736-.87 1.003v.2l2.476 1.004c.268.067.468.268.602.469s.2.468.2.736v2.943c.068.335-.2.67-.601.67M10.035 14.715H.67c-.401 0-.669-.267-.669-.669V11.84c0-.268.067-.536.2-.736.135-.201.335-.402.603-.469l2.542-1.07v-.2c-.334-.268-.669-.603-.87-1.004a3 3 0 0 1-.468-1.673V5.349c0-.87.335-1.74 1.004-2.342.602-.669 1.471-1.003 2.341-1.003s1.74.334 2.342 1.003c.669.603 1.003 1.472 1.003 2.342v1.338A3 3 0 0 1 8.23 8.36c-.2.401-.535.736-.87 1.003v.2l2.476 1.004c.267.067.468.268.602.469s.2.468.2.736v2.274c.067.335-.2.67-.602.67m-8.697-1.338h8.028v-1.539l-2.475-1.003c-.268-.067-.468-.268-.602-.468a1.3 1.3 0 0 1-.268-.803v-.602c0-.268.134-.469.335-.602.334-.201.535-.402.736-.736.2-.268.267-.602.267-.937V5.349c0-.535-.2-1.07-.602-1.405-.736-.803-2.074-.803-2.81 0-.401.335-.602.87-.602 1.405v1.338c0 .335.067.67.268 1.004.2.334.401.535.736.736.2.066.334.334.334.535v.602c0 .267-.067.535-.2.736-.134.2-.335.401-.603.468l-2.542 1.07z"/></svg>