<svg xmlns="http://www.w3.org/2000/svg" viewBox="0 0 16 16" class="pdsicon"><path d="M6.333 8a3 3 0 1 0 0-6 3 3 0 0 0 0 6" opacity=".12"/><path fill-rule="evenodd" d="M6.333 2.667a2.333 2.333 0 1 0 0 4.666 2.333 2.333 0 0 0 0-4.666M2.667 5A3.667 3.667 0 1 1 10 5a3.667 3.667 0 0 1-7.333 0m7.403-2.985a.667.667 0 0 1 .893-.3 3.667 3.667 0 0 1 0 6.57.667.667 0 1 1-.593-1.194 2.333 2.333 0 0 0 0-4.182.667.667 0 0 1-.3-.894m-3.737 9.318c-1.692 0-3.275.884-4.475 2.412a.667.667 0 0 1-1.049-.823C2.204 11.147 4.145 10 6.333 10s4.13 1.147 5.525 2.922a.667.667 0 1 1-1.049.823c-1.2-1.528-2.783-2.412-4.476-2.412m5.06-.43a.667.667 0 0 1 .882-.333c1.118.506 2.108 1.323 2.916 2.351a.667.667 0 0 1-1.049.824c-.695-.884-1.52-1.554-2.417-1.96a.667.667 0 0 1-.332-.882"/></svg>