<svg xmlns="http://www.w3.org/2000/svg" viewBox="0 0 24 24" class="pdsicon"><path d="M18.78 14.878a.5.5 0 0 1 .23.052.54.54 0 0 1 .23.22q.061.102.11.21l.77 1.55 1.72.26h.23a.52.52 0 0 1 .42.58.46.46 0 0 1-.14.29l-.16.17-1.24 1.21.29 1.71q.006.12 0 .24a.55.55 0 0 1-.05.31.54.54 0 0 1-.69.23l-.21-.11-1.54-.8-1.47.89-.21.11a.6.6 0 0 1-.32 0 .54.54 0 0 1-.34-.32.57.57 0 0 1-.06-.31 2 2 0 0 1 0-.24l.29-1.71-1.24-1.21-.17-.17a.6.6 0 0 1-.14-.29.52.52 0 0 1 .15-.43.5.5 0 0 1 .28-.15h.23l1.69-.26.77-1.55q.043-.111.11-.21a.5.5 0 0 1 .23-.22.5.5 0 0 1 .23-.052M4.55 14.71a10.7 10.7 0 0 1 3-.21h4.5a1 1 0 0 1 0 2H7.5a10 10 0 0 0-2.37.13 3 3 0 0 0-2 2A10 10 0 0 0 3 21a1 1 0 0 1-2 0c-.07-.989.004-1.983.22-2.95a5 5 0 0 1 3.33-3.34M8.927 2.105A5.5 5.5 0 0 1 15.5 7.5 5.51 5.51 0 0 1 10 13 5.501 5.501 0 0 1 8.927 2.105M10 4a3.503 3.503 0 0 0-3.433 4.183A3.501 3.501 0 0 0 13.5 7.5 3.5 3.5 0 0 0 10 4"/></svg>