<svg xmlns="http://www.w3.org/2000/svg" viewBox="0 0 24 24" class="pdsicon"><path fill-rule="evenodd" d="M5.427 4.444a5.5 5.5 0 1 0 9.146 6.112 5.5 5.5 0 0 0-9.146-6.112M6.75 14.5h4.82c.198.01.392.062.57.15.28.15.51.38.66.66.088.178.14.372.15.57v4.72a1.5 1.5 0 0 1-.15.57c-.15.28-.38.51-.66.66a1.5 1.5 0 0 1-.57.15H2.55a3 3 0 0 1-.35 0 1.51 1.51 0 0 1-1.22-1.22 3 3 0 0 1 0-.35 9.7 9.7 0 0 1 .08-1.78 5 5 0 0 1 4.05-4 9.7 9.7 0 0 1 1.64-.13m12.26.43a.53.53 0 0 0-.46 0 .5.5 0 0 0-.23.22 1 1 0 0 0-.11.21l-.77 1.55-1.69.26h-.23a.5.5 0 0 0-.28.15.52.52 0 0 0-.15.43.6.6 0 0 0 .14.29l.17.17 1.24 1.21-.29 1.71q-.006.12 0 .24a.57.57 0 0 0 .06.31.54.54 0 0 0 .34.32.6.6 0 0 0 .32 0l.21-.11 1.47-.89 1.54.8.21.11a.54.54 0 0 0 .69-.23.55.55 0 0 0 .05-.31q.006-.12 0-.24l-.29-1.71 1.24-1.21.16-.17a.46.46 0 0 0 .14-.29.52.52 0 0 0-.42-.58h-.23l-1.72-.26-.77-1.55a2 2 0 0 0-.11-.21.54.54 0 0 0-.23-.22"/></svg>