<svg xmlns="http://www.w3.org/2000/svg" viewBox="0 0 16 16" class="pdsicon"><path fill-rule="evenodd" d="M3.95 8.454c.129.165.27.323.42.473-.979.172-1.83.413-2.488.635A2.777 2.777 0 0 0 0 12.196v2.76c0 .385.312.696.696.696h6.956a.696.696 0 1 0 0-1.391h-6.26v-2.065c0-.598.377-1.127.935-1.316 1.1-.37 2.765-.793 4.63-.793 1.243 0 2.295-.725 3.006-1.633.715-.912 1.167-2.103 1.167-3.237v-.695a4.174 4.174 0 0 0-8.347 0v.695c0 1.134.453 2.325 1.167 3.237Zm3.007-6.715a2.783 2.783 0 0 0-2.783 2.783v.695c0 .788.326 1.683.87 2.379.548.698 1.235 1.1 1.913 1.1.677 0 1.364-.402 1.911-1.1.545-.696.871-1.591.871-2.379v-.695a2.783 2.783 0 0 0-2.782-2.783ZM.696 14.956v.696-.695Z"/><path d="m13.597 10.874-1.075-2.178-1.075 2.178-2.404.349 1.74 1.695-.41 2.394 2.149-1.13 2.15 1.13-.411-2.394L16 11.223l-2.403-.35Z"/></svg>