<svg xmlns="http://www.w3.org/2000/svg" viewBox="0 0 24 24" class="pdsicon"><path fill-rule="evenodd" d="M1.293 1.293a1 1 0 0 1 1.414 0l20 20a1 1 0 0 1-1.414 1.414l-4.187-4.187A4 4 0 0 1 14 20H5a4 4 0 0 1-4-4V8a4 4 0 0 1 2.077-3.508L1.293 2.707a1 1 0 0 1 0-1.414m3.329 4.743A2 2 0 0 0 3 8v8a2 2 0 0 0 2 2h9a2 2 0 0 0 1.677-.909zm9.467.002C13.639 6 13.057 6 12.2 6H9.5a1 1 0 0 1 0-2h2.741c.805 0 1.47 0 2.01.044.563.046 1.08.145 1.565.392a4 4 0 0 1 1.748 1.748c.247.485.346 1.002.392 1.564.04.502.044 1.11.044 1.838l1.954-1.954c.19-.191.379-.379.543-.517.147-.123.457-.37.885-.403a1.5 1.5 0 0 1 1.259.52c.279.328.323.721.34.912.02.214.019.48.019.75v6.212c0 .27 0 .536-.019.75-.017.19-.061.584-.34.911a1.5 1.5 0 0 1-1.259.521c-.428-.034-.738-.28-.885-.403a9 9 0 0 1-.543-.517l-3.661-3.66A1 1 0 0 1 16 12V9.8c0-.857 0-1.439-.038-1.889-.035-.438-.1-.663-.18-.819a2 2 0 0 0-.874-.874c-.156-.08-.38-.145-.819-.18M18.414 12 21 14.586V9.414z"/></svg>