<svg xmlns="http://www.w3.org/2000/svg" viewBox="0 0 24 24" class="pdsicon"><path d="M12.882 2.712a1.5 1.5 0 0 1 1.135.393l.124.127.093.126c.196.297.233.618.248.786.02.223.018.505.018.788v14.136c0 .283.001.564-.018.787-.018.191-.062.585-.341.912a1.5 1.5 0 0 1-1.26.521c-.428-.034-.737-.28-.884-.403-.172-.144-.37-.343-.57-.543l-3.165-3.166a6 6 0 0 0-.175-.171l-.004-.003h-.002C8.034 17 7.968 17 7.837 17H6.1c-.264 0-.522.001-.739-.017a2 2 0 0 1-.77-.2 2 2 0 0 1-.873-.875 2 2 0 0 1-.201-.77c-.018-.217-.017-.474-.017-.738V9.6c0-.264-.001-.522.017-.739.018-.228.063-.498.2-.77a2 2 0 0 1 .875-.873c.271-.138.54-.183.77-.201C5.577 6.999 5.835 7 6.1 7h1.737c.13 0 .197 0 .244-.003l.006-.002a6 6 0 0 0 .175-.17l3.165-3.167c.2-.2.398-.399.57-.543.147-.123.457-.37.885-.403M18.5 12a5.97 5.97 0 0 0-1.075-3.428 1 1 0 0 1 1.64-1.144A7.97 7.97 0 0 1 20.5 12c0 1.698-.53 3.276-1.435 4.572a1 1 0 0 1-1.64-1.144A5.97 5.97 0 0 0 18.5 12m-13 2.4c0 .297.001.46.01.576l.002.011.012.002c.117.01.28.011.576.011h1.737c.197 0 .459-.006.716.056q.23.055.441.162l.137.077.16.111c.152.118.28.251.385.356l2.824 2.823V5.415L9.676 8.237c-.14.14-.32.33-.545.467a2 2 0 0 1-.578.24c-.257.061-.52.055-.716.055H6.1c-.297 0-.459 0-.576.01h-.012l-.001.014c-.01.117-.011.28-.011.576z"/></svg>