<svg xmlns="http://www.w3.org/2000/svg" viewBox="0 0 24 24" class="pdsicon"><path d="M9.755 3.877c.54-.93.84-1.45 1.43-1.72a2 2 0 0 1 1.63 0c.59.27.89.79 1.43 1.73l8.23 14.2c.55.95.85 1.47.78 2.12a2 2 0 0 1-.81 1.4 3.52 3.52 0 0 1-2.23.36H3.775a3.52 3.52 0 0 1-2.22-.39 2 2 0 0 1-.81-1.41c-.07-.64.23-1.16.78-2.11l8.22-14.17m-6.97 16.08q.5.027 1 0h16.44q.5.027 1 0c-.09-.19-.29-.54-.48-.87l-8.22-14.21a9 9 0 0 0-.52-.85c-.12.17-.32.51-.51.85l-8.27 14.2q-.242.43-.44.88m9.23-1.47a1 1 0 1 1 0-2 1 1 0 0 1 0 2m0-4a1 1 0 0 1-1-1v-4a1 1 0 0 1 2 0v4a1 1 0 0 1-1.01 1z"/></svg>