<svg xmlns="http://www.w3.org/2000/svg" viewBox="0 0 16 16" class="pdsicon"><g clip-path="url(#a)"><path fill-rule="evenodd" d="M8.531 1.447a1.33 1.33 0 0 0-1.08 0 1.4 1.4 0 0 0-.56.493c-.12.167-.246.387-.386.627l-5.507 9.52c-.14.247-.273.467-.353.667a1.3 1.3 0 0 0 .386 1.68c.213.139.46.22.714.233h12.5c.258-.017.507-.105.72-.253a1.33 1.33 0 0 0 .546-.94 1.47 1.47 0 0 0-.153-.74c-.087-.18-.213-.4-.353-.667l-5.527-9.5c-.14-.24-.267-.46-.387-.627a1.4 1.4 0 0 0-.56-.493m.127 4.893a.667.667 0 1 0-1.333 0v2.667a.667.667 0 0 0 1.333 0zm-.667 4.667a.667.667 0 1 0 0 1.334.667.667 0 0 0 0-1.334"/></g><defs><clipPath id="a"><path d="M0 0h16v16H0z"/></clipPath></defs></svg>