<svg xmlns="http://www.w3.org/2000/svg" viewBox="0 0 24 24" class="pdsicon"><path fill-rule="evenodd" d="M16 3a5 5 0 0 0-4.858 6.188l.005.02c.055.228.104.428.136.59.031.153.068.364.053.584-.02.298-.082.518-.22.783-.146.283-.395.53-.6.734l-.061.06-6.248 6.248a1.121 1.121 0 0 0 1.586 1.586l6.248-6.248.06-.06c.204-.206.451-.455.734-.601.265-.138.485-.2.783-.22.22-.015.43.022.584.053.162.032.362.08.59.136l.02.005q.57.14 1.188.142a5 5 0 0 0 4.97-5.555l-1.654 1.653c-.179.179-.352.353-.511.488a2 2 0 0 1-.687.402 2 2 0 0 1-1.236 0 2 2 0 0 1-.687-.402 9 9 0 0 1-.51-.488l-.783-.782a9 9 0 0 1-.488-.512 2 2 0 0 1-.402-.686 2 2 0 0 1 0-1.236c.094-.29.254-.512.402-.686.135-.16.31-.333.488-.512l1.653-1.654A5 5 0 0 0 16 3M9 8a7 7 0 0 1 9.882-6.38 1 1 0 0 1 .295 1.617l-2.838 2.839c-.21.21-.324.325-.4.414l-.009.01.009.01c.076.09.19.205.4.414l.737.738c.21.21.325.323.414.4l.01.008.01-.009c.09-.076.205-.19.414-.4l2.839-2.838a1 1 0 0 1 1.618.295 7 7 0 0 1-8.043 9.683 16 16 0 0 0-.583-.134l-.013.011a9 9 0 0 0-.287.281l-6.248 6.248a3.121 3.121 0 1 1-4.414-4.414l6.248-6.248c.144-.144.225-.225.28-.287l.012-.013-.01-.053a16 16 0 0 0-.124-.53A7 7 0 0 1 9 8m.35 2.229-.005.016v.002l-.005.017v.001"/></svg>