<svg xmlns="http://www.w3.org/2000/svg" viewBox="0 0 16 16" class="pdsicon"><path fill-rule="evenodd" d="M11.228 0a6.024 6.024 0 0 1 1.694.23l1.094.312-2.387 2.377 1.455 1.448L15.44 2.02l.334 1.034a4.6 4.6 0 0 1 .08 2.55l-.003.011-.003.01a4.467 4.467 0 0 1-3.384 3.129l-.019.004-.02.003a5.165 5.165 0 0 1-1.785-.05l-5.549 6.24a2.862 2.862 0 0 1-4.28.166l-.002-.003a2.951 2.951 0 0 1 .177-4.232l.004-.002 6.252-5.512a3.482 3.482 0 0 1-.104-.877 4.416 4.416 0 0 1 4.037-4.49L11.202 0h.026Zm.037 1.333a3.083 3.083 0 0 0-2.793 3.14v.024c-.003.285.05.569.158.833l.177.438-6.932 6.11-.001.001a1.617 1.617 0 0 0-.097 2.318 1.529 1.529 0 0 0 2.29-.097l.01-.012 6.116-6.878.405.119a3.832 3.832 0 0 0 1.615.116 3.134 3.134 0 0 0 2.353-2.18 3.26 3.26 0 0 0 .091-.583l-1.573 1.566-3.345-3.33 1.592-1.584h-.066Z"/></svg>