<svg xmlns="http://www.w3.org/2000/svg" viewBox="0 0 16 16" class="pdsicon"><g clip-path="url(#a)"><path fill-rule="evenodd" d="M11.228 0a6 6 0 0 1 1.695.23l1.093.312-2.387 2.377 1.455 1.448 2.357-2.346.334 1.034a4.6 4.6 0 0 1 .08 2.55l-.002.011-.003.01a4.47 4.47 0 0 1-3.385 3.129l-.019.004-.019.003a5.2 5.2 0 0 1-1.785-.05l-5.55 6.24a2.86 2.86 0 0 1-4.28.166l-.002-.003a2.95 2.95 0 0 1 .177-4.232l.004-.002 6.253-5.512a3.5 3.5 0 0 1-.105-.877 4.416 4.416 0 0 1 4.037-4.49L11.202 0zm.037 1.333a3.083 3.083 0 0 0-2.793 3.14v.024c-.003.285.05.569.158.833l.177.438-6.932 6.11-.001.001a1.62 1.62 0 0 0-.097 2.318 1.528 1.528 0 0 0 2.29-.097l.01-.011 6.116-6.879.405.119a3.8 3.8 0 0 0 1.616.116 3.13 3.13 0 0 0 2.352-2.18 3.3 3.3 0 0 0 .092-.583l-1.574 1.566-3.345-3.33 1.592-1.584z"/></g><defs><clipPath id="a"><path d="M0 0h16v16H0z"/></clipPath></defs></svg>